<svg xmlns="http://www.w3.org/2000/svg" xmlns:xlink="http://www.w3.org/1999/xlink" viewBox="0 0 388 389"><defs><style>.cls-1{fill:#f9f6f2;}.cls-2{fill:url(#linear-gradient);}.cls-3{fill:#0c0c0c;}.cls-4{fill:#e8b878;}.cls-5{fill:#231f20;}</style><linearGradient id="linear-gradient" x1="4.01" y1="193.1" x2="384.31" y2="193.1" gradientUnits="userSpaceOnUse"><stop offset="0" stop-color="#b48e5d"/><stop offset="0.19" stop-color="#8f6e3f"/><stop offset="0.38" stop-color="#c79d61"/><stop offset="0.54" stop-color="#eebe79"/><stop offset="0.63" stop-color="#fdca82"/><stop offset="0.7" stop-color="#ebbb77"/><stop offset="0.86" stop-color="#be955c"/><stop offset="1" stop-color="#8f6e3f"/></linearGradient></defs><title>barcode</title><g id="Layer_4" data-name="Layer 4"><rect class="cls-1" x="10.94" y="9.88" width="366.44" height="366.44" rx="18.04" ry="18.04"/><path class="cls-2" d="M359.34,9.88a18,18,0,0,1,18,18V358.28a18,18,0,0,1-18,18H29a18,18,0,0,1-18-18V27.92a18,18,0,0,1,18-18H359.34m0-6.93H29a25,25,0,0,0-25,25V358.28a25,25,0,0,0,25,25H359.34a25,25,0,0,0,25-25V27.92a25,25,0,0,0-25-25Z"/><path class="cls-3" d="M58.37,89.07c-4.15,0-8.3,0-12.45,0A19.15,19.15,0,0,1,27,73.33a19.71,19.71,0,0,1-.32-3.52q0-12.39,0-24.78A19.33,19.33,0,0,1,46,25.68c8.26,0,16.52-.14,24.77,0,8.09.16,14,3.94,17.61,11.28a17.4,17.4,0,0,1,1.72,7.61c0,8.52.07,17,0,25.56A19.16,19.16,0,0,1,74.73,88.71a20.36,20.36,0,0,1-3.77.34C66.76,89.1,62.56,89.07,58.37,89.07Zm0-9.1c2.93,0,5.86,0,8.79,0a15,15,0,0,0,2.35-.12A13.63,13.63,0,0,0,81,66.36q0-8.92,0-17.83A13.63,13.63,0,0,0,67.27,34.78q-8.85,0-17.7,0A13.63,13.63,0,0,0,35.83,48.5c0,5.9.06,11.8,0,17.7A13.65,13.65,0,0,0,49.48,80C52.45,79.92,55.43,80,58.4,80Z"/><path class="cls-3" d="M329.91,89.07c-4.15,0-8.3,0-12.45,0a19.15,19.15,0,0,1-18.92-15.71,20.39,20.39,0,0,1-.32-3.65q0-12.32,0-24.64A19.2,19.2,0,0,1,314.33,26a20.13,20.13,0,0,1,3.39-.27c8.13,0,16.25,0,24.38,0a19.24,19.24,0,0,1,18.62,13.46,18.87,18.87,0,0,1,.89,5.67c0,8.39,0,16.78,0,25.17A19.17,19.17,0,0,1,346.26,88.7a19.89,19.89,0,0,1-3.77.35C338.3,89.1,334.1,89.07,329.91,89.07Zm0-9.1h9.31a13.56,13.56,0,0,0,13.32-13.44q0-9.11,0-18.23a12.94,12.94,0,0,0-2.57-7.83,13.34,13.34,0,0,0-11.11-5.68c-5.94-.06-11.89,0-17.83,0a16.51,16.51,0,0,0-2,.18A13.65,13.65,0,0,0,307.31,48.6c.08,5.9.06,11.8,0,17.7A13.63,13.63,0,0,0,320.94,80C323.92,79.92,326.89,80,329.86,80Z"/><path class="cls-3" d="M58.46,360.57c-4.15,0-8.3,0-12.45,0a19.15,19.15,0,0,1-19-15.66,20.33,20.33,0,0,1-.34-3.65q0-12.39,0-24.78a19.21,19.21,0,0,1,16.21-19.05,21.53,21.53,0,0,1,3.39-.25c8.08,0,16.17,0,24.25,0A19.24,19.24,0,0,1,89.21,310.6a18.67,18.67,0,0,1,.91,5.67c0,8.43.05,16.87,0,25.3a19.18,19.18,0,0,1-15.43,18.66,20.26,20.26,0,0,1-3.64.33C66.85,360.59,62.65,360.57,58.46,360.57Zm-.13-9.1h0c3.15,0,6.3,0,9.44,0A13.52,13.52,0,0,0,81,338.06c0-6.08,0-12.15,0-18.23A13,13,0,0,0,78.44,312a13.31,13.31,0,0,0-11.1-5.7c-5.94-.06-11.89,0-17.83,0a14.56,14.56,0,0,0-2.08.2A13.53,13.53,0,0,0,35.83,319.8c0,6,0,12,0,18a13.64,13.64,0,0,0,13.6,13.71C52.39,351.43,55.36,351.47,58.33,351.47Z"/><path class="cls-3" d="M329.86,233.33q-13.24,0-26.47,0a6.37,6.37,0,0,1-2.05-.29,3.89,3.89,0,0,1-2.52-4.15,3.79,3.79,0,0,1,3.56-3.42c1.83-.09,3.67-.06,5.5-.06h48.36c.39,0,.79,0,1.18,0a3.92,3.92,0,0,1,3.63,3.93,4,4,0,0,1-3.67,3.94c-.43,0-.87,0-1.31,0Z"/><path class="cls-3" d="M58.56,225.4H84.38c.48,0,1,0,1.44,0a3.92,3.92,0,0,1,3.73,4,4,4,0,0,1-3.83,3.91c-.39,0-.79,0-1.18,0H32.25c-.39,0-.79,0-1.18,0a4,4,0,0,1-3.79-3.95A3.88,3.88,0,0,1,31,225.44c1.92-.08,3.84,0,5.77,0H58.56Z"/><path class="cls-3" d="M248.45,53.42q13.24,0,26.47,0a6.6,6.6,0,0,1,2.06.27,3.92,3.92,0,0,1-.93,7.6,13.65,13.65,0,0,1-1.44.06H222.32c-.44,0-.87,0-1.31,0a3.86,3.86,0,0,1-3.65-4,3.94,3.94,0,0,1,3.83-3.88c.39,0,.79,0,1.18,0Z"/><path class="cls-3" d="M302.75,315.9h26.08c.48,0,1,0,1.44,0a3.85,3.85,0,0,1,3.59,3.8,3.94,3.94,0,0,1-3.5,4.05,10.21,10.21,0,0,1-1.18,0q-26.41,0-52.81,0a6.79,6.79,0,0,1-2.18-.29,3.85,3.85,0,0,1-2.49-4.28,3.8,3.8,0,0,1,3.54-3.29c1.92-.09,3.84-.06,5.76-.06h21.75Z"/><path class="cls-3" d="M298.31,134.9H319.8c.44,0,.87,0,1.31,0a3.93,3.93,0,0,1,3.73,4,4,4,0,0,1-3.82,3.92c-.3,0-.61,0-.92,0q-21.88,0-43.77,0a6.69,6.69,0,0,1-2.18-.3,3.86,3.86,0,0,1-2.47-4.29,3.81,3.81,0,0,1,3.56-3.27c1.92-.09,3.84-.06,5.76-.06h17.3Z"/><path class="cls-3" d="M262,297.8h21.49c.48,0,1,0,1.44,0a3.92,3.92,0,0,1,3.7,3.87,4,4,0,0,1-3.73,4c-.35,0-.7,0-1,0H240.23a7.66,7.66,0,0,1-1.69-.11,3.94,3.94,0,0,1,.68-7.79l5.76,0h17Z"/><path class="cls-3" d="M289.23,98.7h21.49c.44,0,.87,0,1.31,0a3.85,3.85,0,0,1,3.72,3.95,3.93,3.93,0,0,1-3.76,3.94c-.3,0-.61,0-.92,0q-21.88,0-43.77,0a6.83,6.83,0,0,1-2.18-.29,3.87,3.87,0,0,1-2.51-4.15,3.79,3.79,0,0,1,3.56-3.42c2-.1,3.93-.06,5.89-.06h17.17Z"/><path class="cls-3" d="M316.33,153h21.49c.48,0,1,0,1.44,0a3.92,3.92,0,0,1,3.69,3.88,4,4,0,0,1-3.61,4,11.74,11.74,0,0,1-1.18,0H294.53a7.08,7.08,0,0,1-2.06-.24,3.91,3.91,0,0,1,.93-7.63c1.92-.09,3.84-.05,5.76-.05h17.17Z"/><path class="cls-3" d="M339,171.1h17c.48,0,1,0,1.44,0A3.91,3.91,0,0,1,361,175a4,4,0,0,1-3.55,4,10.38,10.38,0,0,1-1.18,0q-17.36,0-34.72,0a6.78,6.78,0,0,1-2.18-.29,3.87,3.87,0,0,1-2.5-4.15,3.78,3.78,0,0,1,3.57-3.41c1.92-.09,3.84-.06,5.76-.06H339Z"/><path class="cls-3" d="M121.71,79.46h-17c-.44,0-.87,0-1.31,0a3.93,3.93,0,0,1-3.69-4,4,4,0,0,1,3.86-3.89c.26,0,.52,0,.79,0q17.43,0,34.85,0a6.67,6.67,0,0,1,2.06.27,3.92,3.92,0,0,1-.92,7.6,15,15,0,0,1-1.57.06Z"/><path class="cls-3" d="M302.9,279.7h16.9c.44,0,.87,0,1.31,0a3.93,3.93,0,0,1,3.73,4,4,4,0,0,1-3.82,3.92c-.3,0-.61,0-.92,0q-17.36,0-34.72,0a6.73,6.73,0,0,1-2.18-.3,3.87,3.87,0,0,1-2.49-4.16,3.78,3.78,0,0,1,3.57-3.4c1.92-.09,3.84-.06,5.76-.06H302.9Z"/><path class="cls-3" d="M140,270.62c5.76,0,11.53,0,17.29,0a6.61,6.61,0,0,1,1.93.24,3.92,3.92,0,0,1-.85,7.63,14,14,0,0,1-1.44.05h-34.2c-.44,0-.87,0-1.31,0a3.93,3.93,0,0,1-3.67-3.9,4,4,0,0,1,3.76-4c.39,0,.79,0,1.18,0Z"/><path class="cls-3" d="M339.1,189.2H356c.44,0,.87,0,1.31,0a3.93,3.93,0,0,1,3.73,4,4,4,0,0,1-3.82,3.92c-.3,0-.61,0-.92,0q-17.36,0-34.72,0a6.72,6.72,0,0,1-2.18-.3,3.87,3.87,0,0,1-2.48-4.16,3.78,3.78,0,0,1,3.58-3.4c1.92-.09,3.84-.06,5.76-.06H339.1Z"/><path class="cls-3" d="M329.9,125.82c5.85,0,11.7,0,17.55,0a6.14,6.14,0,0,1,1.92.27,3.93,3.93,0,0,1-.93,7.6,13.6,13.6,0,0,1-1.44.06H312.82l-1.18,0a4,4,0,0,1,.18-7.9c3.32,0,6.64,0,10,0h8.12Z"/><path class="cls-3" d="M162.51,26.3c4.28,0,8.56,0,12.84,0a6.74,6.74,0,0,1,2.18.29A3.82,3.82,0,0,1,180,30.76a4,4,0,0,1-3.58,3.44c-.35,0-.7,0-1,0q-12.9,0-25.8,0a6.44,6.44,0,0,1-1.8-.21,3.92,3.92,0,0,1,.86-7.68c.43,0,.87,0,1.31,0Z"/><path class="cls-3" d="M289.26,124.73c-4.37,0-8.73,0-13.1,0a6.09,6.09,0,0,1-1.8-.23,3.92,3.92,0,0,1,.94-7.63c1.83-.09,3.67-.05,5.5-.05h21.09c.39,0,.79,0,1.18,0a3.92,3.92,0,0,1,3.68,3.88,4,4,0,0,1-3.74,4c-.74.05-1.48,0-2.23,0Z"/><path class="cls-3" d="M252.87,341.93c-4.32,0-8.64,0-13,0a5.91,5.91,0,0,1-1.92-.29,3.87,3.87,0,0,1-2.49-4.28,3.8,3.8,0,0,1,3.53-3.29c1.83-.09,3.67-.06,5.5-.06h21.22c.35,0,.7,0,1,0a3.93,3.93,0,0,1,3.76,3.94,4,4,0,0,1-3.79,3.94c-1.39.06-2.79,0-4.19,0Z"/><path class="cls-3" d="M334.26,314.76H321.81c-.44,0-.87,0-1.31,0a3.93,3.93,0,0,1-3.63-3.93,4,4,0,0,1,3.66-3.95c.26,0,.52,0,.79,0q13.1,0,26.2,0a5.86,5.86,0,0,1,1.67.22,3.92,3.92,0,0,1-.78,7.66c-.48,0-1,0-1.44.05Z"/><path class="cls-3" d="M180.65,306.82c4.45,0,8.91,0,13.36,0a4,4,0,0,1,4.08,3.48,3.9,3.9,0,0,1-3.24,4.36,11.09,11.09,0,0,1-1.57.09q-12.7,0-25.41,0a7.26,7.26,0,0,1-2.31-.29,3.84,3.84,0,0,1-2.47-4.28,4,4,0,0,1,3.55-3.33c.56-.05,1.13,0,1.7,0Z"/><path class="cls-3" d="M144.46,53.42c4.41,0,8.82,0,13.23,0a4,4,0,0,1,4.21,3.49,3.89,3.89,0,0,1-3.25,4.35,11.18,11.18,0,0,1-1.57.09q-12.7,0-25.41,0a7.22,7.22,0,0,1-2.31-.3,3.84,3.84,0,0,1-2.47-4.29,4,4,0,0,1,3.55-3.32c.65-.06,1.31,0,2,0Z"/><path class="cls-3" d="M153.37,98.7c4.32,0,8.64,0,13,0a6.67,6.67,0,0,1,2.06.26,3.84,3.84,0,0,1,2.54,4.24,4,4,0,0,1-3.49,3.39,10.52,10.52,0,0,1-1.18,0q-12.84,0-25.67,0a6.78,6.78,0,0,1-2.18-.29,3.87,3.87,0,0,1-2.5-4.16,3.79,3.79,0,0,1,3.57-3.41c1.83-.09,3.67-.05,5.5-.06h8.38Z"/><path class="cls-3" d="M289.16,179c-4.32,0-8.64,0-13,0a6.24,6.24,0,0,1-1.92-.26,3.87,3.87,0,0,1-2.58-4.34,3.82,3.82,0,0,1,3.57-3.26c1.79-.09,3.58-.06,5.37-.06q10.67,0,21.35,0a7.06,7.06,0,0,1,2.19.26,3.85,3.85,0,0,1,2.54,4.12,4,4,0,0,1-3.53,3.5,11,11,0,0,1-1.18,0Z"/><path class="cls-3" d="M53.92,151.86c-4.28,0-8.56,0-12.84,0a7.06,7.06,0,0,1-2.19-.27,3.85,3.85,0,0,1-2.52-4.26,4,4,0,0,1,3.51-3.37,9.31,9.31,0,0,1,1,0q13,0,25.93,0a6.25,6.25,0,0,1,2,.3,3.92,3.92,0,0,1-1,7.56,13.25,13.25,0,0,1-1.44.06Z"/><path class="cls-3" d="M289.23,252.52c4.45,0,8.91,0,13.36,0a3.93,3.93,0,0,1,4.07,3.34,3.87,3.87,0,0,1-3.32,4.52,12.63,12.63,0,0,1-1.57.07H276.63l-1.18,0a4,4,0,0,1,.16-7.9C280.15,252.49,284.69,252.52,289.23,252.52Z"/><path class="cls-3" d="M207.81,107.72c4.32,0,8.64,0,13,0a6.07,6.07,0,0,1,1.8.24,3.92,3.92,0,0,1-.84,7.63,13.94,13.94,0,0,1-1.44.05H195.15c-.44,0-.87,0-1.31,0a3.93,3.93,0,0,1-3.67-3.9,4,4,0,0,1,3.75-4c.61,0,1.22,0,1.83,0Z"/><path class="cls-3" d="M298.24,242.36H285.67c-.44,0-.87,0-1.31,0a3.93,3.93,0,0,1-3.69-4,4,4,0,0,1,3.86-3.88c.22,0,.44,0,.65,0q13,0,26.06,0a6.11,6.11,0,0,1,1.92.27,3.93,3.93,0,0,1-.92,7.6,13.63,13.63,0,0,1-1.44.06Z"/><path class="cls-3" d="M58.37,106.63c-3,0-5.94,0-8.9,0a3.94,3.94,0,0,1-4-3.38,3.9,3.9,0,0,1,3.38-4.48,5.83,5.83,0,0,1,.65,0c5.94,0,11.87,0,17.81,0a4.8,4.8,0,0,1,1.66.29,3.86,3.86,0,0,1,2.45,4.17,3.94,3.94,0,0,1-3.59,3.43c-.82.07-1.66,0-2.49,0Z"/><path class="cls-3" d="M130.82,279.7c2.79,0,5.59,0,8.38,0a6.77,6.77,0,0,1,2.06.25,3.87,3.87,0,0,1,2.55,4.12,4,4,0,0,1-3.51,3.52,5.65,5.65,0,0,1-.65,0c-5.89,0-11.78,0-17.68,0a3.94,3.94,0,0,1-4.11-3.29,3.84,3.84,0,0,1,3.4-4.56c1.43-.11,2.88-.06,4.32-.07Z"/><path class="cls-3" d="M257.38,79.46c-2.79,0-5.59,0-8.38,0a6.13,6.13,0,0,1-2.16-.36,3.81,3.81,0,0,1-2.3-4.13,4,4,0,0,1,3.48-3.4,5.31,5.31,0,0,1,.65,0c5.89,0,11.78,0,17.68,0a4,4,0,0,1,4.16,3.54,3.91,3.91,0,0,1-3.18,4.29,11.3,11.3,0,0,1-1.7.1Z"/><path class="cls-3" d="M40.19,133.76c-2.79,0-5.59,0-8.38,0a6.14,6.14,0,0,1-2.17-.36,3.81,3.81,0,0,1-2.31-4.13,4,4,0,0,1,3.48-3.41,5.27,5.27,0,0,1,.65,0c5.89,0,11.78,0,17.68,0a4,4,0,0,1,4.17,3.54,3.91,3.91,0,0,1-3.17,4.29,11.25,11.25,0,0,1-1.7.1Z"/><path class="cls-3" d="M257.45,287.62c-3,0-6,0-9,0a3.92,3.92,0,0,1-3.72-5.2,3.68,3.68,0,0,1,3.25-2.65,12.68,12.68,0,0,1,1.44-.05h17a3.93,3.93,0,0,1,4.13,4,4,4,0,0,1-4.18,3.94c-2.66,0-5.32,0-8,0h-.92Z"/><path class="cls-3" d="M148.9,296.66c-2.79,0-5.59,0-8.38,0a6.56,6.56,0,0,1-2.17-.32,3.93,3.93,0,0,1,1.21-7.57q9.36-.09,18.72,0a3.93,3.93,0,0,1,0,7.84c-.82.07-1.66,0-2.49.05Z"/><path class="cls-3" d="M275.61,296.66c-2.84,0-5.67,0-8.51,0a6.1,6.1,0,0,1-2.16-.36,3.81,3.81,0,0,1-2.3-4.14,4,4,0,0,1,3.48-3.4,5.38,5.38,0,0,1,.65,0c5.89,0,11.78,0,17.68,0a4,4,0,0,1,4.16,3.55,3.91,3.91,0,0,1-3.18,4.28,12.42,12.42,0,0,1-1.83.1Z"/><path class="cls-3" d="M329.9,305.73c-3,0-5.94,0-8.9,0a3.94,3.94,0,0,1-4.05-3.36,3.89,3.89,0,0,1,3.35-4.5,11.55,11.55,0,0,1,1.31-.06c5.54,0,11.09,0,16.63,0a6.74,6.74,0,0,1,2.18.28,3.81,3.81,0,0,1,2.46,4.28,3.89,3.89,0,0,1-3.8,3.33c-2.27.05-4.54,0-6.81,0H329.9Z"/><path class="cls-3" d="M348,106.63c-3,0-6,0-9,0a3.95,3.95,0,0,1-.66-7.85,10.87,10.87,0,0,1,1.31-.06c5.59,0,11.17,0,16.76,0a6.5,6.5,0,0,1,2.06.26,3.85,3.85,0,0,1,2.51,4.26,3.9,3.9,0,0,1-3.77,3.38c-1.83.06-3.67,0-5.5,0H348Z"/><path class="cls-3" d="M112.78,324.92c3,0,5.94,0,8.9,0a3.91,3.91,0,0,1,4,3.3,3.87,3.87,0,0,1-3.27,4.55,12,12,0,0,1-1.57.08H104.58l-1.18,0a3.88,3.88,0,0,1-3.72-4,4,4,0,0,1,3.94-3.92c1.35,0,2.71,0,4.06,0h5.11Z"/><path class="cls-3" d="M275.48,332.86c-2.79,0-5.59,0-8.38,0a6.12,6.12,0,0,1-2.16-.36,3.81,3.81,0,0,1-2.3-4.13,4,4,0,0,1,3.48-3.4,5.35,5.35,0,0,1,.65,0c5.89,0,11.78,0,17.68,0a4,4,0,0,1,4.16,3.55,3.91,3.91,0,0,1-3.18,4.29,11.35,11.35,0,0,1-1.7.1Z"/><path class="cls-3" d="M167.07,352.1c2.79,0,5.59,0,8.38,0a6.46,6.46,0,0,1,2.05.28,3.84,3.84,0,0,1,2.49,4.15,4,4,0,0,1-3.56,3.47,9,9,0,0,1-.92,0c-5.67,0-11.35,0-17,0a6.08,6.08,0,0,1-1.8-.24,3.88,3.88,0,0,1-2.7-4.15,3.77,3.77,0,0,1,3.64-3.48c3.14-.08,6.28,0,9.43,0Z"/><path class="cls-3" d="M203.15,52.32c-3,0-6,0-9,0a3.92,3.92,0,0,1-3.72-5.2,3.68,3.68,0,0,1,3.25-2.65,12.65,12.65,0,0,1,1.44-.05h17a3.93,3.93,0,0,1,4.13,4,4,4,0,0,1-4.18,3.94c-2.66,0-5.32,0-8,0h-.92Z"/><path class="cls-3" d="M348.1,134.9c2.79,0,5.59,0,8.38,0a6.3,6.3,0,0,1,2,.29,3.83,3.83,0,0,1,2.46,4.16,4,4,0,0,1-3.58,3.44c-.3,0-.61,0-.92,0q-8.51,0-17,0a5.94,5.94,0,0,1-1.67-.21,3.9,3.9,0,0,1-2.8-4.08,3.81,3.81,0,0,1,3.68-3.58c2.83-.09,5.67,0,8.51-.06h.92Z"/><path class="cls-3" d="M311.8,180.12c3,0,5.94,0,8.9,0a4,4,0,0,1,4.09,3.47,3.89,3.89,0,0,1-3.22,4.37,10.9,10.9,0,0,1-1.57.09H303.64c-.39,0-.79,0-1.18,0a3.93,3.93,0,0,1-3.69-4,4,4,0,0,1,3.86-3.88c1.79-.06,3.58,0,5.37,0h3.8Z"/><path class="cls-3" d="M348,360c-3,0-6,0-9,0a3.92,3.92,0,0,1-3.72-5.2,3.68,3.68,0,0,1,3.25-2.65,12.55,12.55,0,0,1,1.44-.05h17a3.93,3.93,0,0,1,4.13,4,4,4,0,0,1-4.18,3.94c-2.62,0-5.24,0-7.86,0h-1Z"/><path class="cls-3" d="M311.78,115.66c-2.79,0-5.59,0-8.38,0a6.53,6.53,0,0,1-2.17-.33,3.82,3.82,0,0,1-2.42-4.07,4,4,0,0,1,3.53-3.5,9.23,9.23,0,0,1,1,0c5.63,0,11.26,0,16.89,0a6.29,6.29,0,0,1,2,.3,3.92,3.92,0,0,1-1,7.56,13.32,13.32,0,0,1-1.44.06Z"/><path class="cls-3" d="M94.68,207.3c2.79,0,5.59,0,8.38,0a6.4,6.4,0,0,1,2.05.28,3.84,3.84,0,0,1,2.48,4.15,4,4,0,0,1-3.57,3.46c-.3,0-.61,0-.92,0-5.67,0-11.35,0-17,0a6,6,0,0,1-1.8-.24,3.88,3.88,0,0,1-2.68-4.16,3.77,3.77,0,0,1,3.65-3.47c3.14-.08,6.28,0,9.43,0Z"/><path class="cls-3" d="M40.45,234.42c2.92,0,5.85,0,8.77,0a4,4,0,0,1,4.08,3.49,3.9,3.9,0,0,1-3.24,4.35,11.14,11.14,0,0,1-1.57.09H32.12c-.39,0-.79,0-1.18,0a3.93,3.93,0,0,1-3.67-4,4,4,0,0,1,3.87-3.86c2-.06,4,0,6,0h3.27Z"/><path class="cls-3" d="M58.44,270.62c3,0,5.94,0,8.9,0a3.94,3.94,0,0,1,4,3.38,3.89,3.89,0,0,1-3.24,4.46,10.4,10.4,0,0,1-1.44.08H49.28a3.92,3.92,0,0,1-3.9-3.94,4,4,0,0,1,4-4c2.23,0,4.45,0,6.68,0h2.36Z"/><path class="cls-3" d="M94.75,116.8c2.75,0,5.5,0,8.25,0a6.76,6.76,0,0,1,2.06.25,3.87,3.87,0,0,1,2.55,4.12,4,4,0,0,1-3.51,3.52,5.7,5.7,0,0,1-.65,0c-5.89,0-11.78,0-17.68,0a3.94,3.94,0,0,1-4.1-3.3,3.84,3.84,0,0,1,3.41-4.55c1.39-.11,2.79-.06,4.19-.06Z"/><path class="cls-3" d="M330,116.8c2.79,0,5.59,0,8.38,0a6.3,6.3,0,0,1,2,.29,3.83,3.83,0,0,1,2.46,4.16,4,4,0,0,1-3.58,3.44c-.3,0-.61,0-.92,0q-8.51,0-17,0a5.93,5.93,0,0,1-1.67-.21,3.9,3.9,0,0,1-2.8-4.08,3.81,3.81,0,0,1,3.68-3.58c2.83-.09,5.67,0,8.51-.06H330Z"/><path class="cls-3" d="M85.56,261.6c2.79,0,5.59,0,8.38,0a6.77,6.77,0,0,1,2.06.26,3.84,3.84,0,0,1,2.54,4.24,4,4,0,0,1-3.48,3.39,7.92,7.92,0,0,1-.92,0H77a5.75,5.75,0,0,1-1.55-.18,3.86,3.86,0,0,1-2.86-4.28,3.79,3.79,0,0,1,3.68-3.42c3.1-.07,6.2,0,9.29,0Z"/><path class="cls-3" d="M212.4,26.3c2.75,0,5.5,0,8.25,0a6.72,6.72,0,0,1,2.06.26,3.85,3.85,0,0,1,2.53,4.25,4,4,0,0,1-3.49,3.38,9.34,9.34,0,0,1-1,0c-5.63,0-11.26,0-16.89,0a6.26,6.26,0,0,1-2-.3,3.87,3.87,0,0,1-2.47-4.29,3.77,3.77,0,0,1,3.55-3.27c3.18-.08,6.37,0,9.55,0Z"/><path class="cls-3" d="M85.57,197.13c-3,0-6,0-9,0a3.92,3.92,0,0,1-4-4.38,3.86,3.86,0,0,1,3.36-3.47,11.34,11.34,0,0,1,1.31-.06c5.54,0,11.08,0,16.63,0a6.81,6.81,0,0,1,2.18.28,3.86,3.86,0,0,1,2.47,4.4,3.93,3.93,0,0,1-3.78,3.21c-2.18.05-4.36,0-6.55,0H85.57Z"/><path class="cls-3" d="M230.32,314.76c-2.79,0-5.59,0-8.38,0a6.56,6.56,0,0,1-2.05-.28,3.86,3.86,0,0,1-2.5-4.27,4,4,0,0,1,3.52-3.35,5.79,5.79,0,0,1,.65,0c5.85,0,11.69,0,17.54,0a5.25,5.25,0,0,1,1.79.3,3.93,3.93,0,0,1-1,7.56,13.56,13.56,0,0,1-1.44.06Z"/><path class="cls-3" d="M230.35,351c-2.79,0-5.59,0-8.38,0a6.72,6.72,0,0,1-2.06-.27,3.94,3.94,0,0,1,1.1-7.62c6.24-.06,12.48-.07,18.72,0a3.94,3.94,0,0,1,0,7.84c-.82.07-1.66,0-2.48.05h-6.94Z"/><path class="cls-3" d="M302.74,343c3,0,6,0,9,0a3.92,3.92,0,0,1,4,4.37,3.85,3.85,0,0,1-3.22,3.47A10.84,10.84,0,0,1,311,351H294.6c-.39,0-.79,0-1.18,0a3.95,3.95,0,0,1,.15-7.88c1.74-.06,3.49,0,5.24,0h3.93Z"/><path class="cls-3" d="M302.75,224.26c-2.79,0-5.59,0-8.38,0a6.75,6.75,0,0,1-2.06-.26,3.86,3.86,0,0,1-2.53-4.25,4,4,0,0,1,3.49-3.39,8.87,8.87,0,0,1,1,0q8.44,0,16.89,0a6.29,6.29,0,0,1,1.8.22,3.85,3.85,0,0,1,2.73,4.24,3.79,3.79,0,0,1-3.56,3.41c-1.87.11-3.75.06-5.63.07h-3.8Z"/><path class="cls-3" d="M35.81,142.82c-1.57,0-3.14.05-4.71,0a4,4,0,0,1-3-6.33A3.41,3.41,0,0,1,30.85,135c3.27,0,6.54-.08,9.81,0a3.75,3.75,0,0,1,3.6,3.9,3.89,3.89,0,0,1-3.74,3.94C38.95,142.87,37.38,142.82,35.81,142.82Z"/><path class="cls-3" d="M252.88,323.82c-1.53,0-3.05.05-4.58,0a4,4,0,0,1-3-6.33,3.4,3.4,0,0,1,2.76-1.52c3.27,0,6.54-.08,9.81,0a3.75,3.75,0,0,1,3.6,3.9,3.94,3.94,0,0,1-3.74,4h-4.84Z"/><path class="cls-3" d="M180.65,35.33c1.53,0,3.05,0,4.58,0a3.93,3.93,0,0,1,3.69,2.83,4,4,0,0,1-1.44,4.31,3.79,3.79,0,0,1-2.32.76c-3.05,0-6.1,0-9.16,0a3.91,3.91,0,0,1-3.92-4,4,4,0,0,1,4.12-3.87c1.48,0,3,0,4.45,0Z"/><path class="cls-3" d="M207.72,43.21c-1.66,0-3.32.11-5,0a3.88,3.88,0,0,1-2.84-6.08,3.76,3.76,0,0,1,3.19-1.76c3.1,0,6.19-.06,9.29,0a4,4,0,0,1,3.85,3.87,3.87,3.87,0,0,1-3.69,4c-1.61.1-3.22,0-4.84,0Z"/><path class="cls-3" d="M153.5,315.94c1.61,0,3.23-.06,4.84,0a3.73,3.73,0,0,1,3.45,2.9,3.79,3.79,0,0,1-1.59,4.23,4.66,4.66,0,0,1-2.19.71c-3.05.08-6.1.07-9.16,0a3.95,3.95,0,0,1-.07-7.89h4.71Z"/><path class="cls-3" d="M262,35.33c1.57,0,3.14,0,4.71,0a4,4,0,0,1,1.68,7.44,3.52,3.52,0,0,1-1.49.41c-3.27,0-6.54.14-9.81,0a3.94,3.94,0,0,1,.46-7.85c1.48,0,3,0,4.45,0Z"/><path class="cls-3" d="M62.89,142.82c-1.57,0-3.14.05-4.71,0a3.93,3.93,0,0,1-3.69-3.31,3.89,3.89,0,0,1,2.44-4.3,4.44,4.44,0,0,1,1.53-.28c3,0,5.93,0,8.9,0a3.94,3.94,0,0,1,4.08,4,4,4,0,0,1-4.22,3.9c-1.44,0-2.88,0-4.32,0Z"/><path class="cls-3" d="M253,44.43c1.61,0,3.23,0,4.84,0a3.59,3.59,0,0,1,3.28,2.23,3.79,3.79,0,0,1-.43,4.07,3.7,3.7,0,0,1-3,1.56c-3.1,0-6.19.05-9.29,0a4,4,0,0,1-3.87-4,3.89,3.89,0,0,1,3.8-3.89c1.57-.07,3.14,0,4.71,0Z"/><path class="cls-3" d="M280,52.32c-1.53,0-3.05,0-4.58,0a3.95,3.95,0,0,1-1.36-7.6,2.76,2.76,0,0,1,1-.25c3.36,0,6.71-.07,10.07,0a3.64,3.64,0,0,1,3.3,2.74,4,4,0,0,1-3.72,5.1c-1.57.05-3.14,0-4.71,0Z"/><path class="cls-3" d="M352.53,252.53c1.57,0,3.14,0,4.71,0a4,4,0,0,1,1.7,7.44,3.51,3.51,0,0,1-1.49.41c-3.27,0-6.54.14-9.81,0a3.94,3.94,0,0,1,.44-7.85c1.48,0,3,0,4.45,0Z"/><path class="cls-3" d="M334.49,270.63c1.53,0,3.05,0,4.58,0A4,4,0,0,1,340.9,278a3.38,3.38,0,0,1-1.48.44c-3.31,0-6.63.07-9.94,0a3.49,3.49,0,0,1-3.25-2.44,3.77,3.77,0,0,1,.6-3.94,3.85,3.85,0,0,1,3.08-1.48c1.53,0,3.05,0,4.58,0Z"/><path class="cls-3" d="M99.13,234.43c1.57,0,3.14,0,4.71,0a4,4,0,0,1,1.69,7.44,3.51,3.51,0,0,1-1.49.41c-3.27,0-6.54.14-9.81,0a3.94,3.94,0,0,1,.45-7.85c1.48,0,3,0,4.45,0Z"/><path class="cls-3" d="M153.47,62.54c1.61,0,3.23-.08,4.84,0a3.84,3.84,0,0,1,3.5,4.81,3.79,3.79,0,0,1-3.5,3c-3.22.08-6.45.09-9.68,0a3.93,3.93,0,0,1,0-7.85c1.61-.08,3.23,0,4.84,0Z"/><path class="cls-3" d="M198.76,62.53c1.57,0,3.14,0,4.71,0a3.62,3.62,0,0,1,3.36,2.31,3.78,3.78,0,0,1-.44,4,3.67,3.67,0,0,1-3,1.6c-3.14,0-6.28.06-9.42,0a3.94,3.94,0,0,1,0-7.87l.39,0h4.45Z"/><path class="cls-3" d="M135.33,306.83c1.57,0,3.14,0,4.71,0a4,4,0,0,1,1.69,7.44,3.51,3.51,0,0,1-1.49.41c-3.27,0-6.54.14-9.81,0a3.94,3.94,0,0,1,.45-7.85c1.48,0,3,0,4.45,0Z"/><path class="cls-3" d="M45,171.14c1.57,0,3.14-.08,4.71,0A3.93,3.93,0,0,1,49.6,179c-3.18.06-6.37.08-9.55,0a3.85,3.85,0,0,1-3.69-4A3.8,3.8,0,0,1,40,171.15c1.65-.08,3.31,0,5,0Z"/><path class="cls-3" d="M289.35,270.63c1.53,0,3.05-.05,4.58,0a3.9,3.9,0,0,1,3.58,2.8,3.79,3.79,0,0,1-1.32,4.21,4.18,4.18,0,0,1-2.14.83c-3.22.09-6.45.12-9.68,0a3.83,3.83,0,0,1-3.7-4,4,4,0,0,1,3.84-3.9h4.84Z"/><path class="cls-3" d="M307.35,324.93c1.53,0,3.05,0,4.58,0a3.93,3.93,0,0,1,3.69,2.83,4,4,0,0,1-1.43,4.31,3.79,3.79,0,0,1-2.32.76c-3.05,0-6.1,0-9.16,0a3.91,3.91,0,0,1-3.92-4,4,4,0,0,1,4.12-3.87c1.48,0,3,0,4.45,0Z"/><path class="cls-3" d="M35.82,252.53c1.53,0,3.05,0,4.58,0a3.93,3.93,0,0,1,3.71,2.8,3.79,3.79,0,0,1-1.32,4.21,4.17,4.17,0,0,1-2.14.83c-3.22.09-6.45.12-9.68,0a3.83,3.83,0,0,1-3.7-4,4,4,0,0,1,3.83-3.9h4.71Z"/><path class="cls-3" d="M352.44,287.62c-1.53,0-3.05,0-4.58,0a3.95,3.95,0,0,1-1.39-7.59,3.1,3.1,0,0,1,1.13-.27c3.27,0,6.54-.07,9.81,0a3.68,3.68,0,0,1,3.48,2.86,3.93,3.93,0,0,1-1.54,4.27,4.11,4.11,0,0,1-2.46.74c-1.48,0-3,0-4.45,0Z"/><path class="cls-3" d="M253,270.63c1.57,0,3.14,0,4.71,0a3.9,3.9,0,0,1,3.58,2.79,3.79,3.79,0,0,1-1.31,4.22,4.16,4.16,0,0,1-2.13.83c-3.22.09-6.45.12-9.68,0a3.83,3.83,0,0,1-3.71-4,4,4,0,0,1,3.83-3.91H253Z"/><path class="cls-3" d="M54,153c1.44,0,2.88,0,4.32,0a4,4,0,1,1-.14,7.92c-3,0-5.93,0-8.9,0a3.89,3.89,0,0,1-3.82-3.31,3.84,3.84,0,0,1,2.43-4.29,8.81,8.81,0,0,1,1.79-.3,1.76,1.76,0,0,1,.26,0H54Z"/><path class="cls-3" d="M81.1,153c1.61,0,3.23-.06,4.84,0a3.73,3.73,0,0,1,3.45,2.9,3.79,3.79,0,0,1-1.59,4.23,4.66,4.66,0,0,1-2.19.71c-3.05.08-6.1.07-9.16,0a3.95,3.95,0,0,1-.07-7.89H81.1Z"/><path class="cls-3" d="M352.6,243.54c1.61,0,3.23-.06,4.84,0a3.72,3.72,0,0,1,3.45,2.9,3.79,3.79,0,0,1-1.59,4.23,4.67,4.67,0,0,1-2.19.71c-3.05.08-6.1.07-9.16,0a3.95,3.95,0,0,1-.06-7.89h4.71Z"/><path class="cls-3" d="M207.79,278.51c-1.66,0-3.32.08-5,0a3.78,3.78,0,0,1-3.56-3.94,3.83,3.83,0,0,1,3.65-3.89q4.84-.14,9.68,0a3.91,3.91,0,0,1,3.66,3.92,3.86,3.86,0,0,1-3.62,3.92c-1.61.1-3.22,0-4.84,0Z"/><path class="cls-3" d="M334.51,234.43c1.53,0,3.05,0,4.58,0a4,4,0,0,1,1.68,7.48,3.64,3.64,0,0,1-1.5.39c-3.23,0-6.45.06-9.68,0a3.55,3.55,0,0,1-3.32-2.36,3.78,3.78,0,0,1,.58-4.05,3.85,3.85,0,0,1,3.08-1.46c1.53,0,3.05,0,4.58,0Z"/><path class="cls-3" d="M71.94,169.9c-1.66,0-3.32.07-5,0a3.7,3.7,0,0,1-3.31-2.73,3.9,3.9,0,0,1,3.46-5.08c3.22-.13,6.45-.1,9.68,0a3.93,3.93,0,0,1,0,7.85c-1.61.09-3.23,0-4.84,0Z"/><path class="cls-3" d="M298.17,269.52c-1.57,0-3.14.05-4.71,0a3.94,3.94,0,0,1-1.32-7.57,3.4,3.4,0,0,1,1.26-.29c3.23,0,6.46-.1,9.68,0a3.85,3.85,0,0,1,3.45,5.15,4,4,0,0,1-3.78,2.71c-1.53,0-3.05,0-4.58,0Z"/><path class="cls-3" d="M216.78,98.73c1.61,0,3.23,0,4.84,0a3.59,3.59,0,0,1,3.28,2.23,3.79,3.79,0,0,1-.43,4.07,3.7,3.7,0,0,1-3,1.56c-3.1,0-6.19.05-9.29,0a4,4,0,0,1-3.87-4,3.89,3.89,0,0,1,3.8-3.89c1.57-.07,3.14,0,4.71,0Z"/><path class="cls-3" d="M162.55,97.5c-1.7,0-3.4.07-5.1,0a3.69,3.69,0,0,1-3.29-2.75,3.9,3.9,0,0,1,3.48-5.06c3.22-.12,6.45-.1,9.68,0a3.83,3.83,0,0,1,3.64,3.9,3.78,3.78,0,0,1-3.57,3.93c-1.61.1-3.22,0-4.84,0Z"/><path class="cls-3" d="M81,179c-1.57,0-3.14,0-4.71,0a3.94,3.94,0,0,1,.06-7.88c3.1,0,6.19-.05,9.29,0a3.77,3.77,0,0,1,3.68,2.79A3.94,3.94,0,0,1,85.75,179C84.18,179.08,82.61,179,81,179Z"/><path class="cls-3" d="M234.88,89.63c1.57,0,3.14,0,4.71,0a3.9,3.9,0,0,1,3.6,2.77,3.79,3.79,0,0,1-1.28,4.22,4.12,4.12,0,0,1-2.13.84c-3.27.09-6.54.12-9.81,0a3.81,3.81,0,0,1-3.61-3.92,4,4,0,0,1,3.8-3.94h4.71Z"/><path class="cls-3" d="M189.57,305.72c-1.57,0-3.14.05-4.71,0a3.95,3.95,0,0,1-1.32-7.57,3.4,3.4,0,0,1,1.26-.29c3.23,0,6.46-.1,9.68,0a3.85,3.85,0,0,1,3.45,5.15,4,4,0,0,1-3.78,2.72h-4.58Z"/><path class="cls-3" d="M298.23,197.12c-1.57,0-3.14,0-4.71,0a3.94,3.94,0,0,1-1.32-7.6,4.33,4.33,0,0,1,1.52-.29c3,0,6,0,9,0a3.8,3.8,0,0,1,3.84,2.93,3.93,3.93,0,0,1-3.65,4.95C301.37,197.18,299.8,197.12,298.23,197.12Z"/><path class="cls-3" d="M280,233.32c-1.53,0-3.05,0-4.58,0a3.95,3.95,0,0,1-1.4-7.59,3.45,3.45,0,0,1,1.26-.28c3.23,0,6.45-.06,9.68,0a3.69,3.69,0,0,1,3.48,2.86,3.93,3.93,0,0,1-1.53,4.27,4.11,4.11,0,0,1-2.46.75c-1.48,0-3,0-4.45,0Z"/><path class="cls-3" d="M99.18,252.53c1.57,0,3.14-.06,4.71,0a4,4,0,0,1,1.61,7.46,3.26,3.26,0,0,1-1.37.38c-3.31,0-6.63.07-9.94,0A3.5,3.5,0,0,1,90.93,258a3.76,3.76,0,0,1,.59-3.94,3.92,3.92,0,0,1,3.2-1.49h4.45Z"/><path class="cls-3" d="M162.46,305.72c-1.57,0-3.14.05-4.71,0a3.92,3.92,0,0,1-3.72-3.43,3.87,3.87,0,0,1,2.45-4.17,4.4,4.4,0,0,1,1.52-.28c3,0,5.93-.05,8.9,0a3.86,3.86,0,0,1,4.07,4,3.94,3.94,0,0,1-4.19,3.91c-1.44,0-2.88,0-4.32,0Z"/><path class="cls-3" d="M35.79,107.73c1.57,0,3.14,0,4.71,0a3.9,3.9,0,0,1,3.59,2.77,3.79,3.79,0,0,1-1.28,4.22,4.13,4.13,0,0,1-2.13.84c-3.27.09-6.54.12-9.81,0a3.81,3.81,0,0,1-3.6-3.93,4,4,0,0,1,3.81-3.92C32.65,107.67,34.22,107.73,35.79,107.73Z"/><path class="cls-3" d="M135.41,305.72c-1.61,0-3.23.05-4.84,0a3.94,3.94,0,0,1-1.35-7.56,3.37,3.37,0,0,1,1.26-.29c3.23,0,6.46-.1,9.68,0a3.85,3.85,0,0,1,3.47,5.13,4,4,0,0,1-3.77,2.72c-1.48,0-3,0-4.45,0Z"/><path class="cls-3" d="M352.58,296.61c-1.66,0-3.32.09-5,0a3.78,3.78,0,0,1-3.55-4,3.84,3.84,0,0,1,3.66-3.88c3.22-.09,6.46-.1,9.68,0a3.91,3.91,0,0,1,3.65,3.93,3.86,3.86,0,0,1-3.63,3.91c-1.61.1-3.22,0-4.84,0Z"/><path class="cls-3" d="M162.42,115.6c-1.66,0-3.32.08-5,0a3.69,3.69,0,0,1-3.29-2.75,3.9,3.9,0,0,1,3.48-5.06c3.22-.12,6.45-.1,9.68,0a4,4,0,0,1-.32,7.89h-4.58Z"/><path class="cls-3" d="M280.11,207.33c1.61,0,3.23-.07,4.84,0a3.93,3.93,0,0,1,0,7.85c-3.18.06-6.37.08-9.55,0a3.94,3.94,0,0,1,0-7.87l.39,0h4.32Z"/><path class="cls-3" d="M198.7,296.61c-1.66,0-3.32.1-5,0a3.93,3.93,0,0,1,.16-7.83c3.18-.07,6.37-.08,9.55,0a3.86,3.86,0,0,1,3.72,4,3.79,3.79,0,0,1-3.62,3.89c-1.61.1-3.22,0-4.84,0Z"/><path class="cls-3" d="M53.88,207.33c1.61,0,3.23,0,4.84,0A3.59,3.59,0,0,1,62,209.58a3.79,3.79,0,0,1-.44,4.07,3.7,3.7,0,0,1-3,1.56c-3.1,0-6.19.05-9.29,0a4,4,0,0,1-3.87-4,3.89,3.89,0,0,1,3.8-3.89c1.57-.07,3.14,0,4.71,0Z"/><path class="cls-3" d="M44.74,124.72c-1.53,0-3.05,0-4.58,0a3.95,3.95,0,0,1-1.4-7.59,3.45,3.45,0,0,1,1.26-.28c3.23,0,6.45-.06,9.68,0a3.69,3.69,0,0,1,3.48,2.86A3.93,3.93,0,0,1,51.65,124a4,4,0,0,1-2.46.74H44.74Z"/><path class="cls-3" d="M108.25,125.83c1.53,0,3.05,0,4.58,0a3.93,3.93,0,0,1,3.69,2.83,4,4,0,0,1-1.43,4.31,3.79,3.79,0,0,1-2.32.76c-3.05,0-6.1,0-9.16,0a3.91,3.91,0,0,1-3.92-4,4,4,0,0,1,4.12-3.87c1.48,0,3,0,4.45,0Z"/><path class="cls-3" d="M216.72,279.73c1.61,0,3.23,0,4.84,0a3.62,3.62,0,0,1,3.36,2.3,3.78,3.78,0,0,1-.43,4,3.66,3.66,0,0,1-3,1.6c-3.14,0-6.28.06-9.42,0a3.94,3.94,0,0,1-3.8-3.92,3.88,3.88,0,0,1,3.74-3.94C213.58,279.67,215.15,279.73,216.72,279.73Z"/><path class="cls-3" d="M352.51,323.82c-1.57,0-3.14.05-4.71,0a3.95,3.95,0,0,1-1.28-7.61,3.58,3.58,0,0,1,1.27-.26c3.18,0,6.37-.09,9.55,0a3.86,3.86,0,0,1,3.51,5.11,4,4,0,0,1-3.75,2.76h-4.58Z"/><path class="cls-3" d="M108.22,224.21c-1.66,0-3.32.07-5,0a3.72,3.72,0,0,1-3.4-2.79,3.9,3.9,0,0,1,3.51-5c3.22-.12,6.45-.1,9.68,0a3.94,3.94,0,0,1,0,7.85c-.13,0-.26,0-.39,0h-4.45Z"/><path class="cls-3" d="M352.58,324.93c1.57,0,3.14-.06,4.71,0a4,4,0,0,1,1.59,7.46,3.27,3.27,0,0,1-1.37.38c-3.31,0-6.63.07-9.94,0a3.49,3.49,0,0,1-3.25-2.44,3.77,3.77,0,0,1,.6-3.94,3.85,3.85,0,0,1,3.08-1.48c1.53,0,3.05,0,4.58,0Z"/><path class="cls-3" d="M216.78,334c1.61,0,3.23,0,4.84,0a3.59,3.59,0,0,1,3.28,2.23,3.79,3.79,0,0,1-.44,4.07,3.7,3.7,0,0,1-3,1.56c-3.1,0-6.19.05-9.29,0a3.94,3.94,0,0,1-.07-7.88l.39,0h4.32Z"/><path class="cls-3" d="M307.3,334c1.61,0,3.23,0,4.84,0a3.59,3.59,0,0,1,3.31,2.37,3.78,3.78,0,0,1-.59,4.05,3.72,3.72,0,0,1-3,1.44c-3.1,0-6.19.05-9.29,0a3.94,3.94,0,0,1,0-7.88l.39,0h4.32Z"/><path class="cls-3" d="M334.5,341.92c-1.61,0-3.23.05-4.84,0a3.94,3.94,0,0,1-1.33-7.57,3.39,3.39,0,0,1,1.26-.29c3.23,0,6.46-.1,9.68,0a3.85,3.85,0,0,1,3.45,5.15,4,4,0,0,1-3.78,2.71c-1.48,0-3,0-4.45,0Z"/><path class="cls-3" d="M162.56,343c1.53,0,3.05,0,4.58,0a3.94,3.94,0,0,1,3.68,2.84,4,4,0,0,1-1.35,4.23,3.78,3.78,0,0,1-2.42.84c-3.05,0-6.1,0-9.16,0a3.91,3.91,0,0,1-3.91-4.05,4,4,0,0,1,4.13-3.86c1.48,0,3,0,4.45,0Z"/><path class="cls-3" d="M108.14,34.22c-1.57,0-3.14.05-4.71,0a3.9,3.9,0,0,1-3.68-3.31,3.84,3.84,0,0,1,2.31-4.25,4.47,4.47,0,0,1,1.65-.33c3,0,5.93,0,8.9,0a4,4,0,1,1-.14,7.92c-1.44,0-2.88,0-4.32,0Z"/><path class="cls-3" d="M189.63,287.62c-1.57,0-3.14,0-4.71,0a3.94,3.94,0,0,1-1.31-7.6,4.35,4.35,0,0,1,1.52-.29c3,0,6,0,9,0a3.81,3.81,0,0,1,3.81,2.81,3.94,3.94,0,0,1-3.62,5.07C192.77,287.68,191.2,287.62,189.63,287.62Z"/><path class="cls-3" d="M343.45,343c1.57,0,3.14,0,4.71,0a3.9,3.9,0,0,1,3.62,2.74,3.79,3.79,0,0,1-1.24,4.23,4.09,4.09,0,0,1-2.12.86c-3.27.09-6.54.12-9.81,0A3.81,3.81,0,0,1,335,347a4,4,0,0,1,3.77-3.95c1.57-.07,3.14,0,4.71,0Z"/><path class="cls-3" d="M280.08,34.22c-1.57,0-3.14.05-4.71,0A3.94,3.94,0,0,1,274,26.64a3.38,3.38,0,0,1,1.26-.29c3.23,0,6.46-.1,9.68,0a3.85,3.85,0,0,1,3.46,5.14,4,4,0,0,1-3.77,2.72c-1.53,0-3.05,0-4.58,0Z"/><path class="cls-3" d="M234.85,360c-1.57,0-3.14.05-4.71,0a3.9,3.9,0,0,1-3.69-3.3,3.85,3.85,0,0,1,2.3-4.25,4.07,4.07,0,0,1,1.52-.32c3.05,0,6.1,0,9.16,0a4,4,0,1,1-.13,7.91c-1.48,0-3,0-4.45,0Z"/><path class="cls-3" d="M262,360c-1.57,0-3.14,0-4.71,0a3.94,3.94,0,0,1-1.29-7.6,4.38,4.38,0,0,1,1.52-.28c3,0,6,0,9,0a3.81,3.81,0,0,1,3.8,2.82,3.94,3.94,0,0,1-3.64,5.06C265.16,360.08,263.58,360,262,360Z"/><path class="cls-3" d="M212.22,80.62a3.94,3.94,0,0,1,4,3.93,4,4,0,0,1-8,.07A3.94,3.94,0,0,1,212.22,80.62Z"/><path class="cls-3" d="M230.37,80.62a3.94,3.94,0,0,1,4,4,4,4,0,0,1-8,0A4,4,0,0,1,230.37,80.62Z"/><path class="cls-3" d="M248.52,80.62a3.94,3.94,0,0,1,3.93,4,4,4,0,0,1-8-.12A3.94,3.94,0,0,1,248.52,80.62Z"/><path class="cls-3" d="M266.65,80.62a3.94,3.94,0,0,1,3.89,3.93,4,4,0,1,1-8-.06A3.94,3.94,0,0,1,266.65,80.62Z"/><path class="cls-3" d="M288.65,84.5a4,4,0,1,1-8,0,4,4,0,0,1,8,0Z"/><path class="cls-3" d="M103.66,97.54a4,4,0,0,1-4-4,4,4,0,0,1,8,0A4,4,0,0,1,103.66,97.54Z"/><path class="cls-3" d="M121.72,97.54a4,4,0,0,1-3.95-4,4,4,0,0,1,8,.07A4,4,0,0,1,121.72,97.54Z"/><path class="cls-3" d="M85.59,98.72a3.94,3.94,0,0,1,3.95,4,4,4,0,0,1-8-.07A3.94,3.94,0,0,1,85.59,98.72Z"/><path class="cls-3" d="M107.64,102.71a4,4,0,1,1-8-.18,4,4,0,0,1,8,.18Z"/><path class="cls-3" d="M125.74,102.67a4,4,0,1,1-8-.09,4,4,0,0,1,8,.09Z"/><path class="cls-3" d="M194.12,98.72a3.94,3.94,0,0,1,4,3.93,4,4,0,0,1-8,.07A3.94,3.94,0,0,1,194.12,98.72Z"/><path class="cls-3" d="M67.5,116.82a3.94,3.94,0,0,1,3.94,4,4,4,0,0,1-8-.08A4,4,0,0,1,67.5,116.82Z"/><path class="cls-3" d="M361,120.77a4,4,0,1,1-8-.1,4,4,0,0,1,8,.1Z"/><path class="cls-3" d="M89.55,138.8a4,4,0,1,1-8,0,4,4,0,0,1,8,0Z"/><path class="cls-3" d="M103.64,151.84a4,4,0,0,1-4-4,4,4,0,0,1,8,0A4,4,0,0,1,103.64,151.84Z"/><path class="cls-3" d="M302.8,151.84a4,4,0,0,1-4-3.94,4,4,0,0,1,8-.08A4,4,0,0,1,302.8,151.84Z"/><path class="cls-3" d="M357.07,153a3.94,3.94,0,0,1,4,4,4,4,0,0,1-8,0A4,4,0,0,1,357.07,153Z"/><path class="cls-3" d="M31.22,169.94a4,4,0,0,1-3.95-4,4,4,0,0,1,8,.07A4,4,0,0,1,31.22,169.94Z"/><path class="cls-3" d="M49.35,169.94a4,4,0,0,1-4-4,4,4,0,0,1,8,0A4,4,0,0,1,49.35,169.94Z"/><path class="cls-3" d="M284.65,169.94a4,4,0,0,1-4-4,4,4,0,0,1,8,0A4,4,0,0,1,284.65,169.94Z"/><path class="cls-3" d="M53.35,193.11a4,4,0,1,1-8,0,4,4,0,0,1,8,0Z"/><path class="cls-3" d="M357.09,188a4,4,0,0,1-4-3.95,4,4,0,0,1,8-.06A4,4,0,0,1,357.09,188Z"/><path class="cls-3" d="M67.41,243.52a3.94,3.94,0,0,1,4,3.91,4,4,0,0,1-8,.11A3.94,3.94,0,0,1,67.41,243.52Z"/><path class="cls-3" d="M85.58,243.52a3.94,3.94,0,0,1,4,4,4,4,0,0,1-8,0A4,4,0,0,1,85.58,243.52Z"/><path class="cls-3" d="M302.75,243.52a3.94,3.94,0,0,1,4,4,4,4,0,0,1-8,0A3.94,3.94,0,0,1,302.75,243.52Z"/><path class="cls-3" d="M103.6,80.62a3.94,3.94,0,0,1,4,3.91,4,4,0,0,1-8,.12A3.94,3.94,0,0,1,103.6,80.62Z"/><path class="cls-3" d="M67.4,260.44a4,4,0,0,1-3.93-4,4,4,0,0,1,8,.11A4,4,0,0,1,67.4,260.44Z"/><path class="cls-3" d="M284.64,188a4,4,0,0,1-4-4,4,4,0,0,1,8,0A4,4,0,0,1,284.64,188Z"/><path class="cls-3" d="M35.25,265.56a4,4,0,1,1-8-.08,4,4,0,0,1,8,.08Z"/><path class="cls-3" d="M339,261.62a3.94,3.94,0,0,1,4,4,4,4,0,0,1-8,0A4,4,0,0,1,339,261.62Z"/><path class="cls-3" d="M361,265.57a4,4,0,1,1-8-.09,4,4,0,0,1,8,.09Z"/><path class="cls-3" d="M31.32,278.54a4,4,0,0,1-4-3.91,4,4,0,0,1,8-.12A4,4,0,0,1,31.32,278.54Z"/><path class="cls-3" d="M67.49,188a4,4,0,0,1-4-3.94,4,4,0,0,1,8-.07A4,4,0,0,1,67.49,188Z"/><path class="cls-3" d="M176.09,278.54a4,4,0,0,1-4-3.94,4,4,0,0,1,8-.07A4,4,0,0,1,176.09,278.54Z"/><path class="cls-3" d="M230.42,278.54a4,4,0,0,1-4-3.92,4,4,0,0,1,8-.12A4,4,0,0,1,230.42,278.54Z"/><path class="cls-3" d="M31.27,279.72a3.94,3.94,0,0,1,4,4,4,4,0,0,1-8,0A4,4,0,0,1,31.27,279.72Z"/><path class="cls-3" d="M85.58,279.72a3.94,3.94,0,0,1,4,4,4,4,0,0,1-8,0A3.94,3.94,0,0,1,85.58,279.72Z"/><path class="cls-3" d="M103.67,279.72a3.94,3.94,0,0,1,4,4,4,4,0,0,1-8,0A4,4,0,0,1,103.67,279.72Z"/><path class="cls-3" d="M31.2,207.32a3.94,3.94,0,0,1,4,3.91,4,4,0,0,1-8,.11A3.94,3.94,0,0,1,31.2,207.32Z"/><path class="cls-3" d="M103.65,296.64a4,4,0,0,1-4-4,4,4,0,0,1,8,0A4,4,0,0,1,103.65,296.64Z"/><path class="cls-3" d="M121.79,296.64a4,4,0,0,1-4-3.95,4,4,0,0,1,8-.06A4,4,0,0,1,121.79,296.64Z"/><path class="cls-3" d="M67.43,206.14a4,4,0,0,1-4-4,4,4,0,0,1,8,.06A4,4,0,0,1,67.43,206.14Z"/><path class="cls-3" d="M320.92,296.64a4,4,0,0,1-4-3.91,4,4,0,0,1,8-.12A4,4,0,0,1,320.92,296.64Z"/><path class="cls-3" d="M103.62,171.12a3.94,3.94,0,0,1,4,3.92,4,4,0,0,1-8,.09A3.94,3.94,0,0,1,103.62,171.12Z"/><path class="cls-3" d="M302.75,297.82a3.94,3.94,0,0,1,4,4,4,4,0,0,1-8,0A3.94,3.94,0,0,1,302.75,297.82Z"/><path class="cls-3" d="M361,301.73a4,4,0,1,1-8,0,4,4,0,0,1,8,0Z"/><path class="cls-3" d="M284.65,314.74a4,4,0,0,1-4-4,4,4,0,0,1,8,0A4,4,0,0,1,284.65,314.74Z"/><path class="cls-3" d="M103.66,315.92a3.94,3.94,0,0,1,4,4,4,4,0,0,1-8,0A4,4,0,0,1,103.66,315.92Z"/><path class="cls-3" d="M121.72,315.92a3.94,3.94,0,0,1,4,3.93,4,4,0,0,1-8,.08A3.94,3.94,0,0,1,121.72,315.92Z"/><path class="cls-3" d="M103.7,153a3.94,3.94,0,0,1,3.94,4,4,4,0,0,1-8-.08A4,4,0,0,1,103.7,153Z"/><path class="cls-3" d="M248.52,26.32a3.94,3.94,0,0,1,3.92,4,4,4,0,0,1-8-.13A3.94,3.94,0,0,1,248.52,26.32Z"/><path class="cls-3" d="M139.91,332.84a4,4,0,0,1-4-3.93,4,4,0,0,1,8-.09A4,4,0,0,1,139.91,332.84Z"/><path class="cls-3" d="M194.13,332.84a4,4,0,0,1-4-4,4,4,0,0,1,8,.05A4,4,0,0,1,194.13,332.84Z"/><path class="cls-3" d="M230.35,332.84a4,4,0,0,1-4-4,4,4,0,0,1,8,0A4,4,0,0,1,230.35,332.84Z"/><path class="cls-3" d="M103.7,43.24a4,4,0,0,1-4-3.94,4,4,0,0,1,8-.08A4,4,0,0,1,103.7,43.24Z"/><path class="cls-3" d="M49.35,206.14a4,4,0,0,1-4-4,4,4,0,0,1,8,0A4,4,0,0,1,49.35,206.14Z"/><path class="cls-3" d="M103.72,44.42a3.94,3.94,0,0,1,3.92,4,4,4,0,0,1-8-.13A3.94,3.94,0,0,1,103.72,44.42Z"/><path class="cls-3" d="M103.72,334a3.94,3.94,0,0,1,3.93,4,4,4,0,0,1-8-.11A3.94,3.94,0,0,1,103.72,334Z"/><path class="cls-3" d="M176,61.34a4,4,0,0,1-4-4,4,4,0,0,1,8,0A4,4,0,0,1,176,61.34Z"/><path class="cls-3" d="M194.14,61.34a4,4,0,0,1-4-4,4,4,0,0,1,8,0A4,4,0,0,1,194.14,61.34Z"/><path class="cls-3" d="M121.69,62.52a3.94,3.94,0,0,1,4.05,3.9,4,4,0,0,1-8,.13A3.94,3.94,0,0,1,121.69,62.52Z"/><path class="cls-3" d="M357.1,334a3.94,3.94,0,0,1,3.94,4,4,4,0,0,1-8-.08A4,4,0,0,1,357.1,334Z"/><path class="cls-3" d="M121.82,350.94a4,4,0,0,1-4-3.92,4,4,0,0,1,8-.12A4,4,0,0,1,121.82,350.94Z"/><path class="cls-3" d="M158,79.44a4,4,0,0,1-4-4,4,4,0,0,1,8,0A4,4,0,0,1,158,79.44Z"/><path class="cls-3" d="M284.71,79.44a4,4,0,0,1-4-3.92,4,4,0,0,1,8-.1A4,4,0,0,1,284.71,79.44Z"/><path class="cls-3" d="M121.7,80.62a3.94,3.94,0,0,1,4.05,3.9,4,4,0,0,1-8,.13A3.94,3.94,0,0,1,121.7,80.62Z"/><path class="cls-3" d="M143.84,84.57a4,4,0,1,1-8-.09,4,4,0,0,1,8,.09Z"/><path class="cls-3" d="M121.8,352.12a3.94,3.94,0,0,1,3.95,4,4,4,0,0,1-8-.08A3.94,3.94,0,0,1,121.8,352.12Z"/><path class="cls-3" d="M139.84,352.12a3.94,3.94,0,0,1,4,4,4,4,0,0,1-8,0A3.94,3.94,0,0,1,139.84,352.12Z"/><path class="cls-3" d="M161.94,84.61a4,4,0,1,1-8-.18,4,4,0,0,1,8,.18Z"/><path class="cls-3" d="M198.15,356a4,4,0,1,1-8,.06,4,4,0,0,1,8-.06Z"/><path class="cls-3" d="M212.27,352.12a3.94,3.94,0,0,1,4,4,4,4,0,0,1-8,0A4,4,0,0,1,212.27,352.12Z"/><path class="cls-3" d="M176,80.62a3.94,3.94,0,0,1,4,3.95,4,4,0,0,1-8,0A3.94,3.94,0,0,1,176,80.62Z"/><path class="cls-3" d="M198.14,84.58a4,4,0,1,1-8-.13,4,4,0,0,1,8,.13Z"/><path class="cls-3" d="M342.94,211.27a4,4,0,1,1-8-.1,4,4,0,0,1,8,.1Z"/><path class="cls-3" d="M261.46,66.5a4,4,0,1,1-7.9-.16,4,4,0,0,1,7.9.16Z"/><path class="cls-3" d="M235.46,66.43a4,4,0,0,1,7.9,0,4,4,0,1,1-7.9,0Z"/><path class="cls-3" d="M279.56,147.92a4,4,0,0,1-7.9,0,4,4,0,1,1,7.9,0Z"/><path class="cls-3" d="M126.86,48.33a4,4,0,0,1,7.9,0,4,4,0,1,1-7.9,0Z"/><path class="cls-3" d="M261.46,310.86a4,4,0,0,1-7.9-.07,4,4,0,1,1,7.9.07Z"/><path class="cls-3" d="M108.76,138.84a4,4,0,0,1,7.9,0,4,4,0,1,1-7.9,0Z"/><path class="cls-3" d="M352,166a4,4,0,0,1-7.9.06A4,4,0,1,1,352,166Z"/><path class="cls-3" d="M333.86,165.94a4,4,0,0,1-7.9.18,4,4,0,1,1,7.9-.18Z"/><path class="cls-3" d="M279.56,247.39a4,4,0,1,1-7.9.07,4,4,0,0,1,7.9-.07Z"/><path class="cls-3" d="M58.37,279.72a3.88,3.88,0,0,1,4,3.93,3.95,3.95,0,0,1-7.9.07A3.88,3.88,0,0,1,58.37,279.72Z"/><path class="cls-3" d="M243.36,39.31a4,4,0,0,1-7.9,0,4,4,0,1,1,7.9,0Z"/><path class="cls-3" d="M181.16,319.8a4,4,0,0,1,7.9,0,4,4,0,1,1-7.9,0Z"/><path class="cls-3" d="M225.26,319.81a4,4,0,1,1-7.9,0,4,4,0,0,1,7.9,0Z"/><path class="cls-3" d="M152.86,39.36a4,4,0,0,1-7.9-.06,4,4,0,1,1,7.9.06Z"/><path class="cls-3" d="M297.66,202.26a4,4,0,0,1-7.9-.06,4,4,0,1,1,7.9.06Z"/><path class="cls-3" d="M44.26,247.45a4,4,0,1,1-7.9-.06,4,4,0,0,1,7.9.06Z"/><path class="cls-3" d="M62.36,220.3a4,4,0,0,1-7.9.06,4,4,0,1,1,7.9-.06Z"/><path class="cls-3" d="M333.86,202.27a4,4,0,0,1-7.9-.07,4,4,0,1,1,7.9.07Z"/><path class="cls-3" d="M171,328.9a4,4,0,0,1-7.9.06,4,4,0,1,1,7.9-.06Z"/><path class="cls-3" d="M171,283.6a4,4,0,1,1-7.9,0,4,4,0,0,1,7.9,0Z"/><path class="cls-3" d="M289.76,129.75a4,4,0,1,1,7.9.17,4,4,0,0,1-7.9-.17Z"/><path class="cls-3" d="M279.56,129.82a4,4,0,0,1-7.9,0,4,4,0,1,1,7.9,0Z"/><path class="cls-3" d="M352,111.75a4,4,0,0,1-7.9-.05,4,4,0,1,1,7.9.05Z"/><path class="cls-3" d="M44.26,184.1a4,4,0,0,1-7.9.06,4,4,0,1,1,7.9-.06Z"/><path class="cls-3" d="M94.67,278.54a3.89,3.89,0,0,1-4-3.92,4,4,0,0,1,7.9-.12A3.89,3.89,0,0,1,94.67,278.54Z"/><path class="cls-3" d="M311.85,169.94a3.89,3.89,0,0,1-4-3.94,3.95,3.95,0,0,1,7.9-.07A3.88,3.88,0,0,1,311.85,169.94Z"/><path class="cls-3" d="M62.36,265.62a4,4,0,1,1-7.9-.19,4,4,0,0,1,7.9.19Z"/><path class="cls-3" d="M279.56,111.66a4,4,0,0,1-7.9.14,4,4,0,1,1,7.9-.14Z"/><path class="cls-3" d="M239.38,296.64a3.89,3.89,0,0,1-3.92-4,3.95,3.95,0,0,1,7.9.05A3.89,3.89,0,0,1,239.38,296.64Z"/><path class="cls-3" d="M243.36,111.69a4,4,0,0,1-7.9.07,4,4,0,1,1,7.9-.07Z"/><path class="cls-3" d="M181.16,346.94a4,4,0,1,1,7.9.17,4,4,0,0,1-7.9-.17Z"/><path class="cls-3" d="M207.16,347.06a4,4,0,0,1-7.9-.06,4,4,0,1,1,7.9.06Z"/><path class="cls-3" d="M279.56,156.94a4,4,0,1,1-7.9,0,4,4,0,0,1,7.9,0Z"/><path class="cls-3" d="M261.46,346.95a4,4,0,0,1-7.9.16,4,4,0,1,1,7.9-.16Z"/><path class="cls-3" d="M112.65,115.64a3.89,3.89,0,0,1-3.89-4,4,4,0,0,1,7.9.11A3.89,3.89,0,0,1,112.65,115.64Z"/><path class="cls-3" d="M352,220.37a4,4,0,0,1-7.9-.08,4,4,0,1,1,7.9.08Z"/><path class="cls-3" d="M62.36,111.71a4,4,0,0,1-7.9,0,4,4,0,1,1,7.9,0Z"/><path class="cls-3" d="M243.36,102.69a4,4,0,1,1-7.9-.13,4,4,0,0,1,7.9.13Z"/><path class="cls-3" d="M261.46,93.66a4,4,0,0,1-7.9-.06,4,4,0,1,1,7.9.06Z"/><path class="cls-3" d="M217.36,301.69a4,4,0,0,1,7.9.07,4,4,0,1,1-7.9-.07Z"/><path class="cls-3" d="M189.06,93.65a4,4,0,0,1-7.9,0,4,4,0,1,1,7.9,0Z"/><path class="cls-3" d="M333.86,148a4,4,0,0,1-7.9,0,4,4,0,1,1,7.9,0Z"/><path class="cls-3" d="M225.26,75.54a4,4,0,0,1-7.9,0,4,4,0,1,1,7.9,0Z"/><path class="cls-3" d="M307.86,356a4,4,0,0,1,7.9,0,4,4,0,1,1-7.9,0Z"/><path class="cls-3" d="M58.37,71c-1.79,0-3.58,0-5.37,0a8.19,8.19,0,0,1-8.19-8c-.08-3.67-.07-7.34,0-11a8.24,8.24,0,0,1,8.26-8.13c3.54-.1,7.08-.09,10.62,0A8.28,8.28,0,0,1,72,52.39c0,3.41,0,6.82,0,10.22A8.19,8.19,0,0,1,63.75,71C62,71,60.17,71,58.37,71Z"/><path class="cls-3" d="M329.83,71c-1.75,0-3.5-.05-5.24,0a8.15,8.15,0,0,1-8.26-8c-.14-3.75-.11-7.52,0-11.27a8.22,8.22,0,0,1,8.29-8c3.54-.09,7.08-.09,10.62,0a8.27,8.27,0,0,1,8.29,8.64c0,3.41,0,6.82,0,10.22a8.23,8.23,0,0,1-6.62,8.16,8.32,8.32,0,0,1-1.69.15C333.41,71,331.62,71,329.83,71Z"/><path class="cls-3" d="M58.4,342.47c-1.79,0-3.58,0-5.37,0a8.18,8.18,0,0,1-8.21-8q-.12-5.57,0-11.14a8.25,8.25,0,0,1,8.36-8c3.49-.07,7-.08,10.49,0A8.28,8.28,0,0,1,72,323.86c0,3.41,0,6.82,0,10.22a8.22,8.22,0,0,1-6.56,8.21,8.07,8.07,0,0,1-1.69.17C62,342.48,60.19,342.47,58.4,342.47Z"/><path class="cls-4" d="M169.46,160.84a45.54,45.54,0,0,0-2.63,7.1c-1.27,4.73-1.79,10.07.61,9.94,2.1-.18,1.05,1.23-.31,1-4.12-.74-3.33-7.8-2.58-11.56a39.69,39.69,0,0,1-2.67,3.94c-5.83,7.49-12,7.53-12.92,1.93-1-5.91,6.09-17.13,7.71-23.48,1.05-4.2,1.18-8.23-.92-9.5-3.59-2.19-9.59-.92-14.59,2-17.52,10.25-13.23,29.7-1.05,25.14,6-2.23,10.6-14.8,2.23-12.92-2.28.53-.57-.61-.22-.74,9-3.81,7.62,10.6-2.06,14.67-13.1,5.56-20.15-15.94,1.18-27.59,5-2.76,10.38-3.63,14.28-1.93,4.29,1.84,4.82,6.26,3.72,11.08-1.58,6.92-8.45,16.91-7.8,23.3.48,4.56,4.95,3.81,9.77-3.15,2.93-4.25,5.56-10.42,7.36-13.67,1-1.71,1.93-2.32,2.45-2.32C173.19,155.1,170.65,158.16,169.46,160.84Z"/><path class="cls-4" d="M174.3,174.9a4.67,4.67,0,0,1-1.79.44c-5.3,0-4.29-6.09-2.19-6.18,1.18-2.23,2.63-5.08,3.77-7.58.79-1.71,2.1-3.55,3.63-3.77a2.72,2.72,0,0,1,1.62.22c.79.39.61,1.14-.18.74a1.73,1.73,0,0,0-1.4,0c-2,1-1.58,4-.92,5.56s1.66,3.24,1.58,5.17a6.94,6.94,0,0,1-3.11,4.86l.31,0c1.49.22,2.85-.7,3.94-2a40.46,40.46,0,0,0,3.28-5.74c.22-.44.88-.18.66.26C181.88,170.52,179.25,176.39,174.3,174.9Zm-3-3.77c-1.4,1.4-.83,3.46.88,3.46a2,2,0,0,0,.88-.18A3.89,3.89,0,0,1,171.32,171.13Zm3.85-10c-1.18,2.36-3.07,6.18-4.12,8.1,0,0,1,0,.92,1.4a3.48,3.48,0,0,0,1.84,3.37,6,6,0,0,0,1.93-4.56C175.88,166.71,174.83,163.11,175.18,161.14Z"/><path class="cls-4" d="M190.41,177.35c-2.76,4.95-7.1,11.65-13.58,11.65-4.38,0-4.82-2.89-3.5-5.34a8.5,8.5,0,0,1,4.12-3.59c2.93-1.4,7.09-2.15,10.64-3.15,1.66-2.89,3.07-7.58,3.77-9.85-1.49,2.63-4.34,8.06-7.71,8.06a2.6,2.6,0,0,1-2.76-2c-.39-1.88.7-3.5,1.49-5.08-.26,0-.66-.13-.39-.7l.79-1.53c.88-1.66,1.8-3.46,2.45-4.82a1.64,1.64,0,0,1,1.71-.92h2.67a5.3,5.3,0,0,0-1.62,1.58c-1.49,2.54-2.72,5.12-3.94,7.75-2.1,4.55-.26,6.31,2.58,3,2.45-2.85,5.21-8,6.88-11.43a1.64,1.64,0,0,1,1.71-.92h2.36c-1.66,1.14-2.32,2.89-3.42,5.83s-2.23,6.57-3.5,10a11.88,11.88,0,0,0,6.31-4.34,42.43,42.43,0,0,0,2.76-4.82c.39-.79,1.05-.48.61.39C197.86,173.23,196.72,175.07,190.41,177.35ZM178.19,181c-4.47,1.93-6.13,7.09-2.37,7.09s8.5-5.43,10.51-8.19l1-1.62A69.24,69.24,0,0,0,178.19,181Z"/><path class="cls-5" d="M169.46,160.84a45.54,45.54,0,0,0-2.63,7.1c-1.27,4.73-1.79,10.07.61,9.94,2.1-.18,1.05,1.23-.31,1-4.12-.74-3.33-7.8-2.58-11.56a39.69,39.69,0,0,1-2.67,3.94c-5.83,7.49-12,7.53-12.92,1.93-1-5.91,6.09-17.13,7.71-23.48,1.05-4.2,1.18-8.23-.92-9.5-3.59-2.19-9.59-.92-14.59,2-17.52,10.25-13.23,29.7-1.05,25.14,6-2.23,10.6-14.8,2.23-12.92-2.28.53-.57-.61-.22-.74,9-3.81,7.62,10.6-2.06,14.67-13.1,5.56-20.15-15.94,1.18-27.59,5-2.76,10.38-3.63,14.28-1.93,4.29,1.84,4.82,6.26,3.72,11.08-1.58,6.92-8.45,16.91-7.8,23.3.48,4.56,4.95,3.81,9.77-3.15,2.93-4.25,5.56-10.42,7.36-13.67,1-1.71,1.93-2.32,2.45-2.32C173.19,155.1,170.65,158.16,169.46,160.84Z"/><path class="cls-5" d="M174.3,174.9a4.67,4.67,0,0,1-1.79.44c-5.3,0-4.29-6.09-2.19-6.18,1.18-2.23,2.63-5.08,3.77-7.58.79-1.71,2.1-3.55,3.63-3.77a2.72,2.72,0,0,1,1.62.22c.79.39.61,1.14-.18.74a1.73,1.73,0,0,0-1.4,0c-2,1-1.58,4-.92,5.56s1.66,3.24,1.58,5.17a6.94,6.94,0,0,1-3.11,4.86l.31,0c1.49.22,2.85-.7,3.94-2a40.46,40.46,0,0,0,3.28-5.74c.22-.44.88-.18.66.26C181.88,170.52,179.25,176.39,174.3,174.9Zm-3-3.77c-1.4,1.4-.83,3.46.88,3.46a2,2,0,0,0,.88-.18A3.89,3.89,0,0,1,171.32,171.13Zm3.85-10c-1.18,2.36-3.07,6.18-4.12,8.1,0,0,1,0,.92,1.4a3.48,3.48,0,0,0,1.84,3.37,6,6,0,0,0,1.93-4.56C175.88,166.71,174.83,163.11,175.18,161.14Z"/><path class="cls-5" d="M190.41,177.35c-2.76,4.95-7.1,11.65-13.58,11.65-4.38,0-4.82-2.89-3.5-5.34a8.5,8.5,0,0,1,4.12-3.59c2.93-1.4,7.09-2.15,10.64-3.15,1.66-2.89,3.07-7.58,3.77-9.85-1.49,2.63-4.34,8.06-7.71,8.06a2.6,2.6,0,0,1-2.76-2c-.39-1.88.7-3.5,1.49-5.08-.26,0-.66-.13-.39-.7l.79-1.53c.88-1.66,1.8-3.46,2.45-4.82a1.64,1.64,0,0,1,1.71-.92h2.67a5.3,5.3,0,0,0-1.62,1.58c-1.49,2.54-2.72,5.12-3.94,7.75-2.1,4.55-.26,6.31,2.58,3,2.45-2.85,5.21-8,6.88-11.43a1.64,1.64,0,0,1,1.71-.92h2.36c-1.66,1.14-2.32,2.89-3.42,5.83s-2.23,6.57-3.5,10a11.88,11.88,0,0,0,6.31-4.34,42.43,42.43,0,0,0,2.76-4.82c.39-.79,1.05-.48.61.39C197.86,173.23,196.72,175.07,190.41,177.35ZM178.19,181c-4.47,1.93-6.13,7.09-2.37,7.09s8.5-5.43,10.51-8.19l1-1.62A69.24,69.24,0,0,0,178.19,181Z"/><path class="cls-5" d="M180.79,233c-2.28.92-6.48,1-10.91,1a25.86,25.86,0,0,1-12.13,9.33c-11.43,4.38-19.18-3.11-8.23-7.62,6-2.45,12.57-2.8,18.92-2.8a144,144,0,0,0,6-17c-1.66,3.59-4.82,9.15-8.89,11.91-4.47,3-10.86,2.32-10-4.34.61-4.38,4-10.2,6.39-14.15,3.9-6.35,6.44-14.58,3.06-16.73-7.05-4.51-21.24,4.38-25.32,14.06-4.51,10.82,2.1,15.11,7.8,13.05,6.09-2.19,11.12-14.59,3.5-13.23-1.49.31-.88-.44-.09-.61,9.24-2.5,6.22,10.82-3.59,14.85-7,2.89-15.24-4.25-9.9-15.2,5.17-10.64,19.75-17.78,27.42-14.32,6.44,2.89,4.56,10.91.61,17.56-2.93,5-6,11-6.83,15-1.14,5.26,2.89,5.61,6.31,3.15,5.43-3.85,9.9-14.8,11.26-19.36.22-1.05,3.64-3.72,2.15,2.8-1.53,6.74-4.55,16.73-7.8,22.47,4.29-.26,12,.48,12.88-4.38-.09-.66.18-1.09.53,0S183.47,231.88,180.79,233Zm-30.57,4.55c-8.58,4.91-.13,7.45,6.88,4.86A21.48,21.48,0,0,0,167.83,234C161.92,234,155.43,234.55,150.22,237.57Z"/><path class="cls-5" d="M187.87,226.93a3.56,3.56,0,0,1-2.8-1.14,6.27,6.27,0,0,1-3.81,1.49c-3.33-.09-3.81-4.07-2.15-8s5.34-7.45,8.32-7.36c3.33,0,3.81,4.07,2.15,8a16.94,16.94,0,0,1-3.68,5.17,2.15,2.15,0,0,0,2.06,1.09c2.8,0,5.08-5.43,6.13-7.53.22-.44,1-.26.66.39C194,220.71,191.55,226.93,187.87,226.93Zm-5.74-7.8c-1.71,3.59-2.1,6.66-.53,7.14a3.64,3.64,0,0,0,3-1.1,3.89,3.89,0,0,1-.7-2.14c0-1,.44-1.88,1.53-1.88a1.32,1.32,0,0,1,1.31,1.31,1.88,1.88,0,0,1-.09.48,17.46,17.46,0,0,0,1.36-2.36c1.71-3.59,1.93-6.7.35-7.18C186.47,212.87,183.75,215.67,182.13,219.13Z"/><path class="cls-5" d="M202.09,227.45c-1.53,0-3.64-1.05-2.32-5.12a22.44,22.44,0,0,1,2.41-4.6c1.05-1.71.26-2.89-3.11.26-1.49,1.36-3.63,3.81-6.09,8.67-.35.61-.74.66-1.66.66a3,3,0,0,0-1.49.26c2.1-4.16,3.9-8.32,6-12.26,1.14-2.1,1.71-2.85,3.11-2.76a6.47,6.47,0,0,0,1.84.18c-1.31.7-3.72,5.08-5.3,8.23a32.29,32.29,0,0,1,3.63-3.94c2.1-1.88,6.61-4.64,8.1-4.12,0,0-4.69,8.23-5.26,11.3-.35,1.8.13,2.19.7,2.19,2.28,0,5.08-5.74,6-7.58.35-.79,1.05-.48.61.39C208,221.89,205.47,227.45,202.09,227.45Z"/><path class="cls-5" d="M219.74,227.8c-1.93,5.52-7.71,13.32-14.06,13.32-2.76,0-4.12-1.09-4.12-3.37s1.71-3.81,3.81-5c4.29-2.54,8.28-3.37,11.65-4.73a21.17,21.17,0,0,0,1-4.86,13.83,13.83,0,0,0,0-3.59c-1.4,2.72-4.9,8.63-8.41,7.58-4.38-1.88-1.75-8.19,1.49-12,2.58-3.11,6.88-4.6,10.16-2,1.53,1.27,0,2.58-.48,1.27-1.14-3.11-4.38-1.36-7.05,1.62-3.2,3.59-5.65,8.89-3.37,9.9,2.58,1.09,6.83-5.61,7.66-8.37.61-2,2-1.23,2.72-1.75a25.72,25.72,0,0,1-.57,10.64,13.36,13.36,0,0,0,3.07-2.85,25.14,25.14,0,0,0,2.54-4.64c.39-.79,1.09-.53.66.35C224.25,223.82,223,226.27,219.74,227.8Zm-4.69,2a43.1,43.1,0,0,0-9.64,4.2c-2.85,1.88-4.42,6.26-.79,6.26,1.88,0,4.47-1.49,5.52-2.28a25.1,25.1,0,0,0,3.94-4.29,22.66,22.66,0,0,0,2.5-4.42Z"/><path class="cls-5" d="M237.77,200.21H238a6.42,6.42,0,0,0,1.84.18c-2.23,1.71-6.7,8.8-9.64,14.63a28.88,28.88,0,0,0-1.58,3.72c1.84-2.28,4.6-5.17,7.14-6.13,5.65-2.1,5.12,2.8,1.79,5.17a8.34,8.34,0,0,1-4.42,1.71c-1.66,4.07,1.14,9.55,5.17,5.26a27.69,27.69,0,0,0,3.55-6c.35-.7.88-.31.57.39-3.46,8-6.17,8.67-8.72,8.41-1.58-.18-2.93-1.45-3.37-3.72-.53-2.85,1.09-4.95,2.06-5a5.53,5.53,0,0,0,3.46-1.31c2.76-2.23.83-5.3-4.2-1a23.5,23.5,0,0,0-3.59,4c-.79,1.49-2,6.22-1.23,6.83h-2.76c-.61,0-.53-.39-.35-1,.79-3,2.28-5.52,3.59-8.54-2,3.81-3.77,7-4.64,7.8-.35.31-.61-.18-.35-.57,3-3.94,8.76-17,12.53-22.64C235.89,200.82,236.81,200.17,237.77,200.21Z"/><path class="cls-5" d="M249.37,229.47c-2.76,4.95-7.1,11.65-13.58,11.65-4.38,0-4.82-2.89-3.5-5.34a8.5,8.5,0,0,1,4.12-3.59c2.93-1.4,7.09-2.15,10.64-3.15,1.66-2.89,3.07-7.58,3.77-9.85-1.49,2.63-4.34,8.06-7.71,8.06a2.6,2.6,0,0,1-2.76-2c-.39-1.88.7-3.5,1.49-5.08-.26,0-.66-.13-.39-.7l.79-1.53c.88-1.66,1.8-3.46,2.45-4.82a1.64,1.64,0,0,1,1.71-.92h2.67a5.3,5.3,0,0,0-1.62,1.58c-1.49,2.54-2.72,5.12-3.94,7.75-2.1,4.55-.26,6.31,2.58,3,2.45-2.85,5.21-8,6.88-11.43a1.64,1.64,0,0,1,1.71-.92H257c-1.66,1.14-2.32,2.89-3.42,5.83s-2.23,6.57-3.5,10a11.88,11.88,0,0,0,6.31-4.34,42.43,42.43,0,0,0,2.76-4.82c.39-.79,1.05-.48.61.39C256.82,225.35,255.68,227.19,249.37,229.47Zm-12.22,3.68c-4.47,1.93-6.13,7.09-2.36,7.09s8.5-5.43,10.51-8.19l1-1.62A69.33,69.33,0,0,0,237.15,233.15Z"/><path class="cls-5" d="M217.53,190.3c4.77,3.94-1.58,13-11.26,13-15.72,0-13.93-17.61,1.75-19.27a7,7,0,0,1-1.23-3.94c.13-6.22,7.88-9.64,13.31-9.55,2.41,0,5.26.92,5.26,3.85,0,1.66-1.18,3.24-2.67,3.24a2,2,0,0,1-2.06-2.1,2,2,0,0,1,2.1-2,1.78,1.78,0,0,1,1.44.79c.35-2-1.36-2.58-2.93-2.63a13.55,13.55,0,0,0-8.54,3.59c-2,1.79-4.55,5.74-3.2,8.58.92,0,2.32-.18,3.64-.09,2.54.22,2.93,2.76-.13,2.76a6.42,6.42,0,0,1-4.42-1.93c-10.38,1.53-12.53,18.09-2.32,18.09,6.18,0,10.42-5.08,10.6-8.54.22-4.86-11.74-4.77-12.57.22-.22,1.36.66,2.85,2.89,4,.48.26.53,1.18,0,.92-7.66-4.12-5.39-10.42,3.5-10.42h7.75c2.06,0,10.25-2.19,7.93-5.65-.31-.48.18-.83.48-.35C229.53,186.88,223.35,190.39,217.53,190.3Zm-7.67-5.82a3.81,3.81,0,0,0,3.15,1.31c2.14,0,1.66-1.14.09-1.27A27.2,27.2,0,0,0,209.86,184.47Z"/></g></svg>