<svg xmlns="http://www.w3.org/2000/svg" xmlns:xlink="http://www.w3.org/1999/xlink" viewBox="0 0 619 637"><defs><style>.cls-1{fill:url(#linear-gradient);}.cls-2{fill:url(#linear-gradient-2);}.cls-3{fill:url(#linear-gradient-3);}.cls-4{fill:url(#linear-gradient-4);}.cls-5{fill:url(#linear-gradient-5);}.cls-6{fill:url(#linear-gradient-6);}.cls-7{fill:url(#linear-gradient-7);}.cls-8{fill:url(#linear-gradient-8);}.cls-10,.cls-9{fill:none;stroke-miterlimit:10;}.cls-9{stroke-width:4.13px;stroke:url(#linear-gradient-9);}.cls-10{stroke-width:4.12px;stroke:url(#linear-gradient-10);}.cls-11{fill:#071b26;}</style><linearGradient id="linear-gradient" x1="-545.5" y1="283.06" x2="-495.6" y2="399.07" gradientTransform="translate(437.76 29.45) rotate(-24.47)" gradientUnits="userSpaceOnUse"><stop offset="0" stop-color="#b48e5d"/><stop offset="0.19" stop-color="#8f6e3f"/><stop offset="0.38" stop-color="#c79d61"/><stop offset="0.54" stop-color="#eebe79"/><stop offset="0.63" stop-color="#fdca82"/><stop offset="0.7" stop-color="#ebbb77"/><stop offset="0.86" stop-color="#be955c"/><stop offset="1" stop-color="#8f6e3f"/></linearGradient><linearGradient id="linear-gradient-2" x1="-790.39" y1="-100.14" x2="-711.42" y2="6.21" gradientTransform="matrix(0.95, -0.3, 0.3, 0.95, 821.38, 304.01)" xlink:href="#linear-gradient"/><linearGradient id="linear-gradient-3" x1="-742.58" y1="-47.19" x2="-685.39" y2="48.75" gradientTransform="matrix(0.93, -0.38, 0.38, 0.93, 725.15, 195.39)" xlink:href="#linear-gradient"/><linearGradient id="linear-gradient-4" x1="581.87" y1="17.09" x2="549.7" y2="102.89" gradientTransform="matrix(1, 0, 0, 1, 0, 0)" xlink:href="#linear-gradient"/><linearGradient id="linear-gradient-5" x1="548.12" y1="494.22" x2="617.33" y2="567.34" gradientTransform="translate(-191.14 -350.91) rotate(-11.59)" xlink:href="#linear-gradient"/><linearGradient id="linear-gradient-6" x1="554.47" y1="488.2" x2="623.69" y2="561.32" gradientTransform="translate(-116.3 -458.33) rotate(-2.13)" xlink:href="#linear-gradient"/><linearGradient id="linear-gradient-7" x1="539.23" y1="502.63" x2="608.45" y2="575.75" gradientTransform="translate(-112.41 -457.6) rotate(-2.13)" xlink:href="#linear-gradient"/><linearGradient id="linear-gradient-8" x1="557.19" y1="485.63" x2="626.41" y2="558.74" gradientTransform="translate(-113.93 -462.15) rotate(-2.13)" xlink:href="#linear-gradient"/><linearGradient id="linear-gradient-9" x1="74.74" y1="464.78" x2="539.43" y2="464.78" gradientTransform="matrix(0.96, 0.12, -0.12, 0.99, 101.97, -153.57)" xlink:href="#linear-gradient"/><linearGradient id="linear-gradient-10" x1="122.12" y1="243.75" x2="583.11" y2="243.75" gradientTransform="matrix(1, -0.09, 0.09, 0.96, -32.39, 143.2)" xlink:href="#linear-gradient"/></defs><title>bg-card</title><g id="Layer_4" data-name="Layer 4"><path class="cls-1" d="M167.68,586.72c-8.7-.39-17.61-2.83-26-5.82-.27.29-.67.69-1.18,1.16a36.26,36.26,0,0,1-4.5,3.47,46.68,46.68,0,0,1-6.7,3.63,55.38,55.38,0,0,1-8,2.8,54.17,54.17,0,0,1-8.38,1.51c-1.37.14-2.7.21-4,.23s-2.5,0-3.64-.11-2.19-.2-3.15-.35-1.78-.31-2.47-.48a19.42,19.42,0,0,1-2.23-.64,18.6,18.6,0,0,1,1.62-1.64c.53-.49,1.18-1,1.93-1.63s1.62-1.21,2.57-1.85,2-1.27,3.13-1.87,2.32-1.2,3.58-1.76a53.56,53.56,0,0,1,8-2.78,54.91,54.91,0,0,1,8.38-1.5,45.6,45.6,0,0,1,7.62-.12c1.12.08,2.16.2,3.1.34l-1.88-.74a175.73,175.73,0,0,1-17.6-8.12l-.76.71a35.73,35.73,0,0,1-4.51,3.47,46.34,46.34,0,0,1-6.7,3.63,55,55,0,0,1-8,2.8,53,53,0,0,1-8.37,1.51c-1.37.14-2.7.21-4,.22s-2.5,0-3.64-.11-2.19-.2-3.15-.34-1.78-.32-2.48-.48a19.42,19.42,0,0,1-2.22-.64,18.77,18.77,0,0,1,1.62-1.64c.54-.49,1.19-1,1.93-1.64s1.62-1.21,2.58-1.85,2-1.27,3.12-1.87,2.33-1.2,3.58-1.75a53.91,53.91,0,0,1,8-2.78,54.78,54.78,0,0,1,8.38-1.5,46.4,46.4,0,0,1,7.63-.11c1.19.08,2.3.22,3.28.36q-8.26-4.6-16-10l-1,.48a37.31,37.31,0,0,1-5.35,1.94,45.7,45.7,0,0,1-7.49,1.43,54.16,54.16,0,0,1-8.51.23,53,53,0,0,1-8.44-1.09c-1.34-.28-2.63-.62-3.86-1s-2.38-.79-3.44-1.2-2-.86-2.9-1.28-1.61-.83-2.22-1.21a18.1,18.1,0,0,1-1.93-1.28,18.87,18.87,0,0,1,2-1.08c.65-.3,1.43-.63,2.34-1s1.9-.67,3-1,2.29-.6,3.55-.84,2.58-.44,3.94-.59a54.81,54.81,0,0,1,16.95.9A46.21,46.21,0,0,1,92.09,554q-6.37-4.75-12.4-9.95a37,37,0,0,1-4.48-1.92,46.48,46.48,0,0,1-6.47-4A54.69,54.69,0,0,1,56.86,526c-.79-1.12-1.51-2.24-2.16-3.34s-1.2-2.2-1.71-3.22-.91-2-1.25-2.91-.62-1.7-.81-2.39a17.05,17.05,0,0,1-.54-2.25,19,19,0,0,1,2.23.6c.69.22,1.48.51,2.37.87s1.86.8,2.88,1.32S60,515.8,61,516.48s2.19,1.42,3.29,2.24a54.19,54.19,0,0,1,6.41,5.61,56.07,56.07,0,0,1,5.45,6.54,46.39,46.39,0,0,1,3.87,6.57,36.74,36.74,0,0,1,2.08,5.3c.14.47.24.87.32,1.2a215.7,215.7,0,0,0,20.38,15.35,38.58,38.58,0,0,1-2.5-4.28,47,47,0,0,1-2.82-7.08,55.2,55.2,0,0,1-1.83-8.31,53.42,53.42,0,0,1-.51-8.49c0-1.38.11-2.71.25-4s.33-2.48.53-3.6.47-2.16.72-3.08.52-1.74.77-2.41a18.43,18.43,0,0,1,.89-2.12,17.62,17.62,0,0,1,1.44,1.8c.43.58.9,1.29,1.4,2.11s1,1.75,1.53,2.77,1,2.14,1.49,3.33.92,2.44,1.32,3.75a53.7,53.7,0,0,1,1.82,8.32,55.11,55.11,0,0,1,.5,8.5,46,46,0,0,1-.78,7.59,36.16,36.16,0,0,1-1.48,5.49c-.17.47-.33.88-.47,1.2A180.6,180.6,0,0,0,127.46,573l-.54-.73a37,37,0,0,1-2.91-4.88,46.63,46.63,0,0,1-2.82-7.08,54.76,54.76,0,0,1-1.83-8.32,53.53,53.53,0,0,1-.51-8.5c0-1.36.11-2.7.25-4s.33-2.48.53-3.61.46-2.16.72-3.08.51-1.73.76-2.41a19.12,19.12,0,0,1,.9-2.13,18.39,18.39,0,0,1,1.44,1.8c.42.58.89,1.29,1.39,2.11s1,1.75,1.53,2.77,1,2.13,1.49,3.32.92,2.45,1.32,3.76a55,55,0,0,1,2.32,16.82,46.45,46.45,0,0,1-.79,7.58,37.14,37.14,0,0,1-1.48,5.49c-.24.67-.46,1.2-.62,1.56,3,1.34,6,2.59,9,3.74,3.74,1.41,7.63,2.79,11.58,4-.21-.27-.46-.59-.74-1a35.16,35.16,0,0,1-2.91-4.88,45,45,0,0,1-2.82-7.08,55,55,0,0,1-2.35-16.81c0-1.38.12-2.71.25-4s.33-2.48.53-3.6.46-2.16.72-3.08.52-1.74.76-2.4a18.85,18.85,0,0,1,.9-2.13,19.27,19.27,0,0,1,1.45,1.8c.41.58.89,1.29,1.39,2.11s1,1.75,1.53,2.77,1,2.14,1.48,3.33.93,2.44,1.33,3.76a54.66,54.66,0,0,1,2.32,16.82,46.59,46.59,0,0,1-.78,7.58,36.58,36.58,0,0,1-1.48,5.49c-.24.68-.47,1.22-.63,1.59a75.48,75.48,0,0,0,17.63,3.2A1,1,0,0,1,167.68,586.72Z"/><path class="cls-2" d="M7.2,402.8A63.8,63.8,0,0,0,9,416.68a65.2,65.2,0,0,0,4.9,12.81A78.42,78.42,0,0,0,21.13,441a104.93,104.93,0,0,0,8.95,10.14c12.8,12.71,29.08,21.08,45.92,28.75,8.43,3.87,17.12,7.5,25.8,11.51,4.35,2,8.71,4.06,13.05,6.31s8.61,4.68,12.84,7.26a135.54,135.54,0,0,1,23.85,18.48,41.7,41.7,0,0,1,8.73,12.8c1.95,4.91,3.14,10.25,2.18,16l-1.67.78a81.82,81.82,0,0,1-12.16-8.36A101.41,101.41,0,0,1,139,536a114.77,114.77,0,0,0-9.71-8.69c-3.45-2.73-7.1-5.27-10.81-7.77-14.95-9.86-32-17.47-48.93-26.58A218.6,218.6,0,0,1,44.75,477.6a132.55,132.55,0,0,1-11.44-9.4,106.53,106.53,0,0,1-10.08-10.91A85,85,0,0,1,9.07,431.48a69.23,69.23,0,0,1-2.83-14.35A55.91,55.91,0,0,1,7.2,402.8Z"/><path class="cls-3" d="M160.27,536.27a41.7,41.7,0,0,0-8.73-12.8A135.54,135.54,0,0,0,127.69,505c-4.23-2.58-8.51-5-12.84-7.26s-8.71-4.3-13.05-6.31c-8.68-4-17.37-7.64-25.8-11.51-16.84-7.67-33.12-16-45.92-28.75A104.93,104.93,0,0,1,21.13,441a78.42,78.42,0,0,1-7.19-11.53A65.2,65.2,0,0,1,9,416.68,63.8,63.8,0,0,1,7.2,402.8a53.22,53.22,0,0,0-1,8.17c2.25,21.59,17.07,42.84,34.19,56,19.95,15.35,43.9,24.36,66.26,35.91,20.44,10.56,44.72,27.39,55.14,49.66l.64-.29C163.41,546.52,162.21,541.18,160.27,536.27Z"/><path class="cls-4" d="M531.42,118.93c1-8.65,4.06-17.37,7.62-25.49-.27-.29-.64-.71-1.07-1.26a36.23,36.23,0,0,1-3.15-4.73,46.69,46.69,0,0,1-3.15-6.94,55.42,55.42,0,0,1-2.22-8.22,54.18,54.18,0,0,1-.92-8.46c0-1.38,0-2.71.05-4s.21-2.49.36-3.63.36-2.17.57-3.12.44-1.75.65-2.43a19.44,19.44,0,0,1,.79-2.18,18.57,18.57,0,0,1,1.53,1.73c.45.56,1,1.25,1.5,2s1.09,1.7,1.66,2.69,1.13,2.08,1.65,3.25,1,2.4,1.5,3.69A53.53,53.53,0,0,1,541,70.12a54.89,54.89,0,0,1,.9,8.46,45.63,45.63,0,0,1-.42,7.61c-.16,1.11-.35,2.14-.56,3.06l.87-1.83a175.67,175.67,0,0,1,9.34-17l-.65-.81a35.76,35.76,0,0,1-3.14-4.74A46.38,46.38,0,0,1,544.18,58,55,55,0,0,1,542,49.75a53,53,0,0,1-.92-8.46c0-1.37,0-2.71.06-4s.21-2.49.36-3.63.36-2.17.56-3.11.44-1.76.65-2.44a19.48,19.48,0,0,1,.79-2.17A18.75,18.75,0,0,1,545,27.68c.45.57,1,1.26,1.5,2s1.1,1.7,1.66,2.7,1.12,2.08,1.65,3.25,1,2.4,1.5,3.7a53.92,53.92,0,0,1,2.21,8.22,54.79,54.79,0,0,1,.91,8.46,46.41,46.41,0,0,1-.42,7.62c-.17,1.19-.38,2.28-.59,3.25q5.17-7.92,11.08-15.3c-.12-.29-.26-.62-.41-1a37.29,37.29,0,0,1-1.56-5.47,45.72,45.72,0,0,1-.9-7.57A54.22,54.22,0,0,1,562,29a52.92,52.92,0,0,1,1.68-8.34c.38-1.32.8-2.58,1.26-3.78s1-2.32,1.44-3.35,1-2,1.48-2.8.95-1.55,1.36-2.13a18.16,18.16,0,0,1,1.41-1.83,18.85,18.85,0,0,1,.93,2.11c.25.67.53,1.48.8,2.4s.53,1.95.77,3.07.44,2.33.59,3.6.26,2.6.31,4A54.8,54.8,0,0,1,572,38.81a46.2,46.2,0,0,1-2.64,7q5.18-6,10.79-11.67a37,37,0,0,1,2.23-4.34,46.5,46.5,0,0,1,4.48-6.17,54.69,54.69,0,0,1,12.93-11c1.17-.71,2.34-1.35,3.48-1.92s2.28-1,3.33-1.48,2.07-.77,3-1,1.74-.49,2.44-.64a17.05,17.05,0,0,1,2.28-.38,19,19,0,0,1-.75,2.18c-.27.67-.61,1.44-1,2.31s-.93,1.8-1.52,2.78-1.25,2-2,3-1.57,2.09-2.46,3.13a54.21,54.21,0,0,1-6,6,56.09,56.09,0,0,1-6.9,5,46.39,46.39,0,0,1-6.82,3.4,36.71,36.71,0,0,1-5.43,1.7c-.47.11-.88.18-1.22.24a215.6,215.6,0,0,0-16.74,19.26A38.6,38.6,0,0,1,567.78,54,47,47,0,0,1,575,51.66a55.23,55.23,0,0,1,8.42-1.24,53.4,53.4,0,0,1,8.51.08c1.37.13,2.7.3,4,.52s2.45.5,3.56.78,2.12.62,3,.93,1.7.64,2.35.94a18.44,18.44,0,0,1,2.06,1A17.66,17.66,0,0,1,605,56c-.61.38-1.35.8-2.2,1.25s-1.82.89-2.87,1.33-2.2.87-3.43,1.26-2.5.74-3.84,1.05a53.7,53.7,0,0,1-8.43,1.23,55.09,55.09,0,0,1-8.51-.1,46,46,0,0,1-7.51-1.31,36.14,36.14,0,0,1-5.37-1.86c-.46-.2-.86-.39-1.17-.56a180.65,180.65,0,0,0-13.82,21.44l.76-.49a37,37,0,0,1,5.08-2.56A46.6,46.6,0,0,1,561,74.4a54.71,54.71,0,0,1,8.43-1.24,53.53,53.53,0,0,1,8.51.09c1.36.12,2.69.3,3.94.52s2.45.5,3.56.78,2.13.61,3,.93,1.69.64,2.35.93a19.14,19.14,0,0,1,2.06,1,18.39,18.39,0,0,1-1.9,1.31c-.61.38-1.35.8-2.2,1.24s-1.82.89-2.88,1.33-2.2.88-3.42,1.25-2.51.75-3.85,1.06a54.1,54.1,0,0,1-8.42,1.22,54.42,54.42,0,0,1-8.52-.09,46.44,46.44,0,0,1-7.51-1.32,37.12,37.12,0,0,1-5.37-1.86c-.65-.28-1.16-.54-1.51-.73-1.54,2.87-3,5.78-4.36,8.75-1.67,3.63-3.32,7.41-4.78,11.27.28-.19.62-.42,1-.67a35.16,35.16,0,0,1,5.08-2.56,45,45,0,0,1,7.26-2.32,55,55,0,0,1,16.93-1.16c1.37.12,2.7.3,4,.53s2.45.5,3.56.78,2.12.61,3,.93,1.69.64,2.34.93a18.85,18.85,0,0,1,2.06,1,19.28,19.28,0,0,1-1.9,1.32c-.61.37-1.35.8-2.2,1.23s-1.82.89-2.87,1.34-2.21.88-3.42,1.25-2.5.75-3.84,1.06a54.66,54.66,0,0,1-16.94,1.14,46.61,46.61,0,0,1-7.5-1.31,36.59,36.59,0,0,1-5.38-1.86c-.66-.29-1.19-.55-1.54-.74a75.47,75.47,0,0,0-4.43,17.36A1,1,0,0,1,531.42,118.93Z"/><path class="cls-5" d="M528.08,86.81a44.66,44.66,0,0,0-5.77-25.21L519.85,63a41.83,41.83,0,0,1,5.5,21.41A129.92,129.92,0,0,1,497.87,50l-2.49,1.36a131.44,131.44,0,0,0,20.1,27.49,41.85,41.85,0,0,1-19.8-8.28l-1.73,2.24A44.66,44.66,0,0,0,518.58,82a135,135,0,0,0,32.56,23.73l1.3-2.51A131.48,131.48,0,0,1,528.08,86.81Z"/><circle class="cls-6" cx="495.58" cy="47.76" r="4.84" transform="matrix(0.99, -0.16, 0.16, 0.99, -1.11, 82.08)"/><circle class="cls-7" cx="493" cy="71.57" r="4.84" transform="translate(-5.06 81.99) rotate(-9.46)"/><circle class="cls-8" cx="519.86" cy="60.17" r="4.84" transform="translate(-2.82 86.24) rotate(-9.46)"/><polygon class="cls-9" points="516.19 624.03 87.19 581.81 165.71 63.66 594.71 105.88 516.19 624.03"/><polygon class="cls-10" points="592.64 577.45 148.56 611.57 89.26 110.23 533.34 76.11 592.64 577.45"/><rect class="cls-11" x="126.91" y="93.39" width="428.07" height="500.91"/></g></svg>