<svg id="Header_BG" data-name="Header BG" xmlns="http://www.w3.org/2000/svg" xmlns:xlink="http://www.w3.org/1999/xlink" viewBox="0 0 548 723"><defs><style>.cls-1{fill:url(#linear-gradient);}.cls-2{fill:url(#linear-gradient-2);}.cls-3{fill:url(#linear-gradient-3);}.cls-4{fill:url(#linear-gradient-4);}.cls-5{fill:url(#linear-gradient-5);}.cls-6{fill:url(#linear-gradient-6);}.cls-7{fill:url(#linear-gradient-7);}.cls-8{fill:url(#linear-gradient-8);}.cls-9{fill:url(#linear-gradient-9);}.cls-10{fill:url(#linear-gradient-10);}.cls-11{fill:url(#linear-gradient-11);}.cls-12{fill:url(#linear-gradient-12);}.cls-13{fill:url(#linear-gradient-13);}.cls-14{fill:url(#linear-gradient-14);}.cls-15{fill:url(#linear-gradient-15);}.cls-16{fill:url(#linear-gradient-16);}.cls-17{fill:url(#linear-gradient-17);}.cls-18{fill:url(#linear-gradient-18);}.cls-19{fill:url(#linear-gradient-19);}.cls-20{fill:url(#linear-gradient-20);}.cls-21{fill:url(#linear-gradient-21);}.cls-22{fill:url(#linear-gradient-22);}.cls-23{fill:url(#linear-gradient-23);}.cls-24{fill:url(#linear-gradient-24);}.cls-25{fill:url(#linear-gradient-25);}.cls-26{fill:url(#linear-gradient-26);}.cls-27{fill:url(#linear-gradient-27);}.cls-28{fill:url(#linear-gradient-28);}.cls-29{fill:url(#linear-gradient-29);}.cls-30{fill:url(#linear-gradient-30);}.cls-31{fill:url(#linear-gradient-31);}.cls-32{fill:url(#linear-gradient-32);}.cls-33{fill:url(#linear-gradient-33);}.cls-34{fill:url(#linear-gradient-34);}.cls-35{fill:url(#linear-gradient-35);}.cls-36{fill:url(#linear-gradient-36);}.cls-37{fill:url(#linear-gradient-37);}.cls-38{fill:url(#linear-gradient-38);}.cls-39{fill:url(#linear-gradient-39);}.cls-40{fill:url(#linear-gradient-40);}.cls-41{fill:url(#linear-gradient-41);}.cls-42{fill:url(#linear-gradient-42);}.cls-43{fill:url(#linear-gradient-43);}.cls-44{fill:url(#linear-gradient-44);}.cls-45{fill:url(#linear-gradient-45);}.cls-46{fill:url(#linear-gradient-46);}.cls-47{fill:url(#linear-gradient-47);}.cls-48{fill:url(#linear-gradient-48);}.cls-49{fill:url(#linear-gradient-49);}.cls-50{fill:url(#linear-gradient-50);}.cls-51{fill:url(#linear-gradient-51);}.cls-52{fill:url(#linear-gradient-52);}.cls-53{fill:url(#linear-gradient-53);}.cls-54{fill:url(#linear-gradient-54);}.cls-55{fill:url(#linear-gradient-55);}.cls-56{fill:url(#linear-gradient-56);}.cls-57{fill:url(#linear-gradient-57);}.cls-58{fill:url(#linear-gradient-58);}.cls-59{fill:url(#linear-gradient-59);}.cls-60,.cls-66{fill:none;stroke-miterlimit:10;}.cls-60{stroke:url(#linear-gradient-60);}.cls-61{fill:url(#linear-gradient-61);}.cls-62{fill:url(#linear-gradient-62);}.cls-63{fill:url(#linear-gradient-63);}.cls-64{fill:url(#linear-gradient-64);}.cls-65{fill:url(#linear-gradient-65);}.cls-66{stroke:url(#linear-gradient-66);}.cls-67{fill:url(#linear-gradient-67);}.cls-68{fill:url(#linear-gradient-68);}.cls-69{fill:url(#linear-gradient-69);}.cls-70{fill:#f9f6f2;}.cls-71{fill:url(#linear-gradient-70);}.cls-72{fill:url(#linear-gradient-71);}</style><linearGradient id="linear-gradient" x1="588.7" y1="-472.69" x2="1682.1" y2="166.56" gradientTransform="matrix(0, -1, -1, 0, 260.7, 1414.74)" gradientUnits="userSpaceOnUse"><stop offset="0" stop-color="#b48e5d"/><stop offset="0.19" stop-color="#8f6e3f"/><stop offset="0.38" stop-color="#c79d61"/><stop offset="0.54" stop-color="#eebe79"/><stop offset="0.63" stop-color="#fdca82"/><stop offset="0.7" stop-color="#ebbb77"/><stop offset="0.86" stop-color="#be955c"/><stop offset="1" stop-color="#8f6e3f"/></linearGradient><linearGradient id="linear-gradient-2" x1="597.83" y1="-488.24" x2="1691.19" y2="150.99" gradientTransform="matrix(0, -1, -1, 0, 231.63, 1425.76)" xlink:href="#linear-gradient"/><linearGradient id="linear-gradient-3" x1="600.11" y1="-482.15" x2="1693.41" y2="157.04" gradientTransform="matrix(0, -1, -1, 0, 235.18, 1433.95)" xlink:href="#linear-gradient"/><linearGradient id="linear-gradient-4" x1="592.46" y1="-474.67" x2="1685.79" y2="164.53" gradientTransform="matrix(0, -1, -1, 0, 249.95, 1434.14)" xlink:href="#linear-gradient"/><linearGradient id="linear-gradient-5" x1="988.51" y1="-242.91" x2="1535.19" y2="76.7" gradientTransform="matrix(0, -1, -1, 0, 252.74, 1425.35)" xlink:href="#linear-gradient"/><linearGradient id="linear-gradient-6" x1="992.18" y1="-238.92" x2="1538.85" y2="80.69" gradientTransform="matrix(0, -1, -1, 0, 252.88, 1432.83)" xlink:href="#linear-gradient"/><linearGradient id="linear-gradient-7" x1="995.5" y1="-237.47" x2="1542.23" y2="82.17" gradientTransform="matrix(0, -1, -1, 0, 250.93, 1437.51)" xlink:href="#linear-gradient"/><linearGradient id="linear-gradient-8" x1="995.51" y1="-243.07" x2="1542.23" y2="76.56" gradientTransform="matrix(0, -1, -1, 0, 245.58, 1431.91)" xlink:href="#linear-gradient"/><linearGradient id="linear-gradient-9" x1="992.58" y1="-242.27" x2="1539.24" y2="77.34" gradientTransform="matrix(0, -1, -1, 0, 249.29, 1429.86)" xlink:href="#linear-gradient"/><linearGradient id="linear-gradient-10" x1="991.61" y1="-253.09" x2="1538.33" y2="66.54" gradientTransform="matrix(0, -1, -1, 0, 239.9, 1418.18)" xlink:href="#linear-gradient"/><linearGradient id="linear-gradient-11" x1="974.45" y1="-224.54" x2="1521.18" y2="95.1" gradientTransform="matrix(0, -1, -1, 0, 284.31, 1430.32)" xlink:href="#linear-gradient"/><linearGradient id="linear-gradient-12" x1="974.88" y1="-222.14" x2="1521.55" y2="97.47" gradientTransform="matrix(0, -1, -1, 0, 286.19, 1433.07)" xlink:href="#linear-gradient"/><linearGradient id="linear-gradient-13" x1="970.88" y1="-225.74" x2="1517.6" y2="93.9" gradientTransform="matrix(0, -1, -1, 0, 286.74, 1425.7)" xlink:href="#linear-gradient"/><linearGradient id="linear-gradient-14" x1="1029.55" y1="-242.29" x2="1576.28" y2="77.35" gradientTransform="matrix(0, -1, -1, 0, 212.31, 1465.21)" xlink:href="#linear-gradient"/><linearGradient id="linear-gradient-15" x1="1001.22" y1="-264.9" x2="1547.89" y2="54.71" gradientTransform="matrix(0, -1, -1, 0, 219.04, 1415.51)" xlink:href="#linear-gradient"/><linearGradient id="linear-gradient-16" x1="1006.25" y1="-246.43" x2="1552.98" y2="73.21" gradientTransform="matrix(0, -1, -1, 0, 231.64, 1438.83)" xlink:href="#linear-gradient"/><linearGradient id="linear-gradient-17" x1="1007.43" y1="-244.49" x2="1554.15" y2="75.14" gradientTransform="matrix(0, -1, -1, 0, 232.31, 1441.88)" xlink:href="#linear-gradient"/><linearGradient id="linear-gradient-18" x1="605.06" y1="-500.63" x2="1698.44" y2="138.6" gradientTransform="matrix(0, -1, -1, 0, 211.11, 1425.34)" xlink:href="#linear-gradient"/><linearGradient id="linear-gradient-19" x1="598.83" y1="-489.9" x2="1692.16" y2="149.31" gradientTransform="matrix(0, -1, -1, 0, 226.6, 1433.56)" xlink:href="#linear-gradient"/><linearGradient id="linear-gradient-20" x1="601.56" y1="-494.51" x2="1694.86" y2="144.68" gradientTransform="matrix(0, -1, -1, 0, 206.38, 1477.3)" xlink:href="#linear-gradient"/><linearGradient id="linear-gradient-21" x1="599.77" y1="-491.47" x2="1693.08" y2="147.73" gradientTransform="matrix(0, -1, -1, 0, 207.85, 1489.88)" xlink:href="#linear-gradient"/><linearGradient id="linear-gradient-22" x1="606.73" y1="-503.54" x2="1700.14" y2="135.71" gradientTransform="matrix(0, -1, -1, 0, 191.15, 1478.25)" xlink:href="#linear-gradient"/><linearGradient id="linear-gradient-23" x1="578.44" y1="-455.01" x2="1671.76" y2="184.2" gradientTransform="matrix(0, -1, -1, 0, 292.05, 1407.88)" xlink:href="#linear-gradient"/><linearGradient id="linear-gradient-24" x1="564.97" y1="-431.98" x2="1658.3" y2="207.23" gradientTransform="matrix(0, -1, -1, 0, 322.83, 1434.35)" xlink:href="#linear-gradient"/><linearGradient id="linear-gradient-25" x1="588.53" y1="-472.27" x2="1681.85" y2="166.94" gradientTransform="matrix(0, -1, -1, 0, 258.58, 1424.39)" xlink:href="#linear-gradient"/><linearGradient id="linear-gradient-26" x1="588.82" y1="-472.83" x2="1682.18" y2="166.4" gradientTransform="matrix(0, -1, -1, 0, 256.15, 1429.7)" xlink:href="#linear-gradient"/><linearGradient id="linear-gradient-27" x1="461.1" y1="-254.44" x2="1554.5" y2="384.81" gradientTransform="matrix(0, -1, -1, 0, 537.45, 1717.64)" xlink:href="#linear-gradient"/><linearGradient id="linear-gradient-28" x1="471.1" y1="-234.22" x2="1564.5" y2="405.03" gradientTransform="matrix(0, -1, -1, 0, 607.15, 1536.42)" xlink:href="#linear-gradient"/><linearGradient id="linear-gradient-29" x1="468.32" y1="-229.35" x2="1561.65" y2="409.86" gradientTransform="matrix(0, -1, -1, 0, 611.86, 1548.13)" xlink:href="#linear-gradient"/><linearGradient id="linear-gradient-30" x1="483.69" y1="-255.76" x2="1577.09" y2="383.49" gradientTransform="matrix(0, -1, -1, 0, 571.52, 1535.62)" xlink:href="#linear-gradient"/><linearGradient id="linear-gradient-31" x1="479.99" y1="-249.4" x2="1573.38" y2="389.84" gradientTransform="matrix(0, -1, -1, 0, 578.97, 1546.54)" xlink:href="#linear-gradient"/><linearGradient id="linear-gradient-32" x1="486.67" y1="-260.71" x2="1579.99" y2="378.49" gradientTransform="matrix(0, -1, -1, 0, 555.13, 1563.86)" xlink:href="#linear-gradient"/><linearGradient id="linear-gradient-33" x1="501.17" y1="-285.65" x2="1594.57" y2="353.59" gradientTransform="matrix(0, -1, -1, 0, 507.76, 1584.41)" xlink:href="#linear-gradient"/><linearGradient id="linear-gradient-34" x1="448.15" y1="-232.29" x2="1541.55" y2="406.96" gradientTransform="matrix(0, -1, -1, 0, 562.35, 1759.5)" xlink:href="#linear-gradient"/><linearGradient id="linear-gradient-35" x1="429.13" y1="-199.62" x2="1522.46" y2="439.59" gradientTransform="matrix(0, -1, -1, 0, 606.97, 1793.48)" xlink:href="#linear-gradient"/><linearGradient id="linear-gradient-36" x1="428.53" y1="-198.74" x2="1521.93" y2="440.51" gradientTransform="matrix(0, -1, -1, 0, 606.04, 1802.07)" xlink:href="#linear-gradient"/><linearGradient id="linear-gradient-37" x1="425.54" y1="-193.47" x2="1518.87" y2="445.73" gradientTransform="matrix(0, -1, -1, 0, 610.83, 1815.73)" xlink:href="#linear-gradient"/><linearGradient id="linear-gradient-38" x1="421.39" y1="-186.37" x2="1514.72" y2="452.84" gradientTransform="matrix(0, -1, -1, 0, 616.58, 1837)" xlink:href="#linear-gradient"/><linearGradient id="linear-gradient-39" x1="437.11" y1="-234.87" x2="1530.47" y2="404.36" gradientTransform="matrix(0, -1, -1, 0, 526.33, 1902.13)" xlink:href="#linear-gradient"/><linearGradient id="linear-gradient-40" x1="432.29" y1="-226.55" x2="1525.62" y2="412.66" gradientTransform="matrix(0, -1, -1, 0, 544.18, 1888.06)" xlink:href="#linear-gradient"/><linearGradient id="linear-gradient-41" x1="432.55" y1="-227.14" x2="1525.95" y2="412.1" gradientTransform="matrix(0, -1, -1, 0, 536.26, 1912.51)" xlink:href="#linear-gradient"/><linearGradient id="linear-gradient-42" x1="433.79" y1="-229.12" x2="1527.12" y2="410.09" gradientTransform="matrix(0, -1, -1, 0, 531.64, 1916.93)" xlink:href="#linear-gradient"/><linearGradient id="linear-gradient-43" x1="428.31" y1="-219.92" x2="1521.72" y2="419.34" gradientTransform="matrix(0, -1, -1, 0, 545.18, 1923.41)" xlink:href="#linear-gradient"/><linearGradient id="linear-gradient-44" x1="432.53" y1="-226.96" x2="1525.86" y2="412.25" gradientTransform="matrix(0, -1, -1, 0, 537.77, 1908.07)" xlink:href="#linear-gradient"/><linearGradient id="linear-gradient-45" x1="431.68" y1="-225.48" x2="1525" y2="413.72" gradientTransform="matrix(0, -1, -1, 0, 536.3, 1921.8)" xlink:href="#linear-gradient"/><linearGradient id="linear-gradient-46" x1="430.46" y1="-223.49" x2="1523.82" y2="415.74" gradientTransform="matrix(0, -1, -1, 0, 540.91, 1917.38)" xlink:href="#linear-gradient"/><linearGradient id="linear-gradient-47" x1="429.26" y1="-221.48" x2="1522.64" y2="417.76" gradientTransform="matrix(0, -1, -1, 0, 542.16, 1924.8)" xlink:href="#linear-gradient"/><linearGradient id="linear-gradient-48" x1="382.69" y1="-120.25" x2="1476.05" y2="518.98" gradientTransform="matrix(0, -1, -1, 0, 680.82, 1997.35)" xlink:href="#linear-gradient"/><linearGradient id="linear-gradient-49" x1="377.28" y1="-111" x2="1470.64" y2="528.23" gradientTransform="matrix(0, -1, -1, 0, 696.04, 1998)" xlink:href="#linear-gradient"/><linearGradient id="linear-gradient-50" x1="378.07" y1="-112.42" x2="1471.47" y2="526.82" gradientTransform="matrix(0, -1, -1, 0, 699.97, 1976.04)" xlink:href="#linear-gradient"/><linearGradient id="linear-gradient-51" x1="407.68" y1="-162.99" x2="1501.04" y2="476.24" gradientTransform="matrix(0, -1, -1, 0, 618.05, 1967.96)" xlink:href="#linear-gradient"/><linearGradient id="linear-gradient-52" x1="415.99" y1="-177.3" x2="1509.4" y2="461.96" gradientTransform="matrix(0, -1, -1, 0, 627.57, 1851.63)" xlink:href="#linear-gradient"/><linearGradient id="linear-gradient-53" x1="440.43" y1="-219.07" x2="1533.82" y2="420.18" gradientTransform="matrix(0, -1, -1, 0, 593.83, 1726.41)" xlink:href="#linear-gradient"/><linearGradient id="linear-gradient-54" x1="592.33" y1="-478.81" x2="1685.68" y2="160.41" gradientTransform="matrix(0, -1, -1, 0, 247.79, 1424.09)" xlink:href="#linear-gradient"/><linearGradient id="linear-gradient-55" x1="106.54" y1="358.54" x2="170.96" y2="358.54" gradientUnits="userSpaceOnUse"><stop offset="0" stop-color="#648298"/><stop offset="0.99" stop-color="#c2d7ef"/></linearGradient><linearGradient id="linear-gradient-56" x1="123" y1="287.53" x2="165.05" y2="287.53" xlink:href="#linear-gradient-55"/><linearGradient id="linear-gradient-57" x1="193.7" y1="350.52" x2="232.15" y2="350.52" xlink:href="#linear-gradient-55"/><linearGradient id="linear-gradient-58" x1="186.99" y1="279.06" x2="228.9" y2="279.06" xlink:href="#linear-gradient-55"/><linearGradient id="linear-gradient-59" x1="178.15" y1="236.26" x2="216.63" y2="236.26" xlink:href="#linear-gradient-55"/><linearGradient id="linear-gradient-60" x1="1472.31" y1="337.43" x2="1587.32" y2="337.43" gradientTransform="matrix(-1, 0, 0, 1, 1702.39, 0)" xlink:href="#linear-gradient-55"/><linearGradient id="linear-gradient-61" x1="307.47" y1="471.16" x2="421.29" y2="471.16" xlink:href="#linear-gradient-55"/><linearGradient id="linear-gradient-62" x1="377.2" y1="485.28" x2="507.09" y2="485.28" xlink:href="#linear-gradient-55"/><linearGradient id="linear-gradient-63" x1="307.15" y1="554.01" x2="415.09" y2="554.01" xlink:href="#linear-gradient-55"/><linearGradient id="linear-gradient-64" x1="389.2" y1="560.32" x2="491.97" y2="560.32" xlink:href="#linear-gradient-55"/><linearGradient id="linear-gradient-65" x1="432.04" y1="557.56" x2="549.45" y2="557.56" xlink:href="#linear-gradient-55"/><linearGradient id="linear-gradient-66" x1="1164.91" y1="519.66" x2="1487.55" y2="519.66" gradientTransform="matrix(-1, 0, 0, 1, 1702.39, 0)" xlink:href="#linear-gradient-55"/><linearGradient id="linear-gradient-67" x1="1230.07" y1="432.41" x2="1626.8" y2="432.41" gradientTransform="matrix(-1, -0.04, -0.04, 1, 1649.34, 105.22)" xlink:href="#linear-gradient"/><linearGradient id="linear-gradient-68" x1="1191.55" y1="148.32" x2="1648.45" y2="148.32" gradientTransform="matrix(-1, -0.04, -0.04, 1, 1649.34, 105.22)" xlink:href="#linear-gradient"/><linearGradient id="linear-gradient-69" x1="964.13" y1="96.61" x2="1421.01" y2="96.61" gradientTransform="matrix(-0.98, -0.2, -0.2, 0.98, 1410.12, 352.51)" xlink:href="#linear-gradient"/><linearGradient id="linear-gradient-70" x1="1230.07" y1="307.14" x2="1626.8" y2="307.14" gradientTransform="matrix(-1, -0.04, -0.04, 1, 1649.34, 105.22)" xlink:href="#linear-gradient"/><linearGradient id="linear-gradient-71" x1="1241.48" y1="470.29" x2="1638.21" y2="470.29" gradientTransform="matrix(-1, -0.04, -0.04, 1, 1649.34, 105.22)" xlink:href="#linear-gradient"/></defs><title>flower2-left</title><g id="_Group_" data-name="&lt;Group&gt;"><circle id="_Path_" data-name="&lt;Path&gt;" class="cls-1" cx="270.19" cy="33.77" r="0.78" transform="matrix(0.04, -1, 1, 0.04, 224.33, 302.17)"/><circle id="_Path_2" data-name="&lt;Path&gt;" class="cls-2" cx="249.89" cy="24.08" r="0.78" transform="translate(214.63 272.64) rotate(-87.43)"/><circle id="_Path_3" data-name="&lt;Path&gt;" class="cls-3" cx="247.38" cy="30.03" r="0.78" transform="translate(206.29 275.82) rotate(-87.43)"/><circle id="_Path_4" data-name="&lt;Path&gt;" class="cls-4" cx="254.67" cy="37.85" r="0.78" transform="translate(205.44 290.57) rotate(-87.43)"/><circle id="_Path_5" data-name="&lt;Path&gt;" class="cls-5" cx="260.66" cy="34.91" r="0.39" transform="translate(214.09 293.74) rotate(-87.43)"/><circle id="_Path_6" data-name="&lt;Path&gt;" class="cls-6" cx="256.82" cy="38.73" r="0.39" transform="translate(206.61 293.56) rotate(-87.43)"/><circle id="_Path_7" data-name="&lt;Path&gt;" class="cls-7" cx="253.4" cy="40.05" r="0.39" transform="translate(202.02 291.4) rotate(-87.43)"/><circle id="_Path_8" data-name="&lt;Path&gt;" class="cls-8" cx="253.65" cy="34.45" r="0.39" transform="translate(207.86 286.3) rotate(-87.43)"/><circle id="_Path_9" data-name="&lt;Path&gt;" class="cls-9" cx="256.58" cy="35.36" r="0.39" transform="translate(209.74 290.1) rotate(-87.43)"/><circle id="_Path_10" data-name="&lt;Path&gt;" class="cls-10" cx="257.99" cy="24.61" r="0.39" transform="translate(221.82 281.24) rotate(-87.43)"/><circle id="_Path_11" data-name="&lt;Path&gt;" class="cls-11" cx="273.85" cy="53.91" r="0.39" transform="translate(207.71 325.06) rotate(-87.43)"/><circle id="_Path_12" data-name="&lt;Path&gt;" class="cls-12" cx="273.35" cy="56.27" r="0.39" transform="translate(204.88 326.82) rotate(-87.43)"/><circle id="_Path_13" data-name="&lt;Path&gt;" class="cls-13" cx="277.48" cy="52.87" r="0.39" transform="translate(212.21 327.7) rotate(-87.43)"/><circle id="_Path_14" data-name="&lt;Path&gt;" class="cls-14" cx="219.6" cy="33.7" r="0.39" transform="translate(176.08 251.57) rotate(-87.43)"/><circle id="_Path_15" data-name="&lt;Path&gt;" class="cls-15" cx="248.96" cy="12.37" r="0.39" transform="translate(225.43 260.52) rotate(-87.43)"/><circle id="_Path_16" data-name="&lt;Path&gt;" class="cls-16" cx="243.06" cy="30.62" r="0.39" transform="translate(201.57 272.06) rotate(-87.43)"/><circle id="_Path_17" data-name="&lt;Path&gt;" class="cls-17" cx="241.8" cy="32.5" r="0.39" transform="translate(198.49 272.59) rotate(-87.43)"/><circle id="_Path_18" data-name="&lt;Path&gt;" class="cls-18" cx="239.85" cy="13.13" r="0.78" transform="translate(215.97 252.16) rotate(-87.43)"/><circle id="_Path_19" data-name="&lt;Path&gt;" class="cls-19" cx="243.3" cy="25.35" r="0.78" transform="translate(207.06 267.26) rotate(-87.43)"/><circle id="_Path_20" data-name="&lt;Path&gt;" class="cls-20" cx="210.32" cy="36.64" r="0.78" transform="translate(164.28 245.1) rotate(-87.43)"/><circle id="_Path_21" data-name="&lt;Path&gt;" class="cls-21" cx="204.47" cy="43.7" r="0.78" transform="translate(151.64 246.01) rotate(-87.43)"/><circle id="_Path_22" data-name="&lt;Path&gt;" class="cls-22" cx="202.2" cy="29.15" r="0.78" transform="translate(164.01 229.84) rotate(-87.43)"/><circle id="_Path_23" data-name="&lt;Path&gt;" class="cls-23" cx="289.45" cy="46.73" r="0.78" transform="translate(229.78 333.8) rotate(-87.43)"/><circle id="_Path_24" data-name="&lt;Path&gt;" class="cls-24" cx="291" cy="76.07" r="0.78" transform="translate(201.95 363.36) rotate(-87.43)"/><circle id="_Path_25" data-name="&lt;Path&gt;" class="cls-25" cx="264.08" cy="37.49" r="0.78" transform="translate(214.78 299.62) rotate(-87.43)"/><circle id="_Path_26" data-name="&lt;Path&gt;" class="cls-26" cx="260.09" cy="38.88" r="0.78" transform="translate(209.59 296.96) rotate(-87.43)"/><circle id="_Path_27" data-name="&lt;Path&gt;" class="cls-27" cx="250.16" cy="329.95" r="0.78" transform="translate(-90.68 565.05) rotate(-87.43)"/><circle id="_Path_28" data-name="&lt;Path&gt;" class="cls-28" cx="379.78" cy="275.79" r="0.78" transform="translate(87.23 642.82) rotate(-87.43)"/><circle id="_Path_29" data-name="&lt;Path&gt;" class="cls-29" cx="376.01" cy="284.11" r="0.78" transform="translate(75.31 647) rotate(-87.43)"/><circle id="_Path_30" data-name="&lt;Path&gt;" class="cls-30" cx="362.38" cy="256.76" r="0.78" transform="translate(89.62 607.26) rotate(-87.43)"/><circle id="_Path_31" data-name="&lt;Path&gt;" class="cls-31" cx="360.4" cy="266.11" r="0.78" transform="translate(78.38 614.21) rotate(-87.43)"/><circle id="_Path_32" data-name="&lt;Path&gt;" class="cls-32" cx="339.42" cy="262.31" r="0.78" transform="translate(62.15 589.62) rotate(-87.43)"/><circle id="_Path_33" data-name="&lt;Path&gt;" class="cls-33" cx="304.99" cy="247.81" r="0.78" transform="matrix(0.04, -1, 1, 0.04, 43.74, 541.38)"/><circle id="_Path_34" data-name="&lt;Path&gt;" class="cls-34" cx="240.72" cy="363.91" r="0.78" transform="translate(-133.62 588.05) rotate(-87.43)"/><circle id="_Path_35" data-name="&lt;Path&gt;" class="cls-35" cx="245.26" cy="404.22" r="0.78" transform="translate(-169.56 631.1) rotate(-87.43)"/><circle id="_Path_36" data-name="&lt;Path&gt;" class="cls-36" cx="240.3" cy="408.03" r="0.78" transform="matrix(0.04, -1, 1, 0.04, -178.1, 629.79)"/><circle id="_Path_37" data-name="&lt;Path&gt;" class="cls-37" cx="235.56" cy="417.37" r="0.78" transform="translate(-191.96 633.96) rotate(-87.43)"/><circle id="_Path_38" data-name="&lt;Path&gt;" class="cls-38" cx="227.3" cy="431.01" r="0.78" transform="translate(-213.47 638.75) rotate(-87.43)"/><circle id="_Path_39" data-name="&lt;Path&gt;" class="cls-39" cx="148.12" cy="416.38" r="0.78" transform="translate(-274.49 545.67) rotate(-87.43)"/><circle id="_Path_40" data-name="&lt;Path&gt;" class="cls-40" cx="164.4" cy="418.68" r="0.78" transform="translate(-261.23 564.13) rotate(-87.43)"/><circle id="_Path_41" data-name="&lt;Path&gt;" class="cls-41" cx="147.66" cy="426.76" r="0.78" transform="matrix(0.04, -1, 1, 0.04, -285.3, 555.12)"/><circle id="_Path_42" data-name="&lt;Path&gt;" class="cls-42" cx="143.04" cy="426.55" r="0.78" transform="translate(-289.51 550.31) rotate(-87.43)"/><circle id="_Path_43" data-name="&lt;Path&gt;" class="cls-43" cx="146.42" cy="436.88" r="0.78" transform="translate(-296.59 563.55) rotate(-87.43)"/><circle id="_Path_44" data-name="&lt;Path&gt;" class="cls-44" cx="150.73" cy="425.33" r="0.78" transform="translate(-280.94 556.83) rotate(-87.43)"/><circle id="_Path_45" data-name="&lt;Path&gt;" class="cls-45" cx="142.82" cy="431.43" r="0.78" transform="translate(-294.58 554.74) rotate(-87.43)"/><circle id="_Path_46" data-name="&lt;Path&gt;" class="cls-46" cx="147.44" cy="431.63" r="0.78" transform="matrix(0.04, -1, 1, 0.04, -290.38, 559.55)"/><circle id="_Path_47" data-name="&lt;Path&gt;" class="cls-47" cx="144.18" cy="435.99" r="0.78" transform="translate(-297.85 560.47) rotate(-87.43)"/><circle id="_Path_48" data-name="&lt;Path&gt;" class="cls-48" cx="175.57" cy="544.78" r="0.78" transform="translate(-376.54 695.73) rotate(-87.43)"/><circle id="_Path_49" data-name="&lt;Path&gt;" class="cls-49" cx="182.84" cy="553.07" r="0.78" transform="matrix(0.04, -1, 1, 0.04, -377.88, 710.9)"/><circle id="_Path_50" data-name="&lt;Path&gt;" class="cls-50" cx="196.29" cy="544.15" r="0.78" transform="translate(-356.12 715.82) rotate(-87.43)"/><circle id="_Path_51" data-name="&lt;Path&gt;" class="cls-51" cx="159.55" cy="497.26" r="0.78" transform="translate(-344.37 634.34) rotate(-87.43)"/><circle id="_Path_52" data-name="&lt;Path&gt;" class="cls-52" cx="225.15" cy="444.07" r="0.78" transform="translate(-228.58 649.07) rotate(-87.43)"/><circle id="_Path_53" data-name="&lt;Path&gt;" class="cls-53" cx="273.77" cy="363.82" r="0.78" transform="translate(-101.97 620.99) rotate(-87.43)"/><circle id="_Path_54" data-name="&lt;Path&gt;" class="cls-54" cx="258.85" cy="31.69" r="0.78" transform="translate(215.57 288.86) rotate(-87.43)"/><g id="_Group_2" data-name="&lt;Group&gt;"><g id="_Group_3" data-name="&lt;Group&gt;"><g id="_Group_4" data-name="&lt;Group&gt;"><g id="_Group_5" data-name="&lt;Group&gt;"><g id="_Group_6" data-name="&lt;Group&gt;"><g id="_Group_7" data-name="&lt;Group&gt;"><path class="cls-55" d="M170.56,403.62c-8.42-28.88-25.27-54.39-46.28-75.65a167.09,167.09,0,0,0-16.21-14.77.28.28,0,0,0-.43.33c5.89,12.67,10,26.15,15.24,39.09,5.61,13.76,13.35,26.63,24.75,36.39,6.88,5.89,14.94,10.3,22.71,14.89a.3.3,0,0,0,.3-.52c-7-4.14-14.3-8.11-20.68-13.2A79.37,79.37,0,0,1,133.46,372c-8-12-12.56-25.75-17.56-39.14-2.45-6.57-4.84-13.2-7.8-19.56l-.43.33c10.11,7.83,19.18,17.31,27.56,26.94A179.29,179.29,0,0,1,160,378a172.37,172.37,0,0,1,10.37,25.64.08.08,0,0,0,.16,0Z"/></g></g><g id="_Group_8" data-name="&lt;Group&gt;"><g id="_Group_9" data-name="&lt;Group&gt;"><path class="cls-56" d="M164.68,342.17C162.6,326,160,309.32,154.61,293.84c-3.69-10.53-8.48-20.65-13.36-30.68-4.74-9.76-8.95-19.52-11.27-30.17-.09-.4-.61-.32-.73,0a88.07,88.07,0,0,0-5.87,39.44,70,70,0,0,0,6.76,25.29c3.75,7.58,8.78,14.44,14,21,6.45,8.09,13,16.21,20.26,23.54.15.15.39-.08.24-.24-5.92-6.3-11.41-12.94-16.82-19.67s-10.86-13.7-15.12-21.31c-8.59-15.34-10.48-33.52-7.5-50.68a86.41,86.41,0,0,1,4.76-17.2h-.73c3.22,14.67,10.32,27.79,16.64,41.28,5.51,11.77,10.33,23.71,13,36.48,2.19,10.33,4,20.81,5.49,31.26,0,.15.28.11.26,0Z"/></g></g><g id="_Group_10" data-name="&lt;Group&gt;"><g id="_Group_11" data-name="&lt;Group&gt;"><path class="cls-57" d="M194.69,399.43a72.84,72.84,0,0,1,1.56-15.08,119.78,119.78,0,0,1,4.05-13.22c3.21-9,6.23-18.15,10.06-26.93,3.62-8.29,8.53-15.86,12.52-24a121,121,0,0,0,7.45-19.45l-.54-.07c2.29,17.8,3.07,37.1-2.5,54.38A80,80,0,0,1,205,389.75c-3.79,3.43-7.61,6.65-11.19,10.33-.27.28.15.7.43.43,7-7.17,14.92-13.06,21-21.09,10.4-13.7,15.52-29.92,16.44-47a174.36,174.36,0,0,0-1.38-31.7.27.27,0,0,0-.54-.07,121.11,121.11,0,0,1-8.07,20.68c-4.14,8.18-9,15.88-12.57,24.36-3.66,8.71-6.67,17.71-9.78,26.63A97,97,0,0,0,195.5,386a70.84,70.84,0,0,0-1,13.4.08.08,0,0,0,.16,0Z"/></g></g><g id="_Group_12" data-name="&lt;Group&gt;"><g id="_Group_13" data-name="&lt;Group&gt;"><path class="cls-58" d="M225.33,230.58c-1.88,28.43-24.08,49-33.75,74.61a68.62,68.62,0,0,0-3.65,13.57,59.25,59.25,0,0,0-.63,5.93c0,.78-.5,2.47.15,3.06a.28.28,0,0,0,.39,0c5.61-5.67,11.68-10.83,16.94-16.84a106.13,106.13,0,0,0,12-16.63,85.88,85.88,0,0,0,11.8-38.5,75.64,75.64,0,0,0-2.89-25.28.3.3,0,0,0-.58.16c8.3,28.11-1.56,57.64-20.22,79.25-4.88,5.66-10.48,10.54-15.79,15.78a7.65,7.65,0,0,1-1,1c-.49.31-.19,1.41-.33-.18a17.87,17.87,0,0,1,.13-2.73,59,59,0,0,1,.86-6.66,69.42,69.42,0,0,1,3.18-11.36c4.68-12.64,12.38-23.86,19.2-35.39,7.27-12.28,13.68-25.29,14.35-39.8,0-.11-.16-.1-.16,0Z"/></g></g><g id="_Group_14" data-name="&lt;Group&gt;"><g id="_Group_15" data-name="&lt;Group&gt;"><path class="cls-59" d="M179.64,290.88c5.22-8.74,10.23-17.61,15.15-26.53,4.6-8.33,9.19-16.72,12.48-25.67a158,158,0,0,0,7.05-28.06c1.61-9.47,2.67-19.09,1.94-28.7a.39.39,0,0,0-.71-.19c-4.15,7-9.63,13-14.17,19.76A135.81,135.81,0,0,0,190,222a132.1,132.1,0,0,0-11.13,43,122.73,122.73,0,0,0,.51,25.84c0,.21.36.22.34,0a134.85,134.85,0,0,1,21-86.76c4.87-7.53,11-14.22,15.56-21.94l-.71-.19c.76,9.86-.32,19.72-2,29.44a155.34,155.34,0,0,1-6.78,27.17c-3.35,9.22-8.11,17.84-12.82,26.42s-9.58,17.25-14.53,25.79a.13.13,0,0,0,.23.13Z"/></g></g></g></g></g><path id="_Path_55" data-name="&lt;Path&gt;" class="cls-60" d="M115.95,324a405.35,405.35,0,0,0,44.78,66.15c8.42,10,17.74,20,24.06,31.6-2.87-18-5.72-36-7.74-54.17a77.9,77.9,0,0,0-7.39-15.48c-6-10.1-12.92-19.59-19.14-29.53-15.16-24.23-25.23-50.84-21.94-79.81,0-.25.42-.27.41,0-1.08,30.75,10.23,57.65,26.66,83,6.19,9.55,13,18.78,18.45,28.77.69,1.25,1.34,2.53,2,3.81-.06-.67-.15-1.33-.21-2-3.76-42.35,3.39-84.83,18.65-124.42a381,381,0,0,1,18.13-39.61c.12-.23.46,0,.35.21-14.11,29.72-25.49,60.85-31.43,93.29A248.05,248.05,0,0,0,177.95,338c6.62-13,16.83-24.26,24.88-36.38a137.74,137.74,0,0,0,22.72-63c0-.25.41-.27.41,0-.14,22-7,42.4-18.69,60.92-9.21,14.63-20.34,27.89-29.17,42.78.41,9.68,1.24,19.34,2.37,29q.15.95.23,1.91c1.49,12.41,3.41,24.85,5.47,37.38l.33,2c4.6-13,14-24.4,20.83-36.08,11.86-20.18,19.37-41.56,21.85-64.9,0-.25.41-.27.41,0-.12,22-6.85,42.81-17.53,61.95-8.07,14.45-18.44,27.82-24.88,43.14,3.51,21.59,6.7,43.22,7.48,65.11,0,1.13-1.64,1.12-1.74,0-1.6-17.84-4.24-35.54-7-53.21-7.93-14.5-18.76-26.73-29.28-39.42-16.5-19.89-30.62-41.37-41-65.08C115.49,323.93,115.82,323.72,115.95,324Z"/></g><g id="_Group_16" data-name="&lt;Group&gt;"><g id="_Group_17" data-name="&lt;Group&gt;"><g id="_Group_18" data-name="&lt;Group&gt;"><g id="_Group_19" data-name="&lt;Group&gt;"><g id="_Group_20" data-name="&lt;Group&gt;"><g id="_Group_21" data-name="&lt;Group&gt;"><path class="cls-61" d="M307.75,498.51a191.09,191.09,0,0,0,53.33-15.71A224.54,224.54,0,0,0,401.19,459,184.93,184.93,0,0,0,419.55,444a.28.28,0,0,0-.27-.46c-15,4.36-30.53,6.61-45.7,10.21-16.52,3.92-32.41,10.33-45.43,21.5-7.8,6.69-14.13,15-20.62,22.92-.24.3.18.73.43.43,5.49-6.72,10.86-13.72,17.12-19.75a88.8,88.8,0,0,1,23.76-16.17c14.79-7,31-9.83,46.93-13.14,7.91-1.65,15.88-3.2,23.64-5.46l-.27-.46c-10.45,9.95-22.57,18.43-34.73,26.14a202.65,202.65,0,0,1-46.32,21.39,193.66,193.66,0,0,1-30.37,7.17c-.09,0-.07.17,0,.16Z"/></g></g><g id="_Group_22" data-name="&lt;Group&gt;"><g id="_Group_23" data-name="&lt;Group&gt;"><path class="cls-62" d="M377.49,502.44c10.95.26,21.95,0,32.89-.45a160.87,160.87,0,0,0,23.39-2.67c12.21-2.31,24.18-5.91,36-9.6,11.71-3.64,23.32-6.68,35.61-7.45a.38.38,0,0,0,.19-.71,100.09,100.09,0,0,0-39.67-13A81,81,0,0,0,436,470.61c-9.71,2.66-18.8,7.25-27.51,12.2-10.6,6-21.23,12.16-31.09,19.35-.17.13,0,.41.17.29,8.58-5.92,17.52-11.23,26.55-16.43,8.82-5.08,17.83-10,27.51-13.3,18-6.06,37.88-4.63,55.7,1.42a96.7,96.7,0,0,1,17.9,8.08l.19-.71c-16.83,1.07-32.6,6.7-48.63,11.42-6.05,1.78-12,3.6-18.19,4.89a169.58,169.58,0,0,1-25.29,3.57c-11.9.67-23.9.92-35.82.78a.13.13,0,0,0,0,.27Z"/></g></g><g id="_Group_24" data-name="&lt;Group&gt;"><g id="_Group_25" data-name="&lt;Group&gt;"><path class="cls-63" d="M308.31,526.21A85.53,85.53,0,0,1,332,533.7c7.34,3.59,14.5,7.63,21.68,11.52A192.73,192.73,0,0,1,375,558.28c6.38,4.62,12.31,9.79,18.85,14.2a135.81,135.81,0,0,0,18.63,10.4l.14-.51c-20-.47-41.47-2.83-59.66-11.75a90.65,90.65,0,0,1-35.47-30.93c-3.25-4.88-6.22-9.78-9.78-14.49-.23-.3-.75,0-.52.3,7.08,9.36,12.47,19.58,20.83,28,13.75,13.81,31.1,22,50.08,25.8a199.09,199.09,0,0,0,34.52,3.63c.26,0,.39-.39.14-.51a136.4,136.4,0,0,1-16.86-9.21c-6.44-4.2-12.32-9.1-18.43-13.74a172.27,172.27,0,0,0-21.55-13.59c-7.31-4-14.64-8.05-22.09-11.79a83.94,83.94,0,0,0-25.49-8c-.1,0-.15.14,0,.16Z"/></g></g><g id="_Group_26" data-name="&lt;Group&gt;"><g id="_Group_27" data-name="&lt;Group&gt;"><path class="cls-64" d="M491.89,589.35c-31.48-6.89-50.69-35.28-77.66-50.45a78.54,78.54,0,0,0-13.79-6.16,66.57,66.57,0,0,0-7.25-2c-.89-.19-2.69-1-3.5-.35a.27.27,0,0,0,0,.33c5.28,7.09,9.92,14.62,15.59,21.42a120,120,0,0,0,17.12,16.88,96.91,96.91,0,0,0,41,19.62,85.54,85.54,0,0,0,28.6,1c.38-.05.22-.63-.16-.58-32.71,4.48-64-11.52-84.92-35.91-5.64-6.56-10.24-13.83-15.32-20.82-.27-.37-1.06-1-1.11-1.42l-.26-.25,1.14.22c1,.2,2,.39,3,.62a67.44,67.44,0,0,1,6.79,2A78.32,78.32,0,0,1,414,539.36c13.11,7.37,24.19,17.72,35.76,27.2,12.51,10.25,26,19.71,42.12,23,.1,0,.15-.14,0-.16Z"/></g></g><g id="_Group_28" data-name="&lt;Group&gt;"><g id="_Group_29" data-name="&lt;Group&gt;"><path class="cls-65" d="M432.27,527.92c13.53,11.15,27.28,22.31,41.69,32.31,14,9.71,29.55,16.22,45.73,21.33a125.61,125.61,0,0,0,28.22,5.91.39.39,0,0,0,.27-.65c-7.44-6.1-13.54-13.65-20.66-20.11A154.44,154.44,0,0,0,507.08,551a149.33,149.33,0,0,0-46.64-19.74,138.92,138.92,0,0,0-28.08-3.64c-.22,0-.21.33,0,.34a152.11,152.11,0,0,1,92.75,37.63c7.85,6.89,14.44,15.12,22.52,21.73l.27-.65c-17-1.26-33.93-6.92-49.5-13.56-15.4-6.57-28.52-16.27-41.74-26.38q-12.23-9.36-24.21-19c-.13-.11-.32.08-.19.19Z"/></g></g></g></g></g><path id="_Path_56" data-name="&lt;Path&gt;" class="cls-66" d="M406.16,451.07c-28.54,10.44-55.64,23-81.61,38.77-12.65,7.7-25.4,16.41-39.44,21.5,20.64-.12,41.28-.24,61.89.6a88.12,88.12,0,0,0,18.57-5.61c12.31-5,24.11-11.09,36.29-16.35,29.68-12.81,61.15-19.52,93-10.89.28.08.23.51-.06.46-34.2-6.46-66.21,1.59-97.35,15.63-11.73,5.29-23.21,11.3-35.32,15.71-1.52.55-3.05,1.07-4.6,1.55.76,0,1.51.06,2.27.11,48,3,94.27,18.29,135.92,42.12a431,431,0,0,1,41.19,27c.24.18,0,.52-.29.36-30.82-20.85-63.68-38.9-98.94-51.08a280.57,280.57,0,0,0-57.76-13c13.45,9.64,24.25,23,36.42,34a155.79,155.79,0,0,0,66.52,36.17c.28.07.23.5-.06.46-24.57-3.92-46.2-15.1-64.92-31.31-14.79-12.8-27.71-27.51-42.84-39.93-10.89-1.19-21.84-1.92-32.85-2.31q-1.08,0-2.17-.07c-14.13-.46-28.36-.43-42.73-.27l-2.33,0c13.7,7.36,24.9,19.78,36.78,29.46C352.26,561,374.89,573,400.56,579.78c.28.07.23.5-.06.46-24.62-3.9-46.69-15-66.27-30.19-14.78-11.49-28-25.37-44-35.19-24.74.23-49.47.1-74.08-2.76-1.28-.15-1-2,.28-2,20.22,1.26,40.46,1.33,60.69,1.24,17.56-6.39,33.09-16.41,49.08-26,25.06-15,51.48-27.17,79.78-34.73C406.27,450.57,406.45,451,406.16,451.07Z"/></g><path id="_Compound_Path_" data-name="&lt;Compound Path&gt;" class="cls-67" d="M104.64,608.23a22.17,22.17,0,0,1-7.8,19.23c-8.87,7.48-17.38,15-25.27,22.81a1.29,1.29,0,0,0-.3.29c-19.42,19.22-35,39.91-42.85,64.74a1.32,1.32,0,0,0,.86,1.66,1.28,1.28,0,0,0,.34.06,1.32,1.32,0,0,0,1.32-.92c6-19.11,16.8-35.79,30.44-51.25a51.69,51.69,0,0,1,34.44-17.19c1.94-.16,3.18-.23,3.22-.23a1.32,1.32,0,0,0-.13-2.64c-.61,0-12.12.62-21.05,3.08,13.75-13.05,29.17-25.53,44.94-38.28q5.35-4.33,10.81-8.77A49.12,49.12,0,0,1,158.54,590c43.48-5.37,73.29,17.41,99.92,37.75,16,12.25,31.19,23.82,47.39,27.56a80.37,80.37,0,0,0,14.45,2.05c34.47,1.55,45-24.25,45.08-24.54a1.32,1.32,0,0,0-1.52-1.77c-10.54,2.39-23.07-7.75-38.95-20.59-18.49-15-40.52-32.78-69-39.25,70.1-5.51,134.9-58.57,135.62-59.16a1.32,1.32,0,0,0,0-2c-.33-.26-8.74-6.46-73.79-8.85-50.38-1.86-98.94,25.86-118.62,38.71a285.35,285.35,0,0,0,25.25-33.37,35.37,35.37,0,0,1,17.93-14.26,96.14,96.14,0,0,1,9.77-2.87,1.32,1.32,0,1,0-.57-2.58c-.57.13-11.53,2.6-19.53,7.11q4.29-7.62,8.14-15.73l0-.07a24.07,24.07,0,0,1,13.26-12.32c9.27-3.48,20.29-4.18,32.49-4.94,20.84-1.31,46.78-2.95,75.38-19.18C380.75,430.58,404,404.81,405,403.72a1.32,1.32,0,0,0-.59-2.14c-.44-.14-44.64-13.54-85.4,1.51-31,11.45-58.43,40.74-69.88,54.25q3.28-8.28,5.94-16.22a1.3,1.3,0,0,0,.12-.37,283.52,283.52,0,0,0,11.57-47.2c2.89-2.4,27.33-24.09,24.35-69.32-2.43-36.82-28.54-68.1-44.14-86.8-4.93-5.9-8.82-10.56-10.82-13.94a1.32,1.32,0,0,0-2.41.32c-.09.31-8.66,31.83-1.24,66.23,3.51,16.31,10.12,34.28,16.52,51.66,7,19.11,13.66,37.16,15.27,50.64a276.51,276.51,0,0,1-9.41,40.77A73.15,73.15,0,0,0,248,411.18a1.32,1.32,0,1,0-2.34,1.22,70,70,0,0,1,3.39,8.09,44.77,44.77,0,0,1-.36,30.65c-3.15,8.36-6.78,17-11,25.88-12.2,25.87-28.23,47.77-45.93,67.06,11.67-17,27.67-45.13,32.68-76.82s-1-60.8-5.46-82.09c-2.88-13.88-5.15-24.85-3.59-31.7,1.24-5.43-1.06-6.86-2.54-7.22-8.55-2.13-34.68,22.89-43.49,55.79-9.2,34.35-2.94,64.24,2.58,90.61,4.16,19.85,7.9,37.75,4.76,54.64a46.71,46.71,0,0,1-14.88,26.16q-6.66,6-13.38,11.63a32.21,32.21,0,0,0,1.06-14.75,1.32,1.32,0,0,0-2.58.57,30.15,30.15,0,0,1-.9,13,12.56,12.56,0,0,1-4.14,6.65l-.16.16c-6.94,5.76-13.84,11.35-20.59,16.81q-6.06,4.9-12,9.77c6.07-16.83,24.81-75.73,5.94-115.93-14.31-30.49-44.71-51.43-66.91-66.73C36.28,426.47,26.92,420,25,415.36c-.86-2.1-1.88-3.19-3.12-3.35a2.86,2.86,0,0,0-2.67,1.42c-4.87,6.67-6.86,43,6.11,71.22C31,497,42.9,510.42,55.48,524.63,77.12,549.06,101.29,576.37,104.64,608.23ZM267.37,389.41a220.45,220.45,0,0,0,.46-58.81c5.36-7.85,8-20.25,8.12-20.78.31-1.53,1.16-5.64.45-5.82s-2,4.73-2.13,5.44a98.73,98.73,0,0,1-7,17.08c-3.61-23.24-10.51-35.89-10.66-36.2-1-2.11-4.26-7.08-4.79-6.87s2.48,5.6,3.31,7.76c.2.51,16.92,34.48,10.33,92.4-2.76-12.41-8.22-27.28-13.94-42.84-6.36-17.29-12.94-35.17-16.41-51.3-6-27.76-1.37-53.57.5-62.05,2.25,3.17,5.49,7.05,9.36,11.69,15.39,18.44,41.16,49.32,43.53,85.28C291,362.15,273.92,382.91,267.37,389.41Zm18.36,68.77c-13.12.83-24.9,1.58-34.84,5.72,26.76-17,97.27-43.79,98.05-44.09s7.06-2.71,6.8-3.4-7,1.43-7.68,1.68c-1.42.53-15.85,5.4-33.65,12.72,2.12-2.76,4.91-6.17,6.28-7.54.52-.52,4.62-4.53,4.13-5.07s-5,3.06-5.49,3.57c-.29.3-7.31,6.91-9.23,10.82-22,9.15-48,20.76-61.73,29.78,8.93-11,38.19-44.51,71.57-56.84,35-12.92,72.61-4.42,81.66-2-5.45,5.86-25.25,26.52-41.63,35.81C331.91,455.27,306.3,456.88,285.73,458.18Zm-63.86,8.67c-5.8,36.7-26.6,68.55-37.81,83.53,4.79-12.49,11.35-34.14,13.2-66.75a1.27,1.27,0,0,0,.08-.28,4.16,4.16,0,0,0,0-.46,342.62,342.62,0,0,0-.12-37.67c1.29-3.93,8.34-13.67,11.1-17.05.46-.57,3.09-3.43,2.52-3.89s-3.22,2-4,2.77a104,104,0,0,0-10,13c-2.55-37.27,4-52.66,4.05-52.82.89-2.77,3.22-7.64,2.56-8s-3.15,4.76-4.25,7.11c-.3.63-7.62,15.78-5,53.93a353.8,353.8,0,0,1,.72,35.86c-3.21-6.82-9.06-15.79-10.53-18.17-.38-.62-3.64-5.18-4.24-4.78-.41.27,2.45,4.89,2.83,5.51,4.93,8,11.23,20.73,11.65,24-2.29,42.14-12.53,65.89-16.61,75.24-.77.92-1.24,1.45-1.27,1.49s0,.07-.06.1l-1.35,1.3c9.12-21.27,4.48-43.47-.82-68.78-5.46-26.08-11.65-55.64-2.61-89.38,8.83-33,34.4-55.43,40.31-53.91,1.26.31.92,2.69.6,4.07-1.69,7.41.63,18.62,3.58,32.82C220.8,406.8,226.79,435.68,221.87,466.85ZM241,569c-1.51-.11-3-.18-4.58-.22-.87-.05-1.75-.07-2.62-.14a1.51,1.51,0,0,0-.57.1c-.94,0-1.89,0-2.84,0-38.6,1.21-61.55,7.72-74.42,13.37q3.43-3,6.85-6c50.77-29.4,155.41-48.6,156.46-48.79.72-.13,9.65-1.76,9.52-2.48s-9,.44-9.74.57c-.54.1-28.15,4.42-61.65,13.22a212.57,212.57,0,0,1,16.82-14c.59-.42,5.54-3.91,5.12-4.51s-5.83,2.75-6.43,3.17-15,10.09-20.31,16.56c-27.53,7.4-58.42,17.24-81.77,28.9,7-6.51,13.91-13.31,20.59-20.46l.1,0c.61-.47,62-46.88,126.11-44.52,50.06,1.86,66,5.84,70.58,7.53C377,520.15,309.42,570.71,241,569ZM163.3,586.85c32.54-6.93,64.15-.27,90,9.92,0,0,0,0,0,0l5.77,15.76c.18.53,1.94,5.21,2.34,5.33.7.21-.44-5.14-.67-5.83l-4.23-14a249.84,249.84,0,0,1,59.12,34.36c3.07,2.47,5.65,3.93,5.93,3.61.48-.55-4.21-4.69-4.76-5.17-.84-.72-81.36-69.29-164.88-43.79,11.09-5.83,34.53-14.32,78.53-15.7,1.81-.06,3.59,0,5.36,0,.79,0,1.59.11,2.38.15s1.65.06,2.47.08c35.13,2.56,61.22,23.65,82.55,40.91,15.26,12.34,27.55,22.28,38.65,21.49-3.69,6.92-18.05,27.36-55.45,18.74-15.65-3.61-30.58-15-46.38-27.09C234,605.76,205,583.61,163.3,586.85Zm-54.65,23.69c2.21-33.32-8.4-64.42-21.86-88.79-.49-6.62,3.26-26.8,3.3-27,.15-.71,1.4-7.15.69-7.29s-1.67,3.59-2.57,6.77c-.19.69-3.27,14.4-3.95,23.07a182.94,182.94,0,0,0-26.29-35c-24-24.41-30-44.8-30.07-45-.5-1.38-1.5-5.8-2.22-5.62s.5,5.48.68,6.19c.22.86,5.19,21.37,29.72,46.29,19.89,20.2,50.06,65.41,50.19,117.18-5.77-29.78-28.41-55.36-48.82-78.41C45,508.82,33.25,495.55,27.73,483.54c-13.82-30.06-9.89-66.45-6.14-68.86a4.61,4.61,0,0,1,1,1.68c2.2,5.39,11.37,11.71,24.07,20.46,21.95,15.12,52,35.83,66,65.67C129.35,538,115.81,588.9,108.65,610.54Z"/><path id="_Compound_Path_2" data-name="&lt;Compound Path&gt;" class="cls-68" d="M204.2,118.59c.27,4.36-.87,8.56-2.07,13-.48,1.79-1,3.63-1.37,5.47-.84,3.92-1.55,10.55,1.33,15.8a11.08,11.08,0,0,1,1.11,7,32.5,32.5,0,0,0-.48,5.79,14.82,14.82,0,0,1-1.16,6.11c-18.63,46.26-23.07,100.89-12.38,155.45.35,1.78.71,3.57,1.08,5.35a176,176,0,0,1,3.08,26l2.72-1.9c-.33-8.31-2-16.56-3.65-24.55-.36-1.78-.73-3.55-1.07-5.33C180.83,273.24,185,219.58,203.06,174a18.92,18.92,0,0,1,5.95-7.88l.07-.06a7.82,7.82,0,0,1,6.32-1.51,22.15,22.15,0,0,0,3.14.36,32.23,32.23,0,0,0,7.08-.53c5.93-1.05,12.78-5.42,16.63-10.44,1,1.61,2,3.25,3,4.86,3.07,5.08,6.24,10.32,10.61,14.55,6.71,6.49,13.53,12.47,23.24,14.32a62,62,0,0,0,8.64,1c5.69.26,12.66-.28,18.44-3.27a1.1,1.1,0,0,0,.32-1.7c-3.29-3.75-5.67-8.33-8-12.75a82.79,82.79,0,0,0-6.24-10.66c-4.2-5.77-9.7-10.26-15.28-14.45,1.74.06,3.49,0,5.22,0,2.29,0,4.45-.08,6.53.08,5.48.41,11.81.67,17.57-1.56,3.35-1.3,9.56-4,13.48-7.69A36.42,36.42,0,0,0,331,116.18c.54-3,.78-5.84,1-8.6a74.44,74.44,0,0,1,1.18-9.36l.12-.56c.81-3.91,1.73-8.35,4.5-10.91a1.1,1.1,0,0,0-.64-1.9c-12.52-1.27-27.59,2.9-35.51,12.78a79.46,79.46,0,0,0,.55-9.89l0-1.54c.06-4.16.22-8.37.49-12.54.37-5.66,1.08-12.08,4.87-16.52a1.1,1.1,0,0,0-1.24-1.73l-1.05.42c-7,2.76-14.14,5.61-19.08,13l2.71-22.59a1.1,1.1,0,0,0-.31-.9,1.11,1.11,0,0,0-.9-.32,103,103,0,0,1-15.52.09c-3.13-.14-6.33-.28-9.52-.24a49,49,0,0,1,1.2-5.8c.34-1.35.66-2.63.89-3.85a1.1,1.1,0,0,0-1.29-1.28c-.38.07-.87.19-1.4.32a18.55,18.55,0,0,1-2.87.56c-2.87.09-5.79.51-8.22,2.37-.46-4.42-2.48-8.6-4.38-12.49-.63-1.29-1.24-2.55-1.79-3.79a1.1,1.1,0,0,0-2.1.35c-.51,6.26-5.61,11-8.61,13.28a80.09,80.09,0,0,1-7.43,4.81c-2.35,1.4-4.78,2.85-7,4.5A45.19,45.19,0,0,0,203.46,66a46.74,46.74,0,0,0-2.13,16.15,44.14,44.14,0,0,1-1.49-14.32,89.87,89.87,0,0,1,1.19-9,88.54,88.54,0,0,0,1.23-9.57c.44-8-1.68-15.18-5.69-19.08a1.1,1.1,0,0,0-1.83.52c-.71,2.87-3.06,4.91-5.55,7.07a32.79,32.79,0,0,0-4.14,4c-2.51,3.12-4,7.4-4.37,12.73-.54,7.47.95,15.6,4.43,24.16,3,7.31,7,14.08,11.54,21.53C200,105.69,203.8,111.92,204.2,118.59Zm41.92-71.38a54.75,54.75,0,0,0-26.71,17.23c-7.74,9.41-11.32,22.49-9.93,35l-1-1.82c-1-1.67-1.94-3.38-2.87-5.11-2.79-6.78-2.81-17.39,0-25.85a43,43,0,0,1,15.33-21.11c2.18-1.59,4.56-3,6.86-4.39a81.62,81.62,0,0,0,7.63-4.94c4.45-3.38,7.48-7.35,8.79-11.45l.41.83C247.91,32.45,251.34,39.53,246.13,47.22Zm16.06-10.79c-.15.66-.33,1.35-.5,2.06a47.51,47.51,0,0,0-1.28,6.4c-.58,0-1.17,0-1.75.07a57.46,57.46,0,0,0-9.5,1.46A16.12,16.12,0,0,0,251,40.12c2-2.44,4.76-3,8.25-3.15A16.88,16.88,0,0,0,262.19,36.43Zm24.35,10.85-5.67,47.24c-1,8.25-2,16.79-5.92,24.21-4.41,8.39-15.54,17.07-25.14,16.71-.68-.23-1.36-.48-2.05-.74l-1.23-.46a41.06,41.06,0,0,0-19.75-2.32,49,49,0,0,0-9.89,2.49c9-9.52,15.1-20.07,20.14-28.85,1.5-2.61,2.92-5.08,4.27-7.25,6.62-10.66,15.29-24,26-30.92.51-.33,4-2.72,3.76-3.11s-3.82,1.77-4.33,2.1c-11,7.13-20.52,19.91-27.25,30.77-1.37,2.21-2.8,4.69-4.31,7.32-5.7,9.92-12.73,22.14-23.88,32.42,2.51-5.75,5.09-11.7,5-18.06A30.8,30.8,0,0,0,213,106.08c-3.84-13.8-.69-29.53,8.12-40.24S244,48.13,258.8,47.15a122.18,122.18,0,0,1,13.24.11A113.37,113.37,0,0,0,286.53,47.28Zm13.94,26.22c-.27,4.2-.44,8.46-.5,12.65l0,1.55a67.49,67.49,0,0,1-.71,11,41.19,41.19,0,0,1-6.64,15.68c-7,10.46-18.82,18.83-31.62,22.43l-.07,0a27.29,27.29,0,0,0-3.67-.32,37.07,37.07,0,0,0,19.63-16.71c4.09-7.79,5.19-16.92,6.16-25l2.4-20c4-9.5,11.1-13.08,18.34-16C301.36,63.27,300.8,68.65,300.48,73.51ZM273.72,143.4l-.93-.68c8.91-.82,18.91-5.22,26.3-11.72,7.71-6.79,13.27-15.42,19-23.65.34-.5,1.75-2.76,1.28-3.08s-2,1.88-2.37,2.38c-5.62,8.12-11.82,16.1-19.33,22.71-7.84,6.9-18.71,11.31-27.8,11.31a29.73,29.73,0,0,0-5.08-2.74c12-4.16,23-12.31,29.67-22.32a47.78,47.78,0,0,0,5.19-10h0c4.69-13.3,21.19-19.38,35.11-18.7-2.11,3-2.91,6.84-3.64,10.34l-.12.56a77.22,77.22,0,0,0-1.22,9.63c-.22,2.71-.45,5.5-1,8.39a34.28,34.28,0,0,1-10.46,19.32c-3.79,3.54-10.19,6.25-12.77,7.24-5.33,2.06-11.37,1.82-16.62,1.42-2.18-.16-4.49-.13-6.73-.09A55.9,55.9,0,0,1,273.72,143.4Zm-40.6-2.28c-6.09-3.26-14.2-3.26-20.72-2,4.68-3.07,10.9-4.41,14.68-5a38.85,38.85,0,0,1,18.69,2.21l1.21.45a22.39,22.39,0,0,0,9.43,1.87,30.1,30.1,0,0,1,4.15.32c4.55.79,8.56,3.76,12.1,6.39,6.45,4.78,13.11,9.71,17.89,16.27A81.05,81.05,0,0,1,296.61,172a71.66,71.66,0,0,0,7.34,12.08c-8.69,3.83-19.86,2.32-24.41,1.46-9.12-1.74-15.67-7.49-22.13-13.74-4.16-4-7.26-9.16-10.26-14.11-1.25-2.06-2.54-4.18-3.91-6.22a1,1,0,0,0-.09-.15c-.16-.24-.32-.5-.48-.74C240.49,147.38,237.44,143.42,233.12,141.11Zm-25.71,16.4a8.63,8.63,0,0,1-1.05-3.33,23,23,0,0,1,.35-4.29,11,11,0,0,1,9.83-9.18c5.44-.51,11.23,0,15.54,2.33,4,2.12,6.84,5.91,8.88,8.92h0c-3.38,4.82-10.13,9.26-15.73,10.25C215,164,209.64,160.74,207.41,157.52Zm-1-39.06c-.44-7.22-4.39-13.69-7.88-19.41C194,91.68,190.05,85,187.14,77.83c-3.35-8.24-4.79-16-4.27-23.18.35-4.88,1.66-8.75,3.89-11.51a31.13,31.13,0,0,1,3.87-3.76c2.15-1.86,4.36-3.78,5.58-6.35,2.79,3.66,4.22,9.5,3.86,16.06a86.9,86.9,0,0,1-1.2,9.33,91.16,91.16,0,0,0-1.21,9.24,46.4,46.4,0,0,0,3.69,21.18c.67,1.54,1.43,3.06,2.23,4.56v0l0,0c.95,1.77,1.94,3.51,2.93,5.22,1.58,2.74,3.11,5.43,4.39,8.14,0,.13.29.55.39.86a27.69,27.69,0,0,1,2.75,11.14c.05,5.93-2.46,11.69-4.89,17.26-.67,1.53-1.34,3.08-2,4.65l0,.08a38,38,0,0,0-3,11.38c-2.8-4.68-2.08-11-1.3-14.67.38-1.78.87-3.6,1.35-5.36C205.45,127.76,206.69,123.17,206.4,118.46Z"/><path id="_Compound_Path_3" data-name="&lt;Compound Path&gt;" class="cls-69" d="M168.21,200.2a12.47,12.47,0,0,0,2.32,5.21,9.85,9.85,0,0,0,3.35,2.64,4.06,4.06,0,0,1,2,2.29,15.87,15.87,0,0,0,.79,1.8,7.69,7.69,0,0,1,.8,2.7,109.24,109.24,0,0,0,7.23,28.93l2-.82a107.07,107.07,0,0,1-7.09-28.39,7.87,7.87,0,0,1,.26-3.09c.11-.37.19-.76.26-1.13a4.18,4.18,0,0,1,2.26-2.91,12.69,12.69,0,0,0,5.76-6.94c4.15-10.47,4.53-26.65.86-36.07a1.1,1.1,0,0,0-2-.08c-1.33-4.61-3.43-10.38-4.87-12a1.1,1.1,0,0,0-.9-.36,1.25,1.25,0,0,0-.84.49,66,66,0,0,0-5.37,10.16c-.07-.15-.13-.29-.2-.44a1.1,1.1,0,0,0-1-.61,1.08,1.08,0,0,0-1,.61C167.56,172.94,165.53,189.28,168.21,200.2Zm17.43-32.68c-1.7,3.89-3.23,7.81-4.55,11.74a81.38,81.38,0,0,0-4.68-13.76,53.56,53.56,0,0,1,5-10.34A71.26,71.26,0,0,1,185.63,167.52Zm-4.76,38.26a10,10,0,0,0,1.18-2.37,27,27,0,0,0,1.14-6.85,45.59,45.59,0,0,0,4.76-20.11c0-.3-.12-3.56-.5-3.54s-.3,3.16-.3,3.46a45.09,45.09,0,0,1-4,17.66A77.64,77.64,0,0,0,182,183.59l0-.09a142.12,142.12,0,0,1,5.86-15.67c2.54,9.15,1.89,22.74-1.71,31.85C185,202.74,183.21,204.76,180.87,205.78Zm-7-40.5A77.12,77.12,0,0,1,181,195a24.49,24.49,0,0,1-1.06,7.76,8.18,8.18,0,0,1-1.32,2.36,30.77,30.77,0,0,1-1.7-9.34,90.17,90.17,0,0,1,.38-11.45c0-.3.31-3.87,0-3.91s-.68,3.55-.7,3.85a90.29,90.29,0,0,0-.73,11.54,31.38,31.38,0,0,0,2,10.18,3.2,3.2,0,0,1-.9.57,4.82,4.82,0,0,1-.76-.07c-1.91-2.56-5.42-10.57-3.2-21.81.14-.73.3-1.45.46-2.18a25.72,25.72,0,0,0,.89-8.17c0-.3-.34-2.87-.72-2.82h0c-.36.09-.08,2.68-.05,3,.25,2.74-.6,5.08-1.19,7.78-.16.74-.32,1.47-.47,2.21-2,10.1.46,17.73,2.58,21.41a8,8,0,0,1-2.21-1.87,10.41,10.41,0,0,1-1.88-4.33C167.94,189.88,169.49,175.55,173.92,165.28Z"/><path id="_Compound_Path_4" data-name="&lt;Compound Path&gt;" class="cls-70" d="M115.47,510.08c5.15,4.68,11.18,8.25,17,11.7l8.26,4.89c1.73,1,4.1,2.42,6.66,2.25a4.61,4.61,0,0,0,3.72,1.37h.07a6.36,6.36,0,0,0,1.49-.48c2.29-1.07,4.36-3.57,6.15-7.47a42.1,42.1,0,0,0,1.83-5.11,33.75,33.75,0,0,1,6.81-12.94c.62-.85,1.23-1.71,1.83-2.57a48,48,0,0,0,7.37-15.19,27.92,27.92,0,0,0-.55-16.94c-2-5.19-5.74-9.48-9.18-13a126.58,126.58,0,0,0-9.68-8.9,1.84,1.84,0,0,0-2.74,0,60.3,60.3,0,0,0-6.18,6.35,68.37,68.37,0,0,0-13.76-12.38,2.45,2.45,0,0,0-1.8-.54,2.48,2.48,0,0,0-1.57,1.22l-5,7.55c-.64,1-1.28,1.92-1.91,2.9a41.61,41.61,0,0,1-3.23-5.23,1,1,0,0,0-1.63-.11c-.63.9-1.28,1.79-1.93,2.69a44.24,44.24,0,0,0-5.89,9.76c-1.27,3.26-1.91,7.8-.44,11.61-3.16-1.75-6.12-3.48-8.19-6.17a1,1,0,0,0-1.55,0c-2.5,3.72-3.19,8.67-2.1,15.12A51.69,51.69,0,0,0,115.47,510.08Z"/><path id="_Compound_Path_5" data-name="&lt;Compound Path&gt;" class="cls-71" d="M255,434.77l1.77.7c7.28-18.34,20.24-34.72,31.68-49.16,4.41-5.57,8.58-10.84,12.32-16,3-4.11,6-8.75,8.55-12.81a19.34,19.34,0,0,1,3.51-4.19,7.24,7.24,0,0,1,2.48-1.11,5.68,5.68,0,0,1,1.69,0h0c2.36.59,5.42.11,9.16-1.46a42.08,42.08,0,0,0,4.81-2.53,33.75,33.75,0,0,1,13.76-5c1-.21,2.06-.43,3.09-.66a48,48,0,0,0,15.69-6.23,27.92,27.92,0,0,0,11-12.87c2.06-5.15,2.16-10.87,2-15.78a126.58,126.58,0,0,0-1.13-13.1,1.84,1.84,0,0,0-2-1.82,60.3,60.3,0,0,0-8.85.51,68.37,68.37,0,0,0-1.79-18.42,2.45,2.45,0,0,0-1-1.61,2.48,2.48,0,0,0-2-.16L351,275.26c-1.11.28-2.24.55-3.36.85a41.59,41.59,0,0,1,1.15-6,1,1,0,0,0-1.13-1.18c-1.07.24-2.15.46-3.24.68a44.24,44.24,0,0,0-10.93,3.22c-3.13,1.55-6.67,4.46-8.17,8.27-1.15-3.43-2.17-6.7-1.88-10.08a1,1,0,0,0-1.18-1c-4.36,1.06-8.2,4.24-11.76,9.73a51.69,51.69,0,0,0-8,32.7c.64,6.93,2.68,13.64,4.65,20.12l2.79,9.18c.17.55.35,1.15.58,1.78a8.6,8.6,0,0,1,.19,5.31c-.16.56-.31,1.13-.44,1.68a19.51,19.51,0,0,1-2.47,5.92c-2.52,4-5.56,8.65-8.52,12.76-3.72,5.17-7.87,10.41-12.27,16C275.47,399.68,262.41,416.17,255,434.77Zm91.54-163.7a43.5,43.5,0,0,0-.91,5.56,44.06,44.06,0,0,0-9,3.47c-3.44,1.85-7.31,4.34-9.3,7.94-.18-.82-.38-1.64-.61-2.45-.09-.31-.19-.62-.28-.93.08-4.69,4.26-8.41,7.83-10.17a42.84,42.84,0,0,1,10.47-3.06Zm16.06,22.48a44.34,44.34,0,0,0-19,7.63,180.53,180.53,0,0,1,13.86-19.4c.22-.27,2.14-2.7,1.77-3s-2.33,2.13-2.55,2.4a195.12,195.12,0,0,0-16.22,22.61c-.61.57-1.2,1.16-1.75,1.77-4.39,4.84-7.2,10.86-9.91,16.69-2.5,5.37-5.07,10.89-8.88,15.37-1.73-5,.26-11.06,1.75-15.55.65-2,1.42-4,2.16-5.88a80.32,80.32,0,0,0,3.34-9.93A40.63,40.63,0,0,0,328,292c.65-4.84,5.45-8,9.56-10.23,4.32-2.33,9.16-3.53,13.85-4.69l8.81-2.17a1.55,1.55,0,0,1,.53-.08s0,.18.11.43A66.45,66.45,0,0,1,362.64,293.55Zm-46.95,51.74a13.81,13.81,0,0,1,3-3.62l.91-.89c.22-.22.41-.45.62-.67a.92.92,0,0,0,.18-.2c4.51-4.85,7.37-10.94,10.12-16.86,2.65-5.7,5.39-11.59,9.59-16.21,7.23-8,19.34-12.41,33.22-12.18h.16l0,.17a124.93,124.93,0,0,1,1.11,12.9c.16,4.71.06,10.18-1.86,15a26.39,26.39,0,0,1-10.3,12,46.17,46.17,0,0,1-15.08,6c-1,.23-2,.44-3,.65A35.51,35.51,0,0,0,330,346.54a39.85,39.85,0,0,1-4.58,2.42c-4.17,1.76-7.28,2.06-9.24.86h0a28.39,28.39,0,0,0,5-3.53c.92-.76,1.87-1.55,2.85-2.24.51-.36,1.3-.83,2.29-1.42,6-3.56,19.87-11.92,36.47-33.37.21-.28,1.66-2.31,1.38-2.53s-1.9,1.66-2.12,1.94c-16.45,21.26-30.47,29.34-36.38,32.87-1,.61-1.82,1.08-2.37,1.47-1,.72-2,1.52-2.93,2.3a25.91,25.91,0,0,1-5,3.48A4.42,4.42,0,0,1,315.69,345.29Zm-3.95-4.14L308.95,332c-1.94-6.39-4-13-4.58-19.74a49.76,49.76,0,0,1,7.75-31.49c2.92-4.52,6-7.33,9.37-8.54,0,3.51,1.15,6.88,2.25,10.15.42,1.24.85,2.52,1.21,3.78a38.76,38.76,0,0,1,.39,19.69,78.91,78.91,0,0,1-3.27,9.69c-.75,1.94-1.52,3.95-2.19,6-1.58,4.75-3.91,11.84-1.37,17.71l-.23.25-.89.86a25.56,25.56,0,0,0-2.2,2.31,33.76,33.76,0,0,1-.44-7.83c0-1.4.06-2.84,0-4.26a66.43,66.43,0,0,0-1.27-9.28c-.27-1.44-.53-2.89-.75-4.34-1.87-12.32-.29-24.1,5-33.22.18-.3,1.64-2.81,1.33-3s-1.83,2.22-2,2.53c-5.43,9.37-7.49,21.26-5.57,33.86.22,1.46.49,2.92.76,4.38a65.68,65.68,0,0,1,1.25,9.11c.06,1.38,0,2.8,0,4.18a30.86,30.86,0,0,0,.75,9.25c-.09.15-.19.29-.27.44a6.56,6.56,0,0,0-.39,1A14,14,0,0,1,311.74,341.16Z"/><path id="_Compound_Path_6" data-name="&lt;Compound Path&gt;" class="cls-72" d="M99.32,480.53a51.69,51.69,0,0,0,16.14,29.56c5.15,4.68,11.18,8.25,17,11.7l8.26,4.89c.52.31,1.09.65,1.71,1a13.64,13.64,0,0,1,5.27,4.77l0,.06a10.21,10.21,0,0,1,1.54,4.13c1.57,11.51,2.72,25.05-2.5,38l1.77.71c5.69-14.12,4.09-28.71,2.37-40.83A7.93,7.93,0,0,1,151,532v0a2.92,2.92,0,0,1,1.66-2.12h0c2.29-1.07,4.36-3.57,6.15-7.47a42.07,42.07,0,0,0,1.83-5.11,33.75,33.75,0,0,1,6.81-12.94c.62-.85,1.23-1.71,1.83-2.57a48,48,0,0,0,7.37-15.19,27.92,27.92,0,0,0-.55-16.94c-2-5.19-5.74-9.48-9.18-13a126.56,126.56,0,0,0-9.68-8.9,1.84,1.84,0,0,0-2.74,0,60.29,60.29,0,0,0-6.18,6.35,68.37,68.37,0,0,0-13.76-12.38,2.45,2.45,0,0,0-1.8-.54,2.48,2.48,0,0,0-1.57,1.22l-5,7.55c-.64,1-1.28,1.92-1.91,2.9a41.59,41.59,0,0,1-3.23-5.23,1,1,0,0,0-1.63-.11c-.63.9-1.28,1.79-1.93,2.69a44.24,44.24,0,0,0-5.89,9.76c-1.27,3.26-1.91,7.8-.44,11.61-3.16-1.75-6.12-3.48-8.19-6.17a1,1,0,0,0-1.55,0C98.93,469.13,98.24,474.08,99.32,480.53Zm23.87-26a44,44,0,0,0-4.27,8.61c-1.28,3.69-2.46,8.14-1.5,12.14q-1-.73-2.11-1.39l-.84-.49c-3.11-3.52-2.54-9.08-1.09-12.79a42.84,42.84,0,0,1,5.65-9.33l1.06-1.46A43.47,43.47,0,0,0,123.19,454.54Zm23.94,1A44.35,44.35,0,0,0,138.26,474a180.51,180.51,0,0,1-2.87-23.67c0-.35-.24-3.44-.72-3.4s-.28,3.14-.26,3.49a195.1,195.1,0,0,0,3.3,27.63c-.06.83-.1,1.66-.1,2.49,0,6.53,2,12.87,4,19,1.78,5.65,3.61,11.46,3.83,17.33-4.68-2.55-7.28-8.33-9.21-12.65-.85-1.9-1.62-3.88-2.37-5.79a80.33,80.33,0,0,0-4.24-9.58,40.63,40.63,0,0,0-9-11.07c-2.79-4-1.39-9.59.15-14,1.61-4.64,4.38-8.79,7.05-12.81l5-7.55a1.55,1.55,0,0,1,.34-.41s.15.1.37.25A66.45,66.45,0,0,1,147.12,455.56Zm3.75,72.84h0a28.39,28.39,0,0,0,1.31-6c.16-1.18.34-2.41.59-3.57.13-.61.4-1.49.73-2.59,2-6.66,6.61-22.21,4.37-49.24,0-.35-.34-2.83-.69-2.8s-.28,2.51-.26,2.86c2.21,26.79-2.67,42.22-4.65,48.81-.34,1.13-.61,2-.75,2.68-.27,1.22-.44,2.47-.61,3.67a25.9,25.9,0,0,1-1.31,5.92,4.42,4.42,0,0,1-2.19-2.74,13.8,13.8,0,0,1-.2-4.71c0-.42.06-.85.08-1.27s0-.61,0-.91a.92.92,0,0,0,0-.27c.05-6.62-1.95-13-3.91-19.27-1.89-6-3.84-12.19-3.87-18.43,0-10.76,5.89-22.21,16.28-31.41l.12-.1.14.11a124.91,124.91,0,0,1,9.53,8.77c3.3,3.37,6.92,7.47,8.76,12.33a26.39,26.39,0,0,1,.48,15.79,46.17,46.17,0,0,1-7.09,14.58c-.59.85-1.2,1.7-1.81,2.54a35.51,35.51,0,0,0-7.08,13.49,39.83,39.83,0,0,1-1.75,4.88C155.21,525.65,153.12,528,150.88,528.4Zm-48.52-60.82c2.38,2.58,5.49,4.3,8.52,6,1.15.63,2.33,1.29,3.44,2a38.76,38.76,0,0,1,13.58,14.26,78.9,78.9,0,0,1,4.14,9.36c.76,1.94,1.54,3.94,2.41,5.88,2,4.57,5.11,11.37,10.95,14,0,.11,0,.23,0,.34,0,.41,0,.82-.07,1.23a25.57,25.57,0,0,0-.06,3.19,33.76,33.76,0,0,1-5.61-5.48c-.92-1.05-1.88-2.14-2.88-3.15a66.44,66.44,0,0,0-7.2-6c-1.17-.88-2.34-1.77-3.48-2.69-9.7-7.82-16.49-17.58-18.75-27.88-.08-.34-.69-3.18-1-3.09s.15,2.87.23,3.22c2.32,10.58,8.83,20.74,18.75,28.74,1.15.93,2.33,1.82,3.52,2.71a65.67,65.67,0,0,1,7.07,5.88c1,1,1.91,2.05,2.82,3.09a30.85,30.85,0,0,0,6.8,6.32c0,.17.06.34.1.51a6.58,6.58,0,0,0,.38,1,14,14,0,0,1-4.25-1.91l-8.26-4.89c-5.75-3.4-11.7-6.93-16.7-11.47a49.76,49.76,0,0,1-15.55-28.46C100.31,474.9,100.69,470.76,102.35,467.58Z"/></g></svg>