<svg id="Header_BG" data-name="Header BG" xmlns="http://www.w3.org/2000/svg" xmlns:xlink="http://www.w3.org/1999/xlink" viewBox="0 0 405 680"><defs><style>.cls-1{fill:url(#linear-gradient);}.cls-2{fill:url(#linear-gradient-2);}.cls-3{fill:url(#linear-gradient-3);}.cls-4{fill:url(#linear-gradient-4);}.cls-5{fill:url(#linear-gradient-5);}.cls-6{fill:url(#linear-gradient-6);}.cls-7{fill:url(#linear-gradient-7);}.cls-8{fill:url(#linear-gradient-8);}.cls-9{fill:#f9f6f2;}.cls-10{fill:url(#linear-gradient-9);}.cls-11{fill:url(#linear-gradient-10);}.cls-12{fill:url(#linear-gradient-11);}.cls-13{fill:url(#linear-gradient-12);}</style><linearGradient id="linear-gradient" x1="2591.79" y1="1937.28" x2="2513.89" y2="2041.15" gradientTransform="matrix(-1, 0.03, -0.03, -1, 2905.82, 2128.12)" gradientUnits="userSpaceOnUse"><stop offset="0" stop-color="#648298"/><stop offset="0.99" stop-color="#c2d7ef"/></linearGradient><linearGradient id="linear-gradient-2" x1="2581.51" y1="2000.21" x2="2521.71" y2="2139.74" xlink:href="#linear-gradient"/><linearGradient id="linear-gradient-3" x1="2631.64" y1="1942.25" x2="2663.75" y2="2075.02" xlink:href="#linear-gradient"/><linearGradient id="linear-gradient-4" x1="2625.38" y1="2040.69" x2="2650.38" y2="2142.64" xlink:href="#linear-gradient"/><linearGradient id="linear-gradient-5" x1="2601.74" y1="2061.88" x2="2626.34" y2="2178.16" xlink:href="#linear-gradient"/><linearGradient id="linear-gradient-6" x1="426.45" y1="68.64" x2="493.11" y2="-234.77" gradientTransform="translate(-179.1 393.43) rotate(-13.24)" xlink:href="#linear-gradient"/><linearGradient id="linear-gradient-7" x1="3.16" y1="415" x2="397.17" y2="415" gradientUnits="userSpaceOnUse"><stop offset="0" stop-color="#072c39"/><stop offset="1" stop-color="#071b26"/></linearGradient><linearGradient id="linear-gradient-8" x1="52.19" y1="325.94" x2="465.97" y2="325.94" gradientTransform="translate(-88.5 113.55) rotate(-7.1)" gradientUnits="userSpaceOnUse"><stop offset="0" stop-color="#b48e5d"/><stop offset="0.19" stop-color="#8f6e3f"/><stop offset="0.38" stop-color="#c79d61"/><stop offset="0.54" stop-color="#eebe79"/><stop offset="0.63" stop-color="#fdca82"/><stop offset="0.7" stop-color="#ebbb77"/><stop offset="0.86" stop-color="#be955c"/><stop offset="1" stop-color="#8f6e3f"/></linearGradient><linearGradient id="linear-gradient-9" x1="52.19" y1="220.8" x2="465.97" y2="220.8" xlink:href="#linear-gradient-8"/><linearGradient id="linear-gradient-10" x1="52.18" y1="309.97" x2="465.97" y2="309.97" xlink:href="#linear-gradient-8"/><linearGradient id="linear-gradient-11" x1="52.18" y1="197.8" x2="465.97" y2="197.8" xlink:href="#linear-gradient-8"/><linearGradient id="linear-gradient-12" x1="52.19" y1="366.76" x2="465.96" y2="366.76" xlink:href="#linear-gradient-8"/></defs><title>flower-left</title><g id="_Group_" data-name="&lt;Group&gt;"><g id="_Group_2" data-name="&lt;Group&gt;"><g id="_Group_3" data-name="&lt;Group&gt;"><g id="_Group_4" data-name="&lt;Group&gt;"><g id="_Group_5" data-name="&lt;Group&gt;"><g id="_Group_6" data-name="&lt;Group&gt;"><path class="cls-1" d="M248.8,274.82C256,253,267.86,232.44,283,213.61c7.81-9.74,25.87-27.63,37.34-35.95-6,12-15.36,38.36-22.22,51.49s-16.51,25.53-29.87,34.41c-3.46,2.3-7.13,4.34-10.78,6.41-4.43,2.51-8.64,4.85-8.64,4.85"/></g></g><g id="_Group_7" data-name="&lt;Group&gt;"><g id="_Group_8" data-name="&lt;Group&gt;"><path class="cls-2" d="M257.19,207.51q.64-3.94,1.38-7.86t1.58-7.82c4.46-22,5.48-27.35,14-47.63,1.1-2.14,10.35-20.73,11.48-22.82,6.42-11.94,10.46-21.12,13.25-32.56,3.37,9.1,10.53,34.95,1,61.95C294.29,166.52,282,179.93,270.82,193c-1.43,1.64-2.88,3.3-4.36,4.94q-4.44,4.92-9.27,9.62"/></g></g><g id="_Group_9" data-name="&lt;Group&gt;"><g id="_Group_10" data-name="&lt;Group&gt;"><path class="cls-3" d="M222.43,269.46q.08-3.39,0-6.76c-.24-11.58-4.76-23.05-8.26-34.11-3.62-11.44-7.45-22.94-13.28-33.65-8-14.68-11.23-23-14.37-34.93-2.75,17.27-4.07,40.15.33,57.18a87.72,87.72,0,0,0,28.9,45.76c2.46,2.43,4.92,4.92,7.26,7.48"/></g></g><g id="_Group_11" data-name="&lt;Group&gt;"><g id="_Group_12" data-name="&lt;Group&gt;"><path class="cls-4" d="M193.79,83.13c.65,30.89,24.82,54.85,34.57,83a70,70,0,0,1,4.1,24.46l-.17.14c-2.11-2.27-4.31-4.49-6.51-6.66-1.4-1.39-2.82-2.77-4.2-4.18C199,156.94,185.85,127,190.9,95.08a74.24,74.24,0,0,1,2.89-11.95"/></g></g><g id="_Group_13" data-name="&lt;Group&gt;"><g id="_Group_14" data-name="&lt;Group&gt;"><path class="cls-5" d="M242.33,150.67Q235,137.33,228,123.82c-4.92-9.6-10.05-19.31-13.61-29.36-3.89-11-6.06-22.56-7.62-34-1.32-9.64-2.17-20.32-1-30.46,3.09,5.66,7.22,10.85,11,16.21,21.73,31,30.88,68.31,25.6,104.46"/></g></g></g></g></g><path id="_Path_" data-name="&lt;Path&gt;" class="cls-6" d="M311.11,189a445.21,445.21,0,0,1-51.2,71.25c-9.55,10.75-20.09,21.42-27.38,34,3.7-19.7,7.39-39.39,10.16-59.23a85.57,85.57,0,0,1,8.58-16.77c6.87-10.9,14.78-21.11,21.92-31.84,17.39-26.13,29.26-55,26.54-86.95,0-.28-.45-.31-.45,0,.24,33.8-13,63-31.82,90.3-7.09,10.29-14.82,20.22-21.14,31-.79,1.35-1.55,2.73-2.28,4.13.09-.73.21-1.46.29-2.19,5.43-46.38-1.12-93.24-16.66-137.17a418.54,418.54,0,0,0-18.69-44c-.13-.26-.51,0-.39.21C223.16,74.72,234.7,109.25,240.23,145a272.44,272.44,0,0,1,2.38,57.43c-6.87-14.53-17.74-27.15-26.2-40.71a151.28,151.28,0,0,1-23-69.83c0-.28-.44-.31-.45,0-.52,24.15,6.42,46.76,18.65,67.46,9.66,16.35,21.48,31.25,30.72,47.86-.75,10.61-2,21.19-3.49,31.78q-.19,1-.31,2.08c-2,13.58-4.51,27.18-7.16,40.87l-.43,2.22C226.27,269.85,216.34,257,209.16,244c-12.4-22.52-20-46.23-22-71.92,0-.28-.44-.31-.45,0-.54,24.2,6.21,47.21,17.35,68.55,8.41,16.12,19.39,31.11,26,48.13-4.51,23.59-8.68,47.24-10.21,71.26-.08,1.24,1.77,1.28,1.91.07,2.31-19.54,5.75-38.88,9.35-58.2,9.15-15.67,21.41-28.77,33.36-42.38,18.72-21.34,34.89-44.48,47-70.2C311.61,189,311.26,188.76,311.11,189Z"/></g><g id="_Group_15" data-name="&lt;Group&gt;"><path id="_Compound_Path_" data-name="&lt;Compound Path&gt;" class="cls-7" d="M124,559.23A22.68,22.68,0,0,1,119.47,580c-7.66,9.07-14.94,18.14-21.56,27.35a1.32,1.32,0,0,0-.25.34c-16.29,22.72-28.48,46.26-32.09,72.65a1.35,1.35,0,0,0,1.16,1.52,1.32,1.32,0,0,0,.35,0,1.35,1.35,0,0,0,1.17-1.16c2.77-20.31,10.79-39,21.89-56.92a52.88,52.88,0,0,1,31.78-23.25c1.93-.5,3.16-.77,3.21-.78a1.35,1.35,0,0,0-.58-2.64c-.61.13-12.12,2.71-20.7,6.72,11.62-15.53,25-30.76,38.74-46.32q4.65-5.28,9.4-10.7a50.25,50.25,0,0,1,23.27-15.2c42.92-12.88,76.9,5,107.25,20.89,18.28,9.6,35.54,18.66,52.53,19.65a82.2,82.2,0,0,0,14.92-.41c35-4.36,41.18-32.18,41.24-32.5a1.35,1.35,0,0,0-1.84-1.52c-10.22,4.22-24.6-3.85-42.81-14.07-21.22-11.91-46.49-26.09-76.29-27.73,69.75-17.6,126-82.24,126.59-83a1.35,1.35,0,0,0-.37-2.06c-.37-.21-9.93-5-75.93,3.75-51.12,6.79-95.33,43.08-113,59.41a291.89,291.89,0,0,0,19.73-38,36.18,36.18,0,0,1,15.63-17.46,98.32,98.32,0,0,1,9.36-4.57,1.35,1.35,0,1,0-1-2.5c-.55.22-11.17,4.6-18.47,10.53q3-8.42,5.5-17.26l0-.07A24.62,24.62,0,0,1,249.57,390c8.75-5.1,19.74-7.7,31.91-10.57,20.79-4.91,46.67-11,72.72-32.29,17.73-14.49,36.79-44.48,37.59-45.75a1.35,1.35,0,0,0-1-2.06c-.47-.06-47.35-6-85.86,16.19-29.31,16.88-51.92,51.13-61.14,66.72q1.88-8.91,3.2-17.37a1.33,1.33,0,0,0,.06-.4,290,290,0,0,0,3.56-49.58c2.51-2.92,23.42-29,12.64-74.09-8.77-36.71-40.48-63.77-59.42-79.94-6-5.1-10.71-9.14-13.31-12.19a1.35,1.35,0,0,0-2.37.74c0,.33-3.26,33.58,10.13,67,6.35,15.84,16.1,32.83,25.53,49.25,10.37,18.06,20.16,35.12,24.1,48.44a282.86,282.86,0,0,1-2.48,42.73,74.83,74.83,0,0,0-10.7-20.92,1.35,1.35,0,1,0-2.15,1.64,71.61,71.61,0,0,1,4.8,7.57,45.79,45.79,0,0,1,4.9,31c-1.74,9-3.92,18.3-6.62,28-7.86,28.19-20.26,53-34.79,75.52,8.84-19.19,20.15-50.26,19.75-83.08s-11.5-61.13-19.61-81.84c-5.29-13.5-9.47-24.17-9.06-31.35.32-5.69-2.25-6.73-3.81-6.85-9-.68-31,29-34.27,63.74-3.38,36.22,8.07,65.29,18.17,90.93,7.6,19.3,14.45,36.71,14.18,54.28a47.78,47.78,0,0,1-10.51,28.93q-5.69,7.16-11.49,14a32.94,32.94,0,0,0-1.47-15.05,1.35,1.35,0,0,0-2.5,1,30.84,30.84,0,0,1,1.33,13.27,12.85,12.85,0,0,1-3,7.42l-.14.19c-6,7-12,13.82-17.88,20.49q-5.27,6-10.46,11.92c3.23-18,12-80.63-13.93-117.92-19.67-28.29-53.93-44.18-78.94-55.79-13.36-6.2-23.91-11.09-26.63-15.47-1.22-2-2.44-2.9-3.72-2.84a2.93,2.93,0,0,0-2.45,1.89C.65,385,4.89,422,22.82,448.23c7.85,11.48,22.14,23,37.27,35.14C86.11,504.29,115.18,527.68,124,559.23Z"/><path id="_Compound_Path_2" data-name="&lt;Compound Path&gt;" class="cls-8" d="M124,559.23A22.68,22.68,0,0,1,119.47,580c-7.66,9.07-14.94,18.14-21.56,27.35a1.32,1.32,0,0,0-.25.34c-16.29,22.72-28.48,46.26-32.09,72.65a1.35,1.35,0,0,0,1.16,1.52,1.32,1.32,0,0,0,.35,0,1.35,1.35,0,0,0,1.17-1.16c2.77-20.31,10.79-39,21.89-56.92a52.88,52.88,0,0,1,31.78-23.25c1.93-.5,3.16-.77,3.21-.78a1.35,1.35,0,0,0-.58-2.64c-.61.13-12.12,2.71-20.7,6.72,11.62-15.53,25-30.76,38.74-46.32q4.65-5.28,9.4-10.7a50.25,50.25,0,0,1,23.27-15.2c42.92-12.88,76.9,5,107.25,20.89,18.28,9.6,35.54,18.66,52.53,19.65a82.2,82.2,0,0,0,14.92-.41c35-4.36,41.18-32.18,41.24-32.5a1.35,1.35,0,0,0-1.84-1.52c-10.22,4.22-24.6-3.85-42.81-14.07-21.22-11.91-46.49-26.09-76.29-27.73,69.75-17.6,126-82.24,126.59-83a1.35,1.35,0,0,0-.37-2.06c-.37-.21-9.93-5-75.93,3.75-51.12,6.79-95.33,43.08-113,59.41a291.89,291.89,0,0,0,19.73-38,36.18,36.18,0,0,1,15.63-17.46,98.32,98.32,0,0,1,9.36-4.57,1.35,1.35,0,1,0-1-2.5c-.55.22-11.17,4.6-18.47,10.53q3-8.42,5.5-17.26l0-.07A24.62,24.62,0,0,1,249.57,390c8.75-5.1,19.74-7.7,31.91-10.57,20.79-4.91,46.67-11,72.72-32.29,17.73-14.49,36.79-44.48,37.59-45.75a1.35,1.35,0,0,0-1-2.06c-.47-.06-47.35-6-85.86,16.19-29.31,16.88-51.92,51.13-61.14,66.72q1.88-8.91,3.2-17.37a1.33,1.33,0,0,0,.06-.4,290,290,0,0,0,3.56-49.58c2.51-2.92,23.42-29,12.64-74.09-8.77-36.71-40.48-63.77-59.42-79.94-6-5.1-10.71-9.14-13.31-12.19a1.35,1.35,0,0,0-2.37.74c0,.33-3.26,33.58,10.13,67,6.35,15.84,16.1,32.83,25.53,49.25,10.37,18.06,20.16,35.12,24.1,48.44a282.86,282.86,0,0,1-2.48,42.73,74.83,74.83,0,0,0-10.7-20.92,1.35,1.35,0,1,0-2.15,1.64,71.61,71.61,0,0,1,4.8,7.57,45.79,45.79,0,0,1,4.9,31c-1.74,9-3.92,18.3-6.62,28-7.86,28.19-20.26,53-34.79,75.52,8.84-19.19,20.15-50.26,19.75-83.08s-11.5-61.13-19.61-81.84c-5.29-13.5-9.47-24.17-9.06-31.35.32-5.69-2.25-6.73-3.81-6.85-9-.68-31,29-34.27,63.74-3.38,36.22,8.07,65.29,18.17,90.93,7.6,19.3,14.45,36.71,14.18,54.28a47.78,47.78,0,0,1-10.51,28.93q-5.69,7.16-11.49,14a32.94,32.94,0,0,0-1.47-15.05,1.35,1.35,0,0,0-2.5,1,30.84,30.84,0,0,1,1.33,13.27,12.85,12.85,0,0,1-3,7.42l-.14.19c-6,7-12,13.82-17.88,20.49q-5.27,6-10.46,11.92c3.23-18,12-80.63-13.93-117.92-19.67-28.29-53.93-44.18-78.94-55.79-13.36-6.2-23.91-11.09-26.63-15.47-1.22-2-2.44-2.9-3.72-2.84a2.93,2.93,0,0,0-2.45,1.89C.65,385,4.89,422,22.82,448.23c7.85,11.48,22.14,23,37.27,35.14C86.11,504.29,115.18,527.68,124,559.23Zm126.5-248.62a225.51,225.51,0,0,0-9.64-59.39c4.06-8.84,4.61-21.8,4.62-22.35,0-1.59.2-5.89-.55-5.94s-1.15,5.11-1.21,5.85a101,101,0,0,1-4.16,18.43c-7.63-22.81-16.77-34.38-17-34.67-1.36-2-5.51-6.41-6-6.11s3.46,5.22,4.67,7.26c.29.48,23,31.86,26.3,91.41-4.91-12-13-26.09-21.42-40.8-9.39-16.34-19.09-33.24-25.37-48.91-10.8-27-10.59-53.78-10.15-62.66,2.81,2.81,6.74,6.17,11.45,10.18,18.69,16,50,42.66,58.55,78.51C269.65,279.06,256,302.93,250.53,310.61Zm30.33,66.19c-13.09,3.09-24.84,5.87-34.15,11.76,24.07-21.76,90.56-60.88,91.3-61.31s6.65-3.95,6.27-4.59-6.8,2.64-7.45,3c-1.34.78-15.05,8.16-31.75,18.61,1.66-3.15,3.89-7.06,5-8.68.43-.61,3.88-5.36,3.29-5.82s-4.5,3.94-4.93,4.55c-.25.35-6.19,8.23-7.45,12.5-20.61,13-44.82,29.18-57.13,40.64,7.12-12.6,30.86-51.45,62.41-69.61,33.06-19,72.46-16.93,82-16.08-4.49,6.85-20.91,31.08-35.82,43.27C326.93,365.93,301.39,372,280.86,376.8ZM218,396.52c.46,38-15,73.7-23.78,90.73,2.68-13.42,5.58-36.38,1.85-69.58a1.29,1.29,0,0,0,0-.3,4.25,4.25,0,0,0-.11-.46,350.47,350.47,0,0,0-6.59-38c.62-4.18,6.07-15.21,8.27-19.1.37-.65,2.52-4,1.88-4.35s-2.9,2.59-3.52,3.47a106.4,106.4,0,0,0-7.83,14.81c-9-37.14-5-53.79-5-54,.43-2.95,1.93-8.26,1.21-8.46s-2.36,5.35-3.06,7.89c-.19.69-5,17.22,4.23,55.24a361.93,361.93,0,0,1,6.89,36C188,404.2,180.57,396.16,178.68,394c-.49-.56-4.56-4.6-5.1-4.09-.37.35,3.31,4.51,3.8,5.07,6.34,7.18,14.89,19,15.88,22.23,4.93,42.89-1.32,68.59-3.82,78.72-.62,1.06-1,1.67-1,1.72s0,.08,0,.11l-1.14,1.54c5.54-23-3-44.6-12.65-69.22-10-25.36-21.31-54.1-18-89.69,3.24-34.77,25.16-61.81,31.38-61.29,1.33.1,1.39,2.55,1.31,4-.43,7.76,3.84,18.67,9.25,32.48C206.56,336.15,217.56,364.24,218,396.52Zm36.86,99.68c-1.54.15-3.1.34-4.66.56-.89.1-1.77.23-2.66.3a1.55,1.55,0,0,0-.56.2c-1,.17-1.9.33-2.86.52-38.72,7.85-60.74,18.36-72.74,26.27q2.95-3.58,5.87-7.23c46.14-38.37,148.37-75.71,149.39-76.08.7-.25,9.43-3.43,9.18-4.13s-9,2-9.72,2.25c-.52.19-27.63,9.3-59.9,23.92a217.45,217.45,0,0,1,14.56-17c.53-.53,4.91-4.9,4.39-5.42s-5.41,3.77-5.94,4.3-13.4,12.76-17.63,20.19c-26.49,12.19-56,27.42-77.49,43.2,5.95-7.77,11.74-15.81,17.25-24.17l.09-.06c.54-.58,54.45-57.92,119.52-66.56,50.8-6.73,67.54-5.44,72.47-4.53C383.51,423.62,324.08,486.21,254.81,496.2Zm-75.3,31.4c31.62-12.58,64.64-11.3,92.51-5.47,0,0,0,0,0,0l8.52,14.9c.27.5,2.85,4.92,3.27,5,.74.09-1.33-5.11-1.68-5.77l-6.67-13.39A255.57,255.57,0,0,1,341,547.36c3.52,2,6.37,3,6.6,2.62.39-.64-5.05-4-5.69-4.39-1-.59-93.94-55.89-173.79-15.83,10.18-7.78,32.36-20.38,76.49-29.32,1.82-.37,3.62-.66,5.4-.93.81-.09,1.62-.16,2.42-.26s1.67-.23,2.51-.35c35.86-3.46,65.8,13.33,90.27,27.07,17.51,9.82,31.61,17.73,42.67,15-2.54,7.61-13.5,30.7-52.7,28.42-16.4-1-33.41-9.89-51.43-19.35C254.1,534.5,221,517.16,179.51,527.59Zm-51,33.27c-3.49-34-19.54-63.52-37.3-85.78-1.63-6.59-1.32-27.59-1.31-27.8,0-.75.18-7.45-.56-7.47s-1.07,3.91-1.43,7.27c-.08.72-.82,15.08,0,23.94a187.14,187.14,0,0,0-32.53-30.82c-28.43-20.48-37.94-40-38.05-40.21-.74-1.3-2.51-5.59-3.2-5.28s1.45,5.44,1.75,6.12,8.9,20.66,37.92,41.57c23.53,17,61.72,57.36,70.75,109.54-10.94-29-38.16-50.94-62.71-70.68-15-12-29.11-23.4-36.73-34.56C6,418.77,3.67,381.4,7,378.32a4.71,4.71,0,0,1,1.27,1.52c3.15,5.06,13.48,9.86,27.79,16.49,24.73,11.48,58.6,27.19,77.86,54.88C136.89,484.21,132,537.82,128.47,560.87Z"/><path id="_Compound_Path_3" data-name="&lt;Compound Path&gt;" class="cls-9" d="M324.94,273.31a1,1,0,0,0-.2-1,1,1,0,0,0-1-.26l-.41.14a58.64,58.64,0,0,0,3.32-9.65,1.11,1.11,0,0,0-.19-.84,1,1,0,0,0-.78-.36c-1.91,0-6.92,2.17-10.72,4.12a1,1,0,0,0-1.27-1.25c-8.34,3.34-18.59,13.42-22.86,22.46a11.27,11.27,0,0,0-1,7.95,3.71,3.71,0,0,1-.52,3.23c-.2.27-.4.56-.57.86a7,7,0,0,1-1.85,2,95.11,95.11,0,0,1-22.71,12.64l.71,1.82A97,97,0,0,0,288,302.31a6.83,6.83,0,0,1,2.24-1.12,14.09,14.09,0,0,0,1.65-.58,3.61,3.61,0,0,1,2.72-.08,8.75,8.75,0,0,0,3.74.57,11.08,11.08,0,0,0,4.79-1.66C311.89,294.54,321.24,283.31,324.94,273.31Z"/><path id="_Compound_Path_4" data-name="&lt;Compound Path&gt;" class="cls-10" d="M324.94,273.31a1,1,0,0,0-.2-1,1,1,0,0,0-1-.26l-.41.14a58.64,58.64,0,0,0,3.32-9.65,1.11,1.11,0,0,0-.19-.84,1,1,0,0,0-.78-.36c-1.91,0-6.92,2.17-10.72,4.12a1,1,0,0,0-1.27-1.25c-8.34,3.34-18.59,13.42-22.86,22.46a11.27,11.27,0,0,0-1,7.95,3.71,3.71,0,0,1-.52,3.23c-.2.27-.4.56-.57.86a7,7,0,0,1-1.85,2,95.11,95.11,0,0,1-22.71,12.64l.71,1.82A97,97,0,0,0,288,302.31a6.83,6.83,0,0,1,2.24-1.12,14.09,14.09,0,0,0,1.65-.58,3.61,3.61,0,0,1,2.72-.08,8.75,8.75,0,0,0,3.74.57,11.08,11.08,0,0,0,4.79-1.66C311.89,294.54,321.24,283.31,324.94,273.31Zm-.57-9.76a47.58,47.58,0,0,1-3.68,9.51,72.29,72.29,0,0,0-11.76,5.32c1.74-3.24,3.36-6.62,4.85-10.08A63.29,63.29,0,0,1,324.37,263.55ZM292.6,287.48c3.71-7.87,12.13-16.55,19.6-20.46a126.2,126.2,0,0,1-6.59,13.31l0,.08A69,69,0,0,0,298.1,286a40.06,40.06,0,0,1,9-13.3c.2-.19,2.26-2.06,2.06-2.3s-2.4,1.64-2.6,1.82a40.49,40.49,0,0,0-10.14,15.3,24,24,0,0,0-3.75,4.9,8.88,8.88,0,0,0-.82,2.2A9.15,9.15,0,0,1,292.6,287.48Zm9.62,10.26a9.25,9.25,0,0,1-4,1.41,7.1,7.1,0,0,1-2.55-.3c3.67-.86,10.1-3.9,15.44-11.33.39-.54.77-1.09,1.15-1.64,1.39-2,2.4-4,4.32-5.49.21-.17,2.06-1.56,1.9-1.84h0c-.2-.27-2.05,1.08-2.27,1.25a22.85,22.85,0,0,0-4.76,5.54c-.38.54-.75,1.09-1.13,1.62-5.94,8.26-13.26,10.86-16.08,11.17a4.27,4.27,0,0,1-.51-.45,2.84,2.84,0,0,1-.18-.93,27.87,27.87,0,0,0,7.79-4.91,80.2,80.2,0,0,0,7-7.48c.18-.2,2.35-2.54,2.07-2.79s-2.38,2.14-2.56,2.34a80.08,80.08,0,0,1-7.19,7.2,27.33,27.33,0,0,1-7.09,4.57,7.27,7.27,0,0,1,.73-2.29,21.76,21.76,0,0,1,4.39-5.4,68.51,68.51,0,0,1,23.57-13.45C318.38,283.64,310,293.35,302.22,297.74Z"/><g id="_Group_16" data-name="&lt;Group&gt;"><path id="_Compound_Path_5" data-name="&lt;Compound Path&gt;" class="cls-9" d="M215.19,388.36a11.08,11.08,0,0,0,2,4.65,8.75,8.75,0,0,0,2.95,2.37,3.61,3.61,0,0,1,1.79,2.06,14.07,14.07,0,0,0,.69,1.6,6.83,6.83,0,0,1,.69,2.41,97,97,0,0,0,6.17,25.76l1.82-.71a95.11,95.11,0,0,1-6-25.28,7,7,0,0,1,.25-2.74c.1-.33.18-.67.24-1a3.71,3.71,0,0,1,2-2.56A11.27,11.27,0,0,0,233,388.8c3.78-9.26,4.26-23.63,1.08-32a1,1,0,0,0-1.78-.09c-1.14-4.11-3-9.25-4.22-10.68a1,1,0,0,0-.8-.33,1.11,1.11,0,0,0-.75.43,58.64,58.64,0,0,0-4.86,9l-.17-.39a1,1,0,0,0-.87-.55,1,1,0,0,0-.88.53C214.86,364.14,212.91,378.63,215.19,388.36Z"/><path id="_Compound_Path_6" data-name="&lt;Compound Path&gt;" class="cls-11" d="M215.19,388.36a11.08,11.08,0,0,0,2,4.65,8.75,8.75,0,0,0,2.95,2.37,3.61,3.61,0,0,1,1.79,2.06,14.07,14.07,0,0,0,.69,1.6,6.83,6.83,0,0,1,.69,2.41,97,97,0,0,0,6.17,25.76l1.82-.71a95.11,95.11,0,0,1-6-25.28,7,7,0,0,1,.25-2.74c.1-.33.18-.67.24-1a3.71,3.71,0,0,1,2-2.56A11.27,11.27,0,0,0,233,388.8c3.78-9.26,4.26-23.63,1.08-32a1,1,0,0,0-1.78-.09c-1.14-4.11-3-9.25-4.22-10.68a1,1,0,0,0-.8-.33,1.11,1.11,0,0,0-.75.43,58.64,58.64,0,0,0-4.86,9l-.17-.39a1,1,0,0,0-.87-.55,1,1,0,0,0-.88.53C214.86,364.14,212.91,378.63,215.19,388.36ZM231,359.49c-1.54,3.44-2.93,6.91-4.15,10.39a72.28,72.28,0,0,0-4-12.26,47.58,47.58,0,0,1,4.52-9.14A63.29,63.29,0,0,1,231,359.49Zm-4.57,33.94a8.89,8.89,0,0,0,1.07-2.09,24,24,0,0,0,1.07-6.08,40.49,40.49,0,0,0,4.41-17.82c0-.27-.08-3.17-.41-3.15s-.29,2.8-.3,3.07a40.06,40.06,0,0,1-3.7,15.65,69,69,0,0,0-.94-9.29l0-.08A126.25,126.25,0,0,1,233,359.78c2.17,8.15,1.48,20.22-1.81,28.28A9.15,9.15,0,0,1,226.39,393.43Zm-5.81-36a68.5,68.5,0,0,1,6,26.46,21.76,21.76,0,0,1-1,6.88,7.27,7.27,0,0,1-1.19,2.08,27.33,27.33,0,0,1-1.43-8.32,80.08,80.08,0,0,1,.44-10.16c0-.27.31-3.44,0-3.47s-.63,3.15-.66,3.41a80.22,80.22,0,0,0-.75,10.25,27.87,27.87,0,0,0,1.65,9.06,2.84,2.84,0,0,1-.81.49,4.26,4.26,0,0,1-.67-.07c-1.67-2.29-4.72-9.44-2.64-19.4.13-.64.28-1.29.43-1.93a22.85,22.85,0,0,0,.86-7.25c0-.27-.28-2.55-.62-2.51h0c-.32.08-.09,2.38-.07,2.65.2,2.43-.58,4.5-1.13,6.9-.15.65-.3,1.3-.43,2-1.86,9,.25,15.75,2.1,19a7.1,7.1,0,0,1-1.95-1.68,9.25,9.25,0,0,1-1.63-3.87C215,379.2,216.55,366.47,220.57,357.4Z"/></g><path id="_Compound_Path_7" data-name="&lt;Compound Path&gt;" class="cls-9" d="M129.93,459c6,3.83,12.69,6.4,19.17,8.88l9.17,3.51c1.92.74,4.55,1.73,7.1,1.12a4.71,4.71,0,0,0,4,.74l.07,0a6.51,6.51,0,0,0,1.42-.74c2.13-1.47,3.78-4.35,4.92-8.59a43,43,0,0,0,1-5.47,34.53,34.53,0,0,1,4.64-14.22c.48-1,1-1.93,1.41-2.9a49.11,49.11,0,0,0,4.82-16.59,28.56,28.56,0,0,0-3.46-17c-2.87-4.9-7.42-8.57-11.49-11.52a129.48,129.48,0,0,0-11.29-7.32,1.88,1.88,0,0,0-2.76.51,61.67,61.67,0,0,0-5.15,7.46,69.94,69.94,0,0,0-16-10.12,2.51,2.51,0,0,0-1.91-.23,2.54,2.54,0,0,0-1.37,1.5l-3.78,8.48c-.48,1.07-1,2.15-1.43,3.25a42.55,42.55,0,0,1-4.15-4.72,1,1,0,0,0-1.66.17c-.48,1-1,2-1.48,3a45.26,45.26,0,0,0-4.26,10.85c-.72,3.5-.58,8.19,1.55,11.79-3.49-1.22-6.77-2.45-9.32-4.82a1,1,0,0,0-1.55.32c-1.88,4.18-1.72,9.29.48,15.61A52.88,52.88,0,0,0,129.93,459Z"/><path id="_Compound_Path_8" data-name="&lt;Compound Path&gt;" class="cls-9" d="M245.88,358.47l1.91.41c4.19-19.75,14.45-38.49,23.5-55,3.49-6.38,6.79-12.4,9.67-18.29,2.28-4.66,4.56-9.86,6.42-14.38a19.79,19.79,0,0,1,2.82-4.83,7.41,7.41,0,0,1,2.31-1.55,5.81,5.81,0,0,1,1.71-.26h0c2.48.19,5.49-.82,9-3a43.06,43.06,0,0,0,4.41-3.38,34.53,34.53,0,0,1,13-7.36c1-.39,2-.78,3-1.19a49.11,49.11,0,0,0,14.75-9,28.56,28.56,0,0,0,8.92-14.87c1.19-5.55.31-11.33-.7-16.25a129.44,129.44,0,0,0-3.39-13,1.88,1.88,0,0,0-2.38-1.49,61.66,61.66,0,0,0-8.83,2,69.94,69.94,0,0,0-5-18.26,2.51,2.51,0,0,0-1.25-1.46,2.54,2.54,0,0,0-2,.18l-8.51,3.7c-1.08.47-2.16.94-3.24,1.43a42.55,42.55,0,0,1,.12-6.29,1,1,0,0,0-1.34-1c-1,.43-2.09.84-3.15,1.24a45.26,45.26,0,0,0-10.47,5.13c-2.89,2.1-6,5.65-6.81,9.74-1.75-3.26-3.34-6.38-3.63-9.85a1,1,0,0,0-1.36-.82c-4.21,1.82-7.54,5.69-10.18,11.84a52.88,52.88,0,0,0-2.49,34.36c1.84,6.88,5,13.29,8.15,19.49l4.39,8.78c.26.52.55,1.1.89,1.69a8.8,8.8,0,0,1,1.11,5.32c-.06.59-.12,1.19-.16,1.77a20,20,0,0,1-1.47,6.39c-1.85,4.5-4.12,9.68-6.4,14.33-2.86,5.85-6.15,11.85-9.63,18.21C260.46,319.57,250.13,338.45,245.88,358.47Z"/><path id="_Compound_Path_9" data-name="&lt;Compound Path&gt;" class="cls-12" d="M245.88,358.47l1.91.41c4.19-19.75,14.45-38.49,23.5-55,3.49-6.38,6.79-12.4,9.67-18.29,2.28-4.66,4.56-9.86,6.42-14.38a19.79,19.79,0,0,1,2.82-4.83,7.41,7.41,0,0,1,2.31-1.55,5.81,5.81,0,0,1,1.71-.26h0c2.48.19,5.49-.82,9-3a43.06,43.06,0,0,0,4.41-3.38,34.53,34.53,0,0,1,13-7.36c1-.39,2-.78,3-1.19a49.11,49.11,0,0,0,14.75-9,28.56,28.56,0,0,0,8.92-14.87c1.19-5.55.31-11.33-.7-16.25a129.44,129.44,0,0,0-3.39-13,1.88,1.88,0,0,0-2.38-1.49,61.66,61.66,0,0,0-8.83,2,69.94,69.94,0,0,0-5-18.26,2.51,2.51,0,0,0-1.25-1.46,2.54,2.54,0,0,0-2,.18l-8.51,3.7c-1.08.47-2.16.94-3.24,1.43a42.55,42.55,0,0,1,.12-6.29,1,1,0,0,0-1.34-1c-1,.43-2.09.84-3.15,1.24a45.26,45.26,0,0,0-10.47,5.13c-2.89,2.1-6,5.65-6.81,9.74-1.75-3.26-3.34-6.38-3.63-9.85a1,1,0,0,0-1.36-.82c-4.21,1.82-7.54,5.69-10.18,11.84a52.88,52.88,0,0,0-2.49,34.36c1.84,6.88,5,13.29,8.15,19.49l4.39,8.78c.26.52.55,1.1.89,1.69a8.8,8.8,0,0,1,1.11,5.32c-.06.59-.12,1.19-.16,1.77a20,20,0,0,1-1.47,6.39c-1.85,4.5-4.12,9.68-6.4,14.33-2.86,5.85-6.15,11.85-9.63,18.21C260.46,319.57,250.13,338.45,245.88,358.47Zm64.18-180.8a44.51,44.51,0,0,0,0,5.77,45.07,45.07,0,0,0-8.44,5c-3.15,2.46-6.62,5.64-8,9.61q-.48-1.2-1-2.37c-.14-.3-.3-.59-.45-.89-.72-4.75,2.85-9.21,6.15-11.6a43.83,43.83,0,0,1,10-4.89Zm20.06,19.9a45.36,45.36,0,0,0-17.85,11,184.66,184.66,0,0,1,10.64-21.94c.18-.31,1.7-3.09,1.27-3.32s-2,2.55-2.16,2.86a199.6,199.6,0,0,0-12.47,25.59c-.51.68-1,1.37-1.46,2.09-3.6,5.63-5.39,12.19-7.12,18.53-1.6,5.84-3.24,11.86-6.31,17-2.61-4.79-1.64-11.19-.91-16,.32-2.1.75-4.24,1.17-6.3a82.15,82.15,0,0,0,1.66-10.59A41.56,41.56,0,0,0,295,202c-.17-5,4.12-9,7.89-12,4-3.09,8.64-5.13,13.16-7.1l8.51-3.7a1.59,1.59,0,0,1,.52-.17s.08.17.18.42A68,68,0,0,1,330.13,197.58Zm-38.45,60.24a14.12,14.12,0,0,1,2.44-4.17c.26-.35.52-.7.77-1.05s.33-.52.51-.78a.94.94,0,0,0,.15-.23c3.71-5.67,5.55-12.3,7.31-18.74,1.69-6.2,3.45-12.61,6.89-18,5.93-9.28,17.37-15.83,31.41-18l.16,0,.06.17a127.82,127.82,0,0,1,3.34,12.82c1,4.72,1.81,10.26.7,15.45a27,27,0,0,1-8.33,13.85,47.23,47.23,0,0,1-14.18,8.61c-1,.41-2,.79-3,1.18a36.33,36.33,0,0,0-13.57,7.68,40.74,40.74,0,0,1-4.21,3.23c-3.91,2.49-7,3.32-9.16,2.46h0a29,29,0,0,0,4.44-4.42c.8-.93,1.62-1.88,2.49-2.74.46-.45,1.17-1.06,2.07-1.83,5.41-4.62,18-15.44,31-39.92.17-.32,1.27-2.62,1-2.79s-1.63,2-1.8,2.32c-12.94,24.26-25.68,34.83-31,39.4-.92.78-1.65,1.41-2.14,1.89-.91.9-1.75,1.88-2.56,2.82a26.49,26.49,0,0,1-4.41,4.37A4.52,4.52,0,0,1,291.68,257.82ZM287,254.32l-4.39-8.78c-3.06-6.11-6.22-12.44-8-19.12a50.9,50.9,0,0,1,2.4-33.09c2.17-5.06,4.79-8.42,8-10.23.61,3.54,2.34,6.74,4,9.85.63,1.18,1.29,2.4,1.87,3.6a39.65,39.65,0,0,1,3.78,19.79A80.71,80.71,0,0,1,293,226.69c-.42,2.08-.86,4.24-1.18,6.39-.77,5.06-1.91,12.61,1.66,18.1l-.19.29c-.24.34-.49.68-.75,1a26.14,26.14,0,0,0-1.82,2.71,34.52,34.52,0,0,1-1.78-7.82c-.21-1.42-.43-2.88-.73-4.3a68,68,0,0,0-2.87-9.14c-.52-1.41-1-2.82-1.51-4.24-4-12.1-4.44-24.26-.68-34.36.12-.34,1.17-3.12.83-3.22s-1.46,2.56-1.59,2.89c-3.86,10.38-3.9,22.72.2,35.1.48,1.44,1,2.86,1.52,4.28a67.16,67.16,0,0,1,2.82,9c.29,1.38.51,2.82.72,4.22a31.56,31.56,0,0,0,2.35,9.2c-.06.17-.14.32-.19.49a6.73,6.73,0,0,0-.22,1.07A14.28,14.28,0,0,1,287,254.32Z"/><path id="_Compound_Path_10" data-name="&lt;Compound Path&gt;" class="cls-13" d="M108.57,432a52.88,52.88,0,0,0,21.36,27c6,3.83,12.69,6.4,19.17,8.88l9.17,3.51c.58.22,1.21.46,1.89.68A14,14,0,0,1,166.3,476l0,.05a10.44,10.44,0,0,1,2.27,3.9c3.56,11.34,7,24.8,4,38.76l1.91.42c3.32-15.21-.81-29.65-4.63-41.58a8.11,8.11,0,0,1-.37-2.57v0a3,3,0,0,1,1.31-2.43h0c2.13-1.47,3.78-4.35,4.92-8.59a43,43,0,0,0,1-5.47,34.53,34.53,0,0,1,4.64-14.22c.48-1,1-1.93,1.41-2.9a49.11,49.11,0,0,0,4.82-16.59,28.56,28.56,0,0,0-3.46-17c-2.87-4.9-7.42-8.57-11.49-11.52a129.45,129.45,0,0,0-11.29-7.32,1.88,1.88,0,0,0-2.76.51,61.66,61.66,0,0,0-5.15,7.46,69.94,69.94,0,0,0-16-10.12,2.51,2.51,0,0,0-1.91-.23,2.54,2.54,0,0,0-1.37,1.5l-3.78,8.48c-.48,1.07-1,2.15-1.43,3.25a42.52,42.52,0,0,1-4.15-4.72,1,1,0,0,0-1.66.17c-.48,1-1,2-1.48,3a45.26,45.26,0,0,0-4.26,10.85c-.72,3.5-.58,8.19,1.55,11.79-3.49-1.22-6.77-2.45-9.32-4.82a1,1,0,0,0-1.55.32C106.21,420.56,106.37,425.67,108.57,432Zm19.6-30.31a45.07,45.07,0,0,0-2.82,9.42c-.66,3.94-1.08,8.63.57,12.5-.78-.37-1.56-.72-2.36-1l-.93-.35c-3.74-3-4.12-8.72-3.3-12.71a43.82,43.82,0,0,1,4.1-10.38l.82-1.66A44.47,44.47,0,0,0,128.17,401.68Zm24.31-3.09a45.36,45.36,0,0,0-5.77,20.13,184.68,184.68,0,0,1-7-23.37c-.08-.35-.83-3.42-1.31-3.31s.25,3.22.33,3.57a199.59,199.59,0,0,0,8.08,27.29c.08.85.18,1.69.33,2.53,1.15,6.58,4.25,12.63,7.26,18.48,2.77,5.39,5.61,10.94,6.84,16.82-5.16-1.77-8.77-7.15-11.46-11.18-1.18-1.77-2.3-3.63-3.39-5.43a82.17,82.17,0,0,0-5.92-8.93,41.56,41.56,0,0,0-11-9.62c-3.5-3.57-3-9.43-2.26-14.15.83-5,2.91-9.62,4.91-14.13l3.78-8.47a1.59,1.59,0,0,1,.27-.47s.17.07.42.18A68,68,0,0,1,152.48,398.59Zm16.3,72.81h0a29,29,0,0,0,.29-6.26c0-1.22-.08-2.49,0-3.71,0-.64.15-1.57.29-2.74.87-7.06,2.85-23.53-4-50.4-.09-.35-.83-2.79-1.18-2.7s.14,2.58.23,2.93c6.84,26.64,4.57,43,3.7,50-.15,1.2-.27,2.15-.3,2.84-.06,1.27,0,2.56,0,3.81a26.49,26.49,0,0,1-.3,6.2,4.52,4.52,0,0,1-2.68-2.39,14.12,14.12,0,0,1-1-4.72c0-.43-.09-.87-.14-1.29s-.11-.61-.15-.92a.94.94,0,0,0,0-.27c-1.09-6.69-4.21-12.82-7.25-18.76-2.94-5.72-6-11.63-7.07-17.92-1.89-10.84,2.13-23.41,11-34.47l.1-.13.16.09a127.76,127.76,0,0,1,11.12,7.21c3.91,2.83,8.26,6.34,11,10.93a27,27,0,0,1,3.2,15.84A47.23,47.23,0,0,1,181,440.49c-.45,1-.92,1.92-1.39,2.87a36.33,36.33,0,0,0-4.82,14.82,40.77,40.77,0,0,1-.92,5.22C172.68,467.88,171,470.57,168.78,471.4Zm-59.38-53c2.84,2.19,6.28,3.39,9.61,4.56,1.26.44,2.57.9,3.81,1.4a39.65,39.65,0,0,1,16.15,12,80.73,80.73,0,0,1,5.78,8.72c1.1,1.82,2.23,3.71,3.44,5.51,2.85,4.25,7.1,10.59,13.44,12.23,0,.12,0,.23.06.35.05.42.09.84.14,1.25a26.16,26.16,0,0,0,.48,3.23,34.53,34.53,0,0,1-6.6-4.57c-1.11-.9-2.26-1.84-3.44-2.68a67.93,67.93,0,0,0-8.29-4.81c-1.33-.69-2.67-1.38-4-2.11-11.12-6.22-19.65-14.9-23.7-24.89-.14-.33-1.24-3.09-1.57-2.94s.65,2.87.78,3.2c4.16,10.26,12.47,19.39,23.85,25.76,1.32.74,2.67,1.44,4,2.13a67.15,67.15,0,0,1,8.14,4.71c1.15.82,2.28,1.74,3.38,2.63a31.56,31.56,0,0,0,7.94,5.2c.07.16.11.33.19.49a6.73,6.73,0,0,0,.56.94,14.28,14.28,0,0,1-4.62-1.19l-9.17-3.51c-6.38-2.44-13-5-18.82-8.7a50.9,50.9,0,0,1-20.57-26C108.6,426.14,108.27,421.89,109.4,418.41Z"/></g></svg>