<svg id="Header_BG" data-name="Header BG" xmlns="http://www.w3.org/2000/svg" xmlns:xlink="http://www.w3.org/1999/xlink" viewBox="0 0 547 736"><defs><style>.cls-1{fill:url(#linear-gradient);}.cls-2{fill:url(#linear-gradient-2);}.cls-3{fill:url(#linear-gradient-3);}.cls-4{fill:url(#linear-gradient-4);}.cls-5{fill:url(#linear-gradient-5);}.cls-6{fill:url(#linear-gradient-6);}.cls-7{fill:url(#linear-gradient-7);}.cls-8{fill:url(#linear-gradient-8);}.cls-9{fill:url(#linear-gradient-9);}.cls-10{fill:url(#linear-gradient-10);}.cls-11{fill:url(#linear-gradient-11);}.cls-12{fill:url(#linear-gradient-12);}.cls-13{fill:url(#linear-gradient-13);}.cls-14{fill:url(#linear-gradient-14);}.cls-15{fill:url(#linear-gradient-15);}.cls-16{fill:url(#linear-gradient-16);}.cls-17{fill:url(#linear-gradient-17);}.cls-18{fill:url(#linear-gradient-18);}.cls-19{fill:url(#linear-gradient-19);}.cls-20{fill:url(#linear-gradient-20);}.cls-21{fill:url(#linear-gradient-21);}.cls-22{fill:url(#linear-gradient-22);}.cls-23{fill:url(#linear-gradient-23);}.cls-24{fill:url(#linear-gradient-24);}.cls-25{fill:url(#linear-gradient-25);}.cls-26{fill:url(#linear-gradient-26);}.cls-27{fill:url(#linear-gradient-27);}.cls-28{fill:url(#linear-gradient-28);}.cls-29{fill:url(#linear-gradient-29);}.cls-30{fill:url(#linear-gradient-30);}.cls-31{fill:url(#linear-gradient-31);}.cls-32{fill:url(#linear-gradient-32);}.cls-33{fill:url(#linear-gradient-33);}.cls-34{fill:url(#linear-gradient-34);}.cls-35{fill:url(#linear-gradient-35);}.cls-36{fill:url(#linear-gradient-36);}.cls-37{fill:url(#linear-gradient-37);}.cls-38{fill:url(#linear-gradient-38);}.cls-39{fill:url(#linear-gradient-39);}.cls-40{fill:url(#linear-gradient-40);}.cls-41{fill:url(#linear-gradient-41);}.cls-42{fill:url(#linear-gradient-42);}.cls-43{fill:url(#linear-gradient-43);}.cls-44{fill:url(#linear-gradient-44);}.cls-45{fill:url(#linear-gradient-45);}.cls-46{fill:url(#linear-gradient-46);}.cls-47{fill:url(#linear-gradient-47);}.cls-48{fill:url(#linear-gradient-48);}.cls-49{fill:url(#linear-gradient-49);}.cls-50{fill:url(#linear-gradient-50);}.cls-51{fill:url(#linear-gradient-51);}.cls-52{fill:url(#linear-gradient-52);}.cls-53{fill:url(#linear-gradient-53);}.cls-54{fill:url(#linear-gradient-54);}.cls-55{fill:url(#linear-gradient-55);}.cls-56{fill:url(#linear-gradient-56);}.cls-57{fill:url(#linear-gradient-57);}.cls-58{fill:url(#linear-gradient-58);}.cls-59{fill:url(#linear-gradient-59);}.cls-60{fill:url(#linear-gradient-60);}.cls-61{fill:url(#linear-gradient-61);}.cls-62{fill:url(#linear-gradient-62);}.cls-63{fill:url(#linear-gradient-63);}.cls-64{fill:url(#linear-gradient-64);}.cls-65{fill:url(#linear-gradient-65);}.cls-66{fill:url(#linear-gradient-66);}.cls-67{fill:url(#linear-gradient-67);}.cls-68{fill:url(#linear-gradient-68);}.cls-69{fill:url(#linear-gradient-69);}.cls-70{fill:#f9f6f2;}.cls-71{fill:url(#linear-gradient-70);}.cls-72{fill:url(#linear-gradient-71);}.cls-73{fill:url(#linear-gradient-72);}.cls-74{fill:url(#linear-gradient-73);}</style><linearGradient id="linear-gradient" x1="-504.54" y1="-399.42" x2="588.86" y2="239.83" gradientTransform="translate(-10.03 -26.51)" gradientUnits="userSpaceOnUse"><stop offset="0" stop-color="#b48e5d"/><stop offset="0.19" stop-color="#8f6e3f"/><stop offset="0.38" stop-color="#c79d61"/><stop offset="0.54" stop-color="#eebe79"/><stop offset="0.63" stop-color="#fdca82"/><stop offset="0.7" stop-color="#ebbb77"/><stop offset="0.86" stop-color="#be955c"/><stop offset="1" stop-color="#8f6e3f"/></linearGradient><linearGradient id="linear-gradient-2" x1="-495.41" y1="-414.97" x2="597.95" y2="224.26" gradientTransform="translate(-10.44 -27.43)" xlink:href="#linear-gradient"/><linearGradient id="linear-gradient-3" x1="-493.13" y1="-408.88" x2="600.17" y2="230.31" gradientTransform="translate(-10.17 -27.53)" xlink:href="#linear-gradient"/><linearGradient id="linear-gradient-4" x1="-500.78" y1="-401.41" x2="592.55" y2="237.8" gradientTransform="translate(-9.83 -27.2)" xlink:href="#linear-gradient"/><linearGradient id="linear-gradient-5" x1="-104.73" y1="-169.64" x2="441.95" y2="149.97" gradientTransform="translate(-9.97 -26.93)" xlink:href="#linear-gradient"/><linearGradient id="linear-gradient-6" x1="-101.06" y1="-165.65" x2="445.61" y2="153.96" gradientTransform="translate(-9.79 -27.1)" xlink:href="#linear-gradient"/><linearGradient id="linear-gradient-7" x1="-97.74" y1="-164.2" x2="448.99" y2="155.44" gradientTransform="translate(-9.73 -27.25)" xlink:href="#linear-gradient"/><linearGradient id="linear-gradient-8" x1="-97.73" y1="-169.8" x2="448.99" y2="149.83" gradientTransform="translate(-9.98 -27.25)" xlink:href="#linear-gradient"/><linearGradient id="linear-gradient-9" x1="-100.66" y1="-169" x2="446" y2="150.61" gradientTransform="translate(-9.94 -27.11)" xlink:href="#linear-gradient"/><linearGradient id="linear-gradient-10" x1="-101.63" y1="-179.82" x2="445.09" y2="139.81" gradientTransform="translate(-10.43 -27.06)" xlink:href="#linear-gradient"/><linearGradient id="linear-gradient-11" x1="-118.79" y1="-151.28" x2="427.94" y2="168.36" gradientTransform="translate(-9.13 -26.32)" xlink:href="#linear-gradient"/><linearGradient id="linear-gradient-12" x1="-118.36" y1="-148.87" x2="428.31" y2="170.73" gradientTransform="translate(-9.02 -26.34)" xlink:href="#linear-gradient"/><linearGradient id="linear-gradient-13" x1="-122.36" y1="-152.47" x2="424.36" y2="167.16" gradientTransform="translate(-9.18 -26.16)" xlink:href="#linear-gradient"/><linearGradient id="linear-gradient-14" x1="-63.69" y1="-169.02" x2="483.04" y2="150.61" gradientTransform="translate(-9.98 -28.78)" xlink:href="#linear-gradient"/><linearGradient id="linear-gradient-15" x1="-92.02" y1="-191.63" x2="454.65" y2="127.98" gradientTransform="translate(-10.97 -27.48)" xlink:href="#linear-gradient"/><linearGradient id="linear-gradient-16" x1="-86.98" y1="-173.16" x2="459.74" y2="146.48" gradientTransform="translate(-10.14 -27.73)" xlink:href="#linear-gradient"/><linearGradient id="linear-gradient-17" x1="-85.81" y1="-171.23" x2="460.91" y2="148.41" gradientTransform="translate(-10.06 -27.78)" xlink:href="#linear-gradient"/><linearGradient id="linear-gradient-18" x1="-488.18" y1="-427.37" x2="605.2" y2="211.87" gradientTransform="translate(-10.92 -27.89)" xlink:href="#linear-gradient"/><linearGradient id="linear-gradient-19" x1="-494.41" y1="-416.63" x2="598.92" y2="222.58" gradientTransform="translate(-10.38 -27.72)" xlink:href="#linear-gradient"/><linearGradient id="linear-gradient-20" x1="-491.68" y1="-421.24" x2="601.62" y2="217.95" gradientTransform="translate(-9.84 -29.19)" xlink:href="#linear-gradient"/><linearGradient id="linear-gradient-21" x1="-493.47" y1="-418.2" x2="599.84" y2="221" gradientTransform="translate(-9.52 -29.44)" xlink:href="#linear-gradient"/><linearGradient id="linear-gradient-22" x1="-486.51" y1="-430.27" x2="606.9" y2="208.98" gradientTransform="translate(-10.17 -29.56)" xlink:href="#linear-gradient"/><linearGradient id="linear-gradient-23" x1="-477.51" y1="-445.53" x2="615.82" y2="193.68" gradientTransform="translate(-11.64 -28.54)" xlink:href="#linear-gradient"/><linearGradient id="linear-gradient-24" x1="-514.8" y1="-381.74" x2="578.52" y2="257.46" gradientTransform="translate(-9.46 -25.63)" xlink:href="#linear-gradient"/><linearGradient id="linear-gradient-25" x1="-528.27" y1="-358.71" x2="565.06" y2="280.5" gradientTransform="translate(-8.15 -25.53)" xlink:href="#linear-gradient"/><linearGradient id="linear-gradient-26" x1="-504.71" y1="-399" x2="588.62" y2="240.2" gradientTransform="translate(-9.85 -26.78)" xlink:href="#linear-gradient"/><linearGradient id="linear-gradient-27" x1="-504.42" y1="-399.56" x2="588.94" y2="239.67" gradientTransform="translate(-9.79 -26.95)" xlink:href="#linear-gradient"/><linearGradient id="linear-gradient-28" x1="-632.14" y1="-181.17" x2="461.26" y2="458.08" gradientTransform="translate(3.28 -27.11)" xlink:href="#linear-gradient"/><linearGradient id="linear-gradient-29" x1="-622.14" y1="-160.95" x2="471.26" y2="478.29" gradientTransform="translate(0.72 -21.34)" xlink:href="#linear-gradient"/><linearGradient id="linear-gradient-30" x1="-624.92" y1="-156.08" x2="468.41" y2="483.13" gradientTransform="translate(1.1 -21.51)" xlink:href="#linear-gradient"/><linearGradient id="linear-gradient-31" x1="-609.55" y1="-182.49" x2="483.85" y2="456.76" gradientTransform="translate(-0.11 -22.14)" xlink:href="#linear-gradient"/><linearGradient id="linear-gradient-32" x1="-613.25" y1="-176.13" x2="480.14" y2="463.11" gradientTransform="translate(0.31 -22.22)" xlink:href="#linear-gradient"/><linearGradient id="linear-gradient-33" x1="-606.57" y1="-187.44" x2="486.75" y2="451.76" gradientTransform="translate(0.16 -23.17)" xlink:href="#linear-gradient"/><linearGradient id="linear-gradient-34" x1="-592.07" y1="-212.39" x2="501.33" y2="426.86" gradientTransform="translate(-0.46 -24.73)" xlink:href="#linear-gradient"/><linearGradient id="linear-gradient-35" x1="-645.09" y1="-159.02" x2="448.31" y2="480.23" gradientTransform="translate(4.82 -27.5)" xlink:href="#linear-gradient"/><linearGradient id="linear-gradient-36" x1="-664.11" y1="-126.35" x2="429.22" y2="512.85" gradientTransform="translate(6.62 -27.25)" xlink:href="#linear-gradient"/><linearGradient id="linear-gradient-37" x1="-664.71" y1="-125.47" x2="428.69" y2="513.78" gradientTransform="translate(6.8 -27.47)" xlink:href="#linear-gradient"/><linearGradient id="linear-gradient-38" x1="-667.7" y1="-120.2" x2="425.63" y2="519" gradientTransform="translate(7.22 -27.67)" xlink:href="#linear-gradient"/><linearGradient id="linear-gradient-39" x1="-671.85" y1="-113.1" x2="421.48" y2="526.11" gradientTransform="translate(7.84 -28.03)" xlink:href="#linear-gradient"/><linearGradient id="linear-gradient-40" x1="-656.13" y1="-161.6" x2="437.23" y2="477.63" gradientTransform="translate(7.26 -31.6)" xlink:href="#linear-gradient"/><linearGradient id="linear-gradient-41" x1="-660.95" y1="-153.28" x2="432.38" y2="485.92" gradientTransform="translate(7.35 -30.86)" xlink:href="#linear-gradient"/><linearGradient id="linear-gradient-42" x1="-660.69" y1="-153.87" x2="432.71" y2="485.37" gradientTransform="translate(7.73 -31.61)" xlink:href="#linear-gradient"/><linearGradient id="linear-gradient-43" x1="-659.45" y1="-155.85" x2="433.88" y2="483.36" gradientTransform="translate(7.72 -31.82)" xlink:href="#linear-gradient"/><linearGradient id="linear-gradient-44" x1="-664.93" y1="-146.65" x2="428.48" y2="492.6" gradientTransform="translate(8.18 -31.65)" xlink:href="#linear-gradient"/><linearGradient id="linear-gradient-45" x1="-660.71" y1="-153.69" x2="432.62" y2="485.51" gradientTransform="translate(7.66 -31.47)" xlink:href="#linear-gradient"/><linearGradient id="linear-gradient-46" x1="-661.56" y1="-152.21" x2="431.76" y2="486.99" gradientTransform="translate(7.94 -31.82)" xlink:href="#linear-gradient"/><linearGradient id="linear-gradient-47" x1="-662.78" y1="-150.22" x2="430.58" y2="489.01" gradientTransform="translate(7.95 -31.61)" xlink:href="#linear-gradient"/><linearGradient id="linear-gradient-48" x1="-663.98" y1="-148.21" x2="429.4" y2="491.03" gradientTransform="translate(8.15 -31.75)" xlink:href="#linear-gradient"/><linearGradient id="linear-gradient-49" x1="-710.55" y1="-46.98" x2="382.81" y2="592.25" gradientTransform="translate(13 -30.24)" xlink:href="#linear-gradient"/><linearGradient id="linear-gradient-50" x1="-715.96" y1="-37.73" x2="377.41" y2="601.5" gradientTransform="translate(13.36 -29.9)" xlink:href="#linear-gradient"/><linearGradient id="linear-gradient-51" x1="-715.17" y1="-39.16" x2="378.23" y2="600.09" gradientTransform="translate(12.95 -29.31)" xlink:href="#linear-gradient"/><linearGradient id="linear-gradient-52" x1="-685.56" y1="-89.72" x2="407.8" y2="549.51" gradientTransform="translate(10.88 -31)" xlink:href="#linear-gradient"/><linearGradient id="linear-gradient-53" x1="-677.25" y1="-104.03" x2="416.16" y2="535.23" gradientTransform="translate(8.43 -28.11)" xlink:href="#linear-gradient"/><linearGradient id="linear-gradient-54" x1="-652.81" y1="-145.8" x2="440.58" y2="493.45" gradientTransform="translate(4.78 -26.01)" xlink:href="#linear-gradient"/><linearGradient id="linear-gradient-55" x1="-500.91" y1="-405.54" x2="592.44" y2="233.68" gradientTransform="translate(-10.11 -27.02)" xlink:href="#linear-gradient"/><linearGradient id="linear-gradient-56" x1="-2619.85" y1="5.56" x2="-2690.77" y2="100.13" gradientTransform="matrix(-1, 0.06, -0.06, -1, -2232.82, 568.05)" gradientUnits="userSpaceOnUse"><stop offset="0" stop-color="#648298"/><stop offset="0.99" stop-color="#c2d7ef"/></linearGradient><linearGradient id="linear-gradient-57" x1="-2629.21" y1="62.85" x2="-2683.65" y2="189.89" xlink:href="#linear-gradient-56"/><linearGradient id="linear-gradient-58" x1="-2583.56" y1="10.08" x2="-2554.33" y2="130.97" xlink:href="#linear-gradient-56"/><linearGradient id="linear-gradient-59" x1="-2589.27" y1="99.71" x2="-2566.5" y2="192.53" xlink:href="#linear-gradient-56"/><linearGradient id="linear-gradient-60" x1="-2610.79" y1="119.01" x2="-2588.4" y2="224.87" xlink:href="#linear-gradient-56"/><linearGradient id="linear-gradient-61" x1="267.84" y1="786.51" x2="328.55" y2="510.25" gradientTransform="translate(-78.02 -204.76) rotate(-14.84)" xlink:href="#linear-gradient-56"/><linearGradient id="linear-gradient-62" x1="-804.25" y1="-1254.88" x2="-884.48" y2="-1147.92" gradientTransform="translate(-819.94 1546.53) rotate(77.89)" xlink:href="#linear-gradient-56"/><linearGradient id="linear-gradient-63" x1="-814.84" y1="-1190.08" x2="-876.42" y2="-1046.39" gradientTransform="translate(-819.94 1546.53) rotate(77.89)" xlink:href="#linear-gradient-56"/><linearGradient id="linear-gradient-64" x1="-763.22" y1="-1249.77" x2="-730.15" y2="-1113.03" gradientTransform="translate(-819.94 1546.53) rotate(77.89)" xlink:href="#linear-gradient-56"/><linearGradient id="linear-gradient-65" x1="-769.67" y1="-1148.39" x2="-743.92" y2="-1043.4" gradientTransform="translate(-819.94 1546.53) rotate(77.89)" xlink:href="#linear-gradient-56"/><linearGradient id="linear-gradient-66" x1="-794.01" y1="-1126.57" x2="-768.68" y2="-1006.82" gradientTransform="translate(-819.94 1546.53) rotate(77.89)" xlink:href="#linear-gradient-56"/><linearGradient id="linear-gradient-67" x1="-1764.08" y1="1672.25" x2="-1695.42" y2="1359.78" gradientTransform="matrix(-0.4, -0.92, 0.92, -0.4, -1909.07, -467.09)" xlink:href="#linear-gradient-56"/><linearGradient id="linear-gradient-68" x1="136.14" y1="505.68" x2="524.23" y2="505.68" gradientTransform="translate(-12.6 -13.53) rotate(-2.57)" gradientUnits="userSpaceOnUse"><stop offset="0" stop-color="#072c39"/><stop offset="1" stop-color="#071b26"/></linearGradient><linearGradient id="linear-gradient-69" x1="136.83" y1="505.68" x2="533.56" y2="505.68" gradientTransform="translate(-12.6 -13.53) rotate(-2.57)" xlink:href="#linear-gradient"/><linearGradient id="linear-gradient-70" x1="98.31" y1="221.59" x2="555.21" y2="221.59" gradientTransform="translate(-12.6 -13.53) rotate(-2.57)" xlink:href="#linear-gradient"/><linearGradient id="linear-gradient-71" x1="61.16" y1="436.95" x2="518.04" y2="436.95" gradientTransform="matrix(0.98, -0.2, 0.2, 0.98, -46.73, -159.81)" xlink:href="#linear-gradient"/><linearGradient id="linear-gradient-72" x1="136.83" y1="380.41" x2="533.56" y2="380.41" gradientTransform="translate(-12.6 -13.53) rotate(-2.57)" xlink:href="#linear-gradient"/><linearGradient id="linear-gradient-73" x1="148.24" y1="543.56" x2="544.97" y2="543.56" gradientTransform="translate(-12.6 -13.53) rotate(-2.57)" xlink:href="#linear-gradient"/></defs><title>flower-right</title><g id="_Group_" data-name="&lt;Group&gt;"><circle id="_Path_" data-name="&lt;Path&gt;" class="cls-1" cx="277.7" cy="37.27" r="0.78" transform="translate(-1.39 12.5) rotate(-2.57)"/><circle id="_Path_2" data-name="&lt;Path&gt;" class="cls-2" cx="298" cy="27.58" r="0.78" transform="translate(-0.94 13.4) rotate(-2.57)"/><circle id="_Path_3" data-name="&lt;Path&gt;" class="cls-3" cx="300.51" cy="33.53" r="0.78" transform="translate(-1.2 13.52) rotate(-2.57)"/><circle id="_Path_4" data-name="&lt;Path&gt;" class="cls-4" cx="293.22" cy="41.35" r="0.78" transform="translate(-1.56 13.2) rotate(-2.57)"/><circle id="_Path_5" data-name="&lt;Path&gt;" class="cls-5" cx="287.23" cy="38.41" r="0.39" transform="translate(-1.43 12.93) rotate(-2.57)"/><circle id="_Path_6" data-name="&lt;Path&gt;" class="cls-6" cx="291.07" cy="42.23" r="0.39" transform="translate(-1.6 13.1) rotate(-2.57)"/><circle id="_Path_7" data-name="&lt;Path&gt;" class="cls-7" cx="294.49" cy="43.55" r="0.39" transform="translate(-1.66 13.26) rotate(-2.57)"/><circle id="_Path_8" data-name="&lt;Path&gt;" class="cls-8" cx="294.24" cy="37.95" r="0.39" transform="matrix(1, -0.04, 0.04, 1, -1.41, 13.24)"/><circle id="_Path_9" data-name="&lt;Path&gt;" class="cls-9" cx="291.31" cy="38.86" r="0.39" transform="translate(-1.45 13.11) rotate(-2.57)"/><circle id="_Path_10" data-name="&lt;Path&gt;" class="cls-10" cx="289.9" cy="28.11" r="0.39" transform="translate(-0.97 13.04) rotate(-2.57)"/><circle id="_Path_11" data-name="&lt;Path&gt;" class="cls-11" cx="274.04" cy="57.41" r="0.39" transform="translate(-2.3 12.35) rotate(-2.57)"/><circle id="_Path_12" data-name="&lt;Path&gt;" class="cls-12" cx="274.54" cy="59.77" r="0.39" transform="translate(-2.41 12.38) rotate(-2.57)"/><circle id="_Path_13" data-name="&lt;Path&gt;" class="cls-13" cx="270.42" cy="56.37" r="0.39" transform="translate(-2.26 12.19) rotate(-2.57)"/><circle id="_Path_14" data-name="&lt;Path&gt;" class="cls-14" cx="328.29" cy="37.2" r="0.39" transform="translate(-1.34 14.77) rotate(-2.57)"/><circle id="_Path_15" data-name="&lt;Path&gt;" class="cls-15" cx="298.93" cy="15.87" r="0.39" transform="translate(-0.41 13.43) rotate(-2.57)"/><circle id="_Path_16" data-name="&lt;Path&gt;" class="cls-16" cx="304.83" cy="34.12" r="0.39" transform="translate(-1.22 13.71) rotate(-2.57)"/><circle id="_Path_17" data-name="&lt;Path&gt;" class="cls-17" cx="306.09" cy="36" r="0.39" transform="translate(-1.31 13.77) rotate(-2.57)"/><circle id="_Path_18" data-name="&lt;Path&gt;" class="cls-18" cx="308.04" cy="16.63" r="0.78" transform="translate(-0.44 13.84) rotate(-2.57)"/><circle id="_Path_19" data-name="&lt;Path&gt;" class="cls-19" cx="304.6" cy="28.85" r="0.78" transform="translate(-0.99 13.7) rotate(-2.57)"/><circle id="_Path_20" data-name="&lt;Path&gt;" class="cls-20" cx="337.58" cy="40.14" r="0.78" transform="translate(-1.46 15.19) rotate(-2.57)"/><circle id="_Path_21" data-name="&lt;Path&gt;" class="cls-21" cx="343.42" cy="47.2" r="0.78" transform="translate(-1.77 15.46) rotate(-2.57)"/><circle id="_Path_22" data-name="&lt;Path&gt;" class="cls-22" cx="345.69" cy="32.65" r="0.78" transform="matrix(1, -0.04, 0.04, 1, -1.12, 15.54)"/><circle id="_Path_23" data-name="&lt;Path&gt;" class="cls-23" cx="322.1" cy="0.23" r="0.78" transform="translate(0.31 14.45) rotate(-2.57)"/><circle id="_Path_24" data-name="&lt;Path&gt;" class="cls-24" cx="258.44" cy="50.23" r="0.78" transform="translate(-1.99 11.65) rotate(-2.57)"/><circle id="_Path_25" data-name="&lt;Path&gt;" class="cls-25" cx="256.89" cy="79.57" r="0.78" transform="translate(-3.31 11.61) rotate(-2.57)"/><circle id="_Path_26" data-name="&lt;Path&gt;" class="cls-26" cx="283.81" cy="40.99" r="0.78" transform="translate(-1.55 12.78) rotate(-2.57)"/><circle id="_Path_27" data-name="&lt;Path&gt;" class="cls-27" cx="287.8" cy="42.38" r="0.78" transform="translate(-1.61 12.96) rotate(-2.57)"/><circle id="_Path_28" data-name="&lt;Path&gt;" class="cls-28" cx="297.73" cy="333.45" r="0.78" transform="translate(-14.66 13.69) rotate(-2.57)"/><circle id="_Path_29" data-name="&lt;Path&gt;" class="cls-29" cx="168.11" cy="279.29" r="0.78" transform="translate(-12.36 7.82) rotate(-2.57)"/><circle id="_Path_30" data-name="&lt;Path&gt;" class="cls-30" cx="171.88" cy="287.61" r="0.78" transform="translate(-12.73 8) rotate(-2.57)"/><circle id="_Path_31" data-name="&lt;Path&gt;" class="cls-31" cx="185.51" cy="260.26" r="0.78" transform="translate(-11.49 8.59) rotate(-2.57)"/><circle id="_Path_32" data-name="&lt;Path&gt;" class="cls-32" cx="187.5" cy="269.61" r="0.78" transform="translate(-11.91 8.68) rotate(-2.57)"/><circle id="_Path_33" data-name="&lt;Path&gt;" class="cls-33" cx="208.47" cy="265.81" r="0.78" transform="translate(-11.72 9.62) rotate(-2.57)"/><circle id="_Path_34" data-name="&lt;Path&gt;" class="cls-34" cx="242.9" cy="251.31" r="0.78" transform="translate(-11.03 11.15) rotate(-2.57)"/><circle id="_Path_35" data-name="&lt;Path&gt;" class="cls-35" cx="307.18" cy="367.41" r="0.78" transform="translate(-16.18 14.15) rotate(-2.57)"/><circle id="_Path_36" data-name="&lt;Path&gt;" class="cls-36" cx="302.63" cy="407.72" r="0.78" transform="translate(-17.99 13.99) rotate(-2.57)"/><circle id="_Path_37" data-name="&lt;Path&gt;" class="cls-37" cx="307.59" cy="411.53" r="0.78" transform="translate(-18.16 14.22) rotate(-2.57)"/><circle id="_Path_38" data-name="&lt;Path&gt;" class="cls-38" cx="312.34" cy="420.87" r="0.78" transform="translate(-18.57 14.44) rotate(-2.57)"/><circle id="_Path_39" data-name="&lt;Path&gt;" class="cls-39" cx="320.59" cy="434.51" r="0.78" transform="translate(-19.17 14.82) rotate(-2.57)"/><circle id="_Path_40" data-name="&lt;Path&gt;" class="cls-40" cx="399.77" cy="419.88" r="0.78" transform="matrix(1, -0.04, 0.04, 1, -18.44, 18.36)"/><circle id="_Path_41" data-name="&lt;Path&gt;" class="cls-41" cx="383.49" cy="422.18" r="0.78" transform="translate(-18.56 17.63) rotate(-2.57)"/><circle id="_Path_42" data-name="&lt;Path&gt;" class="cls-42" cx="400.24" cy="430.26" r="0.78" transform="translate(-18.9 18.39) rotate(-2.57)"/><circle id="_Path_43" data-name="&lt;Path&gt;" class="cls-43" cx="404.86" cy="430.05" r="0.78" transform="translate(-18.89 18.6) rotate(-2.57)"/><circle id="_Path_44" data-name="&lt;Path&gt;" class="cls-44" cx="401.48" cy="440.38" r="0.78" transform="translate(-19.36 18.46) rotate(-2.57)"/><circle id="_Path_45" data-name="&lt;Path&gt;" class="cls-45" cx="397.16" cy="428.83" r="0.78" transform="translate(-18.84 18.25) rotate(-2.57)"/><circle id="_Path_46" data-name="&lt;Path&gt;" class="cls-46" cx="405.08" cy="434.93" r="0.78" transform="translate(-19.11 18.61) rotate(-2.57)"/><circle id="_Path_47" data-name="&lt;Path&gt;" class="cls-47" cx="400.46" cy="435.13" r="0.78" transform="translate(-19.12 18.41) rotate(-2.57)"/><circle id="_Path_48" data-name="&lt;Path&gt;" class="cls-48" cx="403.71" cy="439.49" r="0.78" transform="translate(-19.31 18.56) rotate(-2.57)"/><circle id="_Path_49" data-name="&lt;Path&gt;" class="cls-49" cx="372.33" cy="548.28" r="0.78" transform="translate(-24.23 17.26) rotate(-2.57)"/><circle id="_Path_50" data-name="&lt;Path&gt;" class="cls-50" cx="365.06" cy="556.57" r="0.78" transform="translate(-24.61 16.94) rotate(-2.57)"/><circle id="_Path_51" data-name="&lt;Path&gt;" class="cls-51" cx="351.6" cy="547.65" r="0.78" transform="translate(-24.22 16.33) rotate(-2.57)"/><circle id="_Path_52" data-name="&lt;Path&gt;" class="cls-52" cx="388.34" cy="500.76" r="0.78" transform="translate(-22.08 17.93) rotate(-2.57)"/><circle id="_Path_53" data-name="&lt;Path&gt;" class="cls-53" cx="322.74" cy="447.57" r="0.78" transform="translate(-19.76 14.93) rotate(-2.57)"/><circle id="_Path_54" data-name="&lt;Path&gt;" class="cls-54" cx="274.13" cy="367.32" r="0.78" transform="translate(-16.21 12.67) rotate(-2.57)"/><circle id="_Path_55" data-name="&lt;Path&gt;" class="cls-55" cx="289.05" cy="35.19" r="0.78" transform="translate(-1.29 13) rotate(-2.57)"/><g id="_Group_2" data-name="&lt;Group&gt;"><g id="_Group_3" data-name="&lt;Group&gt;"><g id="_Group_4" data-name="&lt;Group&gt;"><g id="_Group_5" data-name="&lt;Group&gt;"><g id="_Group_6" data-name="&lt;Group&gt;"><g id="_Group_7" data-name="&lt;Group&gt;"><path class="cls-56" d="M377.42,407.14c6-20.06,16.27-39.06,29.54-56.58,6.86-9.06,22.85-25.8,33.07-33.67-5.19,11.08-13,35.3-18.91,47.43S406.74,388,394.8,396.4c-3.09,2.18-6.38,4.13-9.64,6.11-4,2.4-7.74,4.63-7.74,4.63"/></g></g><g id="_Group_8" data-name="&lt;Group&gt;"><g id="_Group_9" data-name="&lt;Group&gt;"><path class="cls-57" d="M383.34,345.67q.48-3.6,1.05-7.19t1.24-7.16c3.5-20.13,4.29-25,11.54-43.7.94-2,8.89-19.13,9.86-21.06,5.54-11,9-19.49,11.23-30,3.3,8.19,10.47,31.54,2.47,56.35-4.67,14.48-15.54,27-25.37,39.14-1.26,1.53-2.54,3.07-3.84,4.6q-3.91,4.59-8.19,9"/></g></g><g id="_Group_10" data-name="&lt;Group&gt;"><g id="_Group_11" data-name="&lt;Group&gt;"><path class="cls-58" d="M353.28,402.93q0-3.08-.17-6.16c-.52-10.53-4.92-20.86-8.39-30.84-3.59-10.32-7.36-20.69-12.94-30.29-7.65-13.16-10.81-20.62-14-31.43-2.07,15.79-2.68,36.64,1.76,52A79.87,79.87,0,0,0,347,397.17c2.3,2.15,4.6,4.35,6.79,6.62"/></g></g><g id="_Group_12" data-name="&lt;Group&gt;"><g id="_Group_13" data-name="&lt;Group&gt;"><path class="cls-59" d="M322.48,234.08c1.38,28.1,24,49.29,33.57,74.68a63.74,63.74,0,0,1,4.35,22.16l-.15.14c-2-2-4-4-6.09-5.9-1.31-1.23-2.63-2.45-3.92-3.69-21.12-20.34-33.86-47.26-30.08-76.44a67.59,67.59,0,0,1,2.32-10.95"/></g></g><g id="_Group_14" data-name="&lt;Group&gt;"><g id="_Group_15" data-name="&lt;Group&gt;"><path class="cls-60" d="M368.37,294.31q-7-12-13.69-24.08c-4.73-8.61-9.64-17.32-13.14-26.38-3.82-9.91-6.09-20.38-7.8-30.74-1.44-8.74-2.49-18.44-1.73-27.7,3,5.08,6.84,9.69,10.4,14.47,20.57,27.65,29.84,61.39,26,94.42"/></g></g></g></g></g><path id="_Path_56" data-name="&lt;Path&gt;" class="cls-61" d="M431.95,327.46a405.35,405.35,0,0,1-44.78,66.15c-8.42,10-17.74,20-24.06,31.6,2.87-18,5.72-36,7.74-54.17a77.9,77.9,0,0,1,7.39-15.48c6-10.1,12.92-19.59,19.14-29.53,15.16-24.23,25.23-50.84,21.94-79.81,0-.25-.42-.27-.41,0,1.08,30.75-10.23,57.65-26.66,83-6.19,9.55-13,18.78-18.45,28.77-.69,1.25-1.34,2.53-2,3.81.06-.67.15-1.33.21-2,3.76-42.35-3.39-84.83-18.65-124.42a381,381,0,0,0-18.13-39.61c-.12-.23-.46,0-.35.21,14.11,29.72,25.49,60.85,31.43,93.29a248.05,248.05,0,0,1,3.63,52.21c-6.62-13-16.83-24.26-24.88-36.38a137.74,137.74,0,0,1-22.72-63c0-.25-.41-.27-.41,0,.14,22,7,42.4,18.69,60.92,9.21,14.63,20.34,27.89,29.17,42.78-.41,9.68-1.24,19.34-2.37,29q-.15.95-.23,1.91c-1.49,12.41-3.41,24.85-5.47,37.38l-.33,2c-4.6-13-14-24.4-20.83-36.08-11.86-20.18-19.37-41.56-21.85-64.9,0-.25-.41-.27-.41,0,.12,22,6.85,42.81,17.53,61.95,8.07,14.45,18.44,27.82,24.88,43.14-3.51,21.59-6.7,43.22-7.48,65.11,0,1.13,1.64,1.12,1.74,0,1.6-17.84,4.24-35.54,7-53.21,7.93-14.5,18.76-26.73,29.28-39.42,16.5-19.89,30.62-41.37,41-65.08C432.4,327.43,432.08,327.22,431.95,327.46Z"/></g><g id="_Group_16" data-name="&lt;Group&gt;"><g id="_Group_17" data-name="&lt;Group&gt;"><g id="_Group_18" data-name="&lt;Group&gt;"><g id="_Group_19" data-name="&lt;Group&gt;"><g id="_Group_20" data-name="&lt;Group&gt;"><g id="_Group_21" data-name="&lt;Group&gt;"><path class="cls-62" d="M240.14,501.93c-23.46-3.27-46.45-11.52-68.31-23.35-11.31-6.12-32.76-21.13-43.29-31.22,13.27,3.91,41.69,8.51,56.26,13s28.91,12,40.36,23.93c3,3.08,5.71,6.42,8.48,9.74,3.36,4,6.5,7.87,6.5,7.87"/></g></g><g id="_Group_22" data-name="&lt;Group&gt;"><g id="_Group_23" data-name="&lt;Group&gt;"><path class="cls-63" d="M170.4,505.81q-4.11.08-8.22.05T154,505.7c-23.1-.48-28.72-.52-50.84-5.44-2.37-.72-22.91-6.67-25.24-7.43-13.28-4.31-23.33-6.72-35.43-7.44,8.6-5.09,33.47-17.1,62.59-12.39,17,2.75,32.83,12.76,48.1,21.67,1.92,1.15,3.87,2.31,5.8,3.51q5.8,3.59,11.45,7.62"/></g></g><g id="_Group_24" data-name="&lt;Group&gt;"><g id="_Group_25" data-name="&lt;Group&gt;"><path class="cls-64" d="M239.56,529.63q-3.44.55-6.85,1.24c-11.69,2.38-22.48,9.07-33,14.65-10.92,5.77-21.88,11.77-31.65,19.65-13.41,10.8-21.2,15.61-32.75,21,18-.39,41.43-3.26,57.88-10.86a90.34,90.34,0,0,0,41-37.7c2-2.94,4.08-5.89,6.24-8.73"/></g></g><g id="_Group_26" data-name="&lt;Group&gt;"><g id="_Group_27" data-name="&lt;Group&gt;"><path class="cls-65" d="M56,592.93c31.18-6.35,51-35.24,77.77-50.3a72.09,72.09,0,0,1,24-8.65l.18.14c-1.92,2.56-3.76,5.19-5.55,7.82-1.15,1.68-2.29,3.36-3.46,5-19.13,27.1-47.05,45.94-80.32,46.7A76.45,76.45,0,0,1,56,592.93"/></g></g><g id="_Group_28" data-name="&lt;Group&gt;"><g id="_Group_29" data-name="&lt;Group&gt;"><path class="cls-66" d="M115.53,531.32Q103.37,541.24,91,550.74c-8.82,6.76-17.71,13.74-27.25,19.19-10.43,6-21.75,10.29-33,14C21.14,587,10.48,589.85,0,590.58c5.17-4.17,9.67-9.31,14.41-14.1,27.4-27.72,63.54-43.86,101.14-45.16"/></g></g></g></g></g><path id="_Path_57" data-name="&lt;Path&gt;" class="cls-67" d="M141.73,454.57c28.54,10.44,55.64,23,81.61,38.77,12.65,7.7,25.4,16.41,39.44,21.5-20.64-.12-41.28-.24-61.89.6a88.12,88.12,0,0,1-18.57-5.61c-12.31-5-24.11-11.09-36.29-16.35C116.35,480.67,84.88,474,53,482.59c-.28.08-.23.51.06.46,34.2-6.46,66.21,1.59,97.35,15.63,11.73,5.29,23.21,11.3,35.32,15.71,1.52.55,3.05,1.07,4.6,1.55-.76,0-1.51.06-2.27.11-48,3-94.27,18.29-135.92,42.12a431,431,0,0,0-41.19,27c-.24.18,0,.52.29.36,30.82-20.85,63.68-38.9,98.94-51.08a280.57,280.57,0,0,1,57.76-13c-13.45,9.64-24.25,23-36.42,34A155.79,155.79,0,0,1,65,591.72c-.28.07-.23.5.06.46,24.57-3.92,46.2-15.1,64.92-31.31,14.79-12.8,27.71-27.51,42.84-39.93,10.89-1.19,21.84-1.92,32.85-2.31q1.08,0,2.17-.07c14.13-.46,28.36-.43,42.73-.27l2.33,0c-13.7,7.36-24.9,19.78-36.78,29.46-20.53,16.71-43.16,28.76-68.83,35.52-.28.07-.23.5.06.46,24.62-3.9,46.69-15,66.27-30.19,14.78-11.49,28-25.37,44-35.19,24.74.23,49.47.1,74.08-2.76,1.28-.15,1-2-.28-2-20.22,1.26-40.46,1.33-60.69,1.24-17.56-6.39-33.09-16.41-49.08-26-25.06-15-51.48-27.17-79.78-34.73C141.62,454.07,141.44,454.47,141.73,454.57Z"/></g><path id="_Compound_Path_" data-name="&lt;Compound Path&gt;" class="cls-68" d="M492.42,528.13c12.58-14.21,24.47-27.63,30.15-40,13-28.22,11-64.55,6.11-71.22a2.86,2.86,0,0,0-2.67-1.42c-1.24.15-2.27,1.25-3.12,3.35-1.9,4.66-11.27,11.11-23.12,19.28-22.2,15.29-52.6,36.23-66.91,66.73-18.87,40.2-.13,99.1,5.94,115.93q-6-4.87-12-9.77c-6.75-5.46-13.65-11-20.59-16.81l-.16-.16a12.56,12.56,0,0,1-4.14-6.65,30.15,30.15,0,0,1-.9-13,1.32,1.32,0,0,0-2.58-.57,32.21,32.21,0,0,0,1.06,14.75q-6.7-5.68-13.38-11.63a46.71,46.71,0,0,1-14.88-26.16c-3.14-16.88.6-34.78,4.76-54.64,5.52-26.37,11.78-56.25,2.58-90.61-8.81-32.9-34.94-57.93-43.49-55.79-1.48.37-3.79,1.79-2.54,7.22,1.57,6.85-.71,17.82-3.59,31.7-4.42,21.29-10.47,50.44-5.46,82.09s21,59.78,32.68,76.82c-17.69-19.29-33.73-41.19-45.93-67.06-4.19-8.89-7.83-17.52-11-25.88a44.77,44.77,0,0,1-.36-30.65,70,70,0,0,1,3.39-8.09,1.32,1.32,0,1,0-2.34-1.22A73.15,73.15,0,0,0,293,436.6a276.51,276.51,0,0,1-9.41-40.77c1.61-13.48,8.24-31.53,15.27-50.64,6.39-17.38,13-35.34,16.52-51.66,7.41-34.4-1.15-65.91-1.24-66.23a1.32,1.32,0,0,0-2.41-.32c-2,3.37-5.9,8-10.82,13.94-15.6,18.69-41.71,50-44.14,86.8-3,45.23,21.46,66.92,24.35,69.32a283.52,283.52,0,0,0,11.57,47.2,1.3,1.3,0,0,0,.12.37q2.67,7.94,5.94,16.22c-11.45-13.51-38.86-42.8-69.88-54.25-40.76-15-85-1.64-85.4-1.51a1.32,1.32,0,0,0-.59,2.14c1,1.09,24.27,26.86,43.74,37.92C215.21,461.37,241.15,463,262,464.32c12.2.77,23.22,1.47,32.49,4.94a24.07,24.07,0,0,1,13.26,12.32l0,.07q3.83,8.12,8.14,15.73c-8-4.51-19-7-19.53-7.11a1.32,1.32,0,1,0-.57,2.58,96.14,96.14,0,0,1,9.77,2.87A35.37,35.37,0,0,1,323.5,510a285.35,285.35,0,0,0,25.25,33.37c-19.68-12.85-68.24-40.56-118.62-38.71-65,2.39-73.47,8.59-73.79,8.85a1.32,1.32,0,0,0,0,2c.71.59,65.51,53.65,135.62,59.16-28.44,6.48-50.47,24.29-69,39.25-15.87,12.84-28.4,23-38.95,20.59a1.32,1.32,0,0,0-1.52,1.77c.11.3,10.61,26.1,45.08,24.54A80.37,80.37,0,0,0,242,658.8c16.21-3.74,31.35-15.31,47.39-27.56,26.63-20.34,56.45-43.11,99.92-37.75a49.12,49.12,0,0,1,24.92,10.82q5.45,4.44,10.81,8.77c15.77,12.75,31.19,25.23,44.94,38.28-8.93-2.46-20.45-3-21.05-3.08a1.32,1.32,0,0,0-.13,2.64s1.28.06,3.22.23a51.69,51.69,0,0,1,34.44,17.19c13.65,15.47,24.44,32.14,30.44,51.25a1.32,1.32,0,0,0,1.32.92,1.28,1.28,0,0,0,.34-.06,1.32,1.32,0,0,0,.86-1.66c-7.8-24.83-23.42-45.52-42.85-64.74a1.29,1.29,0,0,0-.3-.29c-7.89-7.78-16.4-15.33-25.27-22.81a22.17,22.17,0,0,1-7.8-19.23C446.6,579.87,470.78,552.56,492.42,528.13Z"/><path id="_Compound_Path_2" data-name="&lt;Compound Path&gt;" class="cls-69" d="M492.42,528.13c12.58-14.21,24.47-27.63,30.15-40,13-28.22,11-64.55,6.11-71.22a2.86,2.86,0,0,0-2.67-1.42c-1.24.15-2.27,1.25-3.12,3.35-1.9,4.66-11.27,11.11-23.12,19.28-22.2,15.29-52.6,36.23-66.91,66.73-18.87,40.2-.13,99.1,5.94,115.93q-6-4.87-12-9.77c-6.75-5.46-13.65-11-20.59-16.81l-.16-.16a12.56,12.56,0,0,1-4.14-6.65,30.15,30.15,0,0,1-.9-13,1.32,1.32,0,0,0-2.58-.57,32.21,32.21,0,0,0,1.06,14.75q-6.7-5.68-13.38-11.63a46.71,46.71,0,0,1-14.88-26.16c-3.14-16.88.6-34.78,4.76-54.64,5.52-26.37,11.78-56.25,2.58-90.61-8.81-32.9-34.94-57.93-43.49-55.79-1.48.37-3.79,1.79-2.54,7.22,1.57,6.85-.71,17.82-3.59,31.7-4.42,21.29-10.47,50.44-5.46,82.09s21,59.78,32.68,76.82c-17.69-19.29-33.73-41.19-45.93-67.06-4.19-8.89-7.83-17.52-11-25.88a44.77,44.77,0,0,1-.36-30.65,70,70,0,0,1,3.39-8.09,1.32,1.32,0,1,0-2.34-1.22A73.15,73.15,0,0,0,293,436.6a276.51,276.51,0,0,1-9.41-40.77c1.61-13.48,8.24-31.53,15.27-50.64,6.39-17.38,13-35.34,16.52-51.66,7.41-34.4-1.15-65.91-1.24-66.23a1.32,1.32,0,0,0-2.41-.32c-2,3.37-5.9,8-10.82,13.94-15.6,18.69-41.71,50-44.14,86.8-3,45.23,21.46,66.92,24.35,69.32a283.52,283.52,0,0,0,11.57,47.2,1.3,1.3,0,0,0,.12.37q2.67,7.94,5.94,16.22c-11.45-13.51-38.86-42.8-69.88-54.25-40.76-15-85-1.64-85.4-1.51a1.32,1.32,0,0,0-.59,2.14c1,1.09,24.27,26.86,43.74,37.92C215.21,461.37,241.15,463,262,464.32c12.2.77,23.22,1.47,32.49,4.94a24.07,24.07,0,0,1,13.26,12.32l0,.07q3.83,8.12,8.14,15.73c-8-4.51-19-7-19.53-7.11a1.32,1.32,0,1,0-.57,2.58,96.14,96.14,0,0,1,9.77,2.87A35.37,35.37,0,0,1,323.5,510a285.35,285.35,0,0,0,25.25,33.37c-19.68-12.85-68.24-40.56-118.62-38.71-65,2.39-73.47,8.59-73.79,8.85a1.32,1.32,0,0,0,0,2c.71.59,65.51,53.65,135.62,59.16-28.44,6.48-50.47,24.29-69,39.25-15.87,12.84-28.4,23-38.95,20.59a1.32,1.32,0,0,0-1.52,1.77c.11.3,10.61,26.1,45.08,24.54A80.37,80.37,0,0,0,242,658.8c16.21-3.74,31.35-15.31,47.39-27.56,26.63-20.34,56.45-43.11,99.92-37.75a49.12,49.12,0,0,1,24.92,10.82q5.45,4.44,10.81,8.77c15.77,12.75,31.19,25.23,44.94,38.28-8.93-2.46-20.45-3-21.05-3.08a1.32,1.32,0,0,0-.13,2.64s1.28.06,3.22.23a51.69,51.69,0,0,1,34.44,17.19c13.65,15.47,24.44,32.14,30.44,51.25a1.32,1.32,0,0,0,1.32.92,1.28,1.28,0,0,0,.34-.06,1.32,1.32,0,0,0,.86-1.66c-7.8-24.83-23.42-45.52-42.85-64.74a1.29,1.29,0,0,0-.3-.29c-7.89-7.78-16.4-15.33-25.27-22.81a22.17,22.17,0,0,1-7.8-19.23C446.6,579.87,470.78,552.56,492.42,528.13ZM259.4,327.9c2.37-36,28.14-66.83,43.53-85.28,3.87-4.64,7.11-8.52,9.36-11.69,1.88,8.48,6.49,34.29.5,62.05-3.47,16.13-10.05,34-16.41,51.3-5.72,15.56-11.19,30.43-13.94,42.84-6.59-57.92,10.14-91.89,10.33-92.4.83-2.16,3.85-7.55,3.31-7.76s-3.79,4.76-4.79,6.87c-.14.31-7,13-10.66,36.2a98.73,98.73,0,0,1-7-17.08c-.18-.71-1.44-5.61-2.13-5.44s.14,4.29.45,5.82c.11.53,2.77,12.93,8.12,20.78a220.45,220.45,0,0,0,.46,58.81C274,386.41,256.92,365.65,259.4,327.9ZM187.92,442.84c-16.37-9.3-36.17-30-41.63-35.81,9.05-2.39,46.68-10.89,81.66,2,33.38,12.32,62.64,45.86,71.57,56.84-13.74-9-39.73-20.63-61.73-29.78-1.92-3.91-8.94-10.53-9.23-10.82-.51-.52-5-4.09-5.49-3.57s3.61,4.55,4.13,5.07c1.37,1.38,4.16,4.78,6.28,7.54-17.81-7.32-32.24-12.19-33.65-12.72-.69-.26-7.42-2.37-7.68-1.68s6.12,3.14,6.8,3.4,71.29,27.07,98.05,44.09c-9.93-4.15-21.72-4.9-34.84-5.72C241.59,460.38,216,458.77,187.92,442.84Zm143.55-53.63c2.94-14.2,5.27-25.41,3.58-32.82-.32-1.39-.66-3.76.6-4.07,5.91-1.52,31.48,20.94,40.31,53.91,9,33.75,2.85,63.3-2.61,89.38-5.3,25.31-9.94,47.5-.82,68.78l-1.35-1.3s0-.07-.06-.1-.5-.57-1.27-1.49c-4.08-9.35-14.32-33.09-16.61-75.24.42-3.3,6.72-16.07,11.65-24,.38-.62,3.24-5.24,2.83-5.51-.61-.4-3.86,4.16-4.24,4.78-1.47,2.38-7.32,11.34-10.53,18.17a353.8,353.8,0,0,1,.72-35.86c2.62-38.16-4.7-53.3-5-53.93-1.09-2.34-3.58-7.42-4.25-7.11s1.67,5.18,2.56,8c.05.16,6.6,15.55,4.05,52.82a104,104,0,0,0-10-13c-.75-.75-3.39-3.23-4-2.77s2.06,3.32,2.52,3.89c2.76,3.39,9.82,13.13,11.1,17.05a342.62,342.62,0,0,0-.12,37.67,4.16,4.16,0,0,0,0,.46,1.27,1.27,0,0,0,.08.28c1.85,32.61,8.42,54.26,13.2,66.75-11.21-15-32-46.83-37.81-83.53C321.1,439.18,327.09,410.3,331.47,389.21ZM159.65,514.81c4.6-1.69,20.52-5.67,70.58-7.53,64.13-2.36,125.49,44.05,126.11,44.52l.1,0c6.69,7.15,13.59,14,20.59,20.46-23.34-11.67-54.24-21.5-81.77-28.9-5.3-6.47-19.7-16.13-20.31-16.56s-6-3.77-6.43-3.17,4.52,4.08,5.12,4.51a212.57,212.57,0,0,1,16.82,14C257,533.33,229.34,529,228.8,528.91c-.72-.13-9.6-1.29-9.74-.57s8.81,2.35,9.52,2.48c1.05.19,105.7,19.38,156.46,48.79q3.42,3,6.85,6C379,580,356.09,573.44,317.48,572.23c-1,0-1.9,0-2.84,0a1.51,1.51,0,0,0-.57-.1c-.87.07-1.74.09-2.62.14-1.54,0-3.07.11-4.58.22C238.48,574.21,170.93,523.65,159.65,514.81ZM287.83,629.14c-15.81,12.07-30.74,23.48-46.38,27.09C204,664.85,189.68,644.4,186,637.49c11.1.79,23.4-9.15,38.65-21.49,21.33-17.25,47.42-38.35,82.55-40.91.82,0,1.65,0,2.47-.08s1.59-.1,2.38-.15c1.77,0,3.55-.05,5.36,0,44,1.38,67.44,9.87,78.53,15.7-83.52-25.49-164,43.07-164.88,43.79-.55.48-5.24,4.62-4.76,5.17.27.32,2.85-1.14,5.93-3.61a249.84,249.84,0,0,1,59.12-34.36l-4.23,14c-.23.69-1.37,6-.67,5.83.4-.12,2.16-4.79,2.34-5.33l5.77-15.76s0,0,0,0c25.9-10.19,57.51-16.84,90-9.92C342.88,587.11,313.85,609.26,287.83,629.14ZM435.24,506c14-29.84,44.07-50.55,66-65.67,12.7-8.74,21.87-15.06,24.07-20.46a4.61,4.61,0,0,1,1-1.68C530,420.59,534,457,520.16,487c-5.51,12-17.27,25.28-29.72,39.33C470,549.43,447.39,575,441.61,604.79c.13-51.77,30.3-97,50.19-117.18,24.54-24.92,29.5-45.43,29.72-46.29.18-.71,1.38-6,.68-6.19s-1.72,4.24-2.22,5.62c-.07.2-6,20.6-30.07,45a182.94,182.94,0,0,0-26.29,35c-.68-8.67-3.76-22.39-3.95-23.07-.9-3.18-1.85-6.93-2.57-6.77s.54,6.58.69,7.29c0,.2,3.79,20.38,3.3,27C447.64,549.62,437,580.72,439.25,614,432.08,592.4,418.55,541.55,435.24,506Z"/><path id="_Compound_Path_3" data-name="&lt;Compound Path&gt;" class="cls-70" d="M351.25,103.7c4.55-7.46,8.56-14.22,11.54-21.53,3.48-8.56,5-16.69,4.43-24.16-.39-5.33-1.86-9.61-4.37-12.73a32.79,32.79,0,0,0-4.14-4c-2.49-2.16-4.84-4.19-5.55-7.07a1.1,1.1,0,0,0-1.83-.52c-4,3.9-6.14,11-5.69,19.08a88.54,88.54,0,0,0,1.23,9.57,89.87,89.87,0,0,1,1.19,9,44.14,44.14,0,0,1-1.49,14.32,46.74,46.74,0,0,0-2.13-16.15,45.19,45.19,0,0,0-16.13-22.2c-2.26-1.65-4.69-3.1-7-4.5A80.09,80.09,0,0,1,313.85,38c-3-2.27-8.09-7-8.61-13.28a1.1,1.1,0,0,0-2.1-.35c-.54,1.24-1.16,2.51-1.79,3.79-1.9,3.89-3.92,8.06-4.38,12.49-2.44-1.86-5.36-2.27-8.22-2.37a18.55,18.55,0,0,1-2.87-.56c-.53-.13-1-.25-1.4-.32a1.1,1.1,0,0,0-1.29,1.28c.23,1.22.55,2.5.89,3.85a49,49,0,0,1,1.2,5.8c-3.2,0-6.39.1-9.52.24a103,103,0,0,1-15.52-.09,1.11,1.11,0,0,0-.9.32,1.1,1.1,0,0,0-.31.9l2.71,22.59c-4.94-7.36-12.11-10.21-19.08-13l-1.05-.42a1.1,1.1,0,0,0-1.24,1.73c3.79,4.44,4.5,10.86,4.87,16.52.27,4.17.44,8.39.49,12.54l0,1.54a79.46,79.46,0,0,0,.55,9.89c-7.92-9.88-23-14.05-35.51-12.78a1.1,1.1,0,0,0-.64,1.9c2.77,2.56,3.69,7,4.5,10.91l.12.56a74.44,74.44,0,0,1,1.18,9.36c.23,2.76.46,5.61,1,8.6a36.42,36.42,0,0,0,11.12,20.53c3.92,3.67,10.13,6.39,13.48,7.69,5.76,2.23,12.09,2,17.57,1.56,2.08-.16,4.24-.12,6.53-.08,1.73,0,3.48,0,5.22,0-5.57,4.19-11.08,8.68-15.28,14.45a82.79,82.79,0,0,0-6.24,10.66c-2.3,4.42-4.68,9-8,12.75a1.1,1.1,0,0,0,.32,1.7c5.78,3,12.75,3.53,18.44,3.27a62,62,0,0,0,8.64-1c9.71-1.85,16.54-7.83,23.24-14.32,4.37-4.23,7.54-9.48,10.61-14.55,1-1.61,2-3.25,3-4.86,3.85,5,10.7,9.39,16.63,10.44a32.23,32.23,0,0,0,7.08.53,22.15,22.15,0,0,0,3.14-.36,7.82,7.82,0,0,1,6.32,1.51l.07.06a18.92,18.92,0,0,1,5.95,7.88c18,45.58,22.22,99.24,11.72,152.85-.35,1.78-.71,3.55-1.07,5.33-1.63,8-3.31,16.24-3.65,24.55l2.2.09c.33-8.13,2-16.3,3.61-24.2.36-1.78.73-3.57,1.08-5.35,10.69-54.56,6.25-109.19-12.38-155.45a14.82,14.82,0,0,1-1.16-6.11,32.5,32.5,0,0,0-.48-5.79,11.08,11.08,0,0,1,1.11-7c2.88-5.24,2.17-11.88,1.33-15.8-.39-1.84-.89-3.69-1.37-5.47-1.2-4.46-2.34-8.66-2.07-13C344.09,115.42,347.9,109.19,351.25,103.7Z"/><path id="_Compound_Path_4" data-name="&lt;Compound Path&gt;" class="cls-71" d="M351.25,103.7c4.55-7.46,8.56-14.22,11.54-21.53,3.48-8.56,5-16.69,4.43-24.16-.39-5.33-1.86-9.61-4.37-12.73a32.79,32.79,0,0,0-4.14-4c-2.49-2.16-4.84-4.19-5.55-7.07a1.1,1.1,0,0,0-1.83-.52c-4,3.9-6.14,11-5.69,19.08a88.54,88.54,0,0,0,1.23,9.57,89.87,89.87,0,0,1,1.19,9,44.14,44.14,0,0,1-1.49,14.32,46.74,46.74,0,0,0-2.13-16.15,45.19,45.19,0,0,0-16.13-22.2c-2.26-1.65-4.69-3.1-7-4.5A80.09,80.09,0,0,1,313.85,38c-3-2.27-8.09-7-8.61-13.28a1.1,1.1,0,0,0-2.1-.35c-.54,1.24-1.16,2.51-1.79,3.79-1.9,3.89-3.92,8.06-4.38,12.49-2.44-1.86-5.36-2.27-8.22-2.37a18.55,18.55,0,0,1-2.87-.56c-.53-.13-1-.25-1.4-.32a1.1,1.1,0,0,0-1.29,1.28c.23,1.22.55,2.5.89,3.85a49,49,0,0,1,1.2,5.8c-3.2,0-6.39.1-9.52.24a103,103,0,0,1-15.52-.09,1.11,1.11,0,0,0-.9.32,1.1,1.1,0,0,0-.31.9l2.71,22.59c-4.94-7.36-12.11-10.21-19.08-13l-1.05-.42a1.1,1.1,0,0,0-1.24,1.73c3.79,4.44,4.5,10.86,4.87,16.52.27,4.17.44,8.39.49,12.54l0,1.54a79.46,79.46,0,0,0,.55,9.89c-7.92-9.88-23-14.05-35.51-12.78a1.1,1.1,0,0,0-.64,1.9c2.77,2.56,3.69,7,4.5,10.91l.12.56a74.44,74.44,0,0,1,1.18,9.36c.23,2.76.46,5.61,1,8.6a36.42,36.42,0,0,0,11.12,20.53c3.92,3.67,10.13,6.39,13.48,7.69,5.76,2.23,12.09,2,17.57,1.56,2.08-.16,4.24-.12,6.53-.08,1.73,0,3.48,0,5.22,0-5.57,4.19-11.08,8.68-15.28,14.45a82.79,82.79,0,0,0-6.24,10.66c-2.3,4.42-4.68,9-8,12.75a1.1,1.1,0,0,0,.32,1.7c5.78,3,12.75,3.53,18.44,3.27a62,62,0,0,0,8.64-1c9.71-1.85,16.54-7.83,23.24-14.32,4.37-4.23,7.54-9.48,10.61-14.55,1-1.61,2-3.25,3-4.86,3.85,5,10.7,9.39,16.63,10.44a32.23,32.23,0,0,0,7.08.53,22.15,22.15,0,0,0,3.14-.36,7.82,7.82,0,0,1,6.32,1.51l.07.06a18.92,18.92,0,0,1,5.95,7.88c18,45.58,22.22,99.24,11.72,152.85-.35,1.78-.71,3.55-1.07,5.33-1.63,8-3.31,16.24-3.65,24.55l2.72,1.9a176,176,0,0,1,3.08-26c.36-1.78.73-3.57,1.08-5.35,10.69-54.56,6.25-109.19-12.38-155.45a14.82,14.82,0,0,1-1.16-6.11,32.5,32.5,0,0,0-.48-5.79,11.08,11.08,0,0,1,1.11-7c2.88-5.24,2.17-11.88,1.33-15.8-.39-1.84-.89-3.69-1.37-5.47-1.2-4.46-2.34-8.66-2.07-13C344.09,115.42,347.9,109.19,351.25,103.7ZM303.33,29.11l.41-.83c1.31,4.1,4.34,8.07,8.79,11.45a81.62,81.62,0,0,0,7.63,4.94c2.3,1.37,4.69,2.79,6.86,4.39a43,43,0,0,1,15.33,21.11c2.78,8.45,2.76,19.06,0,25.85-.92,1.73-1.9,3.43-2.87,5.11l-1,1.82c1.39-12.5-2.19-25.59-9.93-35a54.75,54.75,0,0,0-26.71-17.23C296.55,43,300,36,303.33,29.11ZM288.68,40.46c3.49.12,6.23.72,8.25,3.15a16.12,16.12,0,0,0,1.81,6.29,57.46,57.46,0,0,0-9.5-1.46c-.58,0-1.17,0-1.75-.07a47.51,47.51,0,0,0-1.28-6.4c-.18-.71-.35-1.39-.5-2.06A16.88,16.88,0,0,0,288.68,40.46ZM275.85,50.75a122.18,122.18,0,0,1,13.24-.11c14.77,1,28.85,8,37.68,18.7s12,26.44,8.12,40.24a30.8,30.8,0,0,0-3.27,12.76c-.06,6.36,2.52,12.31,5,18.06-11.15-10.28-18.18-22.5-23.88-32.42-1.51-2.63-2.94-5.11-4.31-7.32C301.73,89.8,292.24,77,281.22,69.89c-.51-.33-4-2.56-4.33-2.1s3.25,2.78,3.76,3.11c10.66,6.9,19.34,20.25,26,30.92,1.35,2.18,2.77,4.64,4.27,7.25,5,8.78,11.11,19.32,20.14,28.85a49,49,0,0,0-9.89-2.49,41.06,41.06,0,0,0-19.75,2.32l-1.23.46c-.7.26-1.38.52-2.05.74-9.6.36-20.73-8.32-25.14-16.71C269,114.81,268,106.27,267,98l-5.67-47.24A113.37,113.37,0,0,0,275.85,50.75ZM244.1,62.26c7.24,2.93,14.38,6.51,18.34,16l2.4,20c1,8.06,2.07,17.19,6.16,25A37.07,37.07,0,0,0,290.63,140a27.29,27.29,0,0,0-3.67.32l-.07,0c-12.8-3.6-24.61-12-31.62-22.43a41.19,41.19,0,0,1-6.64-15.68,67.49,67.49,0,0,1-.71-11l0-1.55c-.06-4.19-.22-8.45-.5-12.65C247.1,72.15,246.53,66.77,244.1,62.26Zm21.57,84.92c-2.24,0-4.55-.07-6.73.09-5.24.4-11.28.64-16.62-1.42-2.58-1-9-3.7-12.77-7.24a34.28,34.28,0,0,1-10.46-19.32c-.52-2.88-.76-5.68-1-8.39a77.22,77.22,0,0,0-1.22-9.63l-.12-.56c-.72-3.5-1.53-7.38-3.64-10.34,13.92-.69,30.42,5.39,35.11,18.7h0a47.78,47.78,0,0,0,5.19,10c6.71,10,17.63,18.16,29.67,22.32a29.73,29.73,0,0,0-5.08,2.74c-9.08,0-20-4.41-27.8-11.31-7.51-6.61-13.71-14.58-19.33-22.71-.34-.5-1.85-2.73-2.37-2.38s.94,2.58,1.28,3.08c5.69,8.23,11.25,16.87,19,23.65,7.39,6.51,17.39,10.9,26.3,11.72l-.93.68A55.9,55.9,0,0,1,265.67,147.18Zm39.56,6.88c-.17.24-.32.5-.48.74a1,1,0,0,0-.09.15c-1.36,2-2.66,4.16-3.91,6.22-3,5-6.1,10.08-10.26,14.11-6.46,6.25-13,12-22.13,13.74-4.55.86-15.73,2.38-24.41-1.46a71.66,71.66,0,0,0,7.34-12.08,81.05,81.05,0,0,1,6.07-10.38c4.78-6.56,11.44-11.5,17.89-16.27,3.54-2.62,7.56-5.6,12.1-6.39a30.1,30.1,0,0,1,4.15-.32,22.39,22.39,0,0,0,9.43-1.87l1.21-.45a38.85,38.85,0,0,1,18.69-2.21c3.78.56,10,1.9,14.68,5-6.52-1.21-14.62-1.22-20.72,2C310.45,146.92,307.4,150.88,305.23,154.06Zm17.43,11.67c-5.6-1-12.35-5.43-15.73-10.25h0c2-3,4.91-6.8,8.88-8.92,4.31-2.31,10.1-2.84,15.54-2.33a11,11,0,0,1,9.83,9.18,23,23,0,0,1,.35,4.29,8.63,8.63,0,0,1-1.05,3.33C338.26,164.24,332.9,167.55,322.66,165.73Zm21-30c.47,1.76,1,3.58,1.35,5.36.79,3.69,1.5,10-1.3,14.67a38,38,0,0,0-3-11.38l0-.08c-.63-1.56-1.3-3.11-2-4.65-2.43-5.57-4.94-11.33-4.89-17.26a27.69,27.69,0,0,1,2.75-11.14c.1-.31.36-.73.39-.86,1.28-2.71,2.81-5.39,4.39-8.14,1-1.71,2-3.45,2.93-5.22l0,0v0c.8-1.5,1.56-3,2.23-4.56a46.4,46.4,0,0,0,3.69-21.18A91.16,91.16,0,0,0,349,61.93a86.9,86.9,0,0,1-1.2-9.33c-.36-6.56,1.07-12.4,3.86-16.06,1.22,2.57,3.43,4.48,5.58,6.35a31.13,31.13,0,0,1,3.87,3.76c2.23,2.76,3.53,6.63,3.89,11.51.52,7.14-.92,14.93-4.27,23.18-2.91,7.16-6.87,13.84-11.38,21.22-3.49,5.72-7.44,12.19-7.88,19.41C341.21,126.67,342.44,131.26,343.64,135.69Z"/><path id="_Compound_Path_5" data-name="&lt;Compound Path&gt;" class="cls-70" d="M375,165.71a1.08,1.08,0,0,0-1-.61,1.1,1.1,0,0,0-1,.61c-.07.15-.13.29-.2.44A66,66,0,0,0,367.43,156a1.25,1.25,0,0,0-.84-.49,1.1,1.1,0,0,0-.9.36c-1.43,1.6-3.54,7.36-4.87,12a1.1,1.1,0,0,0-2,.08c-3.67,9.42-3.29,25.61.86,36.07a12.69,12.69,0,0,0,5.76,6.94,4.18,4.18,0,0,1,2.26,2.91c.07.38.16.76.26,1.13a7.87,7.87,0,0,1,.26,3.09,107.07,107.07,0,0,1-7.09,28.39l2,.82a109.24,109.24,0,0,0,7.23-28.93,7.69,7.69,0,0,1,.8-2.7,15.87,15.87,0,0,0,.79-1.8,4.06,4.06,0,0,1,2-2.29,9.85,9.85,0,0,0,3.35-2.64,12.47,12.47,0,0,0,2.32-5.21C382.36,192.78,380.34,176.44,375,165.71Z"/><path id="_Compound_Path_6" data-name="&lt;Compound Path&gt;" class="cls-72" d="M375,165.71a1.08,1.08,0,0,0-1-.61,1.1,1.1,0,0,0-1,.61c-.07.15-.13.29-.2.44A66,66,0,0,0,367.43,156a1.25,1.25,0,0,0-.84-.49,1.1,1.1,0,0,0-.9.36c-1.43,1.6-3.54,7.36-4.87,12a1.1,1.1,0,0,0-2,.08c-3.67,9.42-3.29,25.61.86,36.07a12.69,12.69,0,0,0,5.76,6.94,4.18,4.18,0,0,1,2.26,2.91c.07.38.16.76.26,1.13a7.87,7.87,0,0,1,.26,3.09,107.07,107.07,0,0,1-7.09,28.39l2,.82a109.24,109.24,0,0,0,7.23-28.93,7.69,7.69,0,0,1,.8-2.7,15.87,15.87,0,0,0,.79-1.8,4.06,4.06,0,0,1,2-2.29,9.85,9.85,0,0,0,3.35-2.64,12.47,12.47,0,0,0,2.32-5.21C382.36,192.78,380.34,176.44,375,165.71Zm-8.46-7a53.56,53.56,0,0,1,5,10.34,81.38,81.38,0,0,0-4.68,13.76c-1.33-3.93-2.85-7.86-4.55-11.74A71.26,71.26,0,0,1,366.51,158.67Zm-4.79,44.51c-3.61-9.11-4.25-22.71-1.71-31.85A142.12,142.12,0,0,1,365.87,187l0,.09a77.64,77.64,0,0,0-1.16,10.45,45.09,45.09,0,0,1-4-17.66c0-.3,0-3.44-.3-3.46s-.5,3.23-.5,3.54a45.59,45.59,0,0,0,4.76,20.11,27,27,0,0,0,1.14,6.85,10,10,0,0,0,1.18,2.37C364.68,208.26,362.93,206.24,361.72,203.18Zm15.84,0a10.41,10.41,0,0,1-1.88,4.33,8,8,0,0,1-2.21,1.87c2.11-3.68,4.57-11.3,2.58-21.41-.14-.74-.31-1.47-.47-2.21-.59-2.7-1.44-5-1.19-7.78,0-.3.31-2.89-.05-3h0c-.38,0-.69,2.52-.72,2.82a25.72,25.72,0,0,0,.89,8.17c.16.73.32,1.46.46,2.18,2.22,11.24-1.29,19.25-3.2,21.81a4.82,4.82,0,0,1-.76.07,3.2,3.2,0,0,1-.9-.57,31.38,31.38,0,0,0,2-10.18,90.29,90.29,0,0,0-.73-11.54c0-.3-.28-3.89-.7-3.85s-.07,3.6,0,3.91a90.17,90.17,0,0,1,.38,11.45,30.77,30.77,0,0,1-1.7,9.34,8.18,8.18,0,0,1-1.32-2.36,24.49,24.49,0,0,1-1.06-7.76A77.12,77.12,0,0,1,374,168.78C378.4,179,380,193.38,377.55,203.17Z"/><path id="_Compound_Path_7" data-name="&lt;Compound Path&gt;" class="cls-70" d="M448.57,484c1.08-6.45.4-11.4-2.1-15.12a1,1,0,0,0-1.55,0c-2.07,2.69-5,4.42-8.19,6.17,1.47-3.82.83-8.36-.44-11.61a44.24,44.24,0,0,0-5.89-9.76c-.65-.89-1.3-1.79-1.93-2.69a1,1,0,0,0-1.63.11,41.61,41.61,0,0,1-3.23,5.23c-.63-1-1.27-1.94-1.91-2.9l-5-7.55a2.48,2.48,0,0,0-1.57-1.22,2.45,2.45,0,0,0-1.8.54,68.37,68.37,0,0,0-13.76,12.38,60.3,60.3,0,0,0-6.18-6.35,1.84,1.84,0,0,0-2.74,0,126.58,126.58,0,0,0-9.68,8.9c-3.44,3.51-7.22,7.8-9.18,13a27.92,27.92,0,0,0-.55,16.94,48,48,0,0,0,7.37,15.19c.6.86,1.21,1.72,1.83,2.57a33.75,33.75,0,0,1,6.81,12.94,42.1,42.1,0,0,0,1.83,5.11c1.79,3.9,3.86,6.41,6.15,7.47a6.36,6.36,0,0,0,1.49.48h.07a4.61,4.61,0,0,0,3.72-1.37c2.56.17,4.93-1.22,6.66-2.25l8.26-4.89c5.83-3.45,11.87-7,17-11.7A51.69,51.69,0,0,0,448.57,484Z"/><path id="_Compound_Path_8" data-name="&lt;Compound Path&gt;" class="cls-70" d="M260.9,388.63c-4.4-5.56-8.55-10.8-12.27-16-3-4.11-6-8.73-8.52-12.76a19.51,19.51,0,0,1-2.47-5.92c-.13-.56-.28-1.13-.44-1.68a8.6,8.6,0,0,1,.19-5.31c.23-.62.41-1.23.58-1.78l2.79-9.18c2-6.49,4-13.19,4.65-20.12a51.69,51.69,0,0,0-8-32.7c-3.56-5.49-7.4-8.67-11.76-9.73a1,1,0,0,0-1.18,1c.29,3.39-.73,6.66-1.88,10.08-1.5-3.81-5-6.72-8.17-8.27a44.24,44.24,0,0,0-10.93-3.22c-1.08-.22-2.16-.44-3.24-.68a1,1,0,0,0-1.13,1.18,41.59,41.59,0,0,1,1.15,6c-1.12-.29-2.25-.57-3.36-.85l-8.81-2.17a2.48,2.48,0,0,0-2,.16,2.45,2.45,0,0,0-1,1.61,68.37,68.37,0,0,0-1.79,18.42,60.3,60.3,0,0,0-8.85-.51,1.84,1.84,0,0,0-2,1.82,126.58,126.58,0,0,0-1.13,13.1c-.17,4.91-.06,10.62,2,15.78a27.92,27.92,0,0,0,11,12.87A48,48,0,0,0,200,346.08c1,.23,2.05.45,3.09.66a45.72,45.72,0,0,1,9.69,2.75,45.39,45.39,0,0,1,4.07,2.2,42.08,42.08,0,0,0,4.81,2.53c3.73,1.57,6.79,2.05,9.16,1.46h0a5.68,5.68,0,0,1,1.69,0,7.24,7.24,0,0,1,2.48,1.11,19.34,19.34,0,0,1,3.51,4.19c2.54,4.06,5.59,8.69,8.55,12.81,3.74,5.2,7.91,10.47,12.32,16,11.44,14.45,24.4,30.82,31.68,49.16l1.77-.7C285.48,419.67,272.42,403.18,260.9,388.63Z"/><path id="_Compound_Path_9" data-name="&lt;Compound Path&gt;" class="cls-73" d="M260.9,388.63c-4.4-5.56-8.55-10.8-12.27-16-3-4.11-6-8.73-8.52-12.76a19.51,19.51,0,0,1-2.47-5.92c-.13-.56-.28-1.13-.44-1.68a8.6,8.6,0,0,1,.19-5.31c.23-.62.41-1.23.58-1.78l2.79-9.18c2-6.49,4-13.19,4.65-20.12a51.69,51.69,0,0,0-8-32.7c-3.56-5.49-7.4-8.67-11.76-9.73a1,1,0,0,0-1.18,1c.29,3.39-.73,6.66-1.88,10.08-1.5-3.81-5-6.72-8.17-8.27a44.24,44.24,0,0,0-10.93-3.22c-1.08-.22-2.16-.44-3.24-.68a1,1,0,0,0-1.13,1.18,41.59,41.59,0,0,1,1.15,6c-1.12-.29-2.25-.57-3.36-.85l-8.81-2.17a2.48,2.48,0,0,0-2,.16,2.45,2.45,0,0,0-1,1.61,68.37,68.37,0,0,0-1.79,18.42,60.3,60.3,0,0,0-8.85-.51,1.84,1.84,0,0,0-2,1.82,126.58,126.58,0,0,0-1.13,13.1c-.17,4.91-.06,10.62,2,15.78a27.92,27.92,0,0,0,11,12.87A48,48,0,0,0,200,346.08c1,.23,2.05.45,3.09.66a45.72,45.72,0,0,1,9.69,2.75,45.39,45.39,0,0,1,4.07,2.2,42.08,42.08,0,0,0,4.81,2.53c3.73,1.57,6.79,2.05,9.16,1.46h0a5.68,5.68,0,0,1,1.69,0,7.24,7.24,0,0,1,2.48,1.11,19.34,19.34,0,0,1,3.51,4.19c2.54,4.06,5.59,8.69,8.55,12.81,3.74,5.2,7.91,10.47,12.32,16,11.44,14.45,24.4,30.82,31.68,49.16l1.77-.7C285.48,419.67,272.42,403.18,260.9,388.63ZM203.09,274.94A42.84,42.84,0,0,1,213.56,278c3.58,1.76,7.75,5.48,7.83,10.17-.1.31-.2.62-.28.93-.23.81-.43,1.63-.61,2.45-2-3.6-5.86-6.09-9.3-7.94a44.06,44.06,0,0,0-9-3.47,43.5,43.5,0,0,0-.91-5.56ZM187,278.8c.06-.26.11-.41.11-.43a1.55,1.55,0,0,1,.53.08l8.81,2.17c4.69,1.16,9.53,2.35,13.85,4.69,4.11,2.22,8.91,5.39,9.56,10.23a40.63,40.63,0,0,0,.84,14.24A80.32,80.32,0,0,0,224,319.7c.74,1.92,1.51,3.9,2.16,5.88,1.49,4.49,3.48,10.51,1.75,15.55-3.8-4.47-6.38-10-8.88-15.37-2.71-5.83-5.52-11.85-9.91-16.69-.56-.61-1.15-1.2-1.75-1.77a195.12,195.12,0,0,0-16.22-22.61c-.22-.27-2.2-2.68-2.55-2.4s1.55,2.72,1.77,3a180.53,180.53,0,0,1,13.86,19.4,44.34,44.34,0,0,0-19-7.63A66.45,66.45,0,0,1,187,278.8Zm45.45,73.49a25.91,25.91,0,0,1-5-3.48c-.94-.78-1.91-1.58-2.93-2.3-.55-.39-1.35-.87-2.37-1.47-5.91-3.53-19.93-11.61-36.38-32.87-.22-.28-1.84-2.15-2.12-1.94s1.17,2.25,1.38,2.53c16.6,21.45,30.49,29.81,36.47,33.37,1,.59,1.78,1.06,2.29,1.42,1,.69,1.93,1.47,2.85,2.24a28.39,28.39,0,0,0,5,3.53h0c-2,1.19-5.06.9-9.24-.86a39.85,39.85,0,0,1-4.58-2.42,47,47,0,0,0-4.24-2.29,47.19,47.19,0,0,0-10.09-2.88c-1-.21-2-.42-3-.65a46.17,46.17,0,0,1-15.08-6,26.39,26.39,0,0,1-10.3-12c-1.93-4.83-2-10.3-1.86-15a124.93,124.93,0,0,1,1.11-12.9l0-.17h.16c13.88-.23,26,4.21,33.22,12.18,4.2,4.62,6.94,10.51,9.59,16.21,2.75,5.92,5.62,12,10.12,16.86a.92.92,0,0,0,.18.2c.21.22.4.45.62.67l.91.89a13.81,13.81,0,0,1,3,3.62A4.42,4.42,0,0,1,232.44,352.29Zm1.86-3.36a6.56,6.56,0,0,0-.39-1c-.08-.16-.18-.29-.27-.44a30.86,30.86,0,0,0,.75-9.25c0-1.38-.06-2.81,0-4.18a65.68,65.68,0,0,1,1.25-9.11c.27-1.46.54-2.91.76-4.38,1.92-12.6-.14-24.49-5.57-33.86-.18-.3-1.62-2.72-2-2.53s1.15,2.67,1.33,3c5.28,9.12,6.86,20.91,5,33.22-.22,1.45-.49,2.89-.75,4.34a66.43,66.43,0,0,0-1.27,9.28c-.06,1.42,0,2.87,0,4.26a33.76,33.76,0,0,1-.44,7.83,25.56,25.56,0,0,0-2.2-2.31l-.89-.86-.23-.25c2.54-5.87.2-13-1.37-17.71-.67-2-1.44-4-2.19-6a78.91,78.91,0,0,1-3.27-9.69,38.76,38.76,0,0,1,.39-19.69c.36-1.25.79-2.54,1.21-3.78,1.11-3.27,2.24-6.64,2.25-10.15,3.37,1.22,6.45,4,9.37,8.54a49.76,49.76,0,0,1,7.75,31.49c-.62,6.74-2.63,13.35-4.58,19.74l-2.79,9.18A14,14,0,0,1,234.3,348.93Z"/><path id="_Compound_Path_10" data-name="&lt;Compound Path&gt;" class="cls-74" d="M446.47,468.91a1,1,0,0,0-1.55,0c-2.07,2.69-5,4.42-8.19,6.17,1.47-3.82.83-8.36-.44-11.61a44.24,44.24,0,0,0-5.89-9.76c-.65-.89-1.3-1.79-1.93-2.69a1,1,0,0,0-1.63.11,41.59,41.59,0,0,1-3.23,5.23c-.63-1-1.27-1.94-1.91-2.9l-5-7.55a2.48,2.48,0,0,0-1.57-1.22,2.45,2.45,0,0,0-1.8.54,68.37,68.37,0,0,0-13.76,12.38,60.29,60.29,0,0,0-6.18-6.35,1.84,1.84,0,0,0-2.74,0,126.56,126.56,0,0,0-9.68,8.9c-3.44,3.51-7.22,7.8-9.18,13a27.92,27.92,0,0,0-.55,16.94,48,48,0,0,0,7.37,15.19c.6.86,1.21,1.72,1.83,2.57a33.75,33.75,0,0,1,6.81,12.94,42.07,42.07,0,0,0,1.83,5.11c1.79,3.9,3.86,6.41,6.15,7.47h0a2.92,2.92,0,0,1,1.66,2.12v0a7.93,7.93,0,0,1,.07,2.54c-1.72,12.12-3.33,26.71,2.37,40.83l1.77-.71c-5.22-13-4.08-26.5-2.5-38a10.21,10.21,0,0,1,1.54-4.13l0-.06a13.64,13.64,0,0,1,5.27-4.77c.62-.32,1.2-.66,1.71-1l8.26-4.89c5.83-3.45,11.87-7,17-11.7A51.69,51.69,0,0,0,448.57,484C449.66,477.58,449,472.63,446.47,468.91Zm-18.68-15.59,1.06,1.46a42.84,42.84,0,0,1,5.65,9.33c1.45,3.71,2,9.27-1.09,12.79l-.84.49q-1.08.66-2.11,1.39c1-4-.22-8.45-1.5-12.14a44,44,0,0,0-4.27-8.61A43.47,43.47,0,0,0,427.79,453.32Zm-13.42-6.56c.22-.15.36-.23.37-.25a1.55,1.55,0,0,1,.34.41l5,7.55c2.68,4,5.44,8.17,7.05,12.81,1.54,4.41,2.94,10,.15,14a40.63,40.63,0,0,0-9,11.07,80.33,80.33,0,0,0-4.24,9.58c-.75,1.92-1.52,3.9-2.37,5.79-1.93,4.32-4.53,10.1-9.21,12.65.21-5.87,2-11.68,3.83-17.33,1.93-6.13,3.93-12.47,4-19,0-.83,0-1.66-.1-2.49a195.1,195.1,0,0,0,3.3-27.63c0-.35.19-3.46-.26-3.49s-.7,3.05-.72,3.4a180.51,180.51,0,0,1-2.87,23.67,44.35,44.35,0,0,0-8.86-18.45A66.45,66.45,0,0,1,414.37,446.76ZM390.79,525a39.83,39.83,0,0,1-1.75-4.88A35.51,35.51,0,0,0,382,506.66c-.61-.84-1.22-1.69-1.81-2.54a46.17,46.17,0,0,1-7.09-14.58,26.39,26.39,0,0,1,.48-15.79c1.84-4.86,5.46-9,8.76-12.33a124.91,124.91,0,0,1,9.53-8.77l.14-.11.12.1c10.39,9.2,16.33,20.65,16.28,31.41,0,6.24-2,12.44-3.87,18.43-2,6.22-4,12.65-3.91,19.27a.92.92,0,0,0,0,.27c0,.3,0,.61,0,.91s0,.85.08,1.27a13.8,13.8,0,0,1-.2,4.71,4.42,4.42,0,0,1-2.19,2.74,25.9,25.9,0,0,1-1.31-5.92c-.17-1.21-.34-2.46-.61-3.67-.15-.66-.41-1.55-.75-2.68-2-6.59-6.86-22-4.65-48.81,0-.35.09-2.83-.26-2.86s-.66,2.45-.69,2.8c-2.23,27,2.37,42.58,4.37,49.24.33,1.11.6,2,.73,2.59.26,1.17.43,2.39.59,3.57a28.39,28.39,0,0,0,1.31,6h0C394.77,531.46,392.68,529.15,390.79,525Zm55.9-41.32a49.76,49.76,0,0,1-15.55,28.46c-5,4.55-11,8.07-16.7,11.47l-8.26,4.89a14,14,0,0,1-4.25,1.91,6.58,6.58,0,0,0,.38-1c0-.17.07-.34.1-.51a30.85,30.85,0,0,0,6.8-6.32c.91-1,1.85-2.11,2.82-3.09a65.67,65.67,0,0,1,7.07-5.88c1.18-.89,2.36-1.79,3.52-2.71,9.92-8,16.43-18.16,18.75-28.74.08-.34.64-3.1.23-3.22s-1,2.74-1,3.09c-2.26,10.29-9.05,20.06-18.75,27.88-1.14.92-2.31,1.8-3.48,2.69a66.44,66.44,0,0,0-7.2,6c-1,1-2,2.09-2.88,3.15a33.76,33.76,0,0,1-5.61,5.48,25.57,25.57,0,0,0-.06-3.19c0-.41-.05-.82-.07-1.23,0-.11,0-.23,0-.34,5.84-2.62,8.9-9.43,10.95-14,.87-1.94,1.65-3.94,2.41-5.88a78.9,78.9,0,0,1,4.14-9.36A38.76,38.76,0,0,1,433.58,479c1.11-.68,2.3-1.34,3.44-2,3-1.67,6.14-3.39,8.52-6C447.21,474.26,447.58,478.4,446.69,483.71Z"/></g></svg>