<svg xmlns="http://www.w3.org/2000/svg" xmlns:xlink="http://www.w3.org/1999/xlink" viewBox="0 0 333 55"><defs><style>.cls-1{fill:url(#linear-gradient);}.cls-2{fill:url(#linear-gradient-2);}.cls-3{fill:url(#linear-gradient-3);}.cls-4{fill:url(#linear-gradient-4);}.cls-5{fill:url(#linear-gradient-5);}.cls-6{fill:url(#linear-gradient-6);}.cls-7{fill:url(#linear-gradient-7);}.cls-8{fill:url(#linear-gradient-8);}.cls-9{fill:url(#linear-gradient-9);}.cls-10{fill:url(#linear-gradient-10);}.cls-11{fill:url(#linear-gradient-11);}.cls-12{fill:url(#linear-gradient-12);}.cls-13{fill:url(#linear-gradient-13);}.cls-14{fill:url(#linear-gradient-14);}.cls-15{fill:url(#linear-gradient-15);}.cls-16{fill:url(#linear-gradient-16);}.cls-17{fill:url(#linear-gradient-17);}.cls-18{fill:url(#linear-gradient-18);}.cls-19{fill:url(#linear-gradient-19);}.cls-20{fill:url(#linear-gradient-20);}.cls-21{fill:url(#linear-gradient-21);}.cls-22{fill:url(#linear-gradient-22);}.cls-23{fill:url(#linear-gradient-23);}.cls-24{fill:url(#linear-gradient-24);}.cls-25{fill:url(#linear-gradient-25);}.cls-26{fill:url(#linear-gradient-26);}.cls-27{fill:url(#linear-gradient-27);}.cls-28{fill:url(#linear-gradient-28);}.cls-29{fill:url(#linear-gradient-29);}.cls-30{fill:url(#linear-gradient-30);}.cls-31{fill:url(#linear-gradient-31);}.cls-32{fill:url(#linear-gradient-32);}.cls-33{fill:url(#linear-gradient-33);}.cls-34{fill:url(#linear-gradient-34);}.cls-35{fill:url(#linear-gradient-35);}.cls-36{fill:url(#linear-gradient-36);}.cls-37{fill:url(#linear-gradient-37);}.cls-38{fill:url(#linear-gradient-38);}.cls-39{fill:url(#linear-gradient-39);}.cls-40{fill:url(#linear-gradient-40);}.cls-41{fill:url(#linear-gradient-41);}.cls-42{fill:url(#linear-gradient-42);}.cls-43{fill:url(#linear-gradient-43);}.cls-44{fill:url(#linear-gradient-44);}.cls-45{fill:url(#linear-gradient-45);}.cls-46{fill:url(#linear-gradient-46);}.cls-47{fill:url(#linear-gradient-47);}</style><linearGradient id="linear-gradient" x1="39.52" y1="30.64" x2="290.65" y2="30.64" gradientUnits="userSpaceOnUse"><stop offset="0" stop-color="#b48e5d"/><stop offset="0.19" stop-color="#8f6e3f"/><stop offset="0.38" stop-color="#c79d61"/><stop offset="0.54" stop-color="#eebe79"/><stop offset="0.63" stop-color="#fdca82"/><stop offset="0.7" stop-color="#ebbb77"/><stop offset="0.86" stop-color="#be955c"/><stop offset="1" stop-color="#8f6e3f"/></linearGradient><linearGradient id="linear-gradient-2" x1="277.04" y1="27.51" x2="313.14" y2="27.51" xlink:href="#linear-gradient"/><linearGradient id="linear-gradient-3" x1="274.75" y1="32.71" x2="312.53" y2="32.71" xlink:href="#linear-gradient"/><linearGradient id="linear-gradient-4" x1="273.42" y1="22.55" x2="310.59" y2="22.55" xlink:href="#linear-gradient"/><linearGradient id="linear-gradient-5" x1="283.58" y1="22.19" x2="294.03" y2="22.19" xlink:href="#linear-gradient"/><linearGradient id="linear-gradient-6" x1="287.29" y1="25.41" x2="300.15" y2="25.41" xlink:href="#linear-gradient"/><linearGradient id="linear-gradient-7" x1="279.33" y1="28.5" x2="296.93" y2="28.5" xlink:href="#linear-gradient"/><linearGradient id="linear-gradient-8" x1="283.92" y1="33.94" x2="297.38" y2="33.94" xlink:href="#linear-gradient"/><linearGradient id="linear-gradient-9" x1="306.04" y1="22.45" x2="320.57" y2="22.45" xlink:href="#linear-gradient"/><linearGradient id="linear-gradient-10" x1="308.97" y1="25.73" x2="322.37" y2="25.73" xlink:href="#linear-gradient"/><linearGradient id="linear-gradient-11" x1="304.2" y1="30.6" x2="320.24" y2="30.6" xlink:href="#linear-gradient"/><linearGradient id="linear-gradient-12" x1="303.95" y1="32.27" x2="320.82" y2="32.27" gradientTransform="translate(313.88 -281.77) rotate(84.37)" xlink:href="#linear-gradient"/><linearGradient id="linear-gradient-13" x1="317.85" y1="33.88" x2="323.27" y2="33.88" xlink:href="#linear-gradient"/><linearGradient id="linear-gradient-14" x1="317.08" y1="30.89" x2="323.52" y2="30.89" xlink:href="#linear-gradient"/><linearGradient id="linear-gradient-15" x1="318.68" y1="26.66" x2="326" y2="26.66" xlink:href="#linear-gradient"/><linearGradient id="linear-gradient-16" x1="315.72" y1="22.53" x2="323.7" y2="22.53" xlink:href="#linear-gradient"/><linearGradient id="linear-gradient-17" x1="267.55" y1="35.27" x2="275.03" y2="35.27" xlink:href="#linear-gradient"/><linearGradient id="linear-gradient-18" x1="249.16" y1="30.74" x2="268.65" y2="30.74" xlink:href="#linear-gradient"/><linearGradient id="linear-gradient-19" x1="240.28" y1="21.31" x2="248.6" y2="21.31" xlink:href="#linear-gradient"/><linearGradient id="linear-gradient-20" x1="231.73" y1="24.39" x2="242.01" y2="24.39" xlink:href="#linear-gradient"/><linearGradient id="linear-gradient-21" x1="249.34" y1="21.49" x2="269.1" y2="21.49" xlink:href="#linear-gradient"/><linearGradient id="linear-gradient-22" x1="209.4" y1="22.41" x2="222.82" y2="22.41" xlink:href="#linear-gradient"/><linearGradient id="linear-gradient-23" x1="230.7" y1="30.25" x2="244.73" y2="30.25" xlink:href="#linear-gradient"/><linearGradient id="linear-gradient-24" x1="210.28" y1="30.32" x2="225.16" y2="30.32" xlink:href="#linear-gradient"/><linearGradient id="linear-gradient-25" x1="20.86" y1="26.88" x2="56.96" y2="26.88" xlink:href="#linear-gradient"/><linearGradient id="linear-gradient-26" x1="21.47" y1="32.08" x2="59.25" y2="32.08" xlink:href="#linear-gradient"/><linearGradient id="linear-gradient-27" x1="23.41" y1="21.92" x2="60.58" y2="21.92" xlink:href="#linear-gradient"/><linearGradient id="linear-gradient-28" x1="39.97" y1="21.56" x2="50.42" y2="21.56" xlink:href="#linear-gradient"/><linearGradient id="linear-gradient-29" x1="33.85" y1="24.78" x2="46.71" y2="24.78" xlink:href="#linear-gradient"/><linearGradient id="linear-gradient-30" x1="37.07" y1="27.88" x2="54.67" y2="27.88" xlink:href="#linear-gradient"/><linearGradient id="linear-gradient-31" x1="36.62" y1="33.31" x2="50.08" y2="33.31" xlink:href="#linear-gradient"/><linearGradient id="linear-gradient-32" x1="13.43" y1="21.82" x2="27.96" y2="21.82" xlink:href="#linear-gradient"/><linearGradient id="linear-gradient-33" x1="11.63" y1="25.11" x2="25.03" y2="25.11" xlink:href="#linear-gradient"/><linearGradient id="linear-gradient-34" x1="13.76" y1="29.98" x2="29.8" y2="29.98" xlink:href="#linear-gradient"/><linearGradient id="linear-gradient-35" x1="13.18" y1="31.65" x2="30.05" y2="31.65" gradientTransform="translate(3.21 -1.97) rotate(5.63)" xlink:href="#linear-gradient"/><linearGradient id="linear-gradient-36" x1="10.73" y1="33.26" x2="16.15" y2="33.26" xlink:href="#linear-gradient"/><linearGradient id="linear-gradient-37" x1="10.48" y1="30.26" x2="16.92" y2="30.26" xlink:href="#linear-gradient"/><linearGradient id="linear-gradient-38" x1="8" y1="26.03" x2="15.32" y2="26.03" xlink:href="#linear-gradient"/><linearGradient id="linear-gradient-39" x1="10.3" y1="21.9" x2="18.28" y2="21.9" xlink:href="#linear-gradient"/><linearGradient id="linear-gradient-40" x1="61.62" y1="33.44" x2="69.1" y2="33.44" xlink:href="#linear-gradient"/><linearGradient id="linear-gradient-41" x1="68" y1="28.91" x2="87.49" y2="28.91" xlink:href="#linear-gradient"/><linearGradient id="linear-gradient-42" x1="86.21" y1="19.36" x2="94.53" y2="19.36" xlink:href="#linear-gradient"/><linearGradient id="linear-gradient-43" x1="92.8" y1="22.44" x2="103.08" y2="22.44" xlink:href="#linear-gradient"/><linearGradient id="linear-gradient-44" x1="66.6" y1="20.16" x2="86.36" y2="20.16" xlink:href="#linear-gradient"/><linearGradient id="linear-gradient-45" x1="111.99" y1="21.09" x2="125.41" y2="21.09" xlink:href="#linear-gradient"/><linearGradient id="linear-gradient-46" x1="90.08" y1="27.99" x2="104.11" y2="27.99" xlink:href="#linear-gradient"/><linearGradient id="linear-gradient-47" x1="109.65" y1="28.55" x2="124.53" y2="28.55" xlink:href="#linear-gradient"/></defs><title>hr-1</title><g id="Layer_3" data-name="Layer 3"><path class="cls-1" d="M290.65,28.71a2.8,2.8,0,0,1-.72,0l-2.11-.1-8.13-.38c-7.06-.3-17.28-.65-29.91-.9s-27.68-.42-44.37-.12c-8.34.18-17.11.4-26.12,1.27a63.07,63.07,0,0,0-6.72,1c-.55.11-1.08.29-1.62.42a12.15,12.15,0,0,0-1.51.62,4.24,4.24,0,0,0-2.19,2,2.14,2.14,0,0,0,.62,2.44,3.83,3.83,0,0,0,2.76,1,5.56,5.56,0,0,0,3-.8A3.2,3.2,0,0,0,175,32.59a3.57,3.57,0,0,0-.95-2.78,8.08,8.08,0,0,0-2.7-1.82,18.26,18.26,0,0,0-6.66-1.4l-7-.39-6.87-.31c-9.08-.37-17.84-.58-26.19-.66-16.7-.14-31.74.27-44.35.86S57.51,27.44,50.47,28l-8.11.65-2.11.14a2.8,2.8,0,0,1-.72,0,2.79,2.79,0,0,1,.71-.14l2.1-.28c1.85-.23,4.57-.57,8.09-.91,7-.73,17.23-1.65,29.85-2.36s27.68-1.23,44.41-1.16c8.36,0,17.14.22,26.24.58l6.88.3,7,.38a19.6,19.6,0,0,1,7.14,1.51,9.42,9.42,0,0,1,3.18,2.17,5,5,0,0,1,1.3,3.84,4.61,4.61,0,0,1-2,3.57,6.9,6.9,0,0,1-3.79,1A5.23,5.23,0,0,1,166.91,36a4,4,0,0,1-1.1-1.81A3.26,3.26,0,0,1,166,32a5.55,5.55,0,0,1,2.85-2.68,13.45,13.45,0,0,1,1.71-.7c.58-.15,1.16-.34,1.74-.46a64,64,0,0,1,6.88-1c9.1-.86,17.88-1.05,26.24-1.2,16.72-.23,31.78.06,44.41.42s22.86.88,29.91,1.34c3.53.23,6.27.46,8.12.64.93.09,1.63.18,2.11.24A2.8,2.8,0,0,1,290.65,28.71Z"/><path class="cls-2" d="M277,27.53a11.93,11.93,0,0,1,2.68-1.22c1.76-.68,4.29-1.7,7.53-2.74a36.4,36.4,0,0,1,5.44-1.29,22.1,22.1,0,0,1,6.48,0,46.6,46.6,0,0,1,6.92,1.54c1.18.35,2.37.75,3.56,1.23a18.83,18.83,0,0,1,1.79.82,7.07,7.07,0,0,1,.9.56,2.82,2.82,0,0,1,.47.43,1.37,1.37,0,0,1,.24.38,1.07,1.07,0,0,1,.05.67,1.94,1.94,0,0,1-.11.28,1.44,1.44,0,0,1-.13.18,1.53,1.53,0,0,1-.26.27,3.33,3.33,0,0,1-.49.35,8.07,8.07,0,0,1-.93.48c-.61.27-1.22.49-1.83.7-1.22.41-2.42.73-3.61,1-2.38.59-4.7,1-6.92,1.36a33.35,33.35,0,0,1-12-.21,22.49,22.49,0,0,1-7.54-2.89A7.09,7.09,0,0,1,277,27.53c.08-.09.89.58,2.53,1.44A25,25,0,0,0,287,31.36a34.2,34.2,0,0,0,11.6-.09c2.18-.35,4.46-.83,6.79-1.42,1.16-.3,2.34-.63,3.5-1,.58-.2,1.16-.41,1.7-.65a6.81,6.81,0,0,0,.77-.39,2,2,0,0,0,.29-.21l.08-.07s0,0,.08,0a.39.39,0,0,0,.18.09c.11,0,0,0,.07,0h0l-.16,0-.07,0-.12.07h0l0,0a1.56,1.56,0,0,0-.24-.21,5.79,5.79,0,0,0-.72-.45,17.82,17.82,0,0,0-1.65-.76c-1.13-.46-2.28-.86-3.43-1.21A47.92,47.92,0,0,0,299,23.53a26.6,26.6,0,0,0-11.46,1c-3.22.9-5.82,1.78-7.63,2.3A11.91,11.91,0,0,1,277,27.53Z"/><path class="cls-3" d="M303.5,31.22a8.07,8.07,0,0,1,1.89.54c1.2.4,2.94.88,5.09,1.7a6.06,6.06,0,0,1,1.73.93.87.87,0,0,1,.13.15.74.74,0,0,1,.13.22.77.77,0,0,1-.06.71,1.27,1.27,0,0,1-.68.48,7.79,7.79,0,0,1-1,.26c-1.33.26-2.73.47-4.21.69l-4.62.69a46.71,46.71,0,0,1-5.07.54,22.73,22.73,0,0,1-5.16-.31,22.35,22.35,0,0,1-4.6-1.43,32.31,32.31,0,0,1-6.9-4.14,48.17,48.17,0,0,1-4.08-3.51c-.91-.88-1.38-1.4-1.32-1.48s.65.31,1.67,1.06,2.46,1.86,4.3,3.12a35.79,35.79,0,0,0,6.81,3.75,22.31,22.31,0,0,0,4.35,1.27,22.5,22.5,0,0,0,4.86.27c1.68-.07,3.33-.28,4.93-.5s3.17-.42,4.65-.61,2.89-.35,4.17-.56a7.43,7.43,0,0,0,.87-.18l.14,0h0l.12.12.05.06.08,0h0s-.07,0-.13,0l-.16.09s0,0,0,0a5.85,5.85,0,0,0-1.35-.79c-2-.91-3.75-1.55-4.9-2.1S303.45,31.3,303.5,31.22Z"/><path class="cls-4" d="M273.42,27.84c-.09-.16,2.14-1.69,5.91-3.91,1.89-1.1,4.16-2.38,6.79-3.63a38.05,38.05,0,0,1,4.25-1.77,25.93,25.93,0,0,1,4.89-1,51,51,0,0,1,9.5-.16,21.22,21.22,0,0,1,4.16.68,4.51,4.51,0,0,1,1,.43,1.37,1.37,0,0,1,.26.19,1,1,0,0,1,.26.31,1,1,0,0,1,.13.51,1.28,1.28,0,0,1-.15.46,6.65,6.65,0,0,1-1.19,1.42,7.63,7.63,0,0,1-2.72,1.49,14.16,14.16,0,0,1-2.21.51,4.81,4.81,0,0,1-1.92.12c0-.1.63-.31,1.8-.65a19.77,19.77,0,0,0,2.06-.71,7.27,7.27,0,0,0,2.32-1.48,5.84,5.84,0,0,0,.94-1.24c-.06,0,.14.07.17,0s0,0-.16.07,0,0,0,0l0,0a.42.42,0,0,0-.11-.07,3.63,3.63,0,0,0-.75-.27,21.86,21.86,0,0,0-3.93-.51,57.29,57.29,0,0,0-9.25.27,26.3,26.3,0,0,0-4.63.89,41.27,41.27,0,0,0-4.13,1.63c-2.61,1.17-4.92,2.35-6.86,3.33C275.93,26.78,273.52,28,273.42,27.84Z"/><path class="cls-5" d="M283.59,23.83c-.17-.22,1.9-1.8,4.92-2.6s5.5-.83,5.52-.58-2.38.74-5.25,1.54S283.74,24.07,283.59,23.83Z"/><path class="cls-6" d="M287.29,26.12c-.06-.38,2.76-1.17,6.35-1.49s6.51-.06,6.52.32-2.86.74-6.39,1.07S287.35,26.5,287.29,26.12Z"/><path class="cls-7" d="M279.33,27.84c0-.37,4-.29,8.84,0s8.76.78,8.76,1c0,.51-4,.68-8.85.36S279.29,28.23,279.33,27.84Z"/><path class="cls-8" d="M283.93,32.35c.17-.37,3,.72,6.71,1.45s6.73.89,6.74,1.3-3.16.87-7,.07S283.75,32.67,283.93,32.35Z"/><path class="cls-9" d="M320.57,21.9c.05.37-3.16,1.16-7.23,1.32s-7.33-.39-7.31-.76,3.28-.48,7.25-.63S320.52,21.51,320.57,21.9Z"/><path class="cls-10" d="M322.37,26.35c-.06.41-3.06.16-6.71,0S309,25.9,309,25.5s3-.71,6.75-.56S322.43,26,322.37,26.35Z"/><path class="cls-11" d="M320.24,30.7c0,.4-3.61.58-8,.6s-8,.07-8-.31,3.55-1.08,8-1.09S320.25,30.33,320.24,30.7Z"/><ellipse class="cls-12" cx="312.39" cy="32.27" rx="0.7" ry="8.48" transform="translate(249.65 339.99) rotate(-84.37)"/><path class="cls-13" d="M320.36,33.87c0-.06.16-.08.45-.09a4.26,4.26,0,0,1,.54,0,2.38,2.38,0,0,1,.37.07.82.82,0,0,1,.51.32l.3.39-.53.11a5,5,0,0,1-2.14-.1,4.56,4.56,0,0,1-1.29-.49l-.17-.12a1.06,1.06,0,0,1-.2-1.57,1.06,1.06,0,0,1,.72-.35,6.78,6.78,0,0,1,1.64.09,5.09,5.09,0,0,1,1.73.6,2.17,2.17,0,0,1,.84.86,1.52,1.52,0,0,1-.1,1.5,1.32,1.32,0,0,1-.69.52,1.76,1.76,0,0,1-.7.08,3.31,3.31,0,0,1-1.08-.28,4.74,4.74,0,0,1-2.18-1.78l-.51-.8.95-.21a4.52,4.52,0,0,1,2.82.29,4.17,4.17,0,0,1,1.14.74,1.38,1.38,0,0,1,.29.4,1,1,0,0,1,.09.62,1.13,1.13,0,0,1-.66.82,2.12,2.12,0,0,1-.67.18l-.32,0h-.26a2.83,2.83,0,0,1-1.1-.22,1.49,1.49,0,0,1-.51-.37,1.43,1.43,0,0,1-.29-.52,1.09,1.09,0,0,1,.25-1.12l.16-.15.15,0c1.47.27,2.1.92,2,1s-.81-.22-2.1-.23l.31-.12c-.08.08,0,.49.37.56a2,2,0,0,0,.72.05h.23l.18,0a1,1,0,0,0,.31-.11s0-.06.07,0a.56.56,0,0,0,.12.09h0l-.06,0-.08,0h0l0,0a3.23,3.23,0,0,0-.8-.45,3.34,3.34,0,0,0-2-.14l.44-1a3.64,3.64,0,0,0,1.54,1.19,2,2,0,0,0,.63.18.44.44,0,0,0,.17,0s0,0,0,0,0,0,0,0,0-.08,0-.14a.89.89,0,0,0-.32-.31,5.29,5.29,0,0,0-2.6-.63V33.1h0l0,0s0,0,0,0l0,0c.05,0,0,0,.06,0l.09.07a4,4,0,0,0,1,.47,5.53,5.53,0,0,0,1.74.36l-.11.43s-.12.11-.11.08l0,0-.11-.07-.28-.12-.48-.18C320.48,34,320.33,33.93,320.36,33.87Z"/><path class="cls-14" d="M319.16,30.62c0-.09.24-.25.75-.47a8.08,8.08,0,0,1,1-.33,3.9,3.9,0,0,1,1.46-.16,1.37,1.37,0,0,1,1,.6,1.3,1.3,0,0,1,0,1.37,1.82,1.82,0,0,1-1.07.7,4.88,4.88,0,0,1-1.05.16,10,10,0,0,1-2.17-.12,1.36,1.36,0,0,1-.86-.55,1.14,1.14,0,0,1-.19-.65,1.15,1.15,0,0,1,.19-.62,2.12,2.12,0,0,1,1.38-.84c.63-.07,1.18-.34,2-.45a2,2,0,0,1,.74,0,1.18,1.18,0,0,1,.79.68,1.29,1.29,0,0,1,0,1,1.27,1.27,0,0,1-.66.63,3.87,3.87,0,0,1-2,.13,6.08,6.08,0,0,1-1.6-.46l-1.72-.77,1.82-.21a19.51,19.51,0,0,1,2.64,0c.58,0,.92-.05,1,0s-.25.34-.88.52-1.57.21-2.52.45l.1-1a6,6,0,0,0,1.34.24,3.12,3.12,0,0,0,1.35-.13s0,0,0,0,.08.1.15.13l-.06,0h-.11l.12-.07a.15.15,0,0,0,0,.07.46.46,0,0,0,0,.12.88.88,0,0,0-.22,0c-.48.06-1.17.36-1.91.46a1.11,1.11,0,0,0-.31.11c-.11,0-.13.14-.19.09a.55.55,0,0,0-.23-.1h0l.06,0,0,0h0l-.09.06h0a.59.59,0,0,0,.14-.18l.08,0a10.69,10.69,0,0,0,1.82.17,4,4,0,0,0,.79-.07,1,1,0,0,0,.42-.16s0-.11,0-.18-.08-.12-.25-.17a3.81,3.81,0,0,0-1.14,0l-1,.09C319.5,30.73,319.18,30.71,319.16,30.62Z"/><path class="cls-15" d="M321.67,26.12c0-.09.33-.22,1-.23a5.68,5.68,0,0,1,2.63.65l.73.37-.72.49a4.37,4.37,0,0,1-2.81.7,4.57,4.57,0,0,1-3.12-1.58l-.67-.8,1-.29a7.6,7.6,0,0,1,5,.29l.28.12a2,2,0,0,1,.36.21,1.61,1.61,0,0,1,.58.73,1,1,0,0,1-.5,1.26,1.72,1.72,0,0,1-.79.14,8.37,8.37,0,0,1-2.08-.23,4,4,0,0,1-1-.37,1.64,1.64,0,0,1-.78-.84,1.25,1.25,0,0,1-.06-.59,1,1,0,0,1,.24-.58,1.1,1.1,0,0,1,.94-.33,2.88,2.88,0,0,1,1.12.36c.54.3.76.59.7.66s-.36,0-.9-.15a3.1,3.1,0,0,0-.93-.09c-.37.07-.24.1-.2.35a1.71,1.71,0,0,0,1.07.46,8.28,8.28,0,0,0,1.79.08l.21,0h0l0,.07,0,.11a.34.34,0,0,0,.06.09h0l0,0h0l0,0,0,0a.56.56,0,0,0-.18,0c-.2.09-.13.06-.17,0l-.09-.08-.12-.06-.23-.1a6.76,6.76,0,0,0-4.08-.24l.35-1.09a3.48,3.48,0,0,0,2.19,1.22,3.57,3.57,0,0,0,2.15-.33v.86C323.07,26.3,321.66,26.35,321.67,26.12Z"/><path class="cls-16" d="M321.83,22.31s0,.06-.11,0,0-.22.05-.29a.32.32,0,0,1,.19-.1c.11,0,.28.1.3.2a.57.57,0,0,1-.13.58,2,2,0,0,1-1.05.55,5.88,5.88,0,0,1-1.42.16,4.82,4.82,0,0,1-.86-.08,1.66,1.66,0,0,1-.57-.2.85.85,0,0,1-.23-.2.74.74,0,0,1-.12-.24.68.68,0,0,1,0-.32.84.84,0,0,1,.39-.52,6.7,6.7,0,0,1,1.93-.73,7,7,0,0,1,2.26-.2,1.67,1.67,0,0,1,.37.08,1.41,1.41,0,0,1,.46.22,1,1,0,0,1,.4.69,1.1,1.1,0,0,1-.12.65,2.79,2.79,0,0,1-1,1.09,4.71,4.71,0,0,1-3.21.36,8.47,8.47,0,0,1-2.54-.95l-1.07-.61L316.8,22a6,6,0,0,1,2.46-.43c.7,0,1.3,0,1.78.09,1,.09,1.52.12,1.54.25s-.54.34-1.53.46l-1.74.2a5.82,5.82,0,0,0-2,.52V22a8.28,8.28,0,0,0,2.2.69,3.64,3.64,0,0,0,2.26-.23,1.53,1.53,0,0,0,.5-.49h0l.16,0c.17,0,.12,0,.18,0l.07,0-.05,0,0,0v0l-.06.06a.76.76,0,0,0-.1.14s0,0,0,0h0l-.15,0a6.48,6.48,0,0,0-1.81.1,6.89,6.89,0,0,0-1.57.44s0,0,0,0a.77.77,0,0,0-.13-.15.48.48,0,0,0-.18-.14c-.07,0,.11,0,.25-.28,0-.08,0,0,0,0h0l.05,0,.14.05a4.41,4.41,0,0,0,.67.14,4.08,4.08,0,0,0,2-.11c.08-.05.1-.07.12-.07s.09-.08.09,0,0,0,0,0h-.1S321.84,22.29,321.83,22.31Z"/><path class="cls-17" d="M271.27,39c0-.11.28-.21.72-.47A3.75,3.75,0,0,0,273.4,37a3.61,3.61,0,0,0,.4-1.3,3.56,3.56,0,0,0,0-.75,6.15,6.15,0,0,0-.14-.84,1.85,1.85,0,0,0-.27-.65l-.08-.08-.16-.13a3.29,3.29,0,0,0-.35-.22,3.58,3.58,0,0,0-1.74-.39,3.48,3.48,0,0,0-1.68.43,1.53,1.53,0,0,0-.54,1.25c0,.28,0,.58,0,.89l0,.87a3.17,3.17,0,0,0,.27,1.31,2.27,2.27,0,0,0,1.4,1.27c.47.15.79.17.8.27s-.27.26-.88.27a2.65,2.65,0,0,1-2.19-1.33,3.92,3.92,0,0,1-.57-1.73c0-.35,0-.6,0-.9s0-.63,0-1a3.67,3.67,0,0,1,.2-1.17,2.34,2.34,0,0,1,.84-1.13,4.53,4.53,0,0,1,2.44-.71,4.75,4.75,0,0,1,2.43.59,4.44,4.44,0,0,1,.52.35l.23.2a1.84,1.84,0,0,1,.26.3,3,3,0,0,1,.45,1.17,6.72,6.72,0,0,1,.1,1,4.46,4.46,0,0,1-.08,1,4.28,4.28,0,0,1-.71,1.65A3.6,3.6,0,0,1,272.18,39C271.6,39.15,271.27,39.06,271.27,39Z"/><path class="cls-18" d="M249.16,27.24c0-.17,1.16-.58,3.17-.56a18.86,18.86,0,0,1,7.52,1.84,33.58,33.58,0,0,1,6.51,4.06c1.53,1.21,2.4,2.05,2.29,2.21s-1.19-.4-2.85-1.39a71.06,71.06,0,0,0-6.53-3.6,25.31,25.31,0,0,0-7-2.13C250.39,27.39,249.19,27.45,249.16,27.24Z"/><path class="cls-19" d="M240.49,22.67c.1,0,.21.26.52.57a1.77,1.77,0,0,0,1.63.48,6.85,6.85,0,0,0,2.72-1c.88-.58,1.88-1.57,1.84-2.48a.94.94,0,0,0-.58-.91,3.17,3.17,0,0,0-1.48.21,11.13,11.13,0,0,0-2.75,1.26A6.91,6.91,0,0,0,240.83,22c-.24.36-.24.66-.35.67s-.3-.28-.16-.88a2.28,2.28,0,0,1,.55-.9,8.31,8.31,0,0,1,.92-.91,9.69,9.69,0,0,1,2.93-1.69,8.33,8.33,0,0,1,1-.3A2.77,2.77,0,0,1,247,18a2.06,2.06,0,0,1,1.2.84,2.54,2.54,0,0,1,.44,1.33,3.37,3.37,0,0,1-.93,2.32A6.63,6.63,0,0,1,246,23.77a6.87,6.87,0,0,1-3.32.94,2.42,2.42,0,0,1-1.42-.36,2,2,0,0,1-.74-.8C240.3,23,240.4,22.67,240.49,22.67Z"/><path class="cls-20" d="M231.73,26.68c0-.2.54-.47,1.42-.93s2.08-1.13,3.48-1.84c2.79-1.4,5.2-2.25,5.37-1.91s-2,1.76-4.74,3.16a18.2,18.2,0,0,1-3.77,1.52C232.45,26.94,231.76,26.87,231.73,26.68Z"/><path class="cls-21" d="M265.86,20.69c0,.06-.5.17-1.24-.34a2,2,0,0,1-.73-1.45,3.24,3.24,0,0,1,.08-1,2.09,2.09,0,0,1,.6-1.08,2.59,2.59,0,0,1,2.66-.54,2.22,2.22,0,0,1,.69.41,4.21,4.21,0,0,1,.54.51,2.23,2.23,0,0,1,.63,1.67,2.4,2.4,0,0,1-.94,1.62,4.32,4.32,0,0,1-1.54.8,2.9,2.9,0,0,1-.48.1h-.32c-.11,0,0,0,.08,0l.07,0h0a6,6,0,0,0-.54.32c-.43.27-.87.56-1.33.84a28.17,28.17,0,0,1-10.26,3.8c-2.75.43-4.43.62-4.48.45s1.6-.74,4.27-1.42a34.64,34.64,0,0,0,9.75-4l1.31-.82a5.45,5.45,0,0,1,.79-.44l.07,0,.16,0h.25c0-.1,0,.13,0,.1l0-.1H266a1.6,1.6,0,0,0,.25,0c.76-.19,1.54-.79,1.55-1.22a1,1,0,0,0-.29-.75,3.14,3.14,0,0,0-.37-.39,1.08,1.08,0,0,0-.35-.24,1.58,1.58,0,0,0-1.57.2,1.16,1.16,0,0,0-.41.59,2.65,2.65,0,0,0-.15.73A1.49,1.49,0,0,0,265,20C265.44,20.45,265.91,20.58,265.86,20.69Z"/><path class="cls-22" d="M218.21,23.46c0,.07-.41.08-1-.33a1.82,1.82,0,0,1-.69-1.12,2.91,2.91,0,0,1,.23-1.7,2,2,0,0,1,.29-.48,2.75,2.75,0,0,1,.4-.38,4.09,4.09,0,0,1,.93-.53,5,5,0,0,1,2.3-.41,2.69,2.69,0,0,1,.72.17,1.84,1.84,0,0,1,.38.22,1.48,1.48,0,0,1,.3.3,2.74,2.74,0,0,1,.68,1.35,2.2,2.2,0,0,1,0,.87,2.64,2.64,0,0,1-.36.76,3.69,3.69,0,0,1-1.1,1,6.24,6.24,0,0,1-2.59.94,2.12,2.12,0,0,1-.43,0l-.24,0c.07,0,.22,0,.16,0a3.39,3.39,0,0,0-.42.15l-1,.42A25.68,25.68,0,0,1,213,25.89c-2.18.51-3.57.51-3.6.34s1.28-.56,3.32-1.29c1-.36,2.21-.83,3.52-1.43l1-.47a3.85,3.85,0,0,1,.66-.24,1.07,1.07,0,0,1,.45,0h0c0-.05-.14.5-.07.26v0l0-.08,0-.16h.16a5.28,5.28,0,0,0,2-.76c.61-.39,1-.89.89-1.28a1.47,1.47,0,0,0-.35-.7.38.38,0,0,0-.09-.11s-.07,0-.1-.06a1.44,1.44,0,0,0-.35-.1,3.45,3.45,0,0,0-2.89,1,1.72,1.72,0,0,0,0,2C217.94,23.17,218.26,23.36,218.21,23.46Z"/><path class="cls-23" d="M239.73,29c.06.1-.24.31-.54.77a1.73,1.73,0,0,0,.24,2,1.9,1.9,0,0,0,1.24.55,4.61,4.61,0,0,0,1.8,0A1,1,0,0,0,243,32l.22-.38c0-.12.11-.25.09-.35.08-.36-.35-.8-1-1.11a6,6,0,0,0-2.1-.51H240s0,0-.06,0a1.25,1.25,0,0,1-.28,0,1.74,1.74,0,0,1-.47-.08l-.31-.09-1.07-.38c-1.36-.48-2.6-.85-3.66-1.12-2.11-.55-3.47-.78-3.45-1s1.41-.29,3.64,0a25.89,25.89,0,0,1,3.86.87l1.07.33.25.07.1,0h0s0,.12,0,.12l0,.08a.53.53,0,0,0,0,.31l0,0c-.09-.23.21.54-.2-.51h0l.07,0,.26-.06.39,0a6.88,6.88,0,0,1,2.67.61,3.71,3.71,0,0,1,1.24.88,2,2,0,0,1,.56,1.63,2.58,2.58,0,0,1-.22.79c-.12.22-.25.41-.38.61a2.24,2.24,0,0,1-1.36.76,5.45,5.45,0,0,1-2.33-.08,4.12,4.12,0,0,1-1-.38,2.54,2.54,0,0,1-.46-.32,1.88,1.88,0,0,1-.36-.46,2.93,2.93,0,0,1-.4-1.68,1.83,1.83,0,0,1,.58-1.19C239.31,29,239.7,28.94,239.73,29Z"/><path class="cls-24" d="M219.31,28.66c.06.1-.28.32-.59.83a1.44,1.44,0,0,0-.17,1,2.38,2.38,0,0,0,.6,1.17,5.5,5.5,0,0,0,3.45,1.21,1.43,1.43,0,0,0,.77-.27l.13-.13.12-.19a.87.87,0,0,0,.16-.36c.12-.4-.31-1-1-1.42a8.63,8.63,0,0,0-2.25-1c-.19,0-.38-.1-.56-.13a1.71,1.71,0,0,0-.25,0h-.14s0,0,0,0l-.14,0a1,1,0,0,1-.26,0l-.12,0a3,3,0,0,1-.38-.1L218,29c-1.49-.55-2.83-1-4-1.27-2.3-.61-3.78-.85-3.76-1.06s1.53-.29,4,.09a28.44,28.44,0,0,1,4.18,1c.35.11.87.27.85.2a1.72,1.72,0,0,1,.49,0,2.78,2.78,0,0,1,.38,0c.25,0,.47.09.7.14a9.32,9.32,0,0,1,2.67,1.14,4.28,4.28,0,0,1,1.19,1.09,2.2,2.2,0,0,1,.41,1.79,2.16,2.16,0,0,1-.36.81l-.24.34-.33.31a2.69,2.69,0,0,1-1.52.51,6.17,6.17,0,0,1-4.25-1.83,3,3,0,0,1-.65-1.78,1.92,1.92,0,0,1,.51-1.34C218.85,28.62,219.28,28.6,219.31,28.66Z"/><path class="cls-25" d="M57,26.9a11.9,11.9,0,0,1-2.86-.7c-1.81-.52-4.41-1.41-7.63-2.3A26.6,26.6,0,0,0,35,22.9a47.91,47.91,0,0,0-6.71,1.57c-1.14.35-2.3.75-3.43,1.21a17.83,17.83,0,0,0-1.65.76,5.79,5.79,0,0,0-.72.45,1.54,1.54,0,0,0-.24.21s0,.05,0,0v0a.21.21,0,0,0,0-.07s0-.11,0-.12a.08.08,0,0,0,0-.06h0s0,0,.08.07a2,2,0,0,0,.29.21,6.81,6.81,0,0,0,.77.39c.55.24,1.12.46,1.7.65,1.16.39,2.34.72,3.5,1,2.33.59,4.61,1.06,6.79,1.42a34.2,34.2,0,0,0,11.6.09,25,25,0,0,0,7.45-2.39c1.65-.86,2.45-1.53,2.53-1.44a7.09,7.09,0,0,1-2.26,1.91,22.5,22.5,0,0,1-7.54,2.89,33.35,33.35,0,0,1-12,.21c-2.23-.33-4.54-.78-6.92-1.36-1.19-.3-2.39-.63-3.61-1-.61-.2-1.22-.43-1.83-.7a8.07,8.07,0,0,1-.93-.48,3.32,3.32,0,0,1-.49-.35,1.53,1.53,0,0,1-.26-.27,1.44,1.44,0,0,1-.13-.18,1.94,1.94,0,0,1-.11-.28,1.07,1.07,0,0,1,.05-.67,1.37,1.37,0,0,1,.24-.38,2.81,2.81,0,0,1,.47-.43,7.07,7.07,0,0,1,.9-.56,18.78,18.78,0,0,1,1.79-.82c1.19-.48,2.38-.88,3.56-1.23a46.61,46.61,0,0,1,6.92-1.54,22.11,22.11,0,0,1,6.48,0A36.4,36.4,0,0,1,46.74,23C50,24,52.51,25,54.27,25.69A11.94,11.94,0,0,1,57,26.9Z"/><path class="cls-26" d="M30.5,30.59c0,.08-.54.51-1.69,1s-2.88,1.2-4.9,2.1a5.85,5.85,0,0,0-1.35.79s0,0,0,0,0,0,0,0a.43.43,0,0,0,0-.13.64.64,0,0,0,0-.15c-.09-.11,0,0,.12,0a7.43,7.43,0,0,0,.87.18c1.29.2,2.7.37,4.17.56s3,.38,4.65.61,3.24.43,4.93.5a22.51,22.51,0,0,0,4.86-.27,22.33,22.33,0,0,0,4.35-1.27,35.8,35.8,0,0,0,6.81-3.75c1.85-1.26,3.29-2.38,4.3-3.12s1.61-1.14,1.67-1.06-.41.6-1.32,1.48a48.15,48.15,0,0,1-4.08,3.51A32.31,32.31,0,0,1,47,35.76a22.35,22.35,0,0,1-4.6,1.43,22.72,22.72,0,0,1-5.16.31A46.72,46.72,0,0,1,32.13,37l-4.62-.69c-1.48-.22-2.88-.43-4.21-.69a7.8,7.8,0,0,1-1-.26,1.27,1.27,0,0,1-.68-.48.77.77,0,0,1-.06-.71.74.74,0,0,1,.13-.22.86.86,0,0,1,.13-.15,6.06,6.06,0,0,1,1.73-.93c2.15-.82,3.89-1.31,5.09-1.7A8.07,8.07,0,0,1,30.5,30.59Z"/><path class="cls-27" d="M60.58,27.21c-.1.18-2.51-1.06-6.38-3-1.94-1-4.25-2.17-6.86-3.33a41.23,41.23,0,0,0-4.13-1.63,26.29,26.29,0,0,0-4.63-.89A57.27,57.27,0,0,0,29.33,18a21.86,21.86,0,0,0-3.93.51,3.62,3.62,0,0,0-.75.27.42.42,0,0,0-.11.07l0,0s0,0,0-.09,0-.06,0,0A5.85,5.85,0,0,0,25.43,20a7.26,7.26,0,0,0,2.32,1.48,19.76,19.76,0,0,0,2.06.71c1.16.34,1.82.55,1.79.65a4.81,4.81,0,0,1-1.92-.12,14.17,14.17,0,0,1-2.21-.51,7.63,7.63,0,0,1-2.72-1.49,6.65,6.65,0,0,1-1.19-1.42,1.27,1.27,0,0,1-.15-.46,1,1,0,0,1,.13-.51,1,1,0,0,1,.26-.31,1.37,1.37,0,0,1,.26-.19,4.52,4.52,0,0,1,1-.43,21.22,21.22,0,0,1,4.16-.68,51,51,0,0,1,9.5.16,25.94,25.94,0,0,1,4.89,1,38.05,38.05,0,0,1,4.25,1.77c2.63,1.25,4.9,2.54,6.79,3.63C58.44,25.52,60.67,27.06,60.58,27.21Z"/><path class="cls-28" d="M50.41,23.21c-.15.23-2.3-.88-5.19-1.64S39.93,20.32,40,20s2.53-.25,5.52.58S50.58,23,50.41,23.21Z"/><path class="cls-29" d="M46.71,25.49c-.07.39-3,.22-6.48-.1s-6.4-.68-6.39-1.07,2.93-.65,6.52-.32S46.78,25.11,46.71,25.49Z"/><path class="cls-30" d="M54.67,27.21c0,.39-3.87,1.11-8.75,1.41s-8.87.16-8.85-.36c0-.26,3.9-.72,8.76-1S54.62,26.84,54.67,27.21Z"/><path class="cls-31" d="M50.07,31.72c.18.32-2.57,2-6.43,2.83s-7.06.29-7-.07,3.09-.54,6.74-1.3S49.9,31.36,50.07,31.72Z"/><path class="cls-32" d="M13.43,21.28c.05-.4,3.31-.23,7.28-.08s7.23.24,7.25.63-3.24.92-7.31.76S13.37,21.65,13.43,21.28Z"/><path class="cls-33" d="M11.63,25.72c-.06-.36,2.87-1.23,6.65-1.41s6.75.19,6.75.56-3,.69-6.69.84S11.7,26.12,11.63,25.72Z"/><path class="cls-34" d="M13.76,30.07c0-.37,3.57-.82,8-.8s8.06.7,8,1.09-3.61.32-8,.31S13.77,30.47,13.76,30.07Z"/><ellipse class="cls-35" cx="21.62" cy="31.65" rx="8.48" ry="0.7" transform="translate(-3 2.27) rotate(-5.63)"/><path class="cls-36" d="M13.64,33.24c0,.06-.12.16-.39.26l-.48.18-.28.12c-.08,0-.17.13-.12.09l-.24-.5A5.53,5.53,0,0,0,13.87,33a4,4,0,0,0,1-.47l.09-.07,0,0a.08.08,0,0,0,0,.05s0,.12.11.13a5.29,5.29,0,0,0-2.6.63.89.89,0,0,0-.32.31.15.15,0,0,0,0,.12s0,0,.16,0a2,2,0,0,0,.63-.17,3.64,3.64,0,0,0,1.54-1.19l.44,1a3.34,3.34,0,0,0-2,.14,3.23,3.23,0,0,0-.8.45c-.08.08,0,0,0-.06s-.08-.09,0,0a1,1,0,0,0,.31.11l.18,0h.23a2,2,0,0,0,.72-.05c.33-.07.45-.48.37-.56l.31.12c-1.28,0-2,.38-2.1.23s.56-.74,2-1l.15,0,.16.15A1.09,1.09,0,0,1,14.67,34a1.42,1.42,0,0,1-.29.52,1.49,1.49,0,0,1-.51.37,2.83,2.83,0,0,1-1.1.22h-.26l-.32,0a2.12,2.12,0,0,1-.67-.18,1.13,1.13,0,0,1-.66-.82,1,1,0,0,1,.09-.62,1.38,1.38,0,0,1,.29-.4,4.17,4.17,0,0,1,1.14-.74A4.52,4.52,0,0,1,15.21,32l.95.21-.51.8a4.74,4.74,0,0,1-2.18,1.78,3.31,3.31,0,0,1-1.08.28,1.77,1.77,0,0,1-.7-.08,1.32,1.32,0,0,1-.69-.52,1.52,1.52,0,0,1-.1-1.5,2.17,2.17,0,0,1,.84-.86,5.09,5.09,0,0,1,1.73-.6,6.77,6.77,0,0,1,1.64-.09,1.06,1.06,0,0,1,.72.35,1.07,1.07,0,0,1,.26.7,1.06,1.06,0,0,1-.25.68,1.07,1.07,0,0,1-.22.19l-.17.12a4.57,4.57,0,0,1-1.29.49,5,5,0,0,1-2.14.1L11.48,34l.3-.39a.82.82,0,0,1,.51-.33,2.39,2.39,0,0,1,.37-.07,4.28,4.28,0,0,1,.54,0C13.48,33.16,13.62,33.18,13.64,33.24Z"/><path class="cls-37" d="M14.84,30c0,.1-.34.11-.88.06L13,30a3.81,3.81,0,0,0-1.14,0c-.17.05-.24.12-.25.18s0,.19,0,.18a1,1,0,0,0,.42.16,4,4,0,0,0,.8.07,10.67,10.67,0,0,0,1.82-.17c.1,0,.09-.06,0,0s0,.28,0,.26a1,1,0,0,0-.47-.22c-.74-.1-1.44-.4-1.91-.46a.87.87,0,0,0-.22,0s.1-.07.09-.09,0,0,0,0,0-.06,0-.07-.08-.06,0,0a3.12,3.12,0,0,0,1.35.13,6,6,0,0,0,1.34-.24l.1,1c-1-.24-1.9-.25-2.52-.45s-.91-.44-.88-.52.38,0,1,0a19.53,19.53,0,0,1,2.64,0l1.82.21-1.72.77a6.08,6.08,0,0,1-1.6.46,3.87,3.87,0,0,1-2-.13,1.28,1.28,0,0,1-.66-.63,1.29,1.29,0,0,1,0-1,1.18,1.18,0,0,1,.79-.68,2,2,0,0,1,.74,0c.82.11,1.38.38,2,.45a2.12,2.12,0,0,1,1.38.84,1.15,1.15,0,0,1,.19.62,1.14,1.14,0,0,1-.19.65,1.36,1.36,0,0,1-.86.55,10,10,0,0,1-2.17.12,4.87,4.87,0,0,1-1.05-.16,1.82,1.82,0,0,1-1.07-.7,1.3,1.3,0,0,1,0-1.37,1.37,1.37,0,0,1,1-.6,3.9,3.9,0,0,1,1.46.16,8.1,8.1,0,0,1,1,.33C14.6,29.74,14.86,29.9,14.84,30Z"/><path class="cls-38" d="M12.33,25.49c0,.23-1.4.18-3.09,1.28v-.86a3.57,3.57,0,0,0,2.15.33A3.48,3.48,0,0,0,13.58,25l.35,1.09a6.76,6.76,0,0,0-4.08.24l-.23.1-.12.06c-.08,0-.13.13-.11.09a.34.34,0,0,0,0-.22.29.29,0,0,0-.14-.15,1.58,1.58,0,0,0,.23,0,8.28,8.28,0,0,0,1.79-.08,1.71,1.71,0,0,0,1.07-.46c0-.25.16-.27-.2-.35a3.1,3.1,0,0,0-.93.09c-.54.12-.84.24-.9.15s.16-.36.7-.66a2.87,2.87,0,0,1,1.12-.36,1.1,1.1,0,0,1,.94.33,1,1,0,0,1,.24.58,1.25,1.25,0,0,1-.06.59,1.64,1.64,0,0,1-.78.84,4,4,0,0,1-1,.37,8.37,8.37,0,0,1-2.08.23,1.71,1.71,0,0,1-.79-.14,1,1,0,0,1-.5-1.26,1.61,1.61,0,0,1,.58-.73,2,2,0,0,1,.36-.21l.28-.12a7.6,7.6,0,0,1,5-.29l1,.29-.67.8a4.58,4.58,0,0,1-3.12,1.58,4.37,4.37,0,0,1-2.81-.7L8,26.28l.73-.37a5.68,5.68,0,0,1,2.63-.65C12,25.27,12.33,25.4,12.33,25.49Z"/><path class="cls-39" d="M12.17,21.68s0-.06,0-.07,0,0-.09,0,0,0,0,0,.1,0,.09,0,0,0,.12.07a4.08,4.08,0,0,0,2,.11,4.4,4.4,0,0,0,.67-.14.6.6,0,0,0,.2-.09.2.2,0,0,0-.07.06.38.38,0,0,0-.07.15A.48.48,0,0,0,15,22c.08.25.14.2.1.21a6.9,6.9,0,0,0-1.57-.44,6.48,6.48,0,0,0-1.81-.1l-.15,0c-.06,0,0,0,0,0s.07,0,.08-.09,0-.09.05-.15,0-.12,0-.13a1.53,1.53,0,0,0,.5.49,3.64,3.64,0,0,0,2.26.23,8.29,8.29,0,0,0,2.2-.69v1.08a5.82,5.82,0,0,0-2-.52l-1.74-.2c-1-.12-1.55-.34-1.53-.46S12,21.11,13,21c.49,0,1.08-.09,1.78-.09a6,6,0,0,1,2.46.43l1.08.47-1.07.61a8.47,8.47,0,0,1-2.54.95A4.71,4.71,0,0,1,11.46,23a2.79,2.79,0,0,1-1-1.09,1.1,1.1,0,0,1-.12-.65,1,1,0,0,1,.4-.69,1.4,1.4,0,0,1,.46-.22,1.67,1.67,0,0,1,.37-.08,7,7,0,0,1,2.26.2,6.7,6.7,0,0,1,1.93.73.84.84,0,0,1,.39.52.68.68,0,0,1,0,.32.74.74,0,0,1-.12.24.85.85,0,0,1-.23.2,1.66,1.66,0,0,1-.57.2,4.82,4.82,0,0,1-.86.08,5.88,5.88,0,0,1-1.42-.16,2,2,0,0,1-1.05-.55.57.57,0,0,1-.13-.59c0-.09.2-.23.3-.2a.32.32,0,0,1,.19.1c.07.07.13.2.05.29S12.18,21.7,12.17,21.68Z"/><path class="cls-40" d="M65.39,37.15c0,.08-.33.17-.91,0a3.6,3.6,0,0,1-2.05-1.44,4.28,4.28,0,0,1-.71-1.65,4.47,4.47,0,0,1-.08-1,6.71,6.71,0,0,1,.1-1,3,3,0,0,1,.45-1.17,1.84,1.84,0,0,1,.26-.3l.23-.2a4.44,4.44,0,0,1,.52-.35,4.75,4.75,0,0,1,2.43-.59,4.53,4.53,0,0,1,2.44.71,2.34,2.34,0,0,1,.84,1.13,3.68,3.68,0,0,1,.2,1.17c0,.36,0,.69,0,1s0,.55,0,.9a3.92,3.92,0,0,1-.57,1.73,2.65,2.65,0,0,1-2.19,1.33c-.61,0-.89-.18-.88-.27s.33-.12.8-.27a2.27,2.27,0,0,0,1.4-1.27,3.17,3.17,0,0,0,.27-1.31l0-.87c0-.31,0-.6,0-.89a1.53,1.53,0,0,0-.54-1.25,3.48,3.48,0,0,0-1.68-.43,3.58,3.58,0,0,0-1.74.39,3.29,3.29,0,0,0-.35.22l-.16.13-.08.08a1.85,1.85,0,0,0-.27.65,6.16,6.16,0,0,0-.14.84,3.57,3.57,0,0,0,0,.75,3.61,3.61,0,0,0,.4,1.3,3.75,3.75,0,0,0,1.42,1.46C65.11,36.94,65.4,37,65.39,37.15Z"/><path class="cls-41" d="M87.49,25.41c0,.21-1.23.16-3.09.42a25.31,25.31,0,0,0-7,2.13,71.05,71.05,0,0,0-6.53,3.6c-1.66,1-2.73,1.55-2.85,1.39s.76-1,2.29-2.21a33.59,33.59,0,0,1,6.51-4.06,18.86,18.86,0,0,1,7.52-1.84C86.33,24.83,87.52,25.24,87.49,25.41Z"/><path class="cls-42" d="M94.32,20.72c.08,0,.18.34-.07.88a2,2,0,0,1-.74.8,2.42,2.42,0,0,1-1.42.36,6.87,6.87,0,0,1-3.32-.94,6.62,6.62,0,0,1-1.63-1.32,3.37,3.37,0,0,1-.93-2.32,2.54,2.54,0,0,1,.44-1.33,2.06,2.06,0,0,1,1.2-.84,2.77,2.77,0,0,1,1.26,0,8.35,8.35,0,0,1,1,.3A9.69,9.69,0,0,1,93,18a8.3,8.3,0,0,1,.92.91,2.28,2.28,0,0,1,.55.9c.15.61-.08.91-.16.88S94.22,20.4,94,20a6.92,6.92,0,0,0-1.56-1.22,11.13,11.13,0,0,0-2.75-1.26,3.17,3.17,0,0,0-1.48-.21.94.94,0,0,0-.58.91c0,.91,1,1.9,1.84,2.48a6.85,6.85,0,0,0,2.72,1,1.77,1.77,0,0,0,1.63-.48C94.11,21,94.22,20.7,94.32,20.72Z"/><path class="cls-43" d="M103.08,24.73c0,.18-.72.25-1.76,0a18.19,18.19,0,0,1-3.77-1.52c-2.79-1.4-4.92-2.81-4.74-3.16s2.58.51,5.37,1.91c1.4.71,2.6,1.39,3.48,1.84S103.12,24.54,103.08,24.73Z"/><path class="cls-44" d="M69.84,19.37c0-.11.42-.24.87-.74A1.49,1.49,0,0,0,71,17.55a2.66,2.66,0,0,0-.15-.73,1.16,1.16,0,0,0-.41-.59A1.58,1.58,0,0,0,68.9,16a1.08,1.08,0,0,0-.35.24,3.14,3.14,0,0,0-.37.39,1,1,0,0,0-.29.75c0,.43.79,1,1.55,1.22a1.59,1.59,0,0,0,.25,0h.05a2,2,0,0,1,.27,0l.16,0,.07,0a5.45,5.45,0,0,1,.79.44l1.31.82a34.64,34.64,0,0,0,9.75,4c2.67.67,4.32,1.22,4.27,1.42s-1.73,0-4.48-.45a28.17,28.17,0,0,1-10.26-3.8c-.46-.28-.91-.57-1.33-.84a6,6,0,0,0-.54-.32s0,0,0-.06.08-.13.1-.22a.53.53,0,0,0,0-.2v-.08c-.07-.52.09.68.07.56h-.36a2.9,2.9,0,0,1-.48-.1,4.32,4.32,0,0,1-1.54-.8,2.4,2.4,0,0,1-.94-1.62,2.23,2.23,0,0,1,.63-1.67,4.21,4.21,0,0,1,.54-.51,2.22,2.22,0,0,1,.69-.41,2.59,2.59,0,0,1,2.66.54,2.09,2.09,0,0,1,.6,1.08,3.24,3.24,0,0,1,.08,1A2,2,0,0,1,71.08,19C70.34,19.53,69.85,19.42,69.84,19.37Z"/><path class="cls-45" d="M116.6,22.13c-.05-.1.27-.29.6-.71a1.72,1.72,0,0,0,0-2,3.45,3.45,0,0,0-2.89-1,1.45,1.45,0,0,0-.35.1s-.09,0-.1.06a.38.38,0,0,0-.09.11,1.47,1.47,0,0,0-.35.7c-.11.39.28.89.89,1.28a5.28,5.28,0,0,0,2,.76h.16s0,0,.05,0a1.07,1.07,0,0,1,.45,0,3.85,3.85,0,0,1,.66.24l1,.47c1.3.6,2.49,1.07,3.52,1.43,2,.73,3.36,1.08,3.32,1.29s-1.42.17-3.6-.34a25.68,25.68,0,0,1-3.74-1.19L117,23a3.39,3.39,0,0,0-.42-.15h0a.63.63,0,0,1,.05-.21.53.53,0,0,0,0-.31v0c0-.13.3,1,.15.54h-.11l-.14,0a2.1,2.1,0,0,1-.43,0,6.24,6.24,0,0,1-2.59-.94,3.69,3.69,0,0,1-1.1-1,2.64,2.64,0,0,1-.36-.76,2.2,2.2,0,0,1,0-.87,2.74,2.74,0,0,1,.68-1.35,1.48,1.48,0,0,1,.3-.3,1.84,1.84,0,0,1,.38-.22,2.69,2.69,0,0,1,.72-.17,5,5,0,0,1,2.3.41,4.09,4.09,0,0,1,.93.53,2.74,2.74,0,0,1,.4.38A2,2,0,0,1,118,19a2.91,2.91,0,0,1,.23,1.7,1.82,1.82,0,0,1-.69,1.12C117,22.22,116.63,22.2,116.6,22.13Z"/><path class="cls-46" d="M95.08,26.75c0-.06.42,0,1,.42a1.83,1.83,0,0,1,.58,1.19,2.93,2.93,0,0,1-.4,1.68,1.88,1.88,0,0,1-.36.46,2.55,2.55,0,0,1-.46.32,4.12,4.12,0,0,1-1,.38,5.45,5.45,0,0,1-2.33.08,2.24,2.24,0,0,1-1.36-.76c-.13-.2-.26-.39-.38-.61a2.59,2.59,0,0,1-.22-.79,2,2,0,0,1,.56-1.63,3.71,3.71,0,0,1,1.24-.88A6.88,6.88,0,0,1,94.57,26L95,26l.26.06s.13,0,.09,0a.28.28,0,0,0-.13,0c-.05,0,0,0,.1,0l.25-.07,1.07-.33a25.89,25.89,0,0,1,3.86-.87c2.24-.31,3.63-.2,3.64,0s-1.34.44-3.45,1c-1.06.27-2.3.64-3.66,1.12l-1.07.38-.31.09a1.74,1.74,0,0,1-.47.08,1.25,1.25,0,0,1-.28,0h0c0-.11-.11.23.08-.24v0l0,.09-.05.13h-.23a6,6,0,0,0-2.1.51c-.68.31-1.1.75-1,1.11,0,.1.07.23.09.35l.22.38a1,1,0,0,0,.57.3,4.61,4.61,0,0,0,1.8,0,1.9,1.9,0,0,0,1.24-.55,1.73,1.73,0,0,0,.24-2C95.33,27.06,95,26.84,95.08,26.75Z"/><path class="cls-47" d="M115.5,26.89c0-.06.45,0,1,.5a1.92,1.92,0,0,1,.51,1.34,3,3,0,0,1-.65,1.78,6.17,6.17,0,0,1-4.25,1.83,2.69,2.69,0,0,1-1.52-.51l-.33-.31-.24-.34a2.16,2.16,0,0,1-.36-.81,2.2,2.2,0,0,1,.41-1.79,4.28,4.28,0,0,1,1.19-1.09A9.32,9.32,0,0,1,114,26.37c.23,0,.45-.11.7-.14a2.78,2.78,0,0,1,.38,0,1.72,1.72,0,0,1,.49,0c0,.07.5-.09.85-.2a28.45,28.45,0,0,1,4.18-1c2.43-.37,4-.26,4-.09s-1.46.45-3.76,1.06c-1.15.31-2.49.72-4,1.27l-.59.2a3,3,0,0,1-.38.1l-.12,0a1,1,0,0,1-.26,0l-.14,0h0c0,.07.25-.66.12-.34l0,0,0,.09a1.58,1.58,0,0,0-.06.18c0,.07,0,0,0,0h-.14a1.74,1.74,0,0,0-.25,0c-.18,0-.37.08-.56.13a8.62,8.62,0,0,0-2.25,1c-.71.44-1.14,1-1,1.42a.87.87,0,0,0,.16.36l.12.19.13.13a1.43,1.43,0,0,0,.77.27,5.5,5.5,0,0,0,3.45-1.21,2.38,2.38,0,0,0,.6-1.17,1.44,1.44,0,0,0-.17-1C115.78,27.21,115.44,27,115.5,26.89Z"/></g></svg>