<svg xmlns="http://www.w3.org/2000/svg" xmlns:xlink="http://www.w3.org/1999/xlink" viewBox="0 0 339 65"><defs><style>.cls-1{fill:url(#linear-gradient);}.cls-2{fill:url(#linear-gradient-2);}.cls-3{fill:url(#linear-gradient-3);}.cls-4{fill:url(#linear-gradient-4);}.cls-5{fill:url(#linear-gradient-5);}.cls-6{fill:url(#linear-gradient-6);}.cls-7{fill:url(#linear-gradient-7);}.cls-8{fill:url(#linear-gradient-8);}.cls-9{fill:url(#linear-gradient-9);}.cls-10{fill:url(#linear-gradient-10);}.cls-11{fill:url(#linear-gradient-11);}.cls-12{fill:url(#linear-gradient-12);}.cls-13{fill:url(#linear-gradient-13);}.cls-14{fill:url(#linear-gradient-14);}.cls-15{fill:url(#linear-gradient-15);}.cls-16{fill:url(#linear-gradient-16);}.cls-17{fill:url(#linear-gradient-17);}.cls-18{fill:url(#linear-gradient-18);}.cls-19{fill:url(#linear-gradient-19);}.cls-20{fill:url(#linear-gradient-20);}.cls-21{fill:url(#linear-gradient-21);}.cls-22{fill:url(#linear-gradient-22);}.cls-23{fill:url(#linear-gradient-23);}.cls-24{fill:url(#linear-gradient-24);}.cls-25{fill:url(#linear-gradient-25);}.cls-26{fill:url(#linear-gradient-26);}.cls-27{fill:url(#linear-gradient-27);}.cls-28{fill:url(#linear-gradient-28);}.cls-29{fill:url(#linear-gradient-29);}.cls-30{fill:url(#linear-gradient-30);}.cls-31{fill:url(#linear-gradient-31);}</style><linearGradient id="linear-gradient" x1="231.58" y1="17.18" x2="289.96" y2="17.18" gradientUnits="userSpaceOnUse"><stop offset="0" stop-color="#b48e5d"/><stop offset="0.19" stop-color="#8f6e3f"/><stop offset="0.38" stop-color="#c79d61"/><stop offset="0.54" stop-color="#eebe79"/><stop offset="0.63" stop-color="#fdca82"/><stop offset="0.7" stop-color="#ebbb77"/><stop offset="0.86" stop-color="#be955c"/><stop offset="1" stop-color="#8f6e3f"/></linearGradient><linearGradient id="linear-gradient-2" x1="231.58" y1="18.69" x2="284.98" y2="18.69" xlink:href="#linear-gradient"/><linearGradient id="linear-gradient-3" x1="240.72" y1="19.83" x2="278.48" y2="19.83" xlink:href="#linear-gradient"/><linearGradient id="linear-gradient-4" x1="299.04" y1="48.03" x2="339.02" y2="48.03" xlink:href="#linear-gradient"/><linearGradient id="linear-gradient-5" x1="293.27" y1="46.2" x2="337.89" y2="46.2" xlink:href="#linear-gradient"/><linearGradient id="linear-gradient-6" x1="284.21" y1="45.46" x2="339.02" y2="45.46" xlink:href="#linear-gradient"/><linearGradient id="linear-gradient-7" x1="203.04" y1="51.06" x2="242.75" y2="51.06" xlink:href="#linear-gradient"/><linearGradient id="linear-gradient-8" x1="197.32" y1="49.18" x2="241.63" y2="49.18" xlink:href="#linear-gradient"/><linearGradient id="linear-gradient-9" x1="188.31" y1="48.31" x2="242.75" y2="48.31" xlink:href="#linear-gradient"/><linearGradient id="linear-gradient-10" x1="278.94" y1="47.77" x2="289.41" y2="47.77" xlink:href="#linear-gradient"/><linearGradient id="linear-gradient-11" x1="255.86" y1="38.53" x2="280.57" y2="38.53" xlink:href="#linear-gradient"/><linearGradient id="linear-gradient-12" x1="308.78" y1="19.71" x2="319.27" y2="19.71" xlink:href="#linear-gradient"/><linearGradient id="linear-gradient-13" x1="284.25" y1="27.71" x2="311.18" y2="27.71" xlink:href="#linear-gradient"/><linearGradient id="linear-gradient-14" x1="209.37" y1="23.85" x2="220.18" y2="23.85" xlink:href="#linear-gradient"/><linearGradient id="linear-gradient-15" x1="198.95" y1="30.06" x2="211.82" y2="30.06" xlink:href="#linear-gradient"/><linearGradient id="linear-gradient-16" x1="48.1" y1="36.48" x2="300.52" y2="36.48" xlink:href="#linear-gradient"/><linearGradient id="linear-gradient-17" x1="52.05" y1="14.01" x2="110.42" y2="14.01" xlink:href="#linear-gradient"/><linearGradient id="linear-gradient-18" x1="57.02" y1="15.52" x2="110.42" y2="15.52" xlink:href="#linear-gradient"/><linearGradient id="linear-gradient-19" x1="63.52" y1="16.66" x2="101.28" y2="16.66" xlink:href="#linear-gradient"/><linearGradient id="linear-gradient-20" x1="2.98" y1="44.86" x2="42.96" y2="44.86" xlink:href="#linear-gradient"/><linearGradient id="linear-gradient-21" x1="4.11" y1="43.03" x2="48.73" y2="43.03" xlink:href="#linear-gradient"/><linearGradient id="linear-gradient-22" x1="2.98" y1="42.29" x2="57.79" y2="42.29" xlink:href="#linear-gradient"/><linearGradient id="linear-gradient-23" x1="93.53" y1="42.04" x2="136.03" y2="42.04" xlink:href="#linear-gradient"/><linearGradient id="linear-gradient-24" x1="94.75" y1="40.68" x2="142.24" y2="40.68" xlink:href="#linear-gradient"/><linearGradient id="linear-gradient-25" x1="93.53" y1="41.07" x2="151.79" y2="41.07" xlink:href="#linear-gradient"/><linearGradient id="linear-gradient-26" x1="52.59" y1="44.6" x2="63.06" y2="44.6" xlink:href="#linear-gradient"/><linearGradient id="linear-gradient-27" x1="61.43" y1="35.36" x2="86.14" y2="35.36" xlink:href="#linear-gradient"/><linearGradient id="linear-gradient-28" x1="22.73" y1="16.54" x2="33.22" y2="16.54" xlink:href="#linear-gradient"/><linearGradient id="linear-gradient-29" x1="30.82" y1="24.54" x2="57.75" y2="24.54" xlink:href="#linear-gradient"/><linearGradient id="linear-gradient-30" x1="121.82" y1="20.68" x2="132.64" y2="20.68" xlink:href="#linear-gradient"/><linearGradient id="linear-gradient-31" x1="130.18" y1="26.89" x2="143.05" y2="26.89" xlink:href="#linear-gradient"/></defs><title>hr-2</title><g id="Layer_3" data-name="Layer 3"><path class="cls-1" d="M231.58,31.19s.28-.37.91-1,1.57-1.47,2.8-2.58c2.47-2.19,6.05-5.37,10.8-8.92a75.1,75.1,0,0,1,18.1-10.33,56.57,56.57,0,0,1,12-3.06l6.41-1c1.08-.17,2.16-.35,3.24-.56l1.62-.34.81-.19.4-.1.2,0h.06a.88.88,0,0,1,.33,0,.85.85,0,0,1,.67,1.15.88.88,0,0,1-.45.48l-.18.09-.37.18c-.25.12-.48.25-.72.38-.48.26-.94.54-1.4.83-.92.58-1.8,1.21-2.66,1.87-1.72,1.31-3.33,2.74-4.93,4.13a82.68,82.68,0,0,1-9.78,7.51,72.81,72.81,0,0,1-18.9,8.78,67.64,67.64,0,0,1-13.8,2.6c-1.65.14-2.94.18-3.81.17a4.57,4.57,0,0,1-1.33-.07,4.63,4.63,0,0,1,1.31-.22c.86-.09,2.14-.21,3.77-.44a77.42,77.42,0,0,0,13.55-3,74.92,74.92,0,0,0,18.46-8.92,84,84,0,0,0,9.58-7.46c1.6-1.4,3.22-2.85,5-4.2C284.12,6.24,285,5.58,286,5c.48-.3,1-.6,1.48-.87.25-.14.5-.28.77-.4l.39-.19.19-.1.26.53v0h0s0,0,0,0a.11.11,0,0,0,0,0c.28,1.1.06.31.12.56h0l-.21.05-.42.1-.83.19-1.66.34c-1.1.21-2.2.4-3.29.56l-6.41.94a56.41,56.41,0,0,0-11.73,2.9,77.48,77.48,0,0,0-18,9.9c-4.79,3.41-8.47,6.46-11,8.52A36.07,36.07,0,0,1,231.58,31.19Z"/><path class="cls-2" d="M231.58,31.19c-.1-.17,2.7-2,7.38-4.56s11.24-6,18.6-9.55,14.1-6.58,19-8.67a27.75,27.75,0,0,1,6-2.08,4.49,4.49,0,0,1,2.36,0,20.12,20.12,0,0,1-2.23.58A37.18,37.18,0,0,0,277,9.35l-18.81,9c-7.34,3.54-14,6.79-18.75,9.15S231.68,31.37,231.58,31.19Z"/><path class="cls-3" d="M240.72,27.38c-.1-.43,8.87-2.39,19.08-7,2.56-1.15,4.95-2.34,7.09-3.48s4-2.27,5.7-3.11a14.22,14.22,0,0,1,4.23-1.46c1.06-.15,1.65-.06,1.65,0s-2.28.41-5.38,2.34c-1.56.92-3.4,2.17-5.55,3.38s-4.55,2.47-7.14,3.63a80.17,80.17,0,0,1-13.73,4.75C243.05,27.31,240.76,27.56,240.72,27.38Z"/><path class="cls-4" d="M299,39.09c.28-.39,8.13,5.71,19.23,10.6s20.85,6.76,20.75,7.23c0,.18-2.51-.06-6.44-.93a81.66,81.66,0,0,1-14.9-5A79.6,79.6,0,0,1,304,43.28C300.75,40.93,298.93,39.23,299,39.09Z"/><path class="cls-5" d="M293.27,36.08c0-.18,2.8.18,7.15,1.27a100.48,100.48,0,0,1,31.81,14.46c3.69,2.56,5.77,4.41,5.66,4.55s-2.43-1.37-6.22-3.68a138.18,138.18,0,0,0-31.52-14.33C295.89,37,293.22,36.3,293.27,36.08Z"/><path class="cls-6" d="M339,56.92a3.86,3.86,0,0,1-1.15.42,25.54,25.54,0,0,1-3.43.74,36.36,36.36,0,0,1-12.89-.52,42.68,42.68,0,0,1-17.27-8.25c-2.85-2.26-5.51-5-8.33-7.62a72.36,72.36,0,0,0-9.25-7.54l-.35-.24-2.14-1.45,2.58.11c4.12.18,8.15.47,12,1a78.81,78.81,0,0,1,11,2.32,52.22,52.22,0,0,1,9.54,3.62,33.79,33.79,0,0,1,7.26,5.17c4,3.67,7,6.72,9.19,8.83A28.57,28.57,0,0,1,339,56.92a28.6,28.6,0,0,1-3.61-3l-9.48-8.46a33.67,33.67,0,0,0-7.13-4.86,52.65,52.65,0,0,0-9.36-3.4A80.44,80.44,0,0,0,298.61,35c-3.81-.51-7.79-.8-11.88-1l.44-1.34.36.24a71.7,71.7,0,0,1,9.41,7.71c2.84,2.7,5.44,5.39,8.19,7.61a42.8,42.8,0,0,0,16.65,8.29,38.94,38.94,0,0,0,12.59,1C337.36,57.22,339,56.79,339,56.92Z"/><path class="cls-7" d="M203,41.82c.28-.38,8,5.83,19.07,10.89s20.75,7.08,20.63,7.54c0,.18-2.51-.1-6.42-1A81.66,81.66,0,0,1,221.5,54a79.61,79.61,0,0,1-13.54-8C204.73,43.69,202.93,42,203,41.82Z"/><path class="cls-8" d="M197.32,38.72c0-.18,2.79.22,7.13,1.38A100.48,100.48,0,0,1,236,55c3.65,2.62,5.7,4.5,5.59,4.64s-2.41-1.4-6.17-3.78a138.18,138.18,0,0,0-31.3-14.81C199.93,39.69,197.27,38.94,197.32,38.72Z"/><path class="cls-9" d="M242.75,60.26a3.87,3.87,0,0,1-1.16.4,25.55,25.55,0,0,1-3.44.69,36.36,36.36,0,0,1-12.88-.71,42.69,42.69,0,0,1-17.14-8.51c-2.82-2.3-5.43-5-8.21-7.74a72.35,72.35,0,0,0-9.13-7.68l-.35-.24L188.31,35l2.58.15c4.12.24,8.14.6,12,1.2a78.81,78.81,0,0,1,11,2.49,52.21,52.21,0,0,1,9.49,3.76,33.79,33.79,0,0,1,7.18,5.27c3.91,3.73,6.93,6.83,9.06,9a28.58,28.58,0,0,1,3.17,3.44,28.6,28.6,0,0,1-3.56-3l-9.36-8.61a33.66,33.66,0,0,0-7.05-5,52.66,52.66,0,0,0-9.31-3.54,80.44,80.44,0,0,0-10.8-2.36c-3.8-.57-7.78-.92-11.86-1.15l.46-1.33.35.25a71.69,71.69,0,0,1,9.29,7.85c2.8,2.74,5.36,5.47,8.07,7.73a42.79,42.79,0,0,0,16.53,8.54,38.93,38.93,0,0,0,12.58,1.15C241.09,60.53,242.72,60.12,242.75,60.26Z"/><path class="cls-10" d="M289.41,51c0,.09-.34.35-1,.72a14.59,14.59,0,0,1-3.2,1.3,7.41,7.41,0,0,1-2.5.25,4.6,4.6,0,0,1-1.45-.39,4,4,0,0,1-1.3-1,4.91,4.91,0,0,1-1-3.21,16.48,16.48,0,0,1,.43-3.31,4.68,4.68,0,0,1,.77-1.73,3.1,3.1,0,0,1,1.65-1.11,6.68,6.68,0,0,1,3.28,0,5.49,5.49,0,0,1,4.07,3.5,4.43,4.43,0,0,1-.32,3.59c-.45.75-.92.95-1,.89s.22-.42.45-1.13a4.25,4.25,0,0,0-.14-3,4.53,4.53,0,0,0-3.39-2.54,5.62,5.62,0,0,0-2.57.06,1.66,1.66,0,0,0-.9.61,3.36,3.36,0,0,0-.51,1.2c-.41,2-.75,4.16.19,5.33s2.69,1.19,4,1a27.65,27.65,0,0,0,3.2-.82C288.93,51,289.37,50.88,289.41,51Z"/><path class="cls-11" d="M255.86,31c0-.17,1.72-.37,4.43.2A27,27,0,0,1,270,35.64a49.84,49.84,0,0,1,7.87,7.14c1.81,2,2.82,3.35,2.68,3.48s-1.43-.94-3.42-2.75a86.52,86.52,0,0,0-8-6.67A33.61,33.61,0,0,0,260,32.17C257.51,31.36,255.85,31.19,255.86,31Z"/><path class="cls-12" d="M311.84,24s0,.15-.15.3a1.24,1.24,0,0,1-.92.3,2.13,2.13,0,0,1-1.38-.65,2,2,0,0,1-.51-.89,2.92,2.92,0,0,1-.08-1.09,5.27,5.27,0,0,1,.86-2.17,13.91,13.91,0,0,1,1.56-2A14.39,14.39,0,0,1,313.33,16a13.58,13.58,0,0,1,1.26-.8,4,4,0,0,1,1.68-.54,2.63,2.63,0,0,1,1.85.64,3.3,3.3,0,0,1,1,1.49,4.29,4.29,0,0,1-.32,3.09,9.1,9.1,0,0,1-3.15,3.6,8.18,8.18,0,0,1-2.91,1.25c-.73.14-1.15.1-1.17,0s1.56-.53,3.47-2.09a9,9,0,0,0,2.53-3.3,3,3,0,0,0,.19-2.1,1.5,1.5,0,0,0-1.39-1.12,5.45,5.45,0,0,0-2.2,1,14.79,14.79,0,0,0-2,1.6,8.3,8.3,0,0,0-2.36,3.37,2.09,2.09,0,0,0,0,.73,1.21,1.21,0,0,0,.22.55,1.68,1.68,0,0,0,.85.62C311.43,24.2,311.76,23.9,311.84,24Z"/><path class="cls-13" d="M284.25,32.62c0-.22,1.76-.12,4.52,0a34,34,0,0,0,4.78-.17A15.57,15.57,0,0,0,299,30.8a27.37,27.37,0,0,0,4.69-3.44c1.4-1.19,2.68-2.26,3.76-3.13,2.17-1.75,3.58-2.76,3.72-2.61s-1,1.43-3,3.38c-1,1-2.2,2.12-3.56,3.37a24.25,24.25,0,0,1-4.89,3.72,15.4,15.4,0,0,1-6,1.66,25.67,25.67,0,0,1-5-.14C285.9,33.26,284.23,32.81,284.25,32.62Z"/><path class="cls-14" d="M212.29,27.94s0,.15-.17.29a1.24,1.24,0,0,1-.94.23,2.13,2.13,0,0,1-1.33-.76,2,2,0,0,1-.44-.93,2.92,2.92,0,0,1,0-1.1,5.27,5.27,0,0,1,1-2.1,13.91,13.91,0,0,1,1.71-1.86A14.39,14.39,0,0,1,214.39,20a13.61,13.61,0,0,1,1.32-.7,4,4,0,0,1,1.71-.41,2.63,2.63,0,0,1,1.79.78,3.3,3.3,0,0,1,.87,1.56,4.29,4.29,0,0,1-.55,3.06,9.1,9.1,0,0,1-3.42,3.35,8.18,8.18,0,0,1-3,1c-.74.09-1.16,0-1.17-.08s1.6-.41,3.61-1.82a9,9,0,0,0,2.78-3.1,3,3,0,0,0,.35-2.08,1.5,1.5,0,0,0-1.3-1.22,5.45,5.45,0,0,0-2.27.88A14.79,14.79,0,0,0,213,22.73a8.31,8.31,0,0,0-2.61,3.18,2.09,2.09,0,0,0-.09.73,1.21,1.21,0,0,0,.18.57,1.68,1.68,0,0,0,.8.69C211.87,28.12,212.22,27.84,212.29,27.94Z"/><path class="cls-15" d="M199,34.56c-.18-.41,3-2,6.46-4.44,1.74-1.23,3.18-2.51,4.3-3.41s2-1.34,2.08-1.17-.45.82-1.36,1.92a23.21,23.21,0,0,1-4.17,3.86C202.6,33.91,199.08,34.89,199,34.56Z"/><path class="cls-16" d="M300.52,35.46a2.56,2.56,0,0,1-.71,0l-2-.26c-1.8-.22-4.43-.68-7.85-1.06-6.82-.92-16.73-1.94-29-2.48a327.08,327.08,0,0,0-43.13,1.09c-8.09.73-16.55,1.87-25.26,3.35-2.17.4-4.37.76-6.58,1.2l-6.65,1.37c-2.23.49-4.46,1-6.72,1.55l-1.69.39a2.18,2.18,0,0,0-1.62,3.07,1.84,1.84,0,0,0,2,1.23,1.45,1.45,0,0,0,1.07-.48,1.59,1.59,0,0,0,.39-1.09,1.83,1.83,0,0,0-.51-1.16,8.87,8.87,0,0,0-1.06-1.2A13,13,0,0,0,168.52,39c-3.86-2.16-8.37-2.92-12.64-4-8.61-2-17-3.52-25-4.64-4-.58-8-1-11.79-1.41s-7.56-.66-11.16-.84-7.09-.3-10.45-.43-6.57-.1-9.65,0c-12.29.16-22.22,1.05-29.05,1.81-3.42.35-6.07.72-7.87.94l-2,.23a2.55,2.55,0,0,1-.71,0,2.54,2.54,0,0,1,.68-.18l2-.38c1.79-.31,4.42-.78,7.84-1.22a260.05,260.05,0,0,1,29.1-2.28c3.08-.12,6.32-.06,9.68-.07s6.87.12,10.49.34,7.37.47,11.22.77,7.81.79,11.85,1.35c8.09,1.09,16.53,2.59,25.19,4.58,2.16.53,4.34,1,6.54,1.59a29.24,29.24,0,0,1,6.49,2.53,14.42,14.42,0,0,1,2.92,2.13,10.33,10.33,0,0,1,1.22,1.39,4.91,4.91,0,0,1,.54.86,2.89,2.89,0,0,1,.25,1.12,3.06,3.06,0,0,1-.76,2.11,2.94,2.94,0,0,1-2,1,3.25,3.25,0,0,1-2.14-.46,3.38,3.38,0,0,1-1.39-1.69,3.77,3.77,0,0,1,.77-4,3.81,3.81,0,0,1,1.87-1l1.7-.4c2.27-.52,4.51-1.06,6.75-1.55l6.69-1.37c2.22-.43,4.43-.8,6.61-1.19,8.76-1.47,17.25-2.59,25.38-3.28a313.85,313.85,0,0,1,43.3-.78,287.11,287.11,0,0,1,29,2.95c3.42.47,6,1,7.82,1.34l2,.4A2.54,2.54,0,0,1,300.52,35.46Z"/><path class="cls-17" d="M110.42,28a36,36,0,0,1-4.08-3.12c-2.58-2.06-6.26-5.1-11-8.52a77.47,77.47,0,0,0-18-9.9,56.41,56.41,0,0,0-11.73-2.9L59.2,2.64c-1.09-.17-2.19-.35-3.29-.56l-1.66-.34-.83-.19L53,1.44l-.21-.05h0a.59.59,0,0,0,.23,0,.62.62,0,0,0,.45-.31.61.61,0,0,0,0-.51.61.61,0,0,0-.3-.33l.2.1.39.19c.26.13.51.26.77.4.51.27,1,.57,1.48.87,1,.61,1.88,1.27,2.76,1.95,1.77,1.36,3.39,2.81,5,4.2a84,84,0,0,0,9.58,7.46,74.92,74.92,0,0,0,18.46,8.92,77.41,77.41,0,0,0,13.55,3c1.63.23,2.9.35,3.77.44a4.63,4.63,0,0,1,1.31.22,4.57,4.57,0,0,1-1.33.07c-.87,0-2.16,0-3.81-.17a67.65,67.65,0,0,1-13.8-2.6,72.81,72.81,0,0,1-18.9-8.78A82.68,82.68,0,0,1,62.8,9c-1.6-1.39-3.22-2.82-4.93-4.13C57,4.25,56.14,3.61,55.22,3c-.46-.28-.92-.57-1.4-.83-.24-.13-.48-.26-.72-.38l-.37-.18-.18-.09a.88.88,0,0,1-.45-.48.85.85,0,0,1,.67-1.15.88.88,0,0,1,.33,0h.06l.2,0,.4.1.81.19,1.62.34c1.08.21,2.16.39,3.24.56l6.41,1a56.57,56.57,0,0,1,12,3.06,75.1,75.1,0,0,1,18.1,10.33c4.75,3.55,8.33,6.73,10.8,8.92,1.23,1.1,2.17,2,2.8,2.58S110.45,28,110.42,28Z"/><path class="cls-18" d="M110.42,28c-.1.18-3.07-1.29-7.86-3.65s-11.41-5.61-18.75-9.15L65,6.18a37.19,37.19,0,0,0-5.74-2.47A20.11,20.11,0,0,1,57,3.13a4.5,4.5,0,0,1,2.36,0,27.75,27.75,0,0,1,6,2.08c4.93,2.09,11.67,5.12,19,8.67s13.92,6.95,18.6,9.55S110.52,27.85,110.42,28Z"/><path class="cls-19" d="M101.28,24.21c0,.18-2.33-.07-6-.93a80.16,80.16,0,0,1-13.73-4.75c-2.59-1.16-5-2.41-7.14-3.63s-4-2.46-5.55-3.38c-3.11-1.93-5.4-2.13-5.38-2.34s.59-.18,1.65,0A14.22,14.22,0,0,1,69.4,10.6c1.69.85,3.56,2,5.7,3.11S79.64,16,82.2,17.19C92.41,21.83,101.38,23.78,101.28,24.21Z"/><path class="cls-20" d="M43,35.92c.11.14-1.71,1.84-5,4.19a79.6,79.6,0,0,1-13.66,7.76,81.66,81.66,0,0,1-14.9,5c-3.93.87-6.4,1.11-6.44.93-.11-.47,9.67-2.29,20.75-7.23S42.68,35.54,43,35.92Z"/><path class="cls-21" d="M48.73,32.91c0,.22-2.62.93-6.87,2.27A138.18,138.18,0,0,0,10.34,49.51c-3.8,2.32-6.09,3.86-6.22,3.68s2-2,5.66-4.55A100.48,100.48,0,0,1,41.58,34.18C45.94,33.08,48.7,32.73,48.73,32.91Z"/><path class="cls-22" d="M3,53.75c0-.14,1.66.3,4.65.6a38.94,38.94,0,0,0,12.59-1A42.8,42.8,0,0,0,36.88,45.1c2.74-2.22,5.35-4.91,8.19-7.61a71.69,71.69,0,0,1,9.41-7.71l.36-.24.44,1.34c-4.09.17-8.07.46-11.88,1a80.44,80.44,0,0,0-10.84,2.2,52.65,52.65,0,0,0-9.36,3.4,33.67,33.67,0,0,0-7.13,4.86L6.59,50.78a28.57,28.57,0,0,1-3.61,3A28.6,28.6,0,0,1,6.2,50.37c2.16-2.1,5.22-5.15,9.19-8.83a33.78,33.78,0,0,1,7.26-5.17,52.21,52.21,0,0,1,9.54-3.62,78.81,78.81,0,0,1,11-2.32c3.87-.54,7.89-.84,12-1l2.58-.11-2.14,1.45L55.3,31a72.37,72.37,0,0,0-9.25,7.54c-2.82,2.66-5.48,5.36-8.33,7.62A42.69,42.69,0,0,1,20.46,54.4a36.37,36.37,0,0,1-12.89.52,25.59,25.59,0,0,1-3.43-.74A3.86,3.86,0,0,1,3,53.75Z"/><path class="cls-23" d="M136,36.65c.08.16-2,1.51-5.64,3.24a79.6,79.6,0,0,1-14.81,5.23A81.66,81.66,0,0,1,100,47.39c-4,.17-6.5,0-6.5-.21,0-.48,9.92-.55,21.69-3.47S135.82,36.22,136,36.65Z"/><path class="cls-24" d="M142.24,34.7c0,.22-2.75.46-7.16,1a138.18,138.18,0,0,0-33.55,8.56c-4.15,1.62-6.67,2.73-6.77,2.53s2.29-1.61,6.37-3.49A100.49,100.49,0,0,1,135,34.69C139.45,34.38,142.23,34.52,142.24,34.7Z"/><path class="cls-25" d="M93.53,47.18c.06-.13,1.58.59,4.47,1.41a38.94,38.94,0,0,0,12.57,1.27,42.8,42.8,0,0,0,17.85-5.23c3.09-1.7,6.13-3.89,9.4-6a71.68,71.68,0,0,1,10.62-5.93l.39-.18.2,1.4c-4.06-.55-8-1-11.87-1.13a80.44,80.44,0,0,0-11.05.26,52.64,52.64,0,0,0-9.81,1.7,33.67,33.67,0,0,0-7.87,3.53L97.6,44.88a28.57,28.57,0,0,1-4.07,2.29,28.6,28.6,0,0,1,3.76-2.77c2.49-1.69,6-4.16,10.6-7.07a33.78,33.78,0,0,1,8.05-3.81,52.21,52.21,0,0,1,10-1.88,78.82,78.82,0,0,1,11.25-.35c3.9.15,7.92.56,12,1.11l2.56.35-2.37,1.05L149,34a72.36,72.36,0,0,0-10.43,5.8c-3.24,2.12-6.33,4.31-9.54,6a42.69,42.69,0,0,1-18.45,5.08,36.37,36.37,0,0,1-12.78-1.76,25.56,25.56,0,0,1-3.25-1.34A3.87,3.87,0,0,1,93.53,47.18Z"/><path class="cls-26" d="M52.59,47.81c0-.09.48,0,1.26.19a27.68,27.68,0,0,0,3.2.82c1.3.21,3.07.25,4-1s.6-3.33.19-5.33a3.36,3.36,0,0,0-.51-1.2,1.66,1.66,0,0,0-.9-.61,5.62,5.62,0,0,0-2.57-.06,4.53,4.53,0,0,0-3.39,2.54,4.25,4.25,0,0,0-.14,3c.23.71.53,1,.45,1.13s-.51-.14-1-.89a4.43,4.43,0,0,1-.32-3.59,5.49,5.49,0,0,1,4.07-3.5,6.68,6.68,0,0,1,3.28,0,3.1,3.1,0,0,1,1.65,1.11,4.68,4.68,0,0,1,.77,1.73,16.48,16.48,0,0,1,.43,3.31,4.91,4.91,0,0,1-1,3.21,4,4,0,0,1-1.3,1,4.6,4.6,0,0,1-1.45.39,7.41,7.41,0,0,1-2.5-.25,14.58,14.58,0,0,1-3.2-1.3C52.93,48.15,52.55,47.9,52.59,47.81Z"/><path class="cls-27" d="M86.14,27.79c0,.23-1.65.4-4.16,1.21a33.61,33.61,0,0,0-9.13,4.67,86.51,86.51,0,0,0-8,6.67c-2,1.81-3.27,2.9-3.42,2.75s.87-1.47,2.68-3.48A49.83,49.83,0,0,1,72,32.47,27,27,0,0,1,81.71,28C84.42,27.42,86.14,27.62,86.14,27.79Z"/><path class="cls-28" d="M30.16,20.81c.08-.09.41.21,1,0a1.68,1.68,0,0,0,.85-.62,1.21,1.21,0,0,0,.22-.55,2.08,2.08,0,0,0,0-.73,8.31,8.31,0,0,0-2.36-3.37,14.78,14.78,0,0,0-2-1.6,5.45,5.45,0,0,0-2.2-1A1.5,1.5,0,0,0,24.26,14a3,3,0,0,0,.19,2.1A9,9,0,0,0,27,19.45c1.9,1.56,3.53,1.85,3.47,2.09s-.43.13-1.17,0a8.18,8.18,0,0,1-2.91-1.25,9.1,9.1,0,0,1-3.15-3.6,4.29,4.29,0,0,1-.32-3.09,3.29,3.29,0,0,1,1-1.49,2.63,2.63,0,0,1,1.85-.64,4,4,0,0,1,1.68.54,13.61,13.61,0,0,1,1.26.8,14.4,14.4,0,0,1,2.11,1.83,13.92,13.92,0,0,1,1.56,2,5.27,5.27,0,0,1,.86,2.17,2.92,2.92,0,0,1-.08,1.09,2,2,0,0,1-.51.89,2.13,2.13,0,0,1-1.38.65,1.24,1.24,0,0,1-.92-.3C30.15,21,30.13,20.84,30.16,20.81Z"/><path class="cls-29" d="M57.75,29.45c0,.19-1.65.64-4.45,1a25.67,25.67,0,0,1-5,.14,15.4,15.4,0,0,1-6-1.66,24.25,24.25,0,0,1-4.89-3.72c-1.35-1.25-2.56-2.39-3.56-3.37-2-1.95-3.16-3.23-3-3.38s1.54.86,3.72,2.61c1.09.88,2.36,1.94,3.76,3.13A27.37,27.37,0,0,0,43,27.63a15.57,15.57,0,0,0,5.45,1.61,34,34,0,0,0,4.78.17C56,29.33,57.73,29.23,57.75,29.45Z"/><path class="cls-30" d="M129.71,24.77c.07-.09.42.18,1,0a1.68,1.68,0,0,0,.8-.69,1.21,1.21,0,0,0,.18-.57,2.09,2.09,0,0,0-.09-.73A8.31,8.31,0,0,0,129,19.56a14.77,14.77,0,0,0-2.08-1.45,5.45,5.45,0,0,0-2.27-.88,1.5,1.5,0,0,0-1.3,1.22,3,3,0,0,0,.35,2.08,9,9,0,0,0,2.78,3.1c2,1.41,3.66,1.58,3.61,1.82s-.42.16-1.17.08a8.18,8.18,0,0,1-3-1,9.1,9.1,0,0,1-3.42-3.35,4.29,4.29,0,0,1-.55-3.06,3.3,3.3,0,0,1,.87-1.56,2.63,2.63,0,0,1,1.79-.78,4,4,0,0,1,1.71.41,13.61,13.61,0,0,1,1.32.7,14.39,14.39,0,0,1,2.24,1.67,13.91,13.91,0,0,1,1.71,1.86,5.27,5.27,0,0,1,1,2.1,2.92,2.92,0,0,1,0,1.1,2,2,0,0,1-.44.93,2.13,2.13,0,0,1-1.33.76,1.24,1.24,0,0,1-.94-.23C129.71,24.92,129.68,24.8,129.71,24.77Z"/><path class="cls-31" d="M143,31.39c-.13.33-3.64-.65-7.31-3.25a23.21,23.21,0,0,1-4.17-3.86c-.92-1.1-1.48-1.75-1.36-1.92s1,.25,2.08,1.17,2.57,2.18,4.3,3.41C140,29.41,143.23,31,143,31.39Z"/></g></svg>