<svg xmlns="http://www.w3.org/2000/svg" viewBox="0 0 118.05 118.85"><defs><style>.cls-1{fill:#fff;}</style></defs><title>icon-6</title><g id="Layer_5" data-name="Layer 5"><path class="cls-1" d="M69.63,90.07c1,.92,2.11,1.79,3.07,2.78,1.17,1.2,1,2.27-.52,2.76a4.23,4.23,0,0,0-3.1,3.1c-.44,1.46-1.52,1.65-2.63.59a11.07,11.07,0,0,1-1.32-1.89l-.64.44c0,1.9,0,3.8,0,5.7,0,3.68-2.46,6.28-5.83,6.26s-5.74-2.6-5.76-6.31c0-1.86,0-3.73,0-6.07-.81.78-1.32,1.31-1.87,1.8-1.23,1.09-2.28.93-2.76-.62a4.1,4.1,0,0,0-3-3c-1.64-.52-1.79-1.59-.56-2.86.92-1,1.92-1.82,2.89-2.72l-.12-.49c-.78,0-1.57,0-2.35,0-4.27-.11-6.5-4.06-4.53-7.83a2.88,2.88,0,0,0,0-2.23c-4.74-10.36-9.56-20.69-14.35-31C24.72,45,25,44.56,28.72,44.66c.47,0,.94,0,1.11,0-.53-2-1-4-1.64-6a2.69,2.69,0,0,0-1.49-1.27c-1.56-.64-1.93-1.83-.55-2.8a30.92,30.92,0,0,1,4.18-2A4.18,4.18,0,0,0,32,31.52c2.61-3.79,7.35-3.79,9.94,0a2.83,2.83,0,0,0,1.31,1c1.18.42,2.41.7,3.7,1.06.43-2.68,2.75-3.18,5-3.89a3.88,3.88,0,0,0,1.92-1.25,5.78,5.78,0,0,1,9.75,0,3.37,3.37,0,0,0,1.93,1.23c2.72.56,4.52,1.93,4.93,3.9,1.32-.35,2.67-.64,4-1.1a3,3,0,0,0,1.21-1.18,5.75,5.75,0,0,1,9.73.09,4.59,4.59,0,0,0,1.76,1.2,33.93,33.93,0,0,1,4.16,2,1.4,1.4,0,0,1-.49,2.67c-1.28.31-1.47,1-1.69,2.16a50,50,0,0,1-1.59,5.16h2.08c2.48,0,3,.7,1.95,2.92Q86.25,58.89,81,70.22c-1.44,3.12-2.92,6.22-4.28,9.38a2.64,2.64,0,0,0,.08,2.05c2.08,3.7-.11,7.74-4.37,7.88-.83,0-1.67,0-2.5,0ZM44.09,79.71c.34-3.2,1.52-5.27,4.3-5.94s4.72.76,6.28,2.91a24,24,0,0,0,2.87,3.48,2.19,2.19,0,0,0,2.08.28,3.75,3.75,0,0,0,1.53-3.76C58.29,62.51,50,53.21,36.25,48.85A68.59,68.59,0,0,0,29,47.4Zm44.05-32a6.59,6.59,0,0,0-.92-.05A34.46,34.46,0,0,0,61.9,62.58c-1.09,1.55-1.47,2.81-.55,4.71A61.32,61.32,0,0,1,64,75c4.68-2.87,8.28-1.22,9.44,4.61ZM58.27,91.58c-.81,1.29-2.16,2.52-2.36,3.91a54.14,54.14,0,0,0-.11,8.27,2.9,2.9,0,1,0,5.77,0c0-2-.16-4,.05-5.94C61.92,95.17,61.07,93.19,58.27,91.58Zm6.46-5.37,0,.41c2.62,0,5.25.14,7.85-.09a2.74,2.74,0,0,0,1.84-1.94c0-.71-1-2.12-1.6-2.12-2.44,0-2.63-1.33-2.7-3.27a3.13,3.13,0,0,0-1.62-2.38,3.44,3.44,0,0,0-2.77.92,32.17,32.17,0,0,0-3.12,3.91c.54,1.51,1.43,2,2.89,1.28.37-.19.84-.46,1.18-.37a12.55,12.55,0,0,1,2,.92c-.38.59-.63,1.4-1.17,1.73A14.28,14.28,0,0,1,64.74,86.2Zm-10-4.62c-.94-1.17-1.93-2.38-2.89-3.61-.8-1-1.75-1.68-3.11-1.22S47,78.33,47.12,79.64c.15,1.74-.35,2.75-2.36,2.72a1.78,1.78,0,0,0-1.89,2.14c.18.8,1.13,2,1.82,2,2.64.24,5.32.1,8,.1a7.91,7.91,0,0,0-2.74-1.39c-1-.33-1.67-.9-1.26-2s1.3-1.11,2.26-.73c.22.09.47.12.69.22C52.9,83.34,54,83.43,54.74,81.58ZM52.11,32.79c.29,1.39.6,2.76.86,4.14a5.67,5.67,0,0,0,5.54,4.7C59.5,35.58,56.62,31.73,52.11,32.79ZM30.38,35.63c.3,1.44.62,2.75.85,4.08a5.53,5.53,0,0,0,5.59,4.77C37.61,38.29,35.06,34.84,30.38,35.63Zm31.86,8.74c.3,1.37.62,2.56.82,3.78a5.91,5.91,0,0,0,2.69,4.28,2.16,2.16,0,0,0,3.08-1.29A5.7,5.7,0,0,0,62.24,44.37ZM73.84,35.7c.29,1.39.53,2.78.9,4.14a2.38,2.38,0,0,0,.86,1.44c1.55.8,3.18,1.42,4.76,2.1C80.67,37.73,78,34.63,73.84,35.7ZM48.34,51.27c.75-4.55-2.3-7.7-6.45-6.83.29,1.07.56,2.15.89,3.21a1.52,1.52,0,0,0,.58.81C45,49.41,46.66,50.32,48.34,51.27Zm7.06-6.78L55.19,44c-1.32.33-2.66.6-3.95,1A1.33,1.33,0,0,0,50.51,46c.36,2.07.85,4.12,1.29,6.17C55,50.6,53.69,46.84,55.4,44.49Zm6.53-3.87c3.23-1.65,1.93-5.39,3.46-8.05a15,15,0,0,0-4.11.92,1.45,1.45,0,0,0-.52,1.25C61.08,36.66,61.51,38.57,61.93,40.62Zm25.37-4.8-.23-.57c-1.37.36-2.75.69-4.09,1.13a1.18,1.18,0,0,0-.63.95c.39,2.07.89,4.11,1.34,6.14C86.91,41.86,85.55,38.13,87.3,35.82ZM50.84,94.76l4.62-4.19c-2.45-2.33-4-.91-6.57,2.25Zm11.32-4.49,4.89,5,2-1.93C65.49,89.35,64.77,88.45,62.16,90.27Zm-3.8-2.19c2.2,0,3.31-.76,3.2-2.29-.13-1.71-1.29-2.1-2.79-2.07-2,0-3.06.83-3,2.32A2,2,0,0,0,58.36,88.08Zm1.86-28.27,3.94-4.41-3.94-5.19ZM43.81,35.16c-1.56.42-2.92.71-4.21,1.18A1.43,1.43,0,0,0,39,37.59c.27,1.39.71,2.74,1.09,4.11,2.43-.52,2.37-.53,2.68-2.81A31.75,31.75,0,0,1,43.81,35.16ZM57.14,50.28l-3.9,5.07,3.9,4.42Zm18.54-5.68L75.4,44a36.23,36.23,0,0,0-3.85,1A1.6,1.6,0,0,0,71,46.36a22.17,22.17,0,0,0,.88,2.95C75.25,49.38,74.33,46.14,75.68,44.59Zm-17-12.93,1.23-.84L61.09,30c-1.81-1.83-3.14-1.81-4.75,0ZM34.63,33l1.19.76,1.17.8,1.24-.85,1.13-.78C37.5,31.1,36.14,31.13,34.63,33Zm45.8,1.55,1.21-.82,1.17-.79c-1.75-1.84-3.08-1.83-4.76,0ZM48.55,43.27l2.4-1.64c-1.84-1.83-3.18-1.8-4.76.08l1,.67Zm22.7-1.61c-1.82-1.86-3.15-1.84-4.79,0l2.38,1.56ZM50,37.45c-.07-1.5.19-3-1.75-2.95v2.86Zm17.35,0,1.67-.16V34.51C67.23,34.5,67.37,35.89,67.38,37.47Z"/><path class="cls-1" d="M67.38,37.47c0-1.59-.15-3,1.67-3v2.81Z"/></g></svg>