<svg xmlns="http://www.w3.org/2000/svg" xmlns:xlink="http://www.w3.org/1999/xlink" viewBox="0 0 118.05 118.85"><defs><style>.cls-1,.cls-2,.cls-3,.cls-4,.cls-6{fill:none;}.cls-1,.cls-6{stroke:#071b26;}.cls-1,.cls-3,.cls-4,.cls-6{stroke-linecap:round;stroke-linejoin:round;}.cls-1,.cls-3,.cls-4{stroke-width:1.51px;}.cls-2{stroke-miterlimit:10;stroke-width:2.52px;stroke:url(#linear-gradient);}.cls-3{stroke:url(#linear-gradient-2);}.cls-4{stroke:url(#linear-gradient-3);}.cls-5{fill:url(#linear-gradient-4);}.cls-6{stroke-width:1.53px;}</style><linearGradient id="linear-gradient" x1="0.3" y1="59.51" x2="117.64" y2="59.51" gradientUnits="userSpaceOnUse"><stop offset="0" stop-color="#b48e5d"/><stop offset="0.19" stop-color="#8f6e3f"/><stop offset="0.38" stop-color="#c79d61"/><stop offset="0.54" stop-color="#eebe79"/><stop offset="0.63" stop-color="#fdca82"/><stop offset="0.7" stop-color="#ebbb77"/><stop offset="0.86" stop-color="#be955c"/><stop offset="1" stop-color="#8f6e3f"/></linearGradient><linearGradient id="linear-gradient-2" x1="40.47" y1="38.88" x2="49.71" y2="38.88" gradientUnits="userSpaceOnUse"><stop offset="0" stop-color="#648298"/><stop offset="0.99" stop-color="#c2d7ef"/></linearGradient><linearGradient id="linear-gradient-3" x1="70.1" y1="38.88" x2="79.34" y2="38.88" xlink:href="#linear-gradient-2"/><linearGradient id="linear-gradient-4" x1="42.88" y1="48.55" x2="76.88" y2="48.55" xlink:href="#linear-gradient-2"/></defs><title>icon-1</title><g id="Layer_5" data-name="Layer 5"><path class="cls-1" d="M71.62,67.9A10,10,0,0,1,68.67,66c-1.46-1.31-1.75-8.48-1.87-9.58H51.94S51,65.94,49.21,67.46a6.2,6.2,0,0,1-1.93,1.18"/><circle class="cls-2" cx="58.97" cy="59.51" r="57.41"/><path class="cls-1" d="M23.69,87.65S30.93,76,40.79,70.9c9.69-5,31.58-5.12,39.06,0a50.17,50.17,0,0,1,14.4,15.93"/><path class="cls-1" d="M73.9,18.75C77.26,24.42,77,36.59,77,36.59s2.09-2,3.31.67.31,7.67-1.66,8.34-2.58,0-2.58,0-2.51,13.25-16.5,13.25h.17c-14,0-16.5-13.25-16.5-13.25s-.61.67-2.58,0S37.75,39.9,39,37.26s3.31-.67,3.31-.67-.76-9.09,1.38-15.32c1.37-4,6.14-8.88,15.34-8.88S72,15.56,73.9,18.75Z"/><path class="cls-1" d="M42.62,37.77l-.33,1.79,2.55-.1a42.08,42.08,0,0,0,1-6.2,25.34,25.34,0,0,1,.82-7.12A4.11,4.11,0,0,1,51,23.34a88.06,88.06,0,0,0,8.91.44,36.16,36.16,0,0,0,8.06-.86,4.14,4.14,0,0,1,4.67,2.27,13.33,13.33,0,0,1,1.22,5c.16,2.6.27,7.75.27,7.75l2.18-.13.59-1.46"/><path class="cls-1" d="M63.43,34.75a2.85,2.85,0,0,0-1.49,2.19,43,43,0,0,0,.35,4.62"/><path class="cls-3" d="M41.23,34.44A16.09,16.09,0,0,1,49,43.31"/><path class="cls-4" d="M78.58,34.44a16.09,16.09,0,0,0-7.73,8.88"/><path class="cls-5" d="M42.88,47.39s4-3.23,6.07-5.42,7.11-4.8,10.67-4.8,8.56,1.21,11.22,4.8a10.83,10.83,0,0,0,6,4.23s-1.38,13.72-17,13.72S42.88,47.39,42.88,47.39Z"/><polyline class="cls-6" points="67.67 69.83 77.4 77.01 70.83 83.64 76.31 87.66 59.01 103.94 67.67 69.83"/><polyline class="cls-6" points="50.27 69.83 40.54 77.01 47.11 83.64 41.63 87.66 58.93 103.94 50.27 69.83"/><polyline class="cls-1" points="67.67 69.83 77.4 77.01 70.83 83.64 76.31 87.66 59.01 103.94 67.67 69.83"/><polyline class="cls-1" points="50.27 69.83 40.54 77.01 47.11 83.64 41.63 87.66 58.93 103.94 50.27 69.83"/><polyline class="cls-1" points="52.12 76.63 59.2 67.73 66.27 76.01"/><path class="cls-1" d="M54.56,73.56A5.46,5.46,0,0,0,59.2,76a6.47,6.47,0,0,0,5-2.42"/></g></svg>