<svg xmlns="http://www.w3.org/2000/svg" xmlns:xlink="http://www.w3.org/1999/xlink" viewBox="0 0 118.05 118.85"><defs><style>.cls-1{fill:none;stroke-miterlimit:10;stroke-width:2.52px;stroke:url(#linear-gradient);}.cls-2{fill:url(#linear-gradient-2);}.cls-3{fill:#071b26;}.cls-4,.cls-5{fill:#10415a;stroke:#071b26;stroke-linecap:round;stroke-linejoin:round;}.cls-4{stroke-width:1.51px;}.cls-5{stroke-width:1.53px;}.cls-6{fill:#00acb2;}.cls-7{fill:url(#linear-gradient-3);}</style><linearGradient id="linear-gradient" x1="0.63" y1="60.51" x2="117.97" y2="60.51" gradientUnits="userSpaceOnUse"><stop offset="0" stop-color="#b48e5d"/><stop offset="0.19" stop-color="#8f6e3f"/><stop offset="0.38" stop-color="#c79d61"/><stop offset="0.54" stop-color="#eebe79"/><stop offset="0.63" stop-color="#fdca82"/><stop offset="0.7" stop-color="#ebbb77"/><stop offset="0.86" stop-color="#be955c"/><stop offset="1" stop-color="#8f6e3f"/></linearGradient><linearGradient id="linear-gradient-2" x1="26.22" y1="66.15" x2="73.98" y2="66.15" gradientUnits="userSpaceOnUse"><stop offset="0" stop-color="#648298"/><stop offset="0.99" stop-color="#c2d7ef"/></linearGradient><linearGradient id="linear-gradient-3" x1="49.33" y1="54.93" x2="95.72" y2="54.93" xlink:href="#linear-gradient-2"/></defs><title>icon-2</title><g id="Layer_5" data-name="Layer 5"><circle class="cls-1" cx="59.3" cy="60.51" r="57.41"/><path class="cls-2" d="M39.3,95.82c-3.59,0-10.77-4.36-12.61-7.65a2.49,2.49,0,0,1-.18-2.65l3.29-5.34a15.75,15.75,0,0,1-1.91-5.86c-.32-.89-2.1-6.27-.42-9.53s2.31-5.79,2-8.4a.76.76,0,0,1,.21-.62,4.31,4.31,0,0,1,3.07-1.53c2.14,0,3.49,2.12,3.86,2.76A8,8,0,0,1,37,60.84a13.68,13.68,0,0,0,0,2.49h0a93.59,93.59,0,0,1,5.84-9.47L54.7,37.51a2.36,2.36,0,0,1,4.09,2.32l-4.61,8.41,6.94-9.36a2.59,2.59,0,0,1,4.39,2.72L63,46.09,65.1,43a2.47,2.47,0,0,1,4.15,2.67L64.4,55.16l4.79-6.75a2.67,2.67,0,0,1,4.4,3L65.93,67.3C65.63,68,58.22,85,49.67,88.46a18.33,18.33,0,0,1-4.79.89l-3.35,5.44A2.4,2.4,0,0,1,39.3,95.82Z"/><path class="cls-3" d="M56.65,37.23a1.6,1.6,0,0,1,1.45,2.28l-9.88,18,13.5-18.2a1.83,1.83,0,0,1,3.11,1.91L54,60.68,65.73,43.44a1.72,1.72,0,0,1,2.86,1.88L59,64.13,69.8,48.85A1.91,1.91,0,0,1,72.94,51L65.24,67S57.75,84.4,49.39,87.76a17.93,17.93,0,0,1-4.94.85l-3.57,5.78a1.73,1.73,0,0,1-1.59.68c-4.13,0-13.77-6.5-12.14-9.14l3.52-5.7c-2-3.93-2-6-2-6s-2.17-5.81-.5-9,2.43-5.84,2.05-8.85A3.57,3.57,0,0,1,32.73,55c1.46,0,2.6,1.31,3.2,2.38.72,1.28-.07,4.83.4,6.42a.58.58,0,0,0,.59.34.84.84,0,0,0,.76-.46,91.82,91.82,0,0,1,5.79-9.39L55.31,38a1.6,1.6,0,0,1,1.34-.73m0-1.51a3.11,3.11,0,0,0-2.59,1.38L42.25,53.4c-.1.14-2.1,2.9-4.51,7.08a7.6,7.6,0,0,0-.49-3.84,5.47,5.47,0,0,0-4.52-3.15,5,5,0,0,0-3.61,1.76,1.51,1.51,0,0,0-.41,1.24c.32,2.49-.21,4.72-1.89,8-1.78,3.44-.11,8.74.34,10a16.3,16.3,0,0,0,1.79,5.66l-3.07,5A3.2,3.2,0,0,0,26,88.54c2,3.53,9.41,8,13.27,8a3.12,3.12,0,0,0,2.87-1.4l3.15-5.1a18.59,18.59,0,0,0,4.57-.89l.06,0c8.73-3.52,16.19-20.47,16.66-21.57l7.65-15.84a3.43,3.43,0,0,0-5-4.5L69.93,46a3.23,3.23,0,0,0-2.85-4.74,3.28,3.28,0,0,0-.65.06,3.34,3.34,0,0,0-5.94-2.86l-.81,1.09a3.12,3.12,0,0,0-3-3.84Z"/><path class="cls-4" d="M39.17,65S43.61,70.58,42,79.86"/><path class="cls-5" d="M45.59,56.93s10.68,4.14,15.72,9.79"/><circle class="cls-6" cx="47.44" cy="42.68" r="4.18"/><circle class="cls-6" cx="51.62" cy="53.74" r="4.18"/><circle class="cls-6" cx="45.59" cy="50.26" r="6.03"/><circle class="cls-6" cx="50.92" cy="59.07" r="7.66"/><circle class="cls-6" cx="56.45" cy="46.51" r="8"/><circle class="cls-6" cx="59.2" cy="55.36" r="5.8"/><circle class="cls-6" cx="58.58" cy="62.66" r="4.06"/><circle class="cls-6" cx="64.45" cy="50.26" r="4.06"/><circle class="cls-6" cx="41.95" cy="57.38" r="2.87" transform="translate(-27.41 41.82) rotate(-41.19)"/><circle class="cls-6" cx="49.72" cy="70.66" r="2.87" transform="translate(-34.23 50.22) rotate(-41.19)"/><circle class="cls-6" cx="40.24" cy="42.51" r="1.72" transform="translate(-8.13 9.54) rotate(-12.29)"/><path class="cls-7" d="M82.7,84.68a2.38,2.38,0,0,1-2.18-1l-3.36-5.3h-.39A15.27,15.27,0,0,1,71,77.53c-.94-.11-6.56-.85-8.75-3.79s-4.19-4.6-6.7-5.45a.76.76,0,0,1-.47-.46A4.09,4.09,0,0,1,55.3,64c1-1.57,3.12-1.85,4-1.9h.13a8.65,8.65,0,0,1,3.48,1.34,13.38,13.38,0,0,0,2.27,1.06h0a94,94,0,0,1-6-9.42L49.66,37.33a2.36,2.36,0,0,1,3.87-2.67l5.55,7.82L53.7,32.15a2.59,2.59,0,0,1,4.36-2.76L61,33.6l-1.85-3.22A2.49,2.49,0,0,1,60,27.19a2.47,2.47,0,0,1,3.4.62l6.4,8.5-4-7.25a2.67,2.67,0,0,1,4.64-2.63L81.36,40.25c.49.57,12.57,14.68,11.93,23.87a18.31,18.31,0,0,1-1.3,4.7l3.42,5.39a2.5,2.5,0,0,1-.16,2.68C93.41,80.24,86.26,84.68,82.7,84.68Z"/><path class="cls-3" d="M68.18,25.95a1.91,1.91,0,0,1,1.62.89l11,13.89S93.16,55.09,92.53,64.07a17.92,17.92,0,0,1-1.4,4.82l3.64,5.73c1.67,2.63-8,9.3-12.07,9.3a1.7,1.7,0,0,1-1.54-.66l-3.59-5.66h-.8c-3.85,0-5.51-.83-5.51-.83s-6.17-.59-8.34-3.5-4.19-4.74-7.06-5.71C54.54,64,57.45,63,59.32,62.9h.08c1.48,0,4.26,2.18,5.87,2.45h.06a.8.8,0,0,0,.42-1.28,91.84,91.84,0,0,1-5.91-9.31L50.33,37a1.6,1.6,0,0,1,2.62-1.84L63.43,49.91a.16.16,0,0,0,.13.07.17.17,0,0,0,.15-.25L54.38,31.8a1.83,1.83,0,0,1,3.08-2L68,45a.16.16,0,0,0,.13.07.17.17,0,0,0,.15-.25L59.81,30a1.72,1.72,0,0,1,2.94-1.75l11.31,15a.16.16,0,0,0,.13.07.17.17,0,0,0,.15-.25L66.46,28.7a1.92,1.92,0,0,1,1.72-2.75m0-1.51a3.43,3.43,0,0,0-3.37,4L64,27.34a3.22,3.22,0,0,0-5.73,1.1,3.34,3.34,0,0,0-5.17,4.09l.62,1.2a3.12,3.12,0,0,0-4.67,4l9.5,17.76c.08.15,1.69,3.16,4.4,7.16a8.14,8.14,0,0,0-3.5-1.25h-.17c-1,.06-3.34.39-4.56,2.24a4.79,4.79,0,0,0-.25,4.46,1.51,1.51,0,0,0,.94.92c2.37.8,4.15,2.26,6.33,5.18,2.32,3.11,7.81,3.92,9.17,4.08a16.33,16.33,0,0,0,5.88.86l3.14,4.94a3.1,3.1,0,0,0,2.82,1.36c3.83,0,11.24-4.58,13.22-8.17A3.21,3.21,0,0,0,96,73.81l-3.21-5.06a18.61,18.61,0,0,0,1.2-4.5v-.07c.66-9.39-11.33-23.51-12.11-24.42L71,26a3.41,3.41,0,0,0-2.85-1.52Z"/><circle class="cls-3" cx="56.1" cy="31.23" r="1.09"/><circle class="cls-3" cx="61.49" cy="29.39" r="1.09"/><circle class="cls-3" cx="68.15" cy="27.8" r="1.09"/><circle class="cls-3" cx="52.02" cy="36.45" r="1.09"/></g></svg>