<svg xmlns="http://www.w3.org/2000/svg" xmlns:xlink="http://www.w3.org/1999/xlink" viewBox="0 0 118.05 118.85"><defs><style>.cls-1,.cls-2{fill:none;stroke-miterlimit:10;stroke-width:2.52px;}.cls-1{stroke:#071b26;stroke-linecap:round;}.cls-2{stroke:url(#linear-gradient);}</style><linearGradient id="linear-gradient" x1="0.28" y1="59.51" x2="117.62" y2="59.51" gradientUnits="userSpaceOnUse"><stop offset="0" stop-color="#b48e5d"/><stop offset="0.19" stop-color="#8f6e3f"/><stop offset="0.38" stop-color="#c79d61"/><stop offset="0.54" stop-color="#eebe79"/><stop offset="0.63" stop-color="#fdca82"/><stop offset="0.7" stop-color="#ebbb77"/><stop offset="0.86" stop-color="#be955c"/><stop offset="1" stop-color="#8f6e3f"/></linearGradient></defs><title>icon-4</title><g id="Layer_5" data-name="Layer 5"><line class="cls-1" x1="40.86" y1="68.33" x2="40.86" y2="89.01"/><line class="cls-1" x1="34.4" y1="89.01" x2="34.4" y2="57.99"/><path class="cls-1" d="M34.4,67H31.81a2.68,2.68,0,0,1-2.58-2.58v-9c0-6.46,2.58-9,9-9H59c2.58,0,0,5.17-2.58,5.17h-9V89"/><path class="cls-1" d="M46,34.55a5.17,5.17,0,0,0-10.34,0v1.66a5.17,5.17,0,0,0,10.34,0Z"/><path class="cls-1" d="M52.4,35.38a20.68,20.68,0,1,1,.2,27.37"/><polyline class="cls-1" points="68 43.78 69.29 43.78 69.29 57.99"/><line class="cls-1" x1="68" y1="38.61" x2="69.29" y2="38.61"/><line class="cls-1" x1="68" y1="57.99" x2="70.59" y2="57.99"/><circle class="cls-2" cx="58.95" cy="59.51" r="57.41"/></g></svg>