<svg xmlns="http://www.w3.org/2000/svg" xmlns:xlink="http://www.w3.org/1999/xlink" viewBox="0 0 118.05 118.85"><defs><style>.cls-1,.cls-2,.cls-3,.cls-4,.cls-5{fill:none;stroke-miterlimit:10;}.cls-1,.cls-2{stroke-width:2.52px;}.cls-1{stroke:url(#linear-gradient);}.cls-2{stroke:#071b26;}.cls-2,.cls-3,.cls-4,.cls-5{stroke-linecap:round;}.cls-3,.cls-4,.cls-5{stroke-width:2.52px;}.cls-3{stroke:url(#linear-gradient-2);}.cls-4{stroke:url(#linear-gradient-3);}.cls-5{stroke:url(#linear-gradient-4);}</style><linearGradient id="linear-gradient" x1="0.96" y1="59.51" x2="118.3" y2="59.51" gradientUnits="userSpaceOnUse"><stop offset="0" stop-color="#b48e5d"/><stop offset="0.19" stop-color="#8f6e3f"/><stop offset="0.38" stop-color="#c79d61"/><stop offset="0.54" stop-color="#eebe79"/><stop offset="0.63" stop-color="#fdca82"/><stop offset="0.7" stop-color="#ebbb77"/><stop offset="0.86" stop-color="#be955c"/><stop offset="1" stop-color="#8f6e3f"/></linearGradient><linearGradient id="linear-gradient-2" x1="46.93" y1="57.26" x2="73.71" y2="57.26" xlink:href="#linear-gradient"/><linearGradient id="linear-gradient-3" x1="71.18" y1="57.26" x2="73.71" y2="57.26" xlink:href="#linear-gradient"/><linearGradient id="linear-gradient-4" x1="46.93" y1="57.26" x2="49.45" y2="57.26" xlink:href="#linear-gradient"/></defs><title>icon-3</title><g id="Layer_5" data-name="Layer 5"><circle class="cls-1" cx="59.63" cy="59.51" r="57.41"/><path class="cls-2" d="M22.19,69.35v-15a9.15,9.15,0,0,1,9.15-9.15h0a9.15,9.15,0,0,1,9.15,9.15v15"/><line class="cls-2" x1="28.15" y1="67.23" x2="28.15" y2="87.44"/><line class="cls-2" x1="34.32" y1="67.23" x2="34.32" y2="87.44"/><circle class="cls-2" cx="31.33" cy="35.48" r="3.91"/><path class="cls-2" d="M79.05,69.35v-15a9.15,9.15,0,0,1,9.15-9.15h0a9.15,9.15,0,0,1,9.15,9.15v15"/><line class="cls-2" x1="85.02" y1="67.23" x2="85.02" y2="87.44"/><line class="cls-2" x1="91.18" y1="67.23" x2="91.18" y2="87.44"/><circle class="cls-2" cx="88.2" cy="35.48" r="3.91"/><line class="cls-3" x1="72.45" y1="57.26" x2="48.19" y2="57.26"/><line class="cls-4" x1="72.45" y1="52.42" x2="72.45" y2="62.09"/><line class="cls-5" x1="48.19" y1="52.42" x2="48.19" y2="62.09"/></g></svg>