<svg xmlns="http://www.w3.org/2000/svg" viewBox="0 0 118.05 118.85"><defs><style>.cls-1{fill:#fff;}</style></defs><title>icon-5</title><g id="Layer_5" data-name="Layer 5"><path class="cls-1" d="M54.75,51.92l2.87,2.32A19.69,19.69,0,0,0,53,71.88,18.9,18.9,0,0,0,60.29,83.2,19.66,19.66,0,0,0,88.43,56.46c-4.94-7.27-15.51-11.63-26.16-6l-2.78-2.44c6.3-6.45,21.32-5,29.22,2.74A23.53,23.53,0,1,1,55.6,84.23C46.77,75.51,46.3,60.45,54.75,51.92Z"/><path class="cls-1" d="M54.46,84.6l2.76,2.47c-6.18,5-20.11,6.72-29.71-3.27A23.52,23.52,0,0,1,61.16,51c8.76,8.8,9.21,23.63.79,32.2L59.12,80.9C67.66,70.39,64,58.48,57.53,52.81A19.67,19.67,0,0,0,27.91,78.12C32.7,85.64,43.29,90.42,54.46,84.6Z"/><path class="cls-1" d="M90.55,44.69c-.54-2.31-1.11-4.16-1.37-6-.17-1.25.09-2.65,1.74-2.88s2,.91,2.21,2.22c0,.15.16.29.28.51a2.12,2.12,0,0,0,.61-.2c1.07-.79,2.14-1,3,.24a2,2,0,0,1-.77,3C94.55,42.6,92.71,43.49,90.55,44.69Z"/><path class="cls-1" d="M46.71,30.69c.28-1.49.49-3,2.44-2.71,1.27.19,1.88,1.67,1.56,3.7a20,20,0,0,1-.58,2.5c-.22.76-.53,1.49-.92,2.58-1.86-1-3.65-1.81-5.3-2.87-1-.67-1.8-1.78-1-3.07s2-1,3.11-.25C46.14,30.65,46.34,30.63,46.71,30.69Z"/></g></svg>