<svg xmlns="http://www.w3.org/2000/svg" xmlns:xlink="http://www.w3.org/1999/xlink" viewBox="0 0 381 338"><defs><style>.cls-1{fill:#e8b878;}.cls-2{fill:url(#linear-gradient);}.cls-3{fill:#231f20;}.cls-4{fill:url(#linear-gradient-4);}.cls-5{fill:url(#linear-gradient-10);}</style><linearGradient id="linear-gradient" x1="247.85" y1="973.18" x2="449.58" y2="973.18" gradientTransform="translate(-237 -881)" gradientUnits="userSpaceOnUse"><stop offset="0" stop-color="#b48e5d"/><stop offset="0.19" stop-color="#8f6e3f"/><stop offset="0.38" stop-color="#c79d61"/><stop offset="0.54" stop-color="#eebe79"/><stop offset="0.63" stop-color="#fdca82"/><stop offset="0.7" stop-color="#ebbb77"/><stop offset="0.86" stop-color="#be955c"/><stop offset="1" stop-color="#8f6e3f"/></linearGradient><linearGradient id="linear-gradient-4" x1="270.03" y1="1121.97" x2="611.82" y2="1121.97" xlink:href="#linear-gradient"/><linearGradient id="linear-gradient-10" x1="434.06" y1="1037.62" x2="522.52" y2="1037.62" xlink:href="#linear-gradient"/></defs><title>usy-yongky-gold</title><g id="Layer_2" data-name="Layer 2"><path class="cls-1" d="M125.82,84.95a124.6,124.6,0,0,0-7.23,19.52c-3.49,13-4.94,27.71,1.69,27.35,5.78-.48,2.89,3.37-.84,2.77-11.32-2-9.16-21.44-7.11-31.8A108.61,108.61,0,0,1,105,113.62c-16,20.6-33,20.72-35.54,5.3-2.65-16.26,16.75-47.1,21.2-64.57,2.89-11.56,3.25-22.65-2.53-26.14-9.88-6-26.38-2.53-40.12,5.42C-.19,61.82,11.61,115.3,45.1,102.77c16.5-6.14,29.15-40.72,6.14-35.54-6.26,1.45-1.57-1.69-.6-2,24.82-10.48,21,29.15-5.66,40.36C9,120.85-10.43,61.7,48.24,29.65c13.73-7.59,28.55-10,39.27-5.3,11.81,5.06,13.25,17.23,10.24,30.48-4.34,19-23.25,46.5-21.44,64.09,1.33,12.53,13.61,10.48,26.86-8.67,8.07-11.69,15.3-28.67,20.24-37.59,2.65-4.7,5.3-6.38,6.75-6.38C136.06,69.16,129.07,77.6,125.82,84.95Z"/><path class="cls-1" d="M139.18,123.62a12.89,12.89,0,0,1-4.94,1.2c-14.58,0-11.81-16.74-6-17,3.25-6.14,7.23-14,10.36-20.84,2.17-4.7,5.78-9.76,10-10.36a7.48,7.48,0,0,1,4.46.6c2.17,1.08,1.69,3.13-.48,2a4.78,4.78,0,0,0-3.85-.12c-5.54,2.65-4.34,11-2.53,15.3,1.93,4.58,4.58,8.91,4.34,14.22-.24,4.7-3.85,10.24-8.55,13.37l.84.12c4.1.6,7.83-1.93,10.84-5.54,2.77-3.37,6.51-10.84,9-15.78.6-1.2,2.41-.48,1.81.72C160,111.57,152.8,127.71,139.18,123.62ZM131,113.26c-3.85,3.85-2.29,9.52,2.41,9.52a5.39,5.39,0,0,0,2.41-.48C133.28,120.72,131.23,117.83,131,113.26Zm10.6-27.47c-3.25,6.51-8.43,17-11.32,22.29,0,0,2.65-.12,2.53,3.85a9.57,9.57,0,0,0,5.06,9.28c2.65-2,4.94-6.14,5.3-12.53C143.52,101.09,140.63,91.21,141.59,85.79Z"/><path class="cls-1" d="M183.51,130.36c-7.59,13.61-19.52,32-37.34,32-12,0-13.25-8-9.64-14.7,2.29-4.46,6.63-7.71,11.32-9.88,8.07-3.85,19.52-5.9,29.27-8.67,4.58-8,8.43-20.84,10.36-27.11-4.1,7.23-11.93,22.17-21.2,22.17-2.41,0-6.63-.84-7.59-5.42-1.08-5.18,1.93-9.64,4.1-14-.72,0-1.81-.36-1.08-1.93l2.17-4.22c2.41-4.58,4.94-9.52,6.75-13.25,1-1.93,2.41-2.53,4.7-2.53h7.35c-1.08,1-3,1.81-4.46,4.34-4.1,7-7.47,14.09-10.84,21.32-5.78,12.53-.72,17.35,7.11,8.31,6.75-7.83,14.34-21.92,18.91-31.44,1-1.93,2.41-2.53,4.7-2.53h6.51c-4.58,3.13-6.38,8-9.4,16s-6.14,18.07-9.64,27.59c5.3-1.57,12.65-5.18,17.35-11.93a117.24,117.24,0,0,0,7.59-13.25c1.08-2.17,2.89-1.33,1.69,1.08C204,119,200.86,124.1,183.51,130.36ZM149.9,140.48C137.61,145.78,133,160,143.4,160c10.6,0,23.37-14.94,28.91-22.53L175,133C167.13,135.06,156.77,137.47,149.9,140.48Z"/><path class="cls-2" d="M125.82,84.95a124.6,124.6,0,0,0-7.23,19.52c-3.49,13-4.94,27.71,1.69,27.35,5.78-.48,2.89,3.37-.84,2.77-11.32-2-9.16-21.44-7.11-31.8A108.61,108.61,0,0,1,105,113.62c-16,20.6-33,20.72-35.54,5.3-2.65-16.26,16.75-47.1,21.2-64.57,2.89-11.56,3.25-22.65-2.53-26.14-9.88-6-26.38-2.53-40.12,5.42C-.19,61.82,11.61,115.3,45.1,102.77c16.5-6.14,29.15-40.72,6.14-35.54-6.26,1.45-1.57-1.69-.6-2,24.82-10.48,21,29.15-5.66,40.36C9,120.85-10.43,61.7,48.24,29.65c13.73-7.59,28.55-10,39.27-5.3,11.81,5.06,13.25,17.23,10.24,30.48-4.34,19-23.25,46.5-21.44,64.09,1.33,12.53,13.61,10.48,26.86-8.67,8.07-11.69,15.3-28.67,20.24-37.59,2.65-4.7,5.3-6.38,6.75-6.38C136.06,69.16,129.07,77.6,125.82,84.95Z"/><path class="cls-2" d="M139.18,123.62a12.89,12.89,0,0,1-4.94,1.2c-14.58,0-11.81-16.74-6-17,3.25-6.14,7.23-14,10.36-20.84,2.17-4.7,5.78-9.76,10-10.36a7.48,7.48,0,0,1,4.46.6c2.17,1.08,1.69,3.13-.48,2a4.78,4.78,0,0,0-3.85-.12c-5.54,2.65-4.34,11-2.53,15.3,1.93,4.58,4.58,8.91,4.34,14.22-.24,4.7-3.85,10.24-8.55,13.37l.84.12c4.1.6,7.83-1.93,10.84-5.54,2.77-3.37,6.51-10.84,9-15.78.6-1.2,2.41-.48,1.81.72C160,111.57,152.8,127.71,139.18,123.62ZM131,113.26c-3.85,3.85-2.29,9.52,2.41,9.52a5.39,5.39,0,0,0,2.41-.48C133.28,120.72,131.23,117.83,131,113.26Zm10.6-27.47c-3.25,6.51-8.43,17-11.32,22.29,0,0,2.65-.12,2.53,3.85a9.57,9.57,0,0,0,5.06,9.28c2.65-2,4.94-6.14,5.3-12.53C143.52,101.09,140.63,91.21,141.59,85.79Z"/><path class="cls-2" d="M183.51,130.36c-7.59,13.61-19.52,32-37.34,32-12,0-13.25-8-9.64-14.7,2.29-4.46,6.63-7.71,11.32-9.88,8.07-3.85,19.52-5.9,29.27-8.67,4.58-8,8.43-20.84,10.36-27.11-4.1,7.23-11.93,22.17-21.2,22.17-2.41,0-6.63-.84-7.59-5.42-1.08-5.18,1.93-9.64,4.1-14-.72,0-1.81-.36-1.08-1.93l2.17-4.22c2.41-4.58,4.94-9.52,6.75-13.25,1-1.93,2.41-2.53,4.7-2.53h7.35c-1.08,1-3,1.81-4.46,4.34-4.1,7-7.47,14.09-10.84,21.32-5.78,12.53-.72,17.35,7.11,8.31,6.75-7.83,14.34-21.92,18.91-31.44,1-1.93,2.41-2.53,4.7-2.53h6.51c-4.58,3.13-6.38,8-9.4,16s-6.14,18.07-9.64,27.59c5.3-1.57,12.65-5.18,17.35-11.93a117.24,117.24,0,0,0,7.59-13.25c1.08-2.17,2.89-1.33,1.69,1.08C204,119,200.86,124.1,183.51,130.36ZM149.9,140.48C137.61,145.78,133,160,143.4,160c10.6,0,23.37-14.94,28.91-22.53L175,133C167.13,135.06,156.77,137.47,149.9,140.48Z"/><path class="cls-3" d="M157,283.54c-6.26,2.53-17.83,2.65-30,2.77-8.07,12.17-21.08,21-33.37,25.66C62.19,324,40.86,303.42,71,291c16.38-6.75,34.57-7.71,52-7.71,6.26-15.42,12.17-30.48,16.5-46.62-4.58,9.88-13.25,25.18-24.45,32.77-12.29,8.31-29.88,6.38-27.47-11.93,1.69-12,11-28.07,17.59-38.91,10.72-17.47,17.71-40.12,8.43-46-19.4-12.41-58.43,12-69.63,38.67-12.41,29.76,5.78,41.56,21.44,35.9,16.75-6,30.6-40.12,9.64-36.38-4.1.84-2.41-1.2-.24-1.69,25.42-6.87,17.11,29.76-9.88,40.84-19.15,8-41.92-11.69-27.23-41.8,14.22-29.27,54.33-48.91,75.41-39.39,17.71,8,12.53,30,1.69,48.31-8.07,13.73-16.38,30.24-18.79,41.2-3.13,14.46,8,15.42,17.35,8.67,14.94-10.6,27.23-40.72,31-53.25.6-2.89,10-10.24,5.9,7.71-4.22,18.55-12.53,46-21.44,61.8,11.81-.72,33,1.33,35.42-12-.24-1.81.48-3,1.45.12S164.34,280.41,157,283.54ZM72.91,296.07c-23.61,13.49-.36,20.48,18.91,13.37,10.72-4,22.29-11.56,29.51-23.13C105.07,286.31,87.24,287.76,72.91,296.07Z"/><path class="cls-3" d="M176.5,266.79a9.8,9.8,0,0,1-7.71-3.13c-3.37,2.53-7,4.22-10.48,4.1-9.16-.24-10.48-11.2-5.9-21.93,4.7-11.08,14.7-20.48,22.89-20.24,9.16.12,10.48,11.2,5.9,21.93a46.56,46.56,0,0,1-10.12,14.22c1,1.81,2.77,3,5.66,3,7.71,0,14-14.94,16.87-20.72.6-1.2,2.65-.72,1.81,1.08C193.37,249.69,186.62,266.79,176.5,266.79Zm-15.78-21.44c-4.7,9.88-5.78,18.31-1.45,19.64,2.29.6,5.3-.6,8.19-3a10.7,10.7,0,0,1-1.93-5.9c.12-2.77,1.2-5.18,4.22-5.18a3.62,3.62,0,0,1,3.61,3.61,5.11,5.11,0,0,1-.24,1.33,48.29,48.29,0,0,0,3.73-6.51c4.7-9.88,5.3-18.43,1-19.76C172.65,228.12,165.18,235.83,160.72,245.35Z"/><path class="cls-3" d="M215.65,268.24c-4.22,0-10-2.89-6.38-14.09,1-3.13,3.25-7.23,6.63-12.65,2.89-4.7.72-8-8.55.72-4.1,3.73-10,10.48-16.75,23.85-1,1.69-2,1.81-4.58,1.81-1.81.12-2.89,0-4.1.72,5.78-11.44,10.72-22.89,16.62-33.73,3.13-5.78,4.7-7.83,8.55-7.59,1.57.12,3.37.84,5.06.48-3.61,1.93-10.24,14-14.58,22.65a89.27,89.27,0,0,1,10-10.84c5.78-5.18,18.19-12.77,22.29-11.32,0,0-12.89,22.65-14.46,31.08-1,4.94.36,6,1.93,6,6.26,0,14-15.78,16.5-20.84,1-2.17,2.89-1.33,1.69,1.08C231.92,252.94,224.93,268.24,215.65,268.24Z"/><path class="cls-3" d="M264.2,269.2c-5.3,15.18-21.2,36.62-38.67,36.62-7.59,0-11.32-3-11.32-9.28,0-5.9,4.7-10.48,10.48-13.85,11.81-7,22.77-9.28,32-13a58.49,58.49,0,0,0,2.77-13.37c.48-4.7.48-8.55.12-9.88-3.85,7.47-13.49,23.73-23.13,20.84-12-5.18-4.82-22.53,4.1-33.13,7.11-8.55,18.91-12.65,27.95-5.54,4.22,3.49,0,7.11-1.33,3.49-3.13-8.55-12-3.73-19.4,4.46-8.79,9.88-15.54,24.45-9.28,27.23,7.11,3,18.79-15.42,21.08-23,1.69-5.54,5.54-3.37,7.47-4.82a70.7,70.7,0,0,1-1.57,29.27A36.66,36.66,0,0,0,274,257.4c4-5.3,5.78-10.48,7-12.77s3-1.45,1.81,1C276.61,258.24,273.11,265,264.2,269.2Zm-12.89,5.42c-8.79,3-18.91,6.5-26.5,11.56-7.83,5.18-12.17,17.23-2.17,17.23,5.18,0,12.29-4.1,15.18-6.26a69,69,0,0,0,10.84-11.81,62.18,62.18,0,0,0,6.87-12.17Z"/><path class="cls-3" d="M313.83,193.31h.6c1.57.12,3.37.84,5.06.48C313.35,198.49,301.06,218,293,234a79.2,79.2,0,0,0-4.34,10.24c5.06-6.26,12.65-14.22,19.64-16.87,15.54-5.78,14.09,7.71,4.94,14.21a22.94,22.94,0,0,1-12.17,4.7c-4.58,11.2,3.13,26.26,14.22,14.46,3-3.25,6.38-9.52,9.76-16.5,1-1.93,2.41-.84,1.57,1.08-9.52,21.93-17,23.85-24,23.13-4.34-.48-8.07-4-9.28-10.24-1.45-7.83,3-13.61,5.66-13.85,2.65.24,6.75-1.33,9.52-3.61,7.59-6.14,2.29-14.58-11.56-2.77a64.68,64.68,0,0,0-9.88,11c-2.17,4.1-5.42,17.11-3.37,18.79h-7.59c-1.69,0-1.45-1.08-1-2.65,2.17-8.31,6.26-15.18,9.88-23.49-5.54,10.48-10.36,19.15-12.77,21.44-1,.84-1.69-.48-1-1.57,8.19-10.84,24.09-46.86,34.45-62.28C308.65,195,311.18,193.19,313.83,193.31Z"/><path class="cls-3" d="M345.75,273.78c-7.59,13.61-19.52,32-37.34,32-12,0-13.25-8-9.64-14.7,2.29-4.46,6.63-7.71,11.32-9.88,8.07-3.85,19.52-5.9,29.27-8.67,4.58-8,8.43-20.84,10.36-27.11-4.1,7.23-11.93,22.17-21.2,22.17-2.41,0-6.63-.84-7.59-5.42-1.08-5.18,1.93-9.64,4.1-14-.72,0-1.81-.36-1.08-1.93l2.17-4.22c2.41-4.58,4.94-9.52,6.75-13.25,1-1.93,2.41-2.53,4.7-2.53h7.35c-1.08,1-3,1.81-4.46,4.34-4.1,7-7.47,14.09-10.84,21.32-5.78,12.53-.72,17.35,7.11,8.31,6.75-7.83,14.34-21.92,18.91-31.44,1-1.93,2.41-2.53,4.7-2.53h6.51c-4.58,3.13-6.38,8-9.4,16s-6.14,18.07-9.64,27.59c5.3-1.57,12.65-5.18,17.35-11.93a117.24,117.24,0,0,0,7.59-13.25c1.08-2.17,2.89-1.33,1.69,1.08C366.23,262.46,363.1,267.52,345.75,273.78ZM312.14,283.9c-12.29,5.3-16.87,19.52-6.51,19.52,10.6,0,23.37-14.94,28.91-22.53l2.65-4.46C329.37,278.48,319,280.89,312.14,283.9Z"/><path class="cls-4" d="M157,283.54c-6.26,2.53-17.83,2.65-30,2.77-8.07,12.17-21.08,21-33.37,25.66C62.19,324,40.86,303.42,71,291c16.38-6.75,34.57-7.71,52-7.71,6.26-15.42,12.17-30.48,16.5-46.62-4.58,9.88-13.25,25.18-24.45,32.77-12.29,8.31-29.88,6.38-27.47-11.93,1.69-12,11-28.07,17.59-38.91,10.72-17.47,17.71-40.12,8.43-46-19.4-12.41-58.43,12-69.63,38.67-12.41,29.76,5.78,41.56,21.44,35.9,16.75-6,30.6-40.12,9.64-36.38-4.1.84-2.41-1.2-.24-1.69,25.42-6.87,17.11,29.76-9.88,40.84-19.15,8-41.92-11.69-27.23-41.8,14.22-29.27,54.33-48.91,75.41-39.39,17.71,8,12.53,30,1.69,48.31-8.07,13.73-16.38,30.24-18.79,41.2-3.13,14.46,8,15.42,17.35,8.67,14.94-10.6,27.23-40.72,31-53.25.6-2.89,10-10.24,5.9,7.71-4.22,18.55-12.53,46-21.44,61.8,11.81-.72,33,1.33,35.42-12-.24-1.81.48-3,1.45.12S164.34,280.41,157,283.54ZM72.91,296.07c-23.61,13.49-.36,20.48,18.91,13.37,10.72-4,22.29-11.56,29.51-23.13C105.07,286.31,87.24,287.76,72.91,296.07Z"/><path class="cls-4" d="M176.5,266.79a9.8,9.8,0,0,1-7.71-3.13c-3.37,2.53-7,4.22-10.48,4.1-9.16-.24-10.48-11.2-5.9-21.93,4.7-11.08,14.7-20.48,22.89-20.24,9.16.12,10.48,11.2,5.9,21.93a46.56,46.56,0,0,1-10.12,14.22c1,1.81,2.77,3,5.66,3,7.71,0,14-14.94,16.87-20.72.6-1.2,2.65-.72,1.81,1.08C193.37,249.69,186.62,266.79,176.5,266.79Zm-15.78-21.44c-4.7,9.88-5.78,18.31-1.45,19.64,2.29.6,5.3-.6,8.19-3a10.7,10.7,0,0,1-1.93-5.9c.12-2.77,1.2-5.18,4.22-5.18a3.62,3.62,0,0,1,3.61,3.61,5.11,5.11,0,0,1-.24,1.33,48.29,48.29,0,0,0,3.73-6.51c4.7-9.88,5.3-18.43,1-19.76C172.65,228.12,165.18,235.83,160.72,245.35Z"/><path class="cls-4" d="M215.65,268.24c-4.22,0-10-2.89-6.38-14.09,1-3.13,3.25-7.23,6.63-12.65,2.89-4.7.72-8-8.55.72-4.1,3.73-10,10.48-16.75,23.85-1,1.69-2,1.81-4.58,1.81-1.81.12-2.89,0-4.1.72,5.78-11.44,10.72-22.89,16.62-33.73,3.13-5.78,4.7-7.83,8.55-7.59,1.57.12,3.37.84,5.06.48-3.61,1.93-10.24,14-14.58,22.65a89.27,89.27,0,0,1,10-10.84c5.78-5.18,18.19-12.77,22.29-11.32,0,0-12.89,22.65-14.46,31.08-1,4.94.36,6,1.93,6,6.26,0,14-15.78,16.5-20.84,1-2.17,2.89-1.33,1.69,1.08C231.92,252.94,224.93,268.24,215.65,268.24Z"/><path class="cls-4" d="M264.2,269.2c-5.3,15.18-21.2,36.62-38.67,36.62-7.59,0-11.32-3-11.32-9.28,0-5.9,4.7-10.48,10.48-13.85,11.81-7,22.77-9.28,32-13a58.49,58.49,0,0,0,2.77-13.37c.48-4.7.48-8.55.12-9.88-3.85,7.47-13.49,23.73-23.13,20.84-12-5.18-4.82-22.53,4.1-33.13,7.11-8.55,18.91-12.65,27.95-5.54,4.22,3.49,0,7.11-1.33,3.49-3.13-8.55-12-3.73-19.4,4.46-8.79,9.88-15.54,24.45-9.28,27.23,7.11,3,18.79-15.42,21.08-23,1.69-5.54,5.54-3.37,7.47-4.82a70.7,70.7,0,0,1-1.57,29.27A36.66,36.66,0,0,0,274,257.4c4-5.3,5.78-10.48,7-12.77s3-1.45,1.81,1C276.61,258.24,273.11,265,264.2,269.2Zm-12.89,5.42c-8.79,3-18.91,6.5-26.5,11.56-7.83,5.18-12.17,17.23-2.17,17.23,5.18,0,12.29-4.1,15.18-6.26a69,69,0,0,0,10.84-11.81,62.18,62.18,0,0,0,6.87-12.17Z"/><path class="cls-4" d="M313.83,193.31h.6c1.57.12,3.37.84,5.06.48C313.35,198.49,301.06,218,293,234a79.2,79.2,0,0,0-4.34,10.24c5.06-6.26,12.65-14.22,19.64-16.87,15.54-5.78,14.09,7.71,4.94,14.21a22.94,22.94,0,0,1-12.17,4.7c-4.58,11.2,3.13,26.26,14.22,14.46,3-3.25,6.38-9.52,9.76-16.5,1-1.93,2.41-.84,1.57,1.08-9.52,21.93-17,23.85-24,23.13-4.34-.48-8.07-4-9.28-10.24-1.45-7.83,3-13.61,5.66-13.85,2.65.24,6.75-1.33,9.52-3.61,7.59-6.14,2.29-14.58-11.56-2.77a64.68,64.68,0,0,0-9.88,11c-2.17,4.1-5.42,17.11-3.37,18.79h-7.59c-1.69,0-1.45-1.08-1-2.65,2.17-8.31,6.26-15.18,9.88-23.49-5.54,10.48-10.36,19.15-12.77,21.44-1,.84-1.69-.48-1-1.57,8.19-10.84,24.09-46.86,34.45-62.28C308.65,195,311.18,193.19,313.83,193.31Z"/><path class="cls-4" d="M345.75,273.78c-7.59,13.61-19.52,32-37.34,32-12,0-13.25-8-9.64-14.7,2.29-4.46,6.63-7.71,11.32-9.88,8.07-3.85,19.52-5.9,29.27-8.67,4.58-8,8.43-20.84,10.36-27.11-4.1,7.23-11.93,22.17-21.2,22.17-2.41,0-6.63-.84-7.59-5.42-1.08-5.18,1.93-9.64,4.1-14-.72,0-1.81-.36-1.08-1.93l2.17-4.22c2.41-4.58,4.94-9.52,6.75-13.25,1-1.93,2.41-2.53,4.7-2.53h7.35c-1.08,1-3,1.81-4.46,4.34-4.1,7-7.47,14.09-10.84,21.32-5.78,12.53-.72,17.35,7.11,8.31,6.75-7.83,14.34-21.92,18.91-31.44,1-1.93,2.41-2.53,4.7-2.53h6.51c-4.58,3.13-6.38,8-9.4,16s-6.14,18.07-9.64,27.59c5.3-1.57,12.65-5.18,17.35-11.93a117.24,117.24,0,0,0,7.59-13.25c1.08-2.17,2.89-1.33,1.69,1.08C366.23,262.46,363.1,267.52,345.75,273.78ZM312.14,283.9c-12.29,5.3-16.87,19.52-6.51,19.52,10.6,0,23.37-14.94,28.91-22.53l2.65-4.46C329.37,278.48,319,280.89,312.14,283.9Z"/><path class="cls-5" d="M258.1,166c13.13,10.84-4.34,35.66-31,35.66-43.25,0-38.31-48.43,4.82-53a19.23,19.23,0,0,1-3.37-10.84c.36-17.11,21.68-26.5,36.62-26.26,6.63.12,14.46,2.53,14.46,10.6,0,4.58-3.25,8.91-7.35,8.91a5.61,5.61,0,0,1-5.66-5.78,5.41,5.41,0,0,1,5.78-5.42c1.45,0,3.61,1.08,4,2.17,1-5.42-3.73-7.11-8.07-7.23-6.38-.12-15.42,2.89-23.49,9.88-5.54,4.94-12.53,15.78-8.79,23.61,2.53,0,6.38-.48,10-.24,7,.6,8.07,7.59-.36,7.59a17.66,17.66,0,0,1-12.17-5.3c-28.55,4.22-34.45,49.75-6.38,49.75,17,0,28.67-14,29.15-23.49.6-13.37-32.29-13.13-34.57.6-.6,3.73,1.81,7.83,8,11.08,1.33.72,1.45,3.25,0,2.53-21.08-11.32-14.82-28.67,9.64-28.67h21.32c5.66,0,28.19-6,21.8-15.54-.84-1.32.48-2.29,1.33-1C291.11,156.62,274.12,166.26,258.1,166ZM237,150c1.81,2.29,4.7,3.61,8.67,3.61,5.9,0,4.58-3.13.24-3.49A73.92,73.92,0,0,0,237,150Z"/></g></svg>