<svg xmlns="http://www.w3.org/2000/svg" viewBox="0 0 381 316"><defs><style>.cls-1{fill:#fff;}</style></defs><title>Artboard 10</title><g id="Layer_2" data-name="Layer 2"><path class="cls-1" d="M122.14,72.93A128,128,0,0,0,114.71,93c-3.59,13.37-5.07,28.47,1.73,28.1,5.94-.5,3,3.47-.87,2.85-11.64-2.1-9.41-22-7.3-32.68a111.6,111.6,0,0,1-7.55,11.14c-16.46,21.17-33.92,21.29-36.52,5.45C61.48,91.13,81.41,59.44,86,41.49c3-11.88,3.34-23.27-2.6-26.86C73.24,8.44,56.28,12,42.17,20.2c-49.51,29-37.38,83.93-3,71.05,17-6.31,30-41.84,6.31-36.52-6.44,1.49-1.61-1.73-.62-2.1,25.5-10.77,21.54,30-5.82,41.47-37,15.72-56.94-45.06,3.34-78,14.11-7.8,29.34-10.27,40.35-5.45C94.9,15.86,96.39,28.37,93.29,42c-4.46,19.56-23.89,47.78-22,65.85,1.36,12.87,14,10.77,27.6-8.91,8.29-12,15.72-29.46,20.8-38.62,2.72-4.83,5.45-6.56,6.93-6.56C132.66,56.71,125.48,65.38,122.14,72.93Z"/><path class="cls-1" d="M135.87,112.67a13.24,13.24,0,0,1-5.07,1.24c-15,0-12.13-17.21-6.19-17.45C127.95,90.14,132,82.09,135.25,75c2.23-4.83,5.94-10,10.27-10.65a7.69,7.69,0,0,1,4.58.62c2.23,1.11,1.73,3.22-.49,2.1a4.91,4.91,0,0,0-4-.12c-5.69,2.72-4.46,11.26-2.6,15.72,2,4.7,4.7,9.16,4.46,14.61-.25,4.83-4,10.52-8.79,13.74l.87.12c4.21.62,8-2,11.14-5.69,2.85-3.47,6.68-11.14,9.28-16.22.62-1.24,2.48-.49,1.86.74C157.28,100.29,149.86,116.87,135.87,112.67ZM127.45,102c-4,4-2.35,9.78,2.48,9.78a5.54,5.54,0,0,0,2.48-.5C129.8,109.69,127.7,106.72,127.45,102ZM138.35,73.8c-3.34,6.68-8.67,17.45-11.64,22.9,0,0,2.72-.12,2.6,4a9.83,9.83,0,0,0,5.2,9.53c2.72-2.1,5.07-6.31,5.45-12.87C140.33,89.52,137.36,79.37,138.35,73.8Z"/><path class="cls-1" d="M181.42,119.6c-7.8,14-20.05,32.93-38.37,32.93-12.38,0-13.62-8.17-9.9-15.1,2.35-4.58,6.81-7.92,11.64-10.15,8.29-4,20.05-6.07,30.08-8.91,4.7-8.17,8.67-21.42,10.65-27.85-4.21,7.43-12.25,22.78-21.79,22.78-2.48,0-6.81-.87-7.8-5.57-1.11-5.32,2-9.9,4.21-14.36-.74,0-1.86-.37-1.11-2L161.24,87c2.48-4.7,5.08-9.78,6.93-13.62,1-2,2.48-2.6,4.83-2.6h7.55c-1.11,1-3.09,1.86-4.58,4.46-4.21,7.18-7.67,14.48-11.14,21.91-5.94,12.87-.74,17.83,7.3,8.54,6.93-8,14.73-22.53,19.43-32.31,1-2,2.48-2.6,4.83-2.6h6.68c-4.7,3.22-6.56,8.17-9.66,16.46s-6.31,18.57-9.9,28.35c5.45-1.61,13-5.32,17.83-12.25a120.48,120.48,0,0,0,7.8-13.62c1.11-2.23,3-1.36,1.73,1.11C202.47,108,199.25,113.16,181.42,119.6ZM146.88,130C134.26,135.44,129.55,150,140.2,150c10.89,0,24-15.35,29.71-23.15l2.72-4.58C164.59,124.43,153.94,126.9,146.88,130Z"/><path class="cls-1" d="M154.17,277c-6.44,2.6-18.32,2.72-30.82,2.85-8.29,12.5-21.66,21.54-34.29,26.37-32.31,12.38-54.22-8.79-23.27-21.54,16.84-6.93,35.53-7.92,53.48-7.92,6.44-15.84,12.5-31.32,17-47.91-4.7,10.15-13.62,25.87-25.13,33.67-12.63,8.54-30.7,6.56-28.22-12.25,1.73-12.38,11.26-28.84,18.07-40,11-17.95,18.2-41.22,8.67-47.29-19.93-12.75-60,12.38-71.55,39.74-12.75,30.58,5.94,42.71,22,36.89,17.21-6.19,31.44-41.22,9.9-37.38-4.21.87-2.48-1.24-.25-1.73,26.12-7.06,17.58,30.58-10.15,42-19.68,8.17-43.08-12-28-43,14.61-30.08,55.83-50.26,77.49-40.48,18.2,8.17,12.87,30.82,1.73,49.64C102.55,222.78,94,239.74,91.54,251c-3.22,14.85,8.17,15.84,17.83,8.91,15.35-10.89,28-41.84,31.81-54.71.62-3,10.27-10.52,6.07,7.92-4.33,19.06-12.87,47.29-22,63.5,12.13-.74,33.92,1.36,36.39-12.38-.25-1.86.5-3.09,1.49.12S161.72,273.78,154.17,277Zm-86.4,12.87c-24.26,13.86-.37,21,19.43,13.74,11-4.08,22.9-11.88,30.33-23.77C100.82,279.84,82.5,281.33,67.77,289.87Z"/><path class="cls-1" d="M174.22,259.79a10.07,10.07,0,0,1-7.92-3.22c-3.47,2.6-7.18,4.33-10.77,4.21-9.41-.25-10.77-11.51-6.07-22.53,4.83-11.39,15.1-21,23.52-20.8,9.41.12,10.77,11.51,6.07,22.53a47.84,47.84,0,0,1-10.4,14.61c1,1.86,2.85,3.09,5.82,3.09,7.92,0,14.36-15.35,17.33-21.29.62-1.24,2.72-.74,1.86,1.11C191.55,242.21,184.62,259.79,174.22,259.79Zm-16.22-22c-4.83,10.15-5.94,18.82-1.49,20.18,2.35.62,5.45-.62,8.42-3.09a11,11,0,0,1-2-6.07c.12-2.85,1.24-5.32,4.33-5.32a3.72,3.72,0,0,1,3.71,3.71,5.25,5.25,0,0,1-.25,1.36,49.62,49.62,0,0,0,3.84-6.68c4.83-10.15,5.45-18.94,1-20.3C170.26,220.05,162.58,228,158,237.76Z"/><path class="cls-1" d="M214.45,261.27c-4.33,0-10.27-3-6.56-14.48,1-3.22,3.34-7.43,6.81-13,3-4.83.74-8.17-8.79.74-4.21,3.84-10.27,10.77-17.21,24.51-1,1.73-2.1,1.86-4.7,1.86-1.86.12-3,0-4.21.74,5.94-11.76,11-23.52,17.08-34.66,3.22-5.94,4.83-8,8.79-7.8,1.61.12,3.47.87,5.2.49-3.71,2-10.52,14.36-15,23.27a91.72,91.72,0,0,1,10.27-11.14c5.94-5.32,18.69-13.12,22.9-11.64,0,0-13.24,23.27-14.85,31.94-1,5.08.37,6.19,2,6.19,6.44,0,14.36-16.22,17-21.42,1-2.23,3-1.36,1.73,1.11C231.16,245.55,224,261.27,214.45,261.27Z"/><path class="cls-1" d="M264.33,262.27c-5.45,15.6-21.79,37.63-39.74,37.63-7.8,0-11.64-3.09-11.64-9.53,0-6.07,4.83-10.77,10.77-14.24,12.13-7.18,23.4-9.53,32.93-13.37A60.1,60.1,0,0,0,259.5,249c.49-4.83.49-8.79.12-10.15-4,7.67-13.86,24.39-23.77,21.42-12.38-5.32-5-23.15,4.21-34,7.3-8.79,19.43-13,28.72-5.69,4.33,3.59,0,7.3-1.36,3.59-3.22-8.79-12.38-3.84-19.93,4.58-9,10.15-16,25.13-9.53,28,7.3,3.09,19.31-15.84,21.66-23.64,1.73-5.69,5.69-3.47,7.67-5a72.65,72.65,0,0,1-1.61,30.08,37.67,37.67,0,0,0,8.67-8c4.08-5.45,5.94-10.77,7.18-13.12s3.09-1.49,1.86,1C277.08,251,273.49,257.93,264.33,262.27Zm-13.25,5.57c-9,3.09-19.43,6.68-27.23,11.88-8,5.32-12.5,17.7-2.23,17.7,5.32,0,12.63-4.21,15.6-6.44a70.87,70.87,0,0,0,11.14-12.13,63.89,63.89,0,0,0,7.06-12.5Z"/><path class="cls-1" d="M315.33,184.28h.62c1.61.12,3.47.87,5.2.49-6.31,4.83-18.94,24.88-27.23,41.34a81.39,81.39,0,0,0-4.46,10.52c5.2-6.44,13-14.61,20.18-17.33,16-5.94,14.48,7.92,5.08,14.61a23.57,23.57,0,0,1-12.5,4.83c-4.7,11.51,3.22,27,14.61,14.85,3.09-3.34,6.56-9.78,10-17,1-2,2.48-.87,1.61,1.11-9.78,22.53-17.45,24.51-24.63,23.77-4.46-.5-8.29-4.09-9.53-10.52-1.49-8,3.09-14,5.82-14.24,2.72.25,6.93-1.36,9.78-3.71,7.8-6.31,2.35-15-11.88-2.85a66.47,66.47,0,0,0-10.15,11.26c-2.23,4.21-5.57,17.58-3.47,19.31h-7.8c-1.73,0-1.49-1.11-1-2.72,2.23-8.54,6.44-15.6,10.15-24.14-5.69,10.77-10.65,19.68-13.12,22-1,.87-1.73-.5-1-1.61,8.42-11.14,24.76-48.15,35.4-64C310,186,312.61,184.16,315.33,184.28Z"/><path class="cls-1" d="M348.13,267c-7.8,14-20.05,32.93-38.37,32.93-12.38,0-13.62-8.17-9.9-15.1,2.35-4.58,6.81-7.92,11.64-10.15,8.29-4,20.05-6.07,30.08-8.91,4.7-8.17,8.67-21.42,10.65-27.85-4.21,7.43-12.25,22.78-21.79,22.78-2.48,0-6.81-.87-7.8-5.57-1.11-5.32,2-9.9,4.21-14.36-.74,0-1.86-.37-1.11-2l2.23-4.33c2.48-4.7,5.07-9.78,6.93-13.62,1-2,2.48-2.6,4.83-2.6h7.55c-1.11,1-3.09,1.86-4.58,4.46-4.21,7.18-7.67,14.48-11.14,21.91-5.94,12.87-.74,17.83,7.3,8.54,6.93-8,14.73-22.53,19.43-32.31,1-2,2.48-2.6,4.83-2.6h6.68c-4.7,3.22-6.56,8.17-9.66,16.46s-6.31,18.57-9.9,28.35c5.45-1.61,13-5.32,17.83-12.25a120.48,120.48,0,0,0,7.8-13.62c1.11-2.23,3-1.36,1.73,1.11C369.17,255.33,366,260.53,348.13,267Zm-34.54,10.4c-12.63,5.45-17.33,20.05-6.68,20.05,10.89,0,24-15.35,29.71-23.15l2.72-4.58C331.29,271.8,320.65,274.27,313.59,277.37Z"/><path class="cls-1" d="M248,154.4c13.49,11.14-4.46,36.64-31.81,36.64-44.44,0-39.36-49.76,5-54.47a19.76,19.76,0,0,1-3.47-11.14c.37-17.58,22.28-27.23,37.63-27,6.81.12,14.85,2.6,14.85,10.89,0,4.7-3.34,9.16-7.55,9.16a5.76,5.76,0,0,1-5.82-5.94,5.56,5.56,0,0,1,5.94-5.57c1.49,0,3.71,1.11,4.09,2.23,1-5.57-3.84-7.3-8.29-7.43-6.56-.12-15.84,3-24.14,10.15-5.69,5.07-12.87,16.22-9,24.26,2.6,0,6.56-.49,10.27-.25,7.18.62,8.29,7.8-.37,7.8a18.15,18.15,0,0,1-12.5-5.45c-29.34,4.33-35.4,51.12-6.56,51.12,17.45,0,29.46-14.36,30-24.14.62-13.74-33.17-13.49-35.53.62-.62,3.84,1.86,8,8.17,11.39,1.36.74,1.49,3.34,0,2.6-21.66-11.64-15.23-29.46,9.9-29.46h21.91c5.82,0,29-6.19,22.41-16-.87-1.36.49-2.35,1.36-1C281.9,144.75,264.44,154.65,248,154.4Zm-21.66-16.46c1.86,2.35,4.83,3.71,8.91,3.71,6.07,0,4.7-3.22.25-3.59A76,76,0,0,0,226.32,137.94Z"/></g></svg>